<svg width="244" height="55" viewBox="0 0 244 55" fill="none" xmlns="http://www.w3.org/2000/svg">
<path fill-rule="evenodd" clip-rule="evenodd" d="M46.8517 0.222886C47.1127 0.365704 47.2745 0.374963 47.3525 0.251259C47.4157 0.150738 47.5195 0.123972 47.583 0.191753C47.6464 0.259534 47.6065 0.433518 47.494 0.578282C47.314 0.810118 47.2382 0.805347 46.8573 0.538825C46.4457 0.250535 46.4306 0.251219 46.5396 0.554552C46.6764 0.935399 48.2801 0.888352 32.9137 0.955248C18.9972 1.01595 20.1227 0.995063 20.2353 1.18991C20.2858 1.27716 20.2095 1.39659 20.0659 1.45535C19.6786 1.61427 19.5494 1.58013 19.8273 1.39236C20.2689 1.09381 19.8702 0.992043 18.3926 1.0262C17.5905 1.0446 16.7625 1.05398 16.5526 1.04673C16.3005 1.03823 16.2063 1.10851 16.2751 1.25398C16.3323 1.37485 16.275 1.33839 16.1475 1.17274C15.951 0.917193 15.6665 0.881234 14.2724 0.935919C13.3685 0.971491 12.4426 1.05537 12.215 1.12244C11.9873 1.18934 11.5774 1.27253 11.3042 1.30704L10.8074 1.36991L11.3042 1.23305C11.7432 1.11218 11.6852 1.08339 10.8074 0.984821C8.85331 0.765551 5.95451 0.845683 5.69188 1.12636C5.41601 1.4212 5.18915 1.47465 5.34299 1.20848C5.4079 1.0961 4.96628 1.03152 4.13435 1.03152H2.82354L2.72336 2.05545C2.66838 2.61858 2.66208 3.23838 2.70961 3.43269C2.78743 3.75036 2.72832 3.77901 2.12392 3.71742C1.63791 3.66787 1.45095 3.7153 1.44913 3.88873C1.44698 4.08234 1.41785 4.08004 1.2978 3.87741C1.18271 3.68292 1.02407 3.66452 0.596522 3.79565L0.0441017 3.96501V5.90502C0.0441017 7.64396 0.0740809 7.84254 0.333891 7.82042C0.712926 7.78821 0.708948 8.04532 0.328754 8.15169C0.111665 8.21221 0.0263846 8.42848 0.00618269 8.9686C-0.0184902 9.63225 0.0167807 9.70321 0.372468 9.70321C0.649996 9.70321 0.781813 9.58974 0.819071 9.3188C0.897395 8.75036 1.25935 8.72029 1.45359 9.26625C1.58043 9.62303 1.7063 9.71946 1.95418 9.65026C2.56107 9.48072 2.81276 9.99429 2.75017 11.2747L2.69353 12.4342L4.59782 12.4679C8.3019 12.5334 7.9093 12.4573 7.91194 13.1099C7.91691 14.3813 8.27176 14.8167 8.65477 14.0212C8.85679 13.6016 9.33652 13.6648 9.85929 14.1801C10.1805 14.4966 10.1987 14.5734 9.98348 14.7022C9.56851 14.9503 9.69467 15.166 10.3289 15.2933C10.7551 15.3787 10.9681 15.343 11.0714 15.1685C11.1592 15.0206 11.2173 15.0043 11.2189 15.1274C11.2219 15.372 13.1618 15.4133 13.3016 15.1717C13.3522 15.0841 13.3022 15.0124 13.1906 15.0124C13.079 15.0124 13.0325 14.9646 13.0871 14.9062C13.2913 14.6878 13.5635 15.0338 13.3767 15.2743C13.1616 15.5515 13.2219 16.9942 13.4564 17.1777C13.5612 17.2596 13.5496 17.3087 13.4249 17.3104C13.1633 17.314 13.1813 20.3204 13.4431 20.3243C13.5658 20.3262 13.5637 20.3682 13.4362 20.457C13.3128 20.5432 13.2635 21.2429 13.2901 22.5338C13.3122 23.6045 13.3483 24.5203 13.3704 24.569C13.3926 24.6176 13.3971 24.8366 13.3805 25.0557C13.3552 25.3893 13.433 25.4538 13.8589 25.4538C14.1914 25.4538 14.3676 25.3656 14.3676 25.1988C14.3676 24.8815 14.6412 24.687 14.8727 24.8399C15.1244 25.0061 14.3945 25.6308 13.9485 25.6308C13.4905 25.6308 13.137 26.0611 13.2762 26.449C13.3638 26.693 13.5352 26.7214 14.3297 26.6221C14.8515 26.5568 15.3032 26.4265 15.3335 26.3325C15.364 26.2386 15.6105 26.1617 15.8814 26.1617C16.1628 26.1617 16.331 26.0869 16.2734 25.9874C16.2105 25.8786 16.3777 25.8549 16.719 25.9244C17.4545 26.0741 17.5137 26.1617 16.8791 26.1617C16.3178 26.1617 16.1654 26.4337 16.6445 26.5808C17.1038 26.722 18.673 26.6406 18.673 26.4757C18.673 26.3936 18.817 26.4086 18.9932 26.5095C19.4231 26.7553 20.0517 26.7412 20.2957 26.4803C20.4502 26.3152 20.4944 26.3152 20.4944 26.4803C20.4944 26.5971 20.6622 26.6927 20.867 26.6927C21.2285 26.6927 21.2396 26.7454 21.2403 28.4624C21.2406 29.4358 21.196 30.2321 21.1414 30.2321C21.0866 30.2321 20.971 30.0624 20.8844 29.855C20.7317 29.4894 20.7177 29.4878 20.4234 29.8023C20.1292 30.1167 20.1298 30.1313 20.4406 30.2796C20.7844 30.4435 21.2545 31.4889 20.9541 31.4209C20.8607 31.3998 20.7501 31.4821 20.7082 31.6039C20.6597 31.7453 20.7264 31.7865 20.8932 31.7182C21.0492 31.6541 21.1947 31.7245 21.2553 31.8934C21.335 32.115 21.54 32.1604 22.209 32.1049C23.4812 31.999 23.8062 32.1231 23.8062 32.7145C23.8062 32.988 23.8528 33.3412 23.9096 33.4992C24.0041 33.7626 24.0389 33.7615 24.3236 33.4863C24.4945 33.321 24.6342 33.2644 24.6342 33.3603C24.6342 33.4562 24.4517 33.6392 24.2287 33.7668C23.8688 33.9726 23.8281 34.1006 23.867 34.9028L23.9111 35.8068L26.384 35.9025C27.744 35.9551 28.3538 36.0149 27.739 36.0353C27.1242 36.0556 26.6213 36.1321 26.6213 36.205C26.6213 36.2779 26.0064 36.346 25.2551 36.3563C24.5039 36.3666 23.591 36.4625 23.2267 36.5694L22.5643 36.7639L23.1576 36.7225C23.5494 36.6952 23.7511 36.758 23.7511 36.9076C23.7511 37.0322 23.6491 37.1341 23.5244 37.1341C23.3997 37.1341 23.1328 37.2445 22.9311 37.3797C22.7294 37.5148 22.2875 37.6771 21.9492 37.7404C21.2096 37.879 21.098 38.0377 21.2431 38.7437C21.3257 39.1458 21.4234 39.2565 21.6279 39.1794C21.7822 39.1213 21.7332 39.2176 21.5155 39.4002C21.2356 39.6347 21.1442 39.8652 21.1843 40.235C21.2345 40.6982 21.3045 40.7506 21.9323 40.7946C22.5347 40.8369 22.6342 40.792 22.6963 40.4488C22.766 40.0632 22.7682 40.0628 22.7902 40.4332C22.8116 40.7914 22.897 40.8123 24.3444 40.8144C26.9455 40.818 26.6663 40.6437 26.5979 42.2221L26.5385 43.5936L27.8787 43.6446L29.2192 43.6956L29.375 43.1149C29.4682 42.7673 29.6461 42.5231 29.818 42.5068C30.0263 42.4868 30.0361 42.5023 29.8536 42.5628C29.5143 42.6753 29.5352 42.9296 29.8917 43.0293C30.1098 43.0901 30.0892 43.1153 29.8089 43.1307C29.3515 43.1558 29.3199 43.4418 29.758 43.5904C30.2374 43.7531 34.9531 43.644 35.1758 43.4653C35.2894 43.3742 35.4119 43.3869 35.4753 43.4965C35.5343 43.5986 35.9076 43.6821 36.3045 43.6821C37.1162 43.6821 37.5502 43.8157 37.5502 44.0654C37.5502 44.1582 37.481 44.1883 37.3965 44.1324C37.3121 44.0766 37.1922 44.2014 37.1304 44.4095C37.061 44.6433 37.0998 44.8422 37.2321 44.9296C37.4047 45.0436 37.4056 45.123 37.2371 45.3402C36.9415 45.7208 37.0723 46.4086 37.4553 46.4866C37.6309 46.5224 38.5436 46.4956 39.4838 46.4272C40.9926 46.3173 41.1932 46.2643 41.1932 45.9762C41.1932 45.7966 41.2669 45.6011 41.3569 45.5416C41.4505 45.4797 41.4786 45.5502 41.4225 45.7067C41.3609 45.8782 41.4388 46.0192 41.6313 46.0858C41.8002 46.1442 42.0885 46.2677 42.272 46.3605C42.5859 46.519 46.4541 46.4435 47.2751 46.2628C47.4781 46.2182 47.6874 46.2562 47.7403 46.3475C47.7931 46.439 48.1672 46.5137 48.5717 46.5137C48.9763 46.5137 49.3071 46.5933 49.3071 46.6907C49.3071 46.9459 49.7621 46.9089 49.8522 46.6464C49.9128 46.4694 49.9719 46.4694 50.1474 46.6464C50.3291 46.8296 50.3255 46.8698 50.1267 46.88C49.9757 46.8878 50.0097 46.9506 50.2178 47.0492C50.44 47.1543 50.3119 47.171 49.8285 47.0999C49.1842 47.005 49.1143 47.029 49.1676 47.3288C49.2067 47.5492 49.3943 47.6844 49.7146 47.7235C50.3042 47.7953 50.6035 48.1852 50.5025 48.7498C50.4119 49.2565 50.6732 49.2893 51.6098 48.8888C51.9693 48.7351 52.4366 48.6446 52.6482 48.6878C52.9466 48.7485 52.9145 48.7715 52.5045 48.7903C51.9686 48.8147 51.6603 49.0612 51.9371 49.244C52.1582 49.3899 55.5995 49.1394 55.5995 48.9773C55.5995 48.9019 55.4692 48.8039 55.3097 48.7593C55.0464 48.6859 55.0479 48.6765 55.3253 48.6579C55.5015 48.646 55.667 48.7871 55.7171 48.9913C55.825 49.4322 56.3678 49.4541 56.8154 49.0356C56.9977 48.8652 57.0986 48.8145 57.0396 48.923C56.9669 49.0568 57.3322 49.1589 58.1742 49.2405C59.4377 49.363 59.8283 49.2885 59.6392 48.9614C59.5678 48.8381 59.6339 48.8351 59.8434 48.9522C60.0138 49.0474 61.105 49.1237 62.2684 49.1216C63.4319 49.1196 64.4317 49.169 64.4901 49.2316C64.5486 49.2941 65.4597 49.3506 66.5147 49.3573C68.018 49.3667 68.3522 49.4108 68.0601 49.5612C67.8551 49.6668 67.6876 49.8111 67.6876 49.8815C67.6876 50.1047 68.0864 50.371 68.5155 50.4344C68.8872 50.4894 68.9295 50.5768 68.9295 51.292V52.0884L69.5918 52.0648C70.5627 52.0303 71.6617 51.7985 71.6617 51.6282C71.6617 51.4404 72.203 51.6472 72.3565 51.8935C72.42 51.9953 72.9016 52.0807 73.4267 52.0834C74.3813 52.0884 74.3817 52.0882 74.4262 51.5247C74.4653 51.0315 74.4143 50.9518 74.0185 50.8876L73.566 50.8142L74.0185 50.7876C74.4542 50.7621 74.4691 50.7288 74.4211 49.8872C74.3762 49.1012 74.4004 49.0299 74.6615 49.1793C74.8212 49.2706 75.3585 49.3453 75.8556 49.3453C76.7978 49.3453 77.0581 49.5613 76.9757 50.2744C76.956 50.4448 77.019 50.5841 77.1157 50.5841C77.2126 50.5841 77.2917 50.4921 77.2917 50.3797C77.2917 50.2526 77.4015 50.28 77.5815 50.452C77.741 50.6042 78.0576 50.7649 78.2853 50.8094C78.5984 50.8702 78.6186 50.8961 78.3681 50.9154C78.0346 50.9411 77.5593 51.7466 77.7168 52.019C77.7633 52.0997 79.9796 52.1482 82.6418 52.1269C87.382 52.0892 87.4823 52.0956 87.4884 52.4423C87.531 54.86 87.5245 54.8315 88.0413 54.8315C88.3069 54.8315 88.549 54.7616 88.5795 54.6761C88.6098 54.5906 88.8582 54.4834 89.1314 54.4381C89.4047 54.3926 89.5351 54.3887 89.4212 54.4294C89.3075 54.4701 89.2142 54.5686 89.2142 54.6483C89.2142 54.8348 90.0481 55.0615 90.1859 54.9125C90.2909 54.7991 90.3035 54.7005 90.3488 53.6369C90.3719 53.0971 90.4114 53.061 90.9943 53.0506C91.5835 53.0398 91.5941 53.0297 91.2013 52.8534C90.8941 52.7154 90.8514 52.643 91.0357 52.5726C91.1723 52.5204 91.3291 52.4043 91.3841 52.3144C91.4391 52.2247 92.2215 52.1478 93.1228 52.1436C94.0241 52.1393 94.8547 52.0558 94.9685 51.9577C95.1124 51.8339 95.1755 51.8463 95.1755 51.9979C95.1755 52.1669 96.0849 52.2024 99.191 52.1544C101.4 52.1204 105.99 52.1114 109.392 52.1347C114.492 52.1694 115.563 52.2186 115.493 52.4147C115.431 52.5867 115.522 52.629 115.822 52.568C116.133 52.5044 116.181 52.4432 116.014 52.3224C115.856 52.2084 115.907 52.1765 116.19 52.2135C116.771 52.2891 116.808 52.8839 116.232 52.8874C115.627 52.8911 115.251 53.149 115.625 53.3026C116.039 53.4721 116.339 53.4143 115.957 53.2387C115.664 53.1039 115.678 53.0853 116.081 53.0741C116.43 53.0646 116.537 53.1445 116.537 53.4157C116.537 53.6926 116.653 53.7742 117.075 53.7905L117.613 53.8116L117.116 53.925C116.593 54.0444 116.407 54.5835 116.903 54.5426C117.058 54.5297 117.17 54.6093 117.151 54.7196C117.129 54.8445 117.396 54.9199 117.861 54.9199C118.413 54.9199 118.606 54.8511 118.606 54.6545C118.606 54.472 118.437 54.3897 118.063 54.3911C117.623 54.3927 117.567 54.3552 117.77 54.1967C117.908 54.0885 117.973 53.9482 117.914 53.8848C117.855 53.8214 117.884 53.7696 117.979 53.7696C118.074 53.7696 118.245 53.8891 118.358 54.0351C118.471 54.1811 118.665 54.3005 118.787 54.3005C118.91 54.3005 118.97 54.4115 118.921 54.5481C118.872 54.6842 118.926 54.8576 119.041 54.9334C119.155 55.0091 119.275 54.9886 119.306 54.8878C119.343 54.7695 119.611 54.7547 120.061 54.846C120.445 54.924 122.129 54.9005 123.804 54.794C126.091 54.6485 126.925 54.6511 127.155 54.8044C127.493 55.03 128.008 55.0617 128.597 54.893C128.89 54.8091 128.93 54.7442 128.763 54.6246C128.469 54.4149 129.414 54.6194 129.9 54.8707C130.152 55.0006 131.046 55.0102 132.773 54.9012C134.217 54.8101 135.318 54.809 135.37 54.8989C135.502 55.1269 138.349 54.9146 138.642 54.655C138.814 54.5026 138.891 54.4957 138.891 54.6329C138.891 54.7421 138.97 54.8315 139.067 54.8315C139.163 54.8315 139.201 54.7603 139.15 54.6732C139.1 54.5863 139.239 54.5265 139.458 54.5405C139.677 54.5545 139.845 54.6308 139.829 54.7099C139.814 54.7892 141.18 54.8688 142.865 54.8868C144.833 54.9081 145.919 54.8566 145.901 54.743C145.867 54.5324 148.163 54.6126 148.413 54.8308C148.504 54.9102 149.156 54.9773 149.861 54.9798C150.954 54.9835 151.145 54.9399 151.147 54.6865C151.149 54.4577 151.182 54.4432 151.289 54.6235C151.396 54.8042 152.087 54.855 154.308 54.8451C155.893 54.838 157.524 54.8315 157.934 54.8306C158.344 54.8299 160.169 54.8693 161.991 54.9185C165.508 55.0136 166.614 54.936 166.202 54.6237C166.012 54.48 166.023 54.4651 166.255 54.5494C166.414 54.6072 166.656 54.7028 166.793 54.7619C166.941 54.8258 167.042 54.772 167.044 54.6292C167.046 54.4646 167.085 54.4515 167.168 54.5874C167.246 54.7147 168.209 54.8099 169.856 54.8529L172.423 54.9199V53.5926V52.2653L175.031 52.2167C176.518 52.1889 177.639 52.237 177.639 52.3287C177.639 52.4172 177.794 52.5328 177.983 52.5855C178.172 52.6382 178.367 52.8467 178.416 53.0486C178.528 53.5073 178.522 53.508 179.067 52.9683L179.519 52.5211L178.97 52.5701C178.667 52.5971 178.392 52.5358 178.358 52.4335C178.276 52.187 179.507 52.1816 179.661 52.428C179.741 52.5577 179.842 52.548 179.984 52.3967C180.129 52.2416 180.903 52.1768 182.612 52.1768C183.945 52.1768 185.077 52.1321 185.129 52.0774C185.259 51.9383 188.554 51.9259 188.683 52.0641C188.934 52.3313 191.107 52.1477 192.775 51.718C193.136 51.6251 193.309 51.6716 193.469 51.9046C193.662 52.1874 193.909 52.2038 196.248 52.0866C198.339 51.9818 198.833 51.9071 198.913 51.6834C198.967 51.5323 198.916 51.3438 198.799 51.2646C198.63 51.1499 198.632 51.12 198.813 51.1177C198.966 51.1159 199.013 50.9683 198.957 50.6559C198.879 50.219 198.905 50.2 199.506 50.2613C199.961 50.3078 200.093 50.2699 199.981 50.1257C199.896 50.0156 199.64 49.9636 199.413 50.01C199.078 50.0785 199 50.0238 199 49.7199C199 49.4801 199.105 49.3463 199.29 49.3479C199.538 49.3502 199.544 49.3757 199.331 49.5222C199.117 49.6705 199.12 49.6941 199.359 49.6966C199.511 49.698 199.661 49.6152 199.693 49.5125C199.725 49.4097 200.141 49.3225 200.618 49.3186C201.094 49.3145 201.524 49.2434 201.572 49.1604C201.62 49.0774 201.899 49.0522 202.193 49.1046C203.412 49.3219 206.765 49.3423 206.886 49.1329C206.953 49.0179 206.927 48.8952 206.83 48.8605C206.704 48.8158 206.706 48.6437 206.837 48.2749C206.97 47.8971 207.137 47.7467 207.44 47.7317C207.834 47.712 207.829 47.7024 207.363 47.5755C207.089 47.5012 206.956 47.4309 207.065 47.4194C207.175 47.4079 207.455 47.1949 207.688 46.9461C208.102 46.5042 208.169 46.4928 210.527 46.4727C212.366 46.4567 212.962 46.3958 213.027 46.2173C213.073 46.0883 213.182 45.9828 213.268 45.9828C213.355 45.9828 213.381 46.0601 213.327 46.1546C213.173 46.4202 213.831 46.505 215.725 46.4635L217.464 46.4252L217.463 44.947L217.463 43.4689L219.699 43.5312C221.602 43.5843 221.934 43.5542 221.934 43.3282C221.934 43.1425 221.785 43.0744 221.438 43.1015C221.1 43.1277 221.015 43.0909 221.172 42.9867C221.357 42.864 221.34 42.8176 221.089 42.7562C220.917 42.7139 221.148 42.6203 221.603 42.5481C222.831 42.3534 222.845 42.3426 222.845 41.577C222.845 41.0587 222.77 40.8555 222.555 40.7955C222.279 40.7185 222.279 40.7136 222.555 40.6941C222.728 40.6819 222.845 40.5309 222.845 40.3196C222.845 40.1016 222.734 39.9646 222.555 39.963C222.326 39.9609 222.313 39.928 222.494 39.8057C222.619 39.7207 222.671 39.5627 222.608 39.4546C222.546 39.3463 222.573 39.2578 222.67 39.2578C222.766 39.2578 222.845 38.9791 222.845 38.6384C222.845 38.037 222.864 38.019 223.487 38.019C224.6 38.019 225.072 37.8441 225.29 37.3505C225.559 36.7412 225.55 35.9801 225.271 35.6817C225.083 35.4812 225.084 35.4062 225.276 35.2143C225.437 35.054 225.493 34.6227 225.465 33.7676C225.442 33.0975 225.464 32.5061 225.514 32.453C225.564 32.4001 226.784 32.3117 228.227 32.2569C230.115 32.185 230.945 32.0858 231.19 31.9024C231.377 31.7624 231.881 31.6479 232.311 31.6479C232.741 31.6479 233.138 31.5683 233.195 31.471C233.357 31.1906 233.545 31.263 233.715 31.6711C233.868 32.0368 233.882 32.0383 234.176 31.7238C234.471 31.4093 234.47 31.3945 234.146 31.2402C233.752 31.0526 233.413 30.344 233.543 29.9817C233.611 29.7923 233.536 29.7493 233.249 29.8137C232.868 29.8992 232.868 29.8971 233.277 29.6301C233.505 29.4814 233.592 29.357 233.47 29.3535C233.305 29.3489 233.263 29.0896 233.305 28.3382L233.36 27.3291L232.698 27.113C232.103 26.919 232.084 26.8955 232.505 26.8833C233.294 26.8604 232.927 26.4272 232.118 26.4272C231.315 26.4272 231.13 26.6716 231.573 27.1489C231.859 27.457 231.858 27.4646 231.566 27.3464C231.4 27.2788 231.232 27.2236 231.194 27.2236C231.156 27.2236 231.125 27.016 231.125 26.7622C231.125 26.4107 231.061 26.3269 230.858 26.4102C230.644 26.4982 230.611 26.4352 230.692 26.0899C230.755 25.8234 230.715 25.6263 230.586 25.571C230.421 25.4999 230.421 25.479 230.587 25.4678C230.7 25.4602 230.793 25.2946 230.793 25.0999C230.793 24.9053 230.7 24.7447 230.587 24.7433C230.426 24.7412 230.425 24.7097 230.58 24.6042C230.693 24.5277 230.739 24.2966 230.686 24.0777C230.608 23.7592 230.51 23.708 230.154 23.7986C229.914 23.8599 229.605 23.9984 229.469 24.1067C229.257 24.2743 229.252 24.2605 229.432 24.0145C229.607 23.7749 229.597 23.7067 229.377 23.6163C228.922 23.43 228.668 23.4947 228.589 23.8168C228.521 24.0954 228.512 24.0934 228.494 23.7968C228.476 23.4859 228.346 23.4742 226.198 23.59C224.946 23.6574 223.704 23.7039 223.437 23.6933C223.171 23.6825 222.886 23.7756 222.804 23.9002C222.693 24.0685 222.634 24.0731 222.574 23.9181C222.53 23.8023 222.26 23.7335 221.966 23.7632C221.675 23.7924 221.568 23.7811 221.727 23.7381C221.887 23.6949 222.017 23.5853 222.017 23.4947C222.017 23.4043 222.174 23.3302 222.366 23.3302C222.608 23.3302 222.686 23.2489 222.62 23.0647C222.567 22.9187 222.597 22.7992 222.686 22.7992C222.776 22.7992 222.826 22.4067 222.8 21.9144L222.752 21.0295H223.546C223.983 21.0295 224.49 20.93 224.674 20.8083C224.938 20.6336 225.035 20.6329 225.135 20.8048C225.243 20.9906 227.045 21.0233 228.765 20.8709C229.127 20.8389 228.988 20.5413 228.558 20.4259C228.043 20.2877 228.014 19.9686 228.517 19.9652C229.145 19.9612 229.634 19.7615 229.634 19.5089C229.634 19.3348 229.775 19.2987 230.146 19.378C230.61 19.4771 230.655 19.4474 230.625 19.0639C230.548 18.0863 230.528 18.099 232.023 18.1592L233.417 18.2155L233.389 16.6581L233.36 15.1009H227.978H222.597L222.592 15.4954C222.589 15.7124 222.485 15.9911 222.361 16.1148C222.206 16.2682 222.17 16.2723 222.246 16.1275C222.321 15.9853 222.151 15.8782 221.732 15.8033C220.745 15.6267 220.731 15.6014 221.52 15.4292C222.369 15.2441 222.551 14.782 221.81 14.691C221.56 14.6602 221.355 14.5658 221.355 14.481C221.355 14.3962 221.113 14.2937 220.817 14.2532C220.521 14.2127 220.705 14.1923 221.226 14.2079C221.748 14.2235 222.226 14.2914 222.289 14.3588C222.546 14.6332 222.703 14.4493 222.677 13.9063C222.625 12.8264 222.809 12.5376 223.568 12.5091C223.945 12.495 224.489 12.5003 224.777 12.5212C225.162 12.5489 225.321 12.4743 225.378 12.2371C225.431 12.0198 225.463 12.0016 225.475 12.1809C225.492 12.4068 225.957 12.4458 228.599 12.4422C230.739 12.4394 231.817 12.3708 232.066 12.221C232.265 12.1016 232.526 12.0095 232.645 12.0163C232.765 12.0232 232.714 12.0971 232.532 12.1809C232.177 12.344 232.163 12.3382 233.137 12.4286C233.261 12.4401 233.346 11.989 233.38 11.1399C233.408 10.4214 233.461 9.80197 233.497 9.76339C233.533 9.72499 234.174 9.68001 234.92 9.66355C235.667 9.64727 236.318 9.56587 236.366 9.48287C236.414 9.40005 236.539 9.40394 236.645 9.49171C236.751 9.57949 237.842 9.64306 239.07 9.63298C241.084 9.61652 241.308 9.58339 241.361 9.29475C241.393 9.11866 241.365 8.8399 241.298 8.67532C241.231 8.51055 241.193 8.19682 241.213 7.97773C241.259 7.47813 240.673 7.42859 240.165 7.88925C239.894 8.13507 239.867 8.13964 240.031 7.9117C240.145 7.75366 240.194 7.5029 240.141 7.35442C240.088 7.20594 240.123 7.03181 240.221 6.96757C240.318 6.90332 240.398 6.97497 240.398 7.12664C240.398 7.31529 240.555 7.40256 240.894 7.40256C241.226 7.40256 241.391 7.31405 241.391 7.13708C241.391 6.86649 241.561 6.80313 242.118 6.86648C242.29 6.88613 242.494 6.79571 242.571 6.66563C242.675 6.48901 242.712 6.48513 242.713 6.65043C242.717 6.93872 243.381 6.92526 243.745 6.62954C243.971 6.44619 244.022 6.15913 243.992 5.23232C243.971 4.5908 243.898 4.00555 243.829 3.93175C243.76 3.85796 241.954 3.77813 239.815 3.7546C236.271 3.71531 235.927 3.73778 235.924 4.00855C235.923 4.19649 235.877 4.23313 235.8 4.10819C235.634 3.83901 233.946 3.63552 233.17 3.79125C232.647 3.89602 232.595 3.94165 232.866 4.05509C233.093 4.14959 232.935 4.19596 232.358 4.20463C231.895 4.21154 231.43 4.11846 231.315 3.99582C231.164 3.83389 230.004 3.75975 226.982 3.71922L222.856 3.66384L222.768 3.09979C222.72 2.78955 222.692 2.41631 222.706 2.2703C222.794 1.36172 222.766 1.34526 221.27 1.41145C220.265 1.45605 219.882 1.41625 219.933 1.27255C220.024 1.02124 209.573 0.837522 209.411 1.08759C209.354 1.17607 209.277 1.15151 209.24 1.03276C209.189 0.869238 209.019 0.862164 208.54 1.00339C208.11 1.13046 207.625 1.1338 207.017 1.01363C205.947 0.802327 204.039 0.871352 204.079 1.12C204.096 1.22778 203.688 1.27363 203.036 1.23717C202.446 1.20443 201.837 1.23306 201.683 1.3012C201.141 1.53905 199.116 1.37977 198.913 1.08334C198.753 0.849739 198.432 0.823188 196.834 0.912029C195.794 0.969722 194.92 1.02017 194.892 1.02424C194.864 1.02831 194.887 1.11114 194.943 1.20848C195.089 1.46067 194.801 1.42791 194.554 1.16422C194.345 0.940525 192.194 0.873819 189.313 1.00195C188.585 1.03433 187.45 1.00317 186.792 0.932558C185.764 0.822657 185.58 0.845496 185.491 1.09503C185.4 1.34686 185.049 1.38544 182.847 1.38544C181.333 1.38544 180.267 1.31396 180.206 1.20848C180.145 1.10318 179.095 1.03152 177.614 1.03152C175.264 1.03152 175.12 1.05131 175.038 1.38544C174.96 1.70187 174.812 1.73939 173.636 1.73939C172.913 1.73939 172.362 1.66881 172.411 1.58244C172.634 1.19823 172.001 1.00388 170.858 1.10511C170.216 1.16192 169.163 1.25502 168.519 1.312C167.525 1.39978 167.315 1.36879 167.136 1.10775C166.948 0.832384 166.708 0.812072 164.872 0.91507C163.143 1.01223 156.159 1.03044 147.75 0.95965C146.449 0.948854 145.774 1.00692 145.793 1.12832C145.814 1.25451 145.364 1.24423 144.386 1.09575C142.647 0.832059 140.602 0.792752 140.471 1.02052C140.414 1.11909 139.351 1.14671 137.853 1.08867C134.227 0.947795 133.007 0.93791 130.032 1.02516L127.383 1.10267L129.37 1.20848L131.357 1.31429L129.121 1.34722C127.52 1.37076 126.956 1.32724 127.134 1.19415C127.32 1.05541 127.278 1.04461 126.969 1.15185C126.496 1.31591 125.21 1.28155 124.826 1.09467C124.418 0.895928 49.9209 0.882859 49.6796 1.08142C49.5424 1.19451 49.4727 1.18498 49.4727 1.05313C49.4727 0.930311 49.1241 0.854524 48.5588 0.854524C47.6727 0.854524 47.648 0.841436 47.7462 0.422894C47.8418 0.016209 47.808 -0.00804732 47.1569 0.00150925C46.5149 0.0110658 46.4934 0.0266228 46.8517 0.222886Z" fill="#FF9155"/>
</svg>
