<svg width="610" height="479" viewBox="0 0 610 479" fill="none" xmlns="http://www.w3.org/2000/svg">
<g filter="url(#filter0_d_564_12435)">
<rect x="83" y="24.1257" width="502.707" height="372.749" rx="11.725" fill="#231526"/>
<path d="M101.062 48.3086C100.655 48.3086 100.286 48.2573 99.9543 48.1547C99.6226 48.0521 99.3302 47.9255 99.0771 47.7751C98.8275 47.6212 98.6171 47.4673 98.4462 47.3134C98.2752 47.1595 98.1452 47.033 98.0563 46.9338L98.7642 45.8463C98.86 45.9455 98.9796 46.0635 99.1233 46.2003C99.2703 46.3371 99.4413 46.4721 99.6362 46.6055C99.8312 46.7355 100.05 46.8449 100.293 46.9338C100.536 47.0193 100.804 47.062 101.098 47.062C101.375 47.062 101.623 47.0159 101.842 46.9235C102.061 46.8312 102.235 46.6944 102.365 46.5132C102.495 46.3285 102.56 46.1011 102.56 45.8309C102.56 45.595 102.511 45.3932 102.411 45.2256C102.316 45.0581 102.177 44.9127 101.996 44.7896C101.815 44.6631 101.599 44.5434 101.35 44.4305C101.1 44.3143 100.821 44.1946 100.513 44.0715C100.295 43.9791 100.077 43.8714 99.8619 43.7483C99.6499 43.6252 99.4567 43.4781 99.2823 43.3071C99.1113 43.1361 98.9745 42.9395 98.8719 42.7172C98.7693 42.4915 98.718 42.2316 98.718 41.9375C98.718 41.6195 98.7796 41.3168 98.9027 41.0296C99.0292 40.7389 99.2071 40.4807 99.4362 40.255C99.6653 40.0293 99.9372 39.8514 100.252 39.7215C100.57 39.5915 100.924 39.5266 101.314 39.5266C101.632 39.5266 101.941 39.5727 102.242 39.6651C102.543 39.7574 102.817 39.8771 103.063 40.0241C103.313 40.1712 103.516 40.3285 103.673 40.4961L103.089 41.5169C102.959 41.3835 102.803 41.2587 102.622 41.1424C102.444 41.0227 102.246 40.927 102.027 40.8552C101.808 40.7833 101.579 40.7474 101.339 40.7474C101.059 40.7474 100.821 40.8021 100.626 40.9116C100.431 41.021 100.281 41.1646 100.175 41.3425C100.072 41.5169 100.021 41.7067 100.021 41.9119C100.021 42.0897 100.057 42.2419 100.129 42.3684C100.204 42.4915 100.307 42.5975 100.436 42.6864C100.566 42.7754 100.715 42.8574 100.883 42.9327C101.054 43.0045 101.233 43.0763 101.421 43.1481C101.794 43.2986 102.138 43.4525 102.452 43.6098C102.77 43.7637 103.046 43.9398 103.278 44.1381C103.511 44.3331 103.69 44.5656 103.817 44.8358C103.947 45.1025 104.012 45.424 104.012 45.8002C104.012 46.3268 103.885 46.7782 103.632 47.1544C103.383 47.5306 103.035 47.8178 102.591 48.0162C102.15 48.2111 101.64 48.3086 101.062 48.3086ZM107.178 48.3086C106.703 48.3086 106.332 48.1547 106.065 47.8469C105.802 47.5391 105.67 47.1065 105.67 46.5491V43.8611H105.029V42.8916H105.67V40.927H106.947V42.8916H108.158V43.8611H106.947V46.4619C106.947 46.691 106.993 46.8671 107.086 46.9902C107.178 47.1099 107.31 47.1698 107.481 47.1698C107.659 47.1698 107.821 47.1151 107.968 47.0056L108.291 48.0264C108.137 48.1153 107.961 48.1837 107.763 48.2316C107.564 48.2829 107.37 48.3086 107.178 48.3086ZM111.843 48.3086C111.357 48.3086 110.916 48.1889 110.52 47.9495C110.126 47.7067 109.813 47.375 109.581 46.9543C109.352 46.5337 109.237 46.0532 109.237 45.5129C109.237 44.9794 109.348 44.5041 109.571 44.0868C109.796 43.6662 110.106 43.3345 110.499 43.0917C110.892 42.8489 111.34 42.7275 111.843 42.7275C112.253 42.7275 112.631 42.813 112.977 42.984C113.322 43.155 113.596 43.3926 113.797 43.697V42.8916H115.075V48.1444H113.797V47.3031C113.565 47.6212 113.279 47.8691 112.941 48.0469C112.606 48.2214 112.24 48.3086 111.843 48.3086ZM112.207 47.2159C112.525 47.2159 112.806 47.1441 113.048 47.0005C113.291 46.8534 113.483 46.6517 113.623 46.3952C113.763 46.1387 113.833 45.8463 113.833 45.518C113.833 45.1863 113.763 44.8939 113.623 44.6408C113.483 44.3844 113.291 44.1843 113.048 44.0407C112.806 43.8936 112.525 43.8201 112.207 43.8201C111.893 43.8201 111.612 43.8936 111.366 44.0407C111.12 44.1843 110.927 44.3844 110.786 44.6408C110.646 44.8973 110.576 45.1897 110.576 45.518C110.576 45.8463 110.646 46.1387 110.786 46.3952C110.927 46.6517 111.12 46.8534 111.366 47.0005C111.612 47.1441 111.893 47.2159 112.207 47.2159ZM118.515 48.3086C118.039 48.3086 117.668 48.1547 117.401 47.8469C117.138 47.5391 117.006 47.1065 117.006 46.5491V43.8611H116.365V42.8916H117.006V40.927H118.284V42.8916H119.494V43.8611H118.284V46.4619C118.284 46.691 118.33 46.8671 118.422 46.9902C118.515 47.1099 118.646 47.1698 118.817 47.1698C118.995 47.1698 119.158 47.1151 119.305 47.0056L119.628 48.0264C119.474 48.1153 119.298 48.1837 119.099 48.2316C118.901 48.2829 118.706 48.3086 118.515 48.3086ZM120.984 48.1444V42.8916H122.261V48.1444H120.984ZM121.625 41.8144C121.485 41.8144 121.355 41.7802 121.235 41.7118C121.119 41.64 121.025 41.5459 120.953 41.4297C120.884 41.31 120.85 41.1783 120.85 41.0347C120.85 40.8945 120.884 40.7662 120.953 40.65C121.025 40.5337 121.119 40.4414 121.235 40.373C121.355 40.3011 121.485 40.2652 121.625 40.2652C121.768 40.2652 121.897 40.3011 122.01 40.373C122.126 40.4414 122.218 40.5337 122.287 40.65C122.358 40.7662 122.394 40.8945 122.394 41.0347C122.394 41.1783 122.358 41.31 122.287 41.4297C122.218 41.5459 122.126 41.64 122.01 41.7118C121.897 41.7802 121.768 41.8144 121.625 41.8144ZM125.589 48.3086C125.148 48.3086 124.754 48.2265 124.409 48.0623C124.067 47.8948 123.788 47.6554 123.573 47.3442L124.137 46.5132C124.339 46.7799 124.563 46.9868 124.809 47.1339C125.059 47.2809 125.317 47.3544 125.584 47.3544C125.748 47.3544 125.893 47.3254 126.02 47.2672C126.146 47.2057 126.247 47.1185 126.322 47.0056C126.398 46.8894 126.435 46.7526 126.435 46.5953C126.435 46.4311 126.392 46.3029 126.307 46.2105C126.221 46.1182 126.093 46.0344 125.922 45.9592C125.751 45.8839 125.536 45.795 125.276 45.6924C125.057 45.6001 124.848 45.4975 124.65 45.3846C124.452 45.2718 124.288 45.1299 124.158 44.9589C124.031 44.7845 123.968 44.5639 123.968 44.2972C123.968 43.9928 124.052 43.7226 124.219 43.4867C124.39 43.2507 124.623 43.066 124.917 42.9327C125.214 42.7993 125.553 42.7326 125.933 42.7326C126.206 42.7326 126.481 42.7822 126.758 42.8814C127.035 42.9771 127.312 43.1173 127.589 43.302L127.128 44.1074C126.728 43.7756 126.333 43.6098 125.943 43.6098C125.714 43.6098 125.529 43.6645 125.389 43.7739C125.252 43.8834 125.184 44.0236 125.184 44.1946C125.184 44.3348 125.243 44.4545 125.363 44.5536C125.483 44.6528 125.632 44.74 125.809 44.8153C125.987 44.8905 126.165 44.9623 126.343 45.0307C126.623 45.1333 126.87 45.2427 127.082 45.359C127.294 45.4753 127.459 45.6257 127.579 45.8104C127.699 45.9951 127.759 46.2413 127.759 46.5491C127.759 46.9184 127.67 47.2347 127.492 47.4981C127.318 47.7614 127.068 47.9632 126.743 48.1034C126.418 48.2402 126.033 48.3086 125.589 48.3086ZM130.771 48.3086C130.295 48.3086 129.924 48.1547 129.657 47.8469C129.394 47.5391 129.262 47.1065 129.262 46.5491V43.8611H128.621V42.8916H129.262V40.927H130.54V42.8916H131.75V43.8611H130.54V46.4619C130.54 46.691 130.586 46.8671 130.678 46.9902C130.771 47.1099 130.902 47.1698 131.073 47.1698C131.251 47.1698 131.413 47.1151 131.56 47.0056L131.884 48.0264C131.73 48.1153 131.554 48.1837 131.355 48.2316C131.157 48.2829 130.962 48.3086 130.771 48.3086ZM133.239 48.1444V42.8916H134.517V48.1444H133.239ZM133.881 41.8144C133.74 41.8144 133.611 41.7802 133.491 41.7118C133.375 41.64 133.281 41.5459 133.209 41.4297C133.14 41.31 133.106 41.1783 133.106 41.0347C133.106 40.8945 133.14 40.7662 133.209 40.65C133.281 40.5337 133.375 40.4414 133.491 40.373C133.611 40.3011 133.74 40.2652 133.881 40.2652C134.024 40.2652 134.153 40.3011 134.265 40.373C134.382 40.4414 134.474 40.5337 134.542 40.65C134.614 40.7662 134.65 40.8945 134.65 41.0347C134.65 41.1783 134.614 41.31 134.542 41.4297C134.474 41.5459 134.382 41.64 134.265 41.7118C134.153 41.7802 134.024 41.8144 133.881 41.8144ZM138.85 48.3086C138.453 48.3086 138.079 48.2385 137.727 48.0982C137.378 47.9546 137.07 47.7563 136.803 47.5032C136.537 47.2501 136.326 46.9543 136.172 46.6158C136.022 46.2772 135.947 45.9113 135.947 45.518C135.947 45.1384 136.019 44.7811 136.162 44.4459C136.309 44.1074 136.513 43.8098 136.773 43.5534C137.036 43.2969 137.344 43.0951 137.696 42.9481C138.052 42.801 138.435 42.7275 138.845 42.7275C139.187 42.7275 139.514 42.7771 139.825 42.8762C140.139 42.9754 140.399 43.1054 140.604 43.2661L140.148 44.1279C139.847 43.8988 139.476 43.7842 139.035 43.7842C138.672 43.7842 138.359 43.8646 138.096 44.0253C137.833 44.1826 137.631 44.3946 137.491 44.6614C137.351 44.9247 137.28 45.2102 137.28 45.518C137.28 45.8429 137.354 46.137 137.501 46.4003C137.648 46.6602 137.855 46.8671 138.122 47.021C138.388 47.1749 138.696 47.2518 139.045 47.2518C139.261 47.2518 139.462 47.2211 139.65 47.1595C139.842 47.098 140.006 47.0142 140.143 46.9082L140.604 47.7699C140.396 47.9273 140.138 48.0555 139.83 48.1547C139.522 48.2573 139.196 48.3086 138.85 48.3086Z" fill="white"/>
<path d="M567.948 49.5056C568.002 49.56 568.046 49.6247 568.075 49.6959C568.105 49.767 568.12 49.8433 568.12 49.9203C568.12 49.9974 568.105 50.0736 568.075 50.1448C568.046 50.216 568.002 50.2806 567.948 50.3351C567.894 50.3895 567.829 50.4327 567.758 50.4622C567.687 50.4917 567.61 50.5069 567.533 50.5069C567.456 50.5069 567.38 50.4917 567.309 50.4622C567.238 50.4327 567.173 50.3895 567.119 50.3351L562.257 45.4732L557.396 50.3351C557.286 50.4451 557.137 50.5069 556.981 50.5069C556.826 50.5069 556.677 50.4451 556.567 50.3351C556.457 50.2251 556.395 50.0759 556.395 49.9203C556.395 49.7648 556.457 49.6156 556.567 49.5056L561.429 44.6444L556.567 39.7832C556.457 39.6732 556.395 39.524 556.395 39.3685C556.395 39.2129 556.457 39.0637 556.567 38.9537C556.677 38.8437 556.826 38.7819 556.981 38.7819C557.137 38.7819 557.286 38.8437 557.396 38.9537L562.257 43.8156L567.119 38.9537C567.229 38.8437 567.378 38.7819 567.533 38.7819C567.689 38.7819 567.838 38.8437 567.948 38.9537C568.058 39.0637 568.12 39.2129 568.12 39.3685C568.12 39.524 568.058 39.6732 567.948 39.7832L563.086 44.6444L567.948 49.5056Z" fill="white" stroke="white" stroke-width="0.366405"/>
<g clip-path="url(#clip0_564_12435)">
<rect x="210.509" y="69.5599" width="120.181" height="24.6562" rx="3.66405" fill="white" fill-opacity="0.1"/>
<path d="M246.225 84.8881V77.6332H247.117V84.101H250.032V84.8881H246.225ZM253.101 85.0288C252.682 85.0288 252.302 84.9262 251.962 84.721C251.625 84.5129 251.357 84.2285 251.158 83.868C250.961 83.5074 250.863 83.0956 250.863 82.6325C250.863 82.1752 250.96 81.7678 251.153 81.4101C251.347 81.0496 251.612 80.7653 251.949 80.5572C252.286 80.349 252.67 80.245 253.101 80.245C253.482 80.245 253.83 80.33 254.143 80.5C254.46 80.67 254.704 80.906 254.877 81.2079V80.3857H255.73V84.8881H254.877V84.0439C254.681 84.3546 254.429 84.5964 254.121 84.7693C253.813 84.9423 253.473 85.0288 253.101 85.0288ZM253.33 84.2945C253.638 84.2945 253.909 84.2241 254.143 84.0834C254.381 83.9398 254.567 83.7434 254.702 83.4943C254.836 83.2451 254.904 82.9593 254.904 82.6369C254.904 82.3144 254.836 82.0286 254.702 81.7795C254.567 81.5303 254.381 81.3354 254.143 81.1947C253.909 81.0511 253.638 80.9793 253.33 80.9793C253.025 80.9793 252.754 81.0511 252.516 81.1947C252.279 81.3354 252.091 81.5303 251.954 81.7795C251.819 82.0286 251.751 82.3144 251.751 82.6369C251.751 82.9564 251.819 83.2422 251.954 83.4943C252.091 83.7434 252.279 83.9398 252.516 84.0834C252.754 84.2241 253.025 84.2945 253.33 84.2945ZM258.565 85.0288C258.189 85.0288 257.857 84.9482 257.567 84.7869C257.279 84.6228 257.051 84.3898 256.881 84.0878L257.29 83.5602C257.445 83.8211 257.632 84.0233 257.852 84.167C258.072 84.3106 258.308 84.3824 258.56 84.3824C258.724 84.3824 258.872 84.3502 259.004 84.2857C259.139 84.2212 259.246 84.1289 259.325 84.0087C259.404 83.8856 259.444 83.7405 259.444 83.5734C259.444 83.4122 259.403 83.2861 259.321 83.1953C259.242 83.1015 259.123 83.0194 258.965 82.949C258.809 82.8787 258.614 82.7981 258.38 82.7072C258.192 82.631 258.011 82.5445 257.835 82.4478C257.659 82.3511 257.514 82.2294 257.399 82.0829C257.288 81.9334 257.232 81.7443 257.232 81.5157C257.232 81.2694 257.298 81.0511 257.43 80.8605C257.565 80.67 257.75 80.5205 257.984 80.4121C258.219 80.3036 258.485 80.2494 258.784 80.2494C259.028 80.2494 259.264 80.2977 259.492 80.3945C259.721 80.4912 259.938 80.6304 260.143 80.8122L259.8 81.331C259.495 81.0086 259.158 80.8474 258.789 80.8474C258.566 80.8474 258.386 80.9045 258.248 81.0188C258.11 81.1302 258.041 81.2753 258.041 81.4541C258.041 81.5919 258.091 81.7077 258.191 81.8015C258.291 81.8923 258.418 81.9715 258.573 82.0389C258.729 82.1063 258.89 82.1723 259.057 82.2368C259.309 82.3306 259.529 82.4273 259.717 82.5269C259.907 82.6266 260.055 82.7556 260.161 82.9139C260.266 83.0692 260.319 83.2788 260.319 83.5426C260.319 83.8504 260.246 84.1157 260.099 84.3385C259.955 84.5612 259.752 84.7327 259.488 84.8529C259.224 84.9701 258.916 85.0288 258.565 85.0288ZM262.809 85.0288C262.44 85.0288 262.153 84.9071 261.947 84.6638C261.742 84.4176 261.64 84.0732 261.64 83.6306V81.032H261.138V80.3857H261.64V78.7017H262.493V80.3857H263.574V81.032H262.493V83.5778C262.493 83.8006 262.537 83.972 262.625 84.0922C262.712 84.2124 262.839 84.2725 263.003 84.2725C263.167 84.2725 263.313 84.2241 263.442 84.1274L263.658 84.8089C263.543 84.8763 263.41 84.9291 263.258 84.9672C263.108 85.0082 262.959 85.0288 262.809 85.0288ZM266.541 84.8881L270.111 78.4203H266.642V77.6332H271.43V77.9146L267.596 84.8881H266.541ZM276.574 85.0288C276.158 85.0288 275.779 84.9262 275.439 84.721C275.102 84.5158 274.834 84.2329 274.635 83.8724C274.438 83.5118 274.34 83.1 274.34 82.6369C274.34 82.1767 274.437 81.7678 274.63 81.4101C274.827 81.0496 275.094 80.7653 275.431 80.5572C275.771 80.349 276.158 80.245 276.591 80.245C276.967 80.245 277.308 80.33 277.616 80.5C277.927 80.67 278.173 80.906 278.355 81.2079V77.3211H279.208V84.8881H278.355V84.0439C278.161 84.3516 277.909 84.5935 277.598 84.7693C277.288 84.9423 276.946 85.0288 276.574 85.0288ZM276.802 84.2945C277.11 84.2945 277.383 84.2241 277.62 84.0834C277.858 83.9398 278.044 83.7434 278.179 83.4943C278.314 83.2451 278.381 82.9608 278.381 82.6413C278.381 82.3188 278.314 82.033 278.179 81.7839C278.044 81.5318 277.858 81.3354 277.62 81.1947C277.383 81.0511 277.112 80.9793 276.807 80.9793C276.502 80.9793 276.231 81.0511 275.993 81.1947C275.756 81.3354 275.568 81.5318 275.431 81.7839C275.296 82.033 275.228 82.3188 275.228 82.6413C275.228 82.9608 275.296 83.2451 275.431 83.4943C275.566 83.7434 275.752 83.9398 275.989 84.0834C276.226 84.2241 276.498 84.2945 276.802 84.2945ZM282.784 85.0288C282.365 85.0288 281.985 84.9262 281.645 84.721C281.308 84.5129 281.04 84.2285 280.841 83.868C280.644 83.5074 280.546 83.0956 280.546 82.6325C280.546 82.1752 280.643 81.7678 280.836 81.4101C281.03 81.0496 281.295 80.7653 281.632 80.5572C281.969 80.349 282.353 80.245 282.784 80.245C283.165 80.245 283.512 80.33 283.826 80.5C284.143 80.67 284.387 80.906 284.56 81.2079V80.3857H285.413V84.8881H284.56V84.0439C284.364 84.3546 284.112 84.5964 283.804 84.7693C283.496 84.9423 283.156 85.0288 282.784 85.0288ZM283.013 84.2945C283.32 84.2945 283.592 84.2241 283.826 84.0834C284.063 83.9398 284.25 83.7434 284.384 83.4943C284.519 83.2451 284.587 82.9593 284.587 82.6369C284.587 82.3144 284.519 82.0286 284.384 81.7795C284.25 81.5303 284.063 81.3354 283.826 81.1947C283.592 81.0511 283.32 80.9793 283.013 80.9793C282.708 80.9793 282.437 81.0511 282.199 81.1947C281.962 81.3354 281.774 81.5303 281.636 81.7795C281.502 82.0286 281.434 82.3144 281.434 82.6369C281.434 82.9564 281.502 83.2422 281.636 83.4943C281.774 83.7434 281.962 83.9398 282.199 84.0834C282.437 84.2241 282.708 84.2945 283.013 84.2945ZM287.249 87.1744L288.459 84.6418L286.317 80.3857H287.289L288.951 83.7932L290.442 80.3857H291.413L288.217 87.1744H287.249ZM293.32 85.0288C292.944 85.0288 292.612 84.9482 292.322 84.7869C292.034 84.6228 291.806 84.3898 291.636 84.0878L292.045 83.5602C292.2 83.8211 292.388 84.0233 292.607 84.167C292.827 84.3106 293.063 84.3824 293.315 84.3824C293.479 84.3824 293.627 84.3502 293.759 84.2857C293.894 84.2212 294.001 84.1289 294.08 84.0087C294.159 83.8856 294.199 83.7405 294.199 83.5734C294.199 83.4122 294.158 83.2861 294.076 83.1953C293.997 83.1015 293.878 83.0194 293.72 82.949C293.564 82.8787 293.37 82.7981 293.135 82.7072C292.947 82.631 292.766 82.5445 292.59 82.4478C292.414 82.3511 292.269 82.2294 292.155 82.0829C292.043 81.9334 291.987 81.7443 291.987 81.5157C291.987 81.2694 292.053 81.0511 292.185 80.8605C292.32 80.67 292.505 80.5205 292.739 80.4121C292.974 80.3036 293.241 80.2494 293.54 80.2494C293.783 80.2494 294.019 80.2977 294.247 80.3945C294.476 80.4912 294.693 80.6304 294.898 80.8122L294.555 81.331C294.25 81.0086 293.913 80.8474 293.544 80.8474C293.321 80.8474 293.141 80.9045 293.003 81.0188C292.865 81.1302 292.796 81.2753 292.796 81.4541C292.796 81.5919 292.846 81.7077 292.946 81.8015C293.046 81.8923 293.173 81.9715 293.328 82.0389C293.484 82.1063 293.645 82.1723 293.812 82.2368C294.064 82.3306 294.284 82.4273 294.472 82.5269C294.662 82.6266 294.81 82.7556 294.916 82.9139C295.021 83.0692 295.074 83.2788 295.074 83.5426C295.074 83.8504 295.001 84.1157 294.854 84.3385C294.711 84.5612 294.507 84.7327 294.243 84.8529C293.979 84.9701 293.671 85.0288 293.32 85.0288Z" fill="white"/>
<path d="M370.234 84.8881V77.6332H371.126V84.101H374.041V84.8881H370.234ZM377.11 85.0288C376.691 85.0288 376.311 84.9262 375.971 84.721C375.634 84.5129 375.366 84.2285 375.167 83.868C374.97 83.5074 374.872 83.0956 374.872 82.6325C374.872 82.1752 374.969 81.7678 375.162 81.4101C375.356 81.0496 375.621 80.7653 375.958 80.5572C376.295 80.349 376.679 80.245 377.11 80.245C377.491 80.245 377.838 80.33 378.152 80.5C378.469 80.67 378.713 80.906 378.886 81.2079V80.3857H379.739V84.8881H378.886V84.0439C378.69 84.3546 378.438 84.5964 378.13 84.7693C377.822 84.9423 377.482 85.0288 377.11 85.0288ZM377.339 84.2945C377.646 84.2945 377.918 84.2241 378.152 84.0834C378.389 83.9398 378.576 83.7434 378.71 83.4943C378.845 83.2451 378.913 82.9593 378.913 82.6369C378.913 82.3144 378.845 82.0286 378.71 81.7795C378.576 81.5303 378.389 81.3354 378.152 81.1947C377.918 81.0511 377.646 80.9793 377.339 80.9793C377.034 80.9793 376.763 81.0511 376.525 81.1947C376.288 81.3354 376.1 81.5303 375.962 81.7795C375.828 82.0286 375.76 82.3144 375.76 82.6369C375.76 82.9564 375.828 83.2422 375.962 83.4943C376.1 83.7434 376.288 83.9398 376.525 84.0834C376.763 84.2241 377.034 84.2945 377.339 84.2945ZM382.573 85.0288C382.198 85.0288 381.866 84.9482 381.575 84.7869C381.288 84.6228 381.059 84.3898 380.889 84.0878L381.298 83.5602C381.454 83.8211 381.641 84.0233 381.861 84.167C382.081 84.3106 382.317 84.3824 382.569 84.3824C382.733 84.3824 382.881 84.3502 383.013 84.2857C383.148 84.2212 383.255 84.1289 383.334 84.0087C383.413 83.8856 383.453 83.7405 383.453 83.5734C383.453 83.4122 383.412 83.2861 383.33 83.1953C383.251 83.1015 383.132 83.0194 382.974 82.949C382.818 82.8787 382.623 82.7981 382.389 82.7072C382.201 82.631 382.019 82.5445 381.844 82.4478C381.668 82.3511 381.523 82.2294 381.408 82.0829C381.297 81.9334 381.241 81.7443 381.241 81.5157C381.241 81.2694 381.307 81.0511 381.439 80.8605C381.574 80.67 381.759 80.5205 381.993 80.4121C382.228 80.3036 382.494 80.2494 382.793 80.2494C383.037 80.2494 383.273 80.2977 383.501 80.3945C383.73 80.4912 383.947 80.6304 384.152 80.8122L383.809 81.331C383.504 81.0086 383.167 80.8474 382.798 80.8474C382.575 80.8474 382.395 80.9045 382.257 81.0188C382.119 81.1302 382.05 81.2753 382.05 81.4541C382.05 81.5919 382.1 81.7077 382.2 81.8015C382.299 81.8923 382.427 81.9715 382.582 82.0389C382.738 82.1063 382.899 82.1723 383.066 82.2368C383.318 82.3306 383.538 82.4273 383.725 82.5269C383.916 82.6266 384.064 82.7556 384.17 82.9139C384.275 83.0692 384.328 83.2788 384.328 83.5426C384.328 83.8504 384.255 84.1157 384.108 84.3385C383.964 84.5612 383.761 84.7327 383.497 84.8529C383.233 84.9701 382.925 85.0288 382.573 85.0288ZM386.818 85.0288C386.449 85.0288 386.161 84.9071 385.956 84.6638C385.751 84.4176 385.649 84.0732 385.649 83.6306V81.032H385.147V80.3857H385.649V78.7017H386.501V80.3857H387.583V81.032H386.501V83.5778C386.501 83.8006 386.545 83.972 386.633 84.0922C386.721 84.2124 386.847 84.2725 387.012 84.2725C387.176 84.2725 387.322 84.2241 387.451 84.1274L387.667 84.8089C387.552 84.8763 387.419 84.9291 387.267 84.9672C387.117 85.0082 386.968 85.0288 386.818 85.0288ZM392.964 85.0288C392.533 85.0288 392.145 84.9511 391.799 84.7957C391.456 84.6404 391.174 84.4235 390.955 84.145C390.738 83.8665 390.601 83.5426 390.546 83.1733L391.39 82.8303C391.399 83.1059 391.47 83.3492 391.605 83.5602C391.74 83.7713 391.925 83.9354 392.159 84.0527C392.394 84.1699 392.662 84.2285 392.964 84.2285C393.401 84.2285 393.749 84.1084 394.01 83.868C394.271 83.6247 394.402 83.3081 394.402 82.9183C394.402 82.6398 394.337 82.3892 394.208 82.1664C394.082 81.9436 393.912 81.7678 393.698 81.6388C393.484 81.5069 393.247 81.4409 392.986 81.4409C392.872 81.4409 392.775 81.4541 392.696 81.4805V80.843H392.964C393.219 80.843 393.449 80.7814 393.654 80.6583C393.859 80.5352 394.022 80.3725 394.142 80.1702C394.262 79.965 394.323 79.7437 394.323 79.5063C394.323 79.2689 394.264 79.0549 394.147 78.8644C394.029 78.6738 393.873 78.5229 393.676 78.4115C393.48 78.3001 393.263 78.2444 393.025 78.2444C392.785 78.2444 392.564 78.3016 392.362 78.4159C392.162 78.5302 392 78.6841 391.873 78.8776C391.747 79.071 391.677 79.2894 391.662 79.5327L390.928 79.2425C390.975 78.9025 391.097 78.602 391.293 78.3411C391.489 78.0773 391.739 77.8721 392.041 77.7256C392.345 77.5761 392.678 77.5013 393.039 77.5013C393.44 77.5013 393.801 77.5893 394.12 77.7652C394.44 77.941 394.692 78.1785 394.877 78.4774C395.061 78.7764 395.154 79.1135 395.154 79.4887C395.154 79.7262 395.111 79.9504 395.026 80.1614C394.944 80.3725 394.827 80.5601 394.674 80.7242C394.522 80.8855 394.343 81.013 394.138 81.1068C394.364 81.1918 394.564 81.3193 394.74 81.4893C394.919 81.6593 395.058 81.8645 395.158 82.1049C395.261 82.3423 395.312 82.609 395.312 82.9051C395.312 83.3096 395.215 83.6731 395.022 83.9955C394.831 84.315 394.56 84.5671 394.208 84.7518C393.856 84.9364 393.442 85.0288 392.964 85.0288ZM399.532 85.0288C398.94 85.0288 398.421 84.8719 397.975 84.5583C397.53 84.2417 397.183 83.8006 396.933 83.2348C396.687 82.6691 396.564 82.0125 396.564 81.2651C396.564 80.5147 396.687 79.8581 396.933 79.2953C397.183 78.7295 397.53 78.2898 397.975 77.9762C398.421 77.6596 398.94 77.5013 399.532 77.5013C400.124 77.5013 400.641 77.6596 401.084 77.9762C401.53 78.2898 401.875 78.7295 402.122 79.2953C402.371 79.8581 402.495 80.5147 402.495 81.2651C402.495 82.0125 402.371 82.6691 402.122 83.2348C401.875 83.8006 401.53 84.2417 401.084 84.5583C400.641 84.8719 400.124 85.0288 399.532 85.0288ZM399.532 84.2329C399.939 84.2329 400.294 84.1113 400.596 83.868C400.898 83.6247 401.132 83.2803 401.299 82.8347C401.467 82.3892 401.55 81.866 401.55 81.2651C401.55 80.6612 401.467 80.138 401.299 79.6954C401.132 79.2498 400.898 78.9054 400.596 78.6621C400.294 78.4188 399.939 78.2972 399.532 78.2972C399.124 78.2972 398.768 78.4188 398.463 78.6621C398.162 78.9054 397.927 79.2498 397.76 79.6954C397.593 80.138 397.509 80.6612 397.509 81.2651C397.509 81.866 397.593 82.3892 397.76 82.8347C397.927 83.2803 398.162 83.6247 398.463 83.868C398.768 84.1113 399.124 84.2329 399.532 84.2329ZM407.999 85.0288C407.583 85.0288 407.205 84.9262 406.865 84.721C406.528 84.5158 406.26 84.2329 406.06 83.8724C405.864 83.5118 405.766 83.1 405.766 82.6369C405.766 82.1767 405.862 81.7678 406.056 81.4101C406.252 81.0496 406.519 80.7653 406.856 80.5572C407.196 80.349 407.583 80.245 408.017 80.245C408.392 80.245 408.734 80.33 409.041 80.5C409.352 80.67 409.598 80.906 409.78 81.2079V77.3211H410.633V84.8881H409.78V84.0439C409.587 84.3516 409.334 84.5935 409.024 84.7693C408.713 84.9423 408.372 85.0288 407.999 85.0288ZM408.228 84.2945C408.536 84.2945 408.808 84.2241 409.046 84.0834C409.283 83.9398 409.469 83.7434 409.604 83.4943C409.739 83.2451 409.806 82.9608 409.806 82.6413C409.806 82.3188 409.739 82.033 409.604 81.7839C409.469 81.5318 409.283 81.3354 409.046 81.1947C408.808 81.0511 408.537 80.9793 408.232 80.9793C407.927 80.9793 407.656 81.0511 407.419 81.1947C407.181 81.3354 406.994 81.5318 406.856 81.7839C406.721 82.033 406.654 82.3188 406.654 82.6413C406.654 82.9608 406.721 83.2451 406.856 83.4943C406.991 83.7434 407.177 83.9398 407.415 84.0834C407.652 84.2241 407.923 84.2945 408.228 84.2945ZM414.209 85.0288C413.79 85.0288 413.411 84.9262 413.071 84.721C412.734 84.5129 412.465 84.2285 412.266 83.868C412.07 83.5074 411.971 83.0956 411.971 82.6325C411.971 82.1752 412.068 81.7678 412.262 81.4101C412.455 81.0496 412.72 80.7653 413.057 80.5572C413.395 80.349 413.779 80.245 414.209 80.245C414.591 80.245 414.938 80.33 415.252 80.5C415.568 80.67 415.813 80.906 415.986 81.2079V80.3857H416.839V84.8881H415.986V84.0439C415.789 84.3546 415.537 84.5964 415.23 84.7693C414.922 84.9423 414.582 85.0288 414.209 85.0288ZM414.438 84.2945C414.746 84.2945 415.017 84.2241 415.252 84.0834C415.489 83.9398 415.675 83.7434 415.81 83.4943C415.945 83.2451 416.012 82.9593 416.012 82.6369C416.012 82.3144 415.945 82.0286 415.81 81.7795C415.675 81.5303 415.489 81.3354 415.252 81.1947C415.017 81.0511 414.746 80.9793 414.438 80.9793C414.133 80.9793 413.862 81.0511 413.625 81.1947C413.387 81.3354 413.2 81.5303 413.062 81.7795C412.927 82.0286 412.86 82.3144 412.86 82.6369C412.86 82.9564 412.927 83.2422 413.062 83.4943C413.2 83.7434 413.387 83.9398 413.625 84.0834C413.862 84.2241 414.133 84.2945 414.438 84.2945ZM418.675 87.1744L419.884 84.6418L417.743 80.3857H418.714L420.376 83.7932L421.867 80.3857H422.839L419.642 87.1744H418.675ZM424.745 85.0288C424.37 85.0288 424.037 84.9482 423.747 84.7869C423.46 84.6228 423.231 84.3898 423.061 84.0878L423.47 83.5602C423.625 83.8211 423.813 84.0233 424.033 84.167C424.253 84.3106 424.489 84.3824 424.741 84.3824C424.905 84.3824 425.053 84.3502 425.185 84.2857C425.32 84.2212 425.427 84.1289 425.506 84.0087C425.585 83.8856 425.625 83.7405 425.625 83.5734C425.625 83.4122 425.583 83.2861 425.501 83.1953C425.422 83.1015 425.304 83.0194 425.145 82.949C424.99 82.8787 424.795 82.7981 424.56 82.7072C424.373 82.631 424.191 82.5445 424.015 82.4478C423.839 82.3511 423.694 82.2294 423.58 82.0829C423.469 81.9334 423.413 81.7443 423.413 81.5157C423.413 81.2694 423.479 81.0511 423.611 80.8605C423.746 80.67 423.93 80.5205 424.165 80.4121C424.399 80.3036 424.666 80.2494 424.965 80.2494C425.208 80.2494 425.444 80.2977 425.673 80.3945C425.902 80.4912 426.118 80.6304 426.324 80.8122L425.981 81.331C425.676 81.0086 425.339 80.8474 424.969 80.8474C424.747 80.8474 424.566 80.9045 424.429 81.0188C424.291 81.1302 424.222 81.2753 424.222 81.4541C424.222 81.5919 424.272 81.7077 424.371 81.8015C424.471 81.8923 424.599 81.9715 424.754 82.0389C424.909 82.1063 425.071 82.1723 425.238 82.2368C425.49 82.3306 425.71 82.4273 425.897 82.5269C426.088 82.6266 426.236 82.7556 426.341 82.9139C426.447 83.0692 426.499 83.2788 426.499 83.5426C426.499 83.8504 426.426 84.1157 426.28 84.3385C426.136 84.5612 425.932 84.7327 425.668 84.8529C425.405 84.9701 425.097 85.0288 424.745 85.0288Z" fill="white"/>
<rect x="206.478" y="65.5295" width="255.751" height="32.7171" rx="5.49607" stroke="white" stroke-opacity="0.25" stroke-width="0.732809"/>
<path d="M184.227 122.269V113.805H185.007V122.269H184.227ZM187.333 122.269V117.016H188.082V117.735C188.226 117.488 188.448 117.28 188.749 117.109C189.05 116.938 189.418 116.852 189.852 116.852C190.259 116.852 190.609 116.936 190.903 117.104C191.198 117.271 191.423 117.516 191.581 117.837C191.738 118.155 191.817 118.54 191.817 118.991V122.269H191.068V119.135C191.068 118.591 190.941 118.177 190.688 117.894C190.435 117.606 190.078 117.463 189.616 117.463C189.294 117.463 189.019 117.528 188.79 117.658C188.564 117.784 188.39 117.953 188.267 118.165C188.144 118.374 188.082 118.601 188.082 118.848V122.269H187.333ZM197.561 122.433C197.168 122.433 196.862 122.302 196.643 122.038C196.427 121.772 196.319 121.397 196.319 120.915V117.581H195.786V117.016H196.319V115.052H197.068V117.016H198.376V117.581H197.068V120.874C197.068 121.165 197.125 121.387 197.238 121.541C197.351 121.695 197.511 121.772 197.72 121.772C197.922 121.772 198.099 121.715 198.253 121.602L198.443 122.197C198.327 122.269 198.19 122.326 198.033 122.367C197.875 122.411 197.718 122.433 197.561 122.433ZM199.926 122.269V113.441H200.675V117.735C200.819 117.488 201.041 117.28 201.342 117.109C201.643 116.938 202.01 116.852 202.445 116.852C202.852 116.852 203.202 116.936 203.496 117.104C203.79 117.271 204.016 117.516 204.173 117.837C204.331 118.155 204.409 118.54 204.409 118.991V122.269H203.661V119.135C203.661 118.591 203.534 118.176 203.281 117.888C203.028 117.601 202.67 117.458 202.209 117.458C201.887 117.458 201.612 117.523 201.383 117.652C201.157 117.782 200.983 117.953 200.86 118.165C200.737 118.374 200.675 118.601 200.675 118.848V122.269H199.926ZM208.827 122.433C208.276 122.433 207.784 122.312 207.35 122.069C206.919 121.826 206.58 121.496 206.334 121.079C206.088 120.658 205.965 120.187 205.965 119.663C205.965 119.27 206.035 118.904 206.175 118.566C206.318 118.224 206.517 117.924 206.77 117.668C207.023 117.411 207.317 117.211 207.652 117.068C207.987 116.924 208.345 116.852 208.724 116.852C209.244 116.852 209.706 116.967 210.109 117.196C210.516 117.422 210.838 117.735 211.074 118.135C211.313 118.535 211.44 118.996 211.453 119.52C211.453 119.561 211.452 119.595 211.448 119.622C211.448 119.646 211.445 119.677 211.438 119.715H206.708C206.708 120.125 206.801 120.487 206.985 120.802C207.17 121.117 207.423 121.365 207.745 121.546C208.069 121.724 208.44 121.813 208.858 121.813C209.254 121.813 209.61 121.731 209.925 121.566C210.243 121.399 210.508 121.159 210.72 120.848L211.274 121.146C211.024 121.553 210.684 121.869 210.253 122.095C209.825 122.32 209.35 122.433 208.827 122.433ZM206.749 119.15H210.704C210.66 118.822 210.545 118.533 210.361 118.283C210.176 118.03 209.942 117.832 209.658 117.688C209.377 117.545 209.07 117.473 208.735 117.473C208.389 117.473 208.075 117.545 207.791 117.688C207.507 117.829 207.273 118.025 207.088 118.278C206.907 118.528 206.794 118.819 206.749 119.15ZM215.545 122.269V113.446H216.294V122.269H215.545ZM220.588 122.433C220.096 122.433 219.651 122.314 219.254 122.074C218.861 121.831 218.548 121.5 218.316 121.079C218.087 120.658 217.972 120.178 217.972 119.638C217.972 119.104 218.085 118.629 218.311 118.212C218.54 117.791 218.851 117.459 219.244 117.216C219.641 116.974 220.089 116.852 220.588 116.852C221.063 116.852 221.494 116.963 221.881 117.186C222.267 117.408 222.561 117.716 222.763 118.109V117.016H223.512V122.269H222.763V121.161C222.537 121.558 222.235 121.869 221.855 122.095C221.476 122.32 221.053 122.433 220.588 122.433ZM220.773 121.782C221.166 121.782 221.513 121.691 221.814 121.51C222.118 121.325 222.358 121.072 222.532 120.751C222.707 120.426 222.794 120.057 222.794 119.643C222.794 119.226 222.707 118.856 222.532 118.535C222.361 118.213 222.124 117.962 221.819 117.781C221.515 117.596 221.166 117.504 220.773 117.504C220.379 117.504 220.031 117.596 219.726 117.781C219.422 117.962 219.183 118.213 219.008 118.535C218.834 118.856 218.747 119.226 218.747 119.643C218.747 120.057 218.834 120.426 219.008 120.751C219.183 121.072 219.422 121.325 219.726 121.51C220.031 121.691 220.379 121.782 220.773 121.782ZM226.891 122.433C226.457 122.433 226.074 122.329 225.742 122.12C225.41 121.908 225.152 121.609 224.967 121.223L225.367 120.792C225.532 121.127 225.745 121.389 226.009 121.577C226.272 121.761 226.564 121.854 226.886 121.854C227.101 121.854 227.298 121.809 227.476 121.72C227.657 121.631 227.801 121.505 227.907 121.341C228.016 121.173 228.071 120.975 228.071 120.746C228.071 120.537 228.019 120.373 227.917 120.253C227.818 120.134 227.671 120.031 227.476 119.945C227.284 119.857 227.045 119.757 226.757 119.648C226.535 119.559 226.32 119.458 226.111 119.345C225.903 119.232 225.73 119.09 225.593 118.919C225.46 118.745 225.393 118.525 225.393 118.258C225.393 117.988 225.465 117.748 225.608 117.54C225.752 117.328 225.95 117.162 226.203 117.042C226.457 116.919 226.744 116.857 227.065 116.857C227.359 116.857 227.635 116.921 227.891 117.047C228.151 117.174 228.384 117.353 228.589 117.586L228.245 118.022C227.93 117.608 227.539 117.401 227.07 117.401C226.783 117.401 226.549 117.476 226.368 117.627C226.19 117.777 226.101 117.974 226.101 118.217C226.101 118.391 226.157 118.536 226.27 118.653C226.383 118.769 226.53 118.868 226.711 118.95C226.896 119.032 227.094 119.114 227.306 119.196C227.614 119.313 227.881 119.429 228.107 119.545C228.336 119.662 228.514 119.81 228.64 119.992C228.767 120.169 228.83 120.412 228.83 120.72C228.83 121.072 228.748 121.377 228.584 121.633C228.42 121.89 228.19 122.088 227.896 122.228C227.606 122.365 227.27 122.433 226.891 122.433ZM231.67 122.433C231.277 122.433 230.971 122.302 230.752 122.038C230.536 121.772 230.429 121.397 230.429 120.915V117.581H229.895V117.016H230.429V115.052H231.177V117.016H232.486V117.581H231.177V120.874C231.177 121.165 231.234 121.387 231.347 121.541C231.46 121.695 231.62 121.772 231.829 121.772C232.031 121.772 232.209 121.715 232.362 121.602L232.552 122.197C232.436 122.269 232.299 122.326 232.142 122.367C231.985 122.411 231.827 122.433 231.67 122.433ZM236.008 122.269L240.256 114.493H236.085V113.805H241.405V114.067L236.932 122.269H236.008ZM247.567 122.433C247.075 122.433 246.63 122.314 246.234 122.074C245.84 121.835 245.527 121.505 245.295 121.084C245.066 120.664 244.951 120.183 244.951 119.643C244.951 119.106 245.066 118.629 245.295 118.212C245.524 117.791 245.835 117.459 246.228 117.216C246.625 116.974 247.075 116.852 247.578 116.852C248.046 116.852 248.47 116.963 248.85 117.186C249.229 117.408 249.527 117.716 249.742 118.109V113.441H250.491V122.269H249.742V121.161C249.52 121.558 249.217 121.869 248.834 122.095C248.455 122.32 248.032 122.433 247.567 122.433ZM247.747 121.782C248.14 121.782 248.489 121.691 248.793 121.51C249.098 121.325 249.337 121.072 249.511 120.751C249.686 120.426 249.773 120.058 249.773 119.648C249.773 119.231 249.686 118.861 249.511 118.54C249.34 118.215 249.101 117.962 248.793 117.781C248.489 117.596 248.14 117.504 247.747 117.504C247.357 117.504 247.01 117.596 246.706 117.781C246.401 117.962 246.162 118.215 245.987 118.54C245.813 118.861 245.726 119.231 245.726 119.648C245.726 120.062 245.811 120.429 245.982 120.751C246.157 121.072 246.396 121.325 246.7 121.51C247.008 121.691 247.357 121.782 247.747 121.782ZM254.787 122.433C254.295 122.433 253.85 122.314 253.454 122.074C253.06 121.831 252.747 121.5 252.515 121.079C252.286 120.658 252.171 120.178 252.171 119.638C252.171 119.104 252.284 118.629 252.51 118.212C252.739 117.791 253.05 117.459 253.443 117.216C253.84 116.974 254.288 116.852 254.787 116.852C255.263 116.852 255.694 116.963 256.08 117.186C256.466 117.408 256.761 117.716 256.962 118.109V117.016H257.711V122.269H256.962V121.161C256.737 121.558 256.434 121.869 256.054 122.095C255.675 122.32 255.252 122.433 254.787 122.433ZM254.972 121.782C255.365 121.782 255.712 121.691 256.013 121.51C256.318 121.325 256.557 121.072 256.731 120.751C256.906 120.426 256.993 120.057 256.993 119.643C256.993 119.226 256.906 118.856 256.731 118.535C256.561 118.213 256.323 117.962 256.018 117.781C255.714 117.596 255.365 117.504 254.972 117.504C254.579 117.504 254.23 117.596 253.926 117.781C253.621 117.962 253.382 118.213 253.207 118.535C253.033 118.856 252.946 119.226 252.946 119.643C252.946 120.057 253.033 120.426 253.207 120.751C253.382 121.072 253.621 121.325 253.926 121.51C254.23 121.691 254.579 121.782 254.972 121.782ZM260.151 124.937L261.444 122.141L258.946 117.016H259.792L261.87 121.371L263.758 117.016H264.604L260.998 124.937H260.151ZM266.968 122.433C266.533 122.433 266.15 122.329 265.819 122.12C265.487 121.908 265.229 121.609 265.044 121.223L265.444 120.792C265.608 121.127 265.822 121.389 266.085 121.577C266.349 121.761 266.641 121.854 266.962 121.854C267.178 121.854 267.375 121.809 267.552 121.72C267.734 121.631 267.877 121.505 267.983 121.341C268.093 121.173 268.147 120.975 268.147 120.746C268.147 120.537 268.096 120.373 267.994 120.253C267.894 120.134 267.747 120.031 267.552 119.945C267.361 119.857 267.121 119.757 266.834 119.648C266.612 119.559 266.396 119.458 266.188 119.345C265.979 119.232 265.807 119.09 265.67 118.919C265.536 118.745 265.47 118.525 265.47 118.258C265.47 117.988 265.542 117.748 265.685 117.54C265.829 117.328 266.027 117.162 266.28 117.042C266.533 116.919 266.821 116.857 267.142 116.857C267.436 116.857 267.711 116.921 267.968 117.047C268.228 117.174 268.46 117.353 268.666 117.586L268.322 118.022C268.007 117.608 267.616 117.401 267.147 117.401C266.86 117.401 266.626 117.476 266.444 117.627C266.267 117.777 266.178 117.974 266.178 118.217C266.178 118.391 266.234 118.536 266.347 118.653C266.46 118.769 266.607 118.868 266.788 118.95C266.973 119.032 267.171 119.114 267.383 119.196C267.691 119.313 267.958 119.429 268.183 119.545C268.412 119.662 268.59 119.81 268.717 119.992C268.843 120.169 268.907 120.412 268.907 120.72C268.907 121.072 268.825 121.377 268.66 121.633C268.496 121.89 268.267 122.088 267.973 122.228C267.682 122.365 267.347 122.433 266.968 122.433ZM273.375 124.937L274.668 122.141L272.17 117.016H273.016L275.094 121.371L276.982 117.016H277.828L274.222 124.937H273.375ZM281.596 122.433C281.049 122.433 280.555 122.315 280.114 122.079C279.676 121.843 279.329 121.515 279.072 121.094C278.816 120.674 278.688 120.19 278.688 119.643C278.688 119.092 278.816 118.608 279.072 118.191C279.329 117.77 279.676 117.442 280.114 117.206C280.551 116.97 281.046 116.852 281.596 116.852C282.143 116.852 282.636 116.97 283.073 117.206C283.515 117.442 283.863 117.77 284.12 118.191C284.376 118.608 284.505 119.092 284.505 119.643C284.505 120.19 284.376 120.674 284.12 121.094C283.863 121.515 283.515 121.843 283.073 122.079C282.636 122.315 282.143 122.433 281.596 122.433ZM281.596 121.766C282.006 121.766 282.372 121.676 282.694 121.495C283.015 121.313 283.268 121.064 283.453 120.746C283.638 120.424 283.73 120.057 283.73 119.643C283.73 119.229 283.638 118.863 283.453 118.545C283.268 118.224 283.015 117.972 282.694 117.791C282.372 117.61 282.006 117.519 281.596 117.519C281.186 117.519 280.82 117.61 280.498 117.791C280.177 117.972 279.924 118.224 279.739 118.545C279.554 118.863 279.462 119.229 279.462 119.643C279.462 120.053 279.554 120.419 279.739 120.741C279.924 121.062 280.177 121.313 280.498 121.495C280.82 121.676 281.186 121.766 281.596 121.766ZM288.281 122.433C287.484 122.433 286.915 122.254 286.573 121.895C286.231 121.536 286.06 120.935 286.06 120.094V117.016H286.809V119.961C286.809 120.624 286.922 121.098 287.147 121.382C287.373 121.662 287.751 121.802 288.281 121.802C288.815 121.802 289.192 121.662 289.415 121.382C289.64 121.098 289.753 120.624 289.753 119.961V117.016H290.502V120.094C290.502 120.935 290.331 121.536 289.989 121.895C289.651 122.254 289.081 122.433 288.281 122.433ZM294.947 122.269V113.441H295.696V117.735C295.839 117.488 296.062 117.28 296.363 117.109C296.664 116.938 297.031 116.852 297.465 116.852C297.872 116.852 298.223 116.936 298.517 117.104C298.811 117.271 299.037 117.516 299.194 117.837C299.351 118.155 299.43 118.54 299.43 118.991V122.269H298.681V119.135C298.681 118.591 298.555 118.176 298.302 117.888C298.049 117.601 297.691 117.458 297.229 117.458C296.908 117.458 296.633 117.523 296.404 117.652C296.178 117.782 296.003 117.953 295.88 118.165C295.757 118.374 295.696 118.601 295.696 118.848V122.269H294.947ZM303.627 122.433C303.135 122.433 302.69 122.314 302.293 122.074C301.9 121.831 301.587 121.5 301.355 121.079C301.125 120.658 301.011 120.178 301.011 119.638C301.011 119.104 301.124 118.629 301.349 118.212C301.579 117.791 301.89 117.459 302.283 117.216C302.68 116.974 303.128 116.852 303.627 116.852C304.102 116.852 304.533 116.963 304.92 117.186C305.306 117.408 305.6 117.716 305.802 118.109V117.016H306.551V122.269H305.802V121.161C305.576 121.558 305.274 121.869 304.894 122.095C304.514 122.32 304.092 122.433 303.627 122.433ZM303.812 121.782C304.205 121.782 304.552 121.691 304.853 121.51C305.157 121.325 305.397 121.072 305.571 120.751C305.746 120.426 305.833 120.057 305.833 119.643C305.833 119.226 305.746 118.856 305.571 118.535C305.4 118.213 305.162 117.962 304.858 117.781C304.554 117.596 304.205 117.504 303.812 117.504C303.418 117.504 303.07 117.596 302.765 117.781C302.461 117.962 302.221 118.213 302.047 118.535C301.873 118.856 301.785 119.226 301.785 119.643C301.785 120.057 301.873 120.426 302.047 120.751C302.221 121.072 302.461 121.325 302.765 121.51C303.07 121.691 303.418 121.782 303.812 121.782ZM310.34 122.269L307.791 117.016H308.668L310.586 121.202L312.51 117.016H313.387L310.833 122.269H310.34ZM317.095 122.433C316.545 122.433 316.052 122.312 315.618 122.069C315.187 121.826 314.849 121.496 314.602 121.079C314.356 120.658 314.233 120.187 314.233 119.663C314.233 119.27 314.303 118.904 314.443 118.566C314.587 118.224 314.785 117.924 315.038 117.668C315.291 117.411 315.585 117.211 315.921 117.068C316.256 116.924 316.613 116.852 316.993 116.852C317.513 116.852 317.974 116.967 318.378 117.196C318.785 117.422 319.106 117.735 319.342 118.135C319.581 118.535 319.708 118.996 319.722 119.52C319.722 119.561 319.72 119.595 319.717 119.622C319.717 119.646 319.713 119.677 319.706 119.715H314.977C314.977 120.125 315.069 120.487 315.254 120.802C315.438 121.117 315.691 121.365 316.013 121.546C316.338 121.724 316.709 121.813 317.126 121.813C317.523 121.813 317.878 121.731 318.193 121.566C318.511 121.399 318.776 121.159 318.988 120.848L319.542 121.146C319.293 121.553 318.952 121.869 318.521 122.095C318.094 122.32 317.619 122.433 317.095 122.433ZM315.018 119.15H318.973C318.928 118.822 318.814 118.533 318.629 118.283C318.444 118.03 318.21 117.832 317.926 117.688C317.646 117.545 317.338 117.473 317.003 117.473C316.658 117.473 316.343 117.545 316.059 117.688C315.775 117.829 315.541 118.025 315.356 118.278C315.175 118.528 315.062 118.819 315.018 119.15ZM326.275 122.433C325.725 122.433 325.232 122.312 324.798 122.069C324.367 121.826 324.029 121.496 323.782 121.079C323.536 120.658 323.413 120.187 323.413 119.663C323.413 119.27 323.483 118.904 323.623 118.566C323.767 118.224 323.965 117.924 324.218 117.668C324.471 117.411 324.766 117.211 325.101 117.068C325.436 116.924 325.793 116.852 326.173 116.852C326.693 116.852 327.154 116.967 327.558 117.196C327.965 117.422 328.286 117.735 328.522 118.135C328.762 118.535 328.888 118.996 328.902 119.52C328.902 119.561 328.9 119.595 328.897 119.622C328.897 119.646 328.893 119.677 328.886 119.715H324.157C324.157 120.125 324.249 120.487 324.434 120.802C324.619 121.117 324.872 121.365 325.193 121.546C325.518 121.724 325.889 121.813 326.306 121.813C326.703 121.813 327.059 121.731 327.373 121.566C327.691 121.399 327.956 121.159 328.168 120.848L328.722 121.146C328.473 121.553 328.132 121.869 327.701 122.095C327.274 122.32 326.799 122.433 326.275 122.433ZM324.198 119.15H328.153C328.108 118.822 327.994 118.533 327.809 118.283C327.625 118.03 327.39 117.832 327.106 117.688C326.826 117.545 326.518 117.473 326.183 117.473C325.838 117.473 325.523 117.545 325.239 117.688C324.955 117.829 324.721 118.025 324.536 118.278C324.355 118.528 324.242 118.819 324.198 119.15ZM330.492 122.269V117.016H331.241V117.735C331.385 117.488 331.607 117.28 331.908 117.109C332.209 116.938 332.577 116.852 333.011 116.852C333.418 116.852 333.768 116.936 334.062 117.104C334.357 117.271 334.582 117.516 334.74 117.837C334.897 118.155 334.975 118.54 334.975 118.991V122.269H334.227V119.135C334.227 118.591 334.1 118.177 333.847 117.894C333.594 117.606 333.237 117.463 332.775 117.463C332.453 117.463 332.178 117.528 331.949 117.658C331.723 117.784 331.549 117.953 331.426 118.165C331.303 118.374 331.241 118.601 331.241 118.848V122.269H330.492ZM336.264 125.09C336.083 125.09 335.906 125.068 335.735 125.024C335.564 124.979 335.424 124.914 335.315 124.829L335.535 124.229C335.693 124.359 335.891 124.424 336.13 124.424C336.667 124.424 336.936 124.068 336.936 123.357V117.016H337.685V123.423C337.685 123.964 337.563 124.376 337.321 124.66C337.078 124.947 336.725 125.09 336.264 125.09ZM337.31 115.955C337.221 115.955 337.139 115.934 337.064 115.893C336.989 115.849 336.929 115.789 336.885 115.713C336.84 115.638 336.818 115.556 336.818 115.467C336.818 115.375 336.84 115.291 336.885 115.216C336.929 115.141 336.989 115.083 337.064 115.041C337.139 114.997 337.221 114.975 337.31 114.975C337.399 114.975 337.481 114.997 337.557 115.041C337.632 115.083 337.692 115.141 337.736 115.216C337.78 115.291 337.803 115.373 337.803 115.462C337.803 115.551 337.78 115.633 337.736 115.708C337.692 115.784 337.632 115.843 337.557 115.888C337.481 115.932 337.399 115.955 337.31 115.955ZM342.251 122.433C341.704 122.433 341.209 122.315 340.768 122.079C340.331 121.843 339.983 121.515 339.727 121.094C339.471 120.674 339.342 120.19 339.342 119.643C339.342 119.092 339.471 118.608 339.727 118.191C339.983 117.77 340.331 117.442 340.768 117.206C341.206 116.97 341.7 116.852 342.251 116.852C342.798 116.852 343.29 116.97 343.728 117.206C344.169 117.442 344.518 117.77 344.775 118.191C345.031 118.608 345.159 119.092 345.159 119.643C345.159 120.19 345.031 120.674 344.775 121.094C344.518 121.515 344.169 121.843 343.728 122.079C343.29 122.315 342.798 122.433 342.251 122.433ZM342.251 121.766C342.661 121.766 343.027 121.676 343.349 121.495C343.67 121.313 343.923 121.064 344.108 120.746C344.292 120.424 344.385 120.057 344.385 119.643C344.385 119.229 344.292 118.863 344.108 118.545C343.923 118.224 343.67 117.972 343.349 117.791C343.027 117.61 342.661 117.519 342.251 117.519C341.84 117.519 341.475 117.61 341.153 117.791C340.832 117.972 340.579 118.224 340.394 118.545C340.209 118.863 340.117 119.229 340.117 119.643C340.117 120.053 340.209 120.419 340.394 120.741C340.579 121.062 340.832 121.313 341.153 121.495C341.475 121.676 341.84 121.766 342.251 121.766ZM347.188 124.937L348.48 122.141L345.982 117.016H346.829L348.906 121.371L350.794 117.016H351.64L348.034 124.937H347.188ZM355.362 122.433C354.812 122.433 354.319 122.312 353.885 122.069C353.454 121.826 353.115 121.496 352.869 121.079C352.623 120.658 352.5 120.187 352.5 119.663C352.5 119.27 352.57 118.904 352.71 118.566C352.854 118.224 353.052 117.924 353.305 117.668C353.558 117.411 353.852 117.211 354.188 117.068C354.523 116.924 354.88 116.852 355.26 116.852C355.779 116.852 356.241 116.967 356.645 117.196C357.052 117.422 357.373 117.735 357.609 118.135C357.848 118.535 357.975 118.996 357.989 119.52C357.989 119.561 357.987 119.595 357.983 119.622C357.983 119.646 357.98 119.677 357.973 119.715H353.244C353.244 120.125 353.336 120.487 353.521 120.802C353.705 121.117 353.958 121.365 354.28 121.546C354.605 121.724 354.976 121.813 355.393 121.813C355.79 121.813 356.145 121.731 356.46 121.566C356.778 121.399 357.043 121.159 357.255 120.848L357.809 121.146C357.559 121.553 357.219 121.869 356.788 122.095C356.361 122.32 355.885 122.433 355.362 122.433ZM353.285 119.15H357.24C357.195 118.822 357.081 118.533 356.896 118.283C356.711 118.03 356.477 117.832 356.193 117.688C355.913 117.545 355.605 117.473 355.27 117.473C354.924 117.473 354.61 117.545 354.326 117.688C354.042 117.829 353.808 118.025 353.623 118.278C353.442 118.528 353.329 118.819 353.285 119.15ZM361.841 122.433C361.348 122.433 360.904 122.314 360.507 122.074C360.114 121.835 359.801 121.505 359.568 121.084C359.339 120.664 359.225 120.183 359.225 119.643C359.225 119.106 359.339 118.629 359.568 118.212C359.797 117.791 360.109 117.459 360.502 117.216C360.899 116.974 361.348 116.852 361.851 116.852C362.319 116.852 362.743 116.963 363.123 117.186C363.503 117.408 363.8 117.716 364.016 118.109V113.441H364.765V122.269H364.016V121.161C363.793 121.558 363.491 121.869 363.108 122.095C362.728 122.32 362.306 122.433 361.841 122.433ZM362.02 121.782C362.413 121.782 362.762 121.691 363.067 121.51C363.371 121.325 363.61 121.072 363.785 120.751C363.959 120.426 364.046 120.058 364.046 119.648C364.046 119.231 363.959 118.861 363.785 118.54C363.614 118.215 363.374 117.962 363.067 117.781C362.762 117.596 362.413 117.504 362.02 117.504C361.63 117.504 361.283 117.596 360.979 117.781C360.675 117.962 360.435 118.215 360.261 118.54C360.086 118.861 359.999 119.231 359.999 119.648C359.999 120.062 360.085 120.429 360.256 120.751C360.43 121.072 360.669 121.325 360.974 121.51C361.282 121.691 361.63 121.782 362.02 121.782ZM369.3 122.269V117.016H370.049V117.735C370.258 117.444 370.507 117.225 370.798 117.078C371.089 116.927 371.414 116.852 371.773 116.852C372.203 116.852 372.578 116.951 372.896 117.15C373.217 117.348 373.44 117.618 373.563 117.96C373.765 117.625 374.021 117.357 374.332 117.155C374.647 116.953 375.02 116.852 375.451 116.852C375.823 116.852 376.155 116.929 376.446 117.083C376.736 117.234 376.964 117.456 377.128 117.75C377.296 118.041 377.379 118.396 377.379 118.817V122.269H376.63V119.027C376.63 118.548 376.506 118.169 376.256 117.888C376.006 117.608 375.673 117.468 375.256 117.468C374.968 117.468 374.708 117.531 374.476 117.658C374.243 117.784 374.059 117.948 373.922 118.15C373.785 118.348 373.717 118.554 373.717 118.766V122.269H372.968V118.95C372.968 118.495 372.843 118.135 372.593 117.868C372.347 117.601 372.021 117.468 371.614 117.468C371.326 117.468 371.063 117.529 370.824 117.652C370.588 117.772 370.4 117.928 370.259 118.119C370.119 118.311 370.049 118.507 370.049 118.709V122.269H369.3ZM381.469 122.433C380.672 122.433 380.103 122.254 379.761 121.895C379.419 121.536 379.248 120.935 379.248 120.094V117.016H379.997V119.961C379.997 120.624 380.11 121.098 380.335 121.382C380.561 121.662 380.939 121.802 381.469 121.802C382.003 121.802 382.38 121.662 382.603 121.382C382.828 121.098 382.941 120.624 382.941 119.961V117.016H383.69V120.094C383.69 120.935 383.519 121.536 383.177 121.895C382.839 122.254 382.269 122.433 381.469 122.433ZM386.978 122.433C386.544 122.433 386.161 122.329 385.829 122.12C385.497 121.908 385.239 121.609 385.054 121.223L385.455 120.792C385.619 121.127 385.832 121.389 386.096 121.577C386.359 121.761 386.652 121.854 386.973 121.854C387.188 121.854 387.385 121.809 387.563 121.72C387.744 121.631 387.888 121.505 387.994 121.341C388.103 121.173 388.158 120.975 388.158 120.746C388.158 120.537 388.107 120.373 388.004 120.253C387.905 120.134 387.758 120.031 387.563 119.945C387.371 119.857 387.132 119.757 386.845 119.648C386.622 119.559 386.407 119.458 386.198 119.345C385.99 119.232 385.817 119.09 385.68 118.919C385.547 118.745 385.48 118.525 385.48 118.258C385.48 117.988 385.552 117.748 385.696 117.54C385.839 117.328 386.038 117.162 386.291 117.042C386.544 116.919 386.831 116.857 387.153 116.857C387.447 116.857 387.722 116.921 387.978 117.047C388.238 117.174 388.471 117.353 388.676 117.586L388.332 118.022C388.018 117.608 387.626 117.401 387.158 117.401C386.87 117.401 386.636 117.476 386.455 117.627C386.277 117.777 386.188 117.974 386.188 118.217C386.188 118.391 386.245 118.536 386.357 118.653C386.47 118.769 386.617 118.868 386.799 118.95C386.983 119.032 387.182 119.114 387.394 119.196C387.701 119.313 387.968 119.429 388.194 119.545C388.423 119.662 388.601 119.81 388.727 119.992C388.854 120.169 388.917 120.412 388.917 120.72C388.917 121.072 388.835 121.377 388.671 121.633C388.507 121.89 388.278 122.088 387.984 122.228C387.693 122.365 387.358 122.433 386.978 122.433ZM390.534 122.269V117.016H391.283V122.269H390.534ZM390.914 115.965C390.821 115.965 390.738 115.943 390.662 115.898C390.591 115.854 390.532 115.794 390.488 115.719C390.444 115.643 390.421 115.561 390.421 115.472C390.421 115.383 390.444 115.303 390.488 115.231C390.532 115.156 390.591 115.096 390.662 115.052C390.738 115.007 390.821 114.985 390.914 114.985C391.003 114.985 391.083 115.007 391.155 115.052C391.227 115.096 391.285 115.154 391.329 115.226C391.377 115.298 391.401 115.38 391.401 115.472C391.401 115.561 391.377 115.643 391.329 115.719C391.285 115.794 391.227 115.854 391.155 115.898C391.083 115.943 391.003 115.965 390.914 115.965ZM395.783 122.433C395.389 122.433 395.02 122.365 394.675 122.228C394.329 122.088 394.027 121.891 393.767 121.638C393.507 121.385 393.303 121.089 393.156 120.751C393.009 120.412 392.936 120.043 392.936 119.643C392.936 119.246 393.008 118.878 393.151 118.54C393.295 118.201 393.495 117.906 393.751 117.652C394.011 117.399 394.314 117.203 394.659 117.063C395.005 116.922 395.379 116.852 395.783 116.852C396.128 116.852 396.456 116.904 396.768 117.006C397.079 117.109 397.347 117.251 397.573 117.432L397.265 117.935C396.882 117.637 396.417 117.488 395.87 117.488C395.439 117.488 395.059 117.584 394.731 117.776C394.406 117.964 394.153 118.222 393.972 118.55C393.791 118.875 393.7 119.239 393.7 119.643C393.7 120.05 393.792 120.417 393.977 120.746C394.162 121.071 394.418 121.327 394.747 121.515C395.075 121.703 395.451 121.797 395.875 121.797C396.142 121.797 396.393 121.76 396.629 121.684C396.868 121.606 397.079 121.495 397.26 121.351L397.573 121.854C397.344 122.031 397.075 122.172 396.768 122.274C396.46 122.38 396.132 122.433 395.783 122.433ZM401.637 122.269V117.581H401.109V117.016H401.637V115.134C401.637 114.741 401.693 114.407 401.806 114.134C401.919 113.86 402.083 113.651 402.299 113.508C402.514 113.364 402.779 113.292 403.094 113.292C403.289 113.292 403.47 113.32 403.638 113.374C403.805 113.426 403.952 113.501 404.079 113.6L403.817 114.134C403.66 114.01 403.461 113.949 403.222 113.949C403.03 113.949 402.873 113.997 402.75 114.092C402.627 114.185 402.535 114.318 402.473 114.493C402.415 114.667 402.386 114.874 402.386 115.113V117.016H403.725V117.581H402.386V122.269H401.637ZM407.601 122.433C407.054 122.433 406.559 122.315 406.118 122.079C405.681 121.843 405.333 121.515 405.077 121.094C404.82 120.674 404.692 120.19 404.692 119.643C404.692 119.092 404.82 118.608 405.077 118.191C405.333 117.77 405.681 117.442 406.118 117.206C406.556 116.97 407.05 116.852 407.601 116.852C408.148 116.852 408.64 116.97 409.078 117.206C409.519 117.442 409.868 117.77 410.125 118.191C410.381 118.608 410.509 119.092 410.509 119.643C410.509 120.19 410.381 120.674 410.125 121.094C409.868 121.515 409.519 121.843 409.078 122.079C408.64 122.315 408.148 122.433 407.601 122.433ZM407.601 121.766C408.011 121.766 408.377 121.676 408.698 121.495C409.02 121.313 409.273 121.064 409.458 120.746C409.642 120.424 409.735 120.057 409.735 119.643C409.735 119.229 409.642 118.863 409.458 118.545C409.273 118.224 409.02 117.972 408.698 117.791C408.377 117.61 408.011 117.519 407.601 117.519C407.19 117.519 406.824 117.61 406.503 117.791C406.182 117.972 405.928 118.224 405.744 118.545C405.559 118.863 405.467 119.229 405.467 119.643C405.467 120.053 405.559 120.419 405.744 120.741C405.928 121.062 406.182 121.313 406.503 121.495C406.824 121.676 407.19 121.766 407.601 121.766ZM412.142 122.269V117.016H412.891V117.791C413.059 117.483 413.274 117.251 413.537 117.093C413.804 116.933 414.112 116.852 414.461 116.852C414.615 116.852 414.77 116.869 414.927 116.904C415.088 116.938 415.227 116.982 415.343 117.037L415.035 117.668C414.933 117.617 414.815 117.577 414.681 117.55C414.551 117.523 414.426 117.509 414.307 117.509C414.064 117.509 413.835 117.57 413.619 117.694C413.404 117.817 413.228 117.977 413.091 118.176C412.958 118.371 412.891 118.579 412.891 118.802V122.269H412.142ZM419.438 122.269V114.575H418.637V113.805H420.217V122.269H419.438ZM422.034 122.269V121.905C422.821 121.289 423.498 120.744 424.066 120.269C424.633 119.79 425.109 119.366 425.492 118.996C425.875 118.627 426.179 118.295 426.405 118.001C426.63 117.707 426.791 117.435 426.887 117.186C426.983 116.936 427.03 116.69 427.03 116.447C427.03 116.064 426.938 115.717 426.753 115.406C426.572 115.094 426.328 114.847 426.02 114.662C425.712 114.477 425.37 114.385 424.994 114.385C424.618 114.385 424.276 114.477 423.968 114.662C423.66 114.847 423.407 115.1 423.209 115.421C423.011 115.743 422.893 116.112 422.855 116.529L422.152 116.293C422.19 115.917 422.287 115.568 422.445 115.247C422.605 114.925 422.814 114.645 423.07 114.405C423.33 114.166 423.626 113.98 423.958 113.846C424.289 113.713 424.647 113.646 425.03 113.646C425.56 113.646 426.04 113.769 426.471 114.016C426.902 114.258 427.244 114.59 427.497 115.011C427.75 115.431 427.877 115.907 427.877 116.437C427.877 116.71 427.836 116.979 427.754 117.242C427.672 117.505 427.533 117.781 427.338 118.068C427.147 118.355 426.889 118.668 426.564 119.007C426.239 119.342 425.834 119.716 425.348 120.13C424.866 120.544 424.289 121.012 423.619 121.536H428.031V122.269H422.034ZM432.272 122.269V113.441H433.021V117.735C433.165 117.488 433.387 117.28 433.688 117.109C433.989 116.938 434.356 116.852 434.791 116.852C435.198 116.852 435.548 116.936 435.842 117.104C436.136 117.271 436.362 117.516 436.519 117.837C436.677 118.155 436.755 118.54 436.755 118.991V122.269H436.006V119.135C436.006 118.591 435.88 118.176 435.627 117.888C435.374 117.601 435.016 117.458 434.555 117.458C434.233 117.458 433.958 117.523 433.729 117.652C433.503 117.782 433.329 117.953 433.206 118.165C433.082 118.374 433.021 118.601 433.021 118.848V122.269H432.272ZM438.71 122.269V117.016H439.459V117.791C439.627 117.483 439.842 117.251 440.106 117.093C440.372 116.933 440.68 116.852 441.029 116.852C441.183 116.852 441.339 116.869 441.496 116.904C441.657 116.938 441.795 116.982 441.911 117.037L441.604 117.668C441.501 117.617 441.383 117.577 441.25 117.55C441.12 117.523 440.995 117.509 440.875 117.509C440.632 117.509 440.403 117.57 440.188 117.694C439.972 117.817 439.796 117.977 439.659 118.176C439.526 118.371 439.459 118.579 439.459 118.802V122.269H438.71ZM444.42 122.433C443.985 122.433 443.602 122.329 443.271 122.12C442.939 121.908 442.681 121.609 442.496 121.223L442.896 120.792C443.06 121.127 443.274 121.389 443.537 121.577C443.801 121.761 444.093 121.854 444.414 121.854C444.63 121.854 444.827 121.809 445.004 121.72C445.186 121.631 445.329 121.505 445.435 121.341C445.545 121.173 445.599 120.975 445.599 120.746C445.599 120.537 445.548 120.373 445.446 120.253C445.346 120.134 445.199 120.031 445.004 119.945C444.813 119.857 444.573 119.757 444.286 119.648C444.064 119.559 443.848 119.458 443.64 119.345C443.431 119.232 443.259 119.09 443.122 118.919C442.988 118.745 442.922 118.525 442.922 118.258C442.922 117.988 442.994 117.748 443.137 117.54C443.281 117.328 443.479 117.162 443.732 117.042C443.985 116.919 444.273 116.857 444.594 116.857C444.888 116.857 445.163 116.921 445.42 117.047C445.68 117.174 445.912 117.353 446.117 117.586L445.774 118.022C445.459 117.608 445.068 117.401 444.599 117.401C444.312 117.401 444.078 117.476 443.896 117.627C443.719 117.777 443.63 117.974 443.63 118.217C443.63 118.391 443.686 118.536 443.799 118.653C443.912 118.769 444.059 118.868 444.24 118.95C444.425 119.032 444.623 119.114 444.835 119.196C445.143 119.313 445.41 119.429 445.635 119.545C445.864 119.662 446.042 119.81 446.169 119.992C446.295 120.169 446.359 120.412 446.359 120.72C446.359 121.072 446.277 121.377 446.112 121.633C445.948 121.89 445.719 122.088 445.425 122.228C445.134 122.365 444.799 122.433 444.42 122.433ZM452.98 122.428C452.526 122.428 452.098 122.355 451.698 122.208C451.301 122.061 450.956 121.85 450.662 121.577C450.371 121.303 450.156 120.975 450.016 120.592L450.636 120.284C450.804 120.746 451.098 121.11 451.519 121.377C451.943 121.643 452.433 121.777 452.991 121.777C453.442 121.777 453.835 121.69 454.171 121.515C454.509 121.337 454.771 121.088 454.955 120.766C455.144 120.445 455.238 120.065 455.238 119.627C455.238 119.142 455.126 118.723 454.904 118.371C454.682 118.018 454.379 117.747 453.996 117.555C453.613 117.363 453.177 117.268 452.688 117.268C452.261 117.268 451.859 117.352 451.483 117.519C451.106 117.687 450.761 117.933 450.446 118.258L451.139 113.805H455.458V114.493H451.785L451.354 117.283C452.004 116.873 452.715 116.717 453.488 116.816C453.981 116.854 454.415 116.994 454.791 117.237C455.171 117.48 455.467 117.803 455.679 118.206C455.894 118.607 456.002 119.072 456.002 119.602C456.002 120.224 455.863 120.746 455.586 121.166C455.309 121.587 454.942 121.903 454.483 122.115C454.029 122.324 453.528 122.428 452.98 122.428ZM460.271 122.428C459.816 122.428 459.388 122.355 458.988 122.208C458.591 122.061 458.246 121.85 457.952 121.577C457.661 121.303 457.446 120.975 457.306 120.592L457.926 120.284C458.094 120.746 458.388 121.11 458.809 121.377C459.233 121.643 459.723 121.777 460.281 121.777C460.732 121.777 461.126 121.69 461.461 121.515C461.799 121.337 462.061 121.088 462.246 120.766C462.434 120.445 462.528 120.065 462.528 119.627C462.528 119.142 462.417 118.723 462.194 118.371C461.972 118.018 461.669 117.747 461.286 117.555C460.903 117.363 460.467 117.268 459.978 117.268C459.551 117.268 459.149 117.352 458.773 117.519C458.397 117.687 458.051 117.933 457.737 118.258L458.429 113.805H462.748V114.493H459.075L458.644 117.283C459.294 116.873 460.006 116.717 460.778 116.816C461.271 116.854 461.705 116.994 462.081 117.237C462.461 117.48 462.757 117.803 462.969 118.206C463.184 118.607 463.292 119.072 463.292 119.602C463.292 120.224 463.153 120.746 462.876 121.166C462.599 121.587 462.232 121.903 461.774 122.115C461.319 122.324 460.818 122.428 460.271 122.428ZM467.523 122.269V117.016H468.272V117.735C468.481 117.444 468.73 117.225 469.021 117.078C469.312 116.927 469.637 116.852 469.996 116.852C470.427 116.852 470.801 116.951 471.119 117.15C471.441 117.348 471.663 117.618 471.786 117.96C471.988 117.625 472.244 117.357 472.555 117.155C472.87 116.953 473.243 116.852 473.674 116.852C474.046 116.852 474.378 116.929 474.669 117.083C474.959 117.234 475.187 117.456 475.351 117.75C475.519 118.041 475.602 118.396 475.602 118.817V122.269H474.853V119.027C474.853 118.548 474.729 118.169 474.479 117.888C474.229 117.608 473.896 117.468 473.479 117.468C473.191 117.468 472.932 117.531 472.699 117.658C472.466 117.784 472.282 117.948 472.145 118.15C472.008 118.348 471.94 118.554 471.94 118.766V122.269H471.191V118.95C471.191 118.495 471.066 118.135 470.816 117.868C470.57 117.601 470.244 117.468 469.837 117.468C469.549 117.468 469.286 117.529 469.047 117.652C468.811 117.772 468.623 117.928 468.482 118.119C468.342 118.311 468.272 118.507 468.272 118.709V122.269H467.523ZM477.563 122.269V117.016H478.312V122.269H477.563ZM477.943 115.965C477.851 115.965 477.767 115.943 477.692 115.898C477.62 115.854 477.562 115.794 477.517 115.719C477.473 115.643 477.451 115.561 477.451 115.472C477.451 115.383 477.473 115.303 477.517 115.231C477.562 115.156 477.62 115.096 477.692 115.052C477.767 115.007 477.851 114.985 477.943 114.985C478.032 114.985 478.112 115.007 478.184 115.052C478.256 115.096 478.314 115.154 478.358 115.226C478.406 115.298 478.43 115.38 478.43 115.472C478.43 115.561 478.406 115.643 478.358 115.719C478.314 115.794 478.256 115.854 478.184 115.898C478.112 115.943 478.032 115.965 477.943 115.965ZM480.37 122.269V117.016H481.119V117.735C481.263 117.488 481.485 117.28 481.786 117.109C482.087 116.938 482.455 116.852 482.889 116.852C483.296 116.852 483.646 116.936 483.94 117.104C484.234 117.271 484.46 117.516 484.618 117.837C484.775 118.155 484.853 118.54 484.853 118.991V122.269H484.105V119.135C484.105 118.591 483.978 118.177 483.725 117.894C483.472 117.606 483.115 117.463 482.653 117.463C482.331 117.463 482.056 117.528 481.827 117.658C481.601 117.784 481.427 117.953 481.304 118.165C481.181 118.374 481.119 118.601 481.119 118.848V122.269H480.37Z" fill="white" fill-opacity="0.5"/>
<path d="M103.756 170.652V169.447H100.793V168.796L103.361 164.514H104.46V168.831H105.348V169.447H104.46V170.652H103.756ZM101.488 168.831H103.756V165.085H103.712L101.488 168.831ZM106.596 164.144H107.3V166.853H107.335C107.446 166.595 107.602 166.39 107.801 166.237C108.006 166.085 108.279 166.008 108.619 166.008C109.088 166.008 109.457 166.161 109.727 166.466C110.002 166.765 110.14 167.19 110.14 167.741V170.652H109.437V167.864C109.437 167.049 109.094 166.642 108.408 166.642C108.267 166.642 108.129 166.659 107.995 166.694C107.866 166.73 107.748 166.782 107.643 166.853C107.537 166.923 107.452 167.014 107.388 167.125C107.329 167.231 107.3 167.357 107.3 167.503V170.652H106.596V164.144Z" fill="white"/>
<path d="M571.051 167.285H118.175V168.018H571.051V167.285Z" fill="white" fill-opacity="0.25"/>
<path d="M102.754 215.775C103.17 215.775 103.481 215.681 103.686 215.494C103.897 215.3 104.003 215.054 104.003 214.755V214.693C104.003 214.371 103.9 214.131 103.695 213.972C103.496 213.808 103.232 213.726 102.904 213.726C102.587 213.726 102.329 213.796 102.13 213.937C101.93 214.072 101.766 214.257 101.637 214.491L101.092 214.069C101.168 213.946 101.259 213.826 101.365 213.709C101.476 213.585 101.605 213.477 101.752 213.383C101.898 213.289 102.068 213.213 102.262 213.155C102.455 213.096 102.675 213.067 102.921 213.067C103.179 213.067 103.422 213.102 103.651 213.172C103.88 213.237 104.076 213.336 104.24 213.471C104.41 213.6 104.542 213.761 104.636 213.955C104.736 214.148 104.785 214.368 104.785 214.614C104.785 214.814 104.753 214.992 104.689 215.151C104.63 215.309 104.548 215.447 104.442 215.564C104.337 215.681 104.211 215.781 104.064 215.863C103.924 215.945 103.771 216.007 103.607 216.048V216.083C103.771 216.118 103.929 216.177 104.082 216.259C104.24 216.335 104.378 216.438 104.495 216.566C104.618 216.69 104.715 216.842 104.785 217.024C104.862 217.2 104.9 217.402 104.9 217.631C104.9 217.894 104.85 218.138 104.75 218.36C104.651 218.577 104.51 218.765 104.328 218.923C104.146 219.076 103.927 219.196 103.669 219.284C103.411 219.372 103.126 219.416 102.816 219.416C102.552 219.416 102.317 219.386 102.112 219.328C101.907 219.269 101.725 219.19 101.567 219.09C101.409 218.991 101.268 218.879 101.145 218.756C101.028 218.633 100.922 218.504 100.828 218.369L101.382 217.947C101.458 218.07 101.54 218.182 101.628 218.281C101.722 218.381 101.825 218.466 101.936 218.536C102.048 218.607 102.174 218.662 102.314 218.703C102.455 218.739 102.619 218.756 102.807 218.756C103.241 218.756 103.569 218.659 103.792 218.466C104.014 218.267 104.126 217.985 104.126 217.622V217.551C104.126 217.188 104.014 216.909 103.792 216.716C103.569 216.517 103.241 216.417 102.807 216.417H102.086V215.775H102.754ZM106.596 212.803H107.3V215.511H107.335C107.446 215.253 107.602 215.048 107.801 214.896C108.006 214.743 108.279 214.667 108.619 214.667C109.088 214.667 109.457 214.819 109.727 215.124C110.002 215.423 110.14 215.848 110.14 216.399V219.31H109.437V216.523C109.437 215.708 109.094 215.3 108.408 215.3C108.267 215.3 108.129 215.318 107.995 215.353C107.866 215.388 107.748 215.441 107.643 215.511C107.537 215.582 107.452 215.672 107.388 215.784C107.329 215.889 107.3 216.015 107.3 216.162V219.31H106.596V212.803Z" fill="white"/>
<path d="M571.051 215.944H118.175V216.676H571.051V215.944Z" fill="white" fill-opacity="0.25"/>
<path d="M105.146 267.969H101.118V267.213L103.123 265.366C103.411 265.102 103.651 264.824 103.844 264.53C104.038 264.231 104.135 263.932 104.135 263.634V263.528C104.135 263.188 104.041 262.912 103.853 262.701C103.666 262.49 103.381 262.385 103 262.385C102.813 262.385 102.648 262.411 102.508 262.464C102.367 262.517 102.244 262.59 102.138 262.684C102.039 262.778 101.954 262.889 101.883 263.018C101.819 263.141 101.766 263.276 101.725 263.422L101.066 263.167C101.124 262.986 101.203 262.81 101.303 262.64C101.409 262.464 101.538 262.309 101.69 262.174C101.848 262.039 102.036 261.93 102.253 261.848C102.476 261.766 102.736 261.725 103.035 261.725C103.334 261.725 103.601 261.769 103.836 261.857C104.07 261.945 104.267 262.068 104.425 262.227C104.583 262.385 104.703 262.572 104.785 262.789C104.873 263.006 104.917 263.247 104.917 263.51C104.917 263.751 104.882 263.974 104.812 264.179C104.747 264.384 104.656 264.58 104.539 264.768C104.422 264.95 104.278 265.128 104.108 265.304C103.944 265.48 103.765 265.656 103.572 265.832L101.919 267.318H105.146V267.969ZM106.596 261.461H107.3V264.17H107.335C107.446 263.912 107.602 263.707 107.801 263.554C108.006 263.402 108.279 263.326 108.619 263.326C109.088 263.326 109.457 263.478 109.727 263.783C110.002 264.082 110.14 264.507 110.14 265.058V267.969H109.437V265.181C109.437 264.366 109.094 263.959 108.408 263.959C108.267 263.959 108.129 263.976 107.995 264.012C107.866 264.047 107.748 264.1 107.643 264.17C107.537 264.24 107.452 264.331 107.388 264.443C107.329 264.548 107.3 264.674 107.3 264.821V267.969H106.596V261.461Z" fill="white"/>
<path d="M571.051 264.602H118.175V265.335H571.051V264.602Z" fill="white" fill-opacity="0.25"/>
<path d="M101.233 316.627V315.977H102.947V311.034H102.886L101.338 312.477L100.907 312.011L102.534 310.489H103.686V315.977H105.269V316.627H101.233ZM106.596 310.12H107.3V312.828H107.335C107.446 312.57 107.602 312.365 107.801 312.213C108.006 312.06 108.279 311.984 108.619 311.984C109.088 311.984 109.457 312.137 109.727 312.441C110.002 312.74 110.14 313.165 110.14 313.717V316.627H109.437V313.84C109.437 313.025 109.094 312.617 108.408 312.617C108.267 312.617 108.129 312.635 107.995 312.67C107.866 312.705 107.748 312.758 107.643 312.828C107.537 312.899 107.452 312.99 107.388 313.101C107.329 313.207 107.3 313.333 107.3 313.479V316.627H106.596V310.12Z" fill="white"/>
<path d="M571.051 313.261H118.175V313.994H571.051V313.261Z" fill="white" fill-opacity="0.25"/>
<path d="M103.097 365.391C102.364 365.391 101.828 365.113 101.488 364.556C101.154 363.999 100.986 363.219 100.986 362.217C100.986 361.214 101.154 360.435 101.488 359.878C101.828 359.321 102.364 359.042 103.097 359.042C103.83 359.042 104.363 359.321 104.697 359.878C105.037 360.435 105.207 361.214 105.207 362.217C105.207 363.219 105.037 363.999 104.697 364.556C104.363 365.113 103.83 365.391 103.097 365.391ZM103.097 364.75C103.337 364.75 103.543 364.7 103.713 364.6C103.883 364.5 104.02 364.36 104.126 364.178C104.231 363.996 104.308 363.782 104.354 363.536C104.407 363.29 104.434 363.017 104.434 362.718V361.716C104.434 361.417 104.407 361.144 104.354 360.898C104.308 360.652 104.231 360.438 104.126 360.256C104.02 360.074 103.883 359.934 103.713 359.834C103.543 359.734 103.337 359.684 103.097 359.684C102.857 359.684 102.651 359.734 102.481 359.834C102.311 359.934 102.174 360.074 102.068 360.256C101.963 360.438 101.883 360.652 101.831 360.898C101.784 361.144 101.76 361.417 101.76 361.716V362.718C101.76 363.017 101.784 363.29 101.831 363.536C101.883 363.782 101.963 363.996 102.068 364.178C102.174 364.36 102.311 364.5 102.481 364.6C102.651 364.7 102.857 364.75 103.097 364.75ZM106.596 358.779H107.3V361.487H107.335C107.446 361.229 107.602 361.024 107.801 360.872C108.006 360.719 108.279 360.643 108.619 360.643C109.088 360.643 109.457 360.795 109.727 361.1C110.002 361.399 110.14 361.824 110.14 362.375V365.286H109.437V362.498C109.437 361.683 109.094 361.276 108.408 361.276C108.267 361.276 108.129 361.294 107.995 361.329C107.866 361.364 107.748 361.417 107.643 361.487C107.537 361.557 107.452 361.648 107.388 361.76C107.329 361.865 107.3 361.991 107.3 362.138V365.286H106.596V358.779Z" fill="white"/>
<path d="M571.051 361.92H118.175V362.652H571.051V361.92Z" fill="white" fill-opacity="0.5"/>
<path d="M170.309 240.786H118.175V361.7H170.309V240.786Z" fill="url(#paint0_linear_564_12435)"/>
<rect x="143.876" y="362.432" width="0.732809" height="2.19843" fill="white" fill-opacity="0.25"/>
<path d="M135.248 374.364V373.713H136.962V368.771H136.901L135.353 370.213L134.922 369.747L136.549 368.226H137.701V373.713H139.284V374.364H135.248ZM141.403 374.364L143.751 368.859H141.13V370.002H140.471V368.226H144.498V368.876L142.194 374.364H141.403ZM145.333 375.691L147.628 367.856H148.261L145.966 375.691H145.333ZM153.117 368.876H150.426L150.25 371.215H150.312C150.458 371.01 150.622 370.846 150.804 370.723C150.992 370.6 151.247 370.538 151.569 370.538C151.833 370.538 152.076 370.582 152.299 370.67C152.522 370.758 152.715 370.884 152.879 371.048C153.043 371.207 153.169 371.403 153.257 371.638C153.351 371.872 153.398 372.139 153.398 372.438C153.398 372.737 153.351 373.012 153.257 373.264C153.164 373.511 153.026 373.725 152.844 373.906C152.668 374.082 152.451 374.22 152.193 374.32C151.941 374.419 151.654 374.469 151.332 374.469C151.074 374.469 150.845 374.44 150.646 374.381C150.452 374.323 150.279 374.243 150.127 374.144C149.974 374.044 149.84 373.933 149.722 373.81C149.611 373.686 149.508 373.557 149.415 373.423L149.969 373.001C150.045 373.124 150.124 373.235 150.206 373.335C150.294 373.434 150.388 373.519 150.487 373.59C150.593 373.66 150.713 373.716 150.848 373.757C150.983 373.792 151.144 373.81 151.332 373.81C151.754 373.81 152.073 373.698 152.29 373.475C152.507 373.253 152.615 372.939 152.615 372.534V372.447C152.615 372.042 152.507 371.728 152.29 371.506C152.073 371.283 151.754 371.171 151.332 371.171C151.05 371.171 150.827 371.224 150.663 371.33C150.505 371.429 150.361 371.55 150.232 371.69L149.608 371.602L149.828 368.226H153.117V368.876Z" fill="white"/>
<path d="M237.099 291.35H184.965V361.699H237.099V291.35Z" fill="url(#paint1_linear_564_12435)"/>
<rect x="210.666" y="362.432" width="0.732809" height="2.19843" fill="white" fill-opacity="0.25"/>
<path d="M202.038 374.364V373.713H203.753V368.771H203.691L202.143 370.213L201.713 369.747L203.339 368.226H204.491V373.713H206.074V374.364H202.038ZM209.292 374.469C208.941 374.469 208.633 374.425 208.369 374.337C208.105 374.243 207.882 374.117 207.701 373.959C207.525 373.801 207.39 373.613 207.296 373.396C207.208 373.179 207.164 372.945 207.164 372.693C207.164 372.271 207.279 371.936 207.507 371.69C207.736 371.444 208.035 371.271 208.404 371.171V371.101C208.082 370.99 207.824 370.811 207.63 370.565C207.443 370.313 207.349 370.011 207.349 369.659C207.349 369.19 207.519 368.818 207.859 368.542C208.199 368.261 208.677 368.12 209.292 368.12C209.908 368.12 210.386 368.261 210.726 368.542C211.066 368.818 211.236 369.19 211.236 369.659C211.236 370.011 211.139 370.313 210.945 370.565C210.758 370.811 210.503 370.99 210.18 371.101V371.171C210.55 371.271 210.849 371.444 211.077 371.69C211.306 371.936 211.42 372.271 211.42 372.693C211.42 372.945 211.373 373.179 211.28 373.396C211.192 373.613 211.057 373.801 210.875 373.959C210.699 374.117 210.479 374.243 210.216 374.337C209.952 374.425 209.644 374.469 209.292 374.469ZM209.292 373.827C209.72 373.827 210.051 373.733 210.286 373.546C210.52 373.352 210.638 373.08 210.638 372.728V372.543C210.638 372.191 210.52 371.922 210.286 371.734C210.051 371.541 209.72 371.444 209.292 371.444C208.864 371.444 208.533 371.541 208.299 371.734C208.064 371.922 207.947 372.191 207.947 372.543V372.728C207.947 373.08 208.064 373.352 208.299 373.546C208.533 373.733 208.864 373.827 209.292 373.827ZM209.292 370.828C209.679 370.828 209.972 370.746 210.172 370.582C210.371 370.418 210.471 370.178 210.471 369.861V369.729C210.471 369.413 210.371 369.172 210.172 369.008C209.972 368.844 209.679 368.762 209.292 368.762C208.905 368.762 208.612 368.844 208.413 369.008C208.214 369.172 208.114 369.413 208.114 369.729V369.861C208.114 370.178 208.214 370.418 208.413 370.582C208.612 370.746 208.905 370.828 209.292 370.828ZM212.123 375.691L214.418 367.856H215.052L212.756 375.691H212.123ZM219.907 368.876H217.216L217.04 371.215H217.102C217.248 371.01 217.413 370.846 217.594 370.723C217.782 370.6 218.037 370.538 218.359 370.538C218.623 370.538 218.866 370.582 219.089 370.67C219.312 370.758 219.505 370.884 219.67 371.048C219.834 371.207 219.96 371.403 220.048 371.637C220.142 371.872 220.188 372.139 220.188 372.438C220.188 372.737 220.142 373.012 220.048 373.264C219.954 373.511 219.816 373.725 219.634 373.906C219.459 374.082 219.242 374.22 218.984 374.32C218.732 374.419 218.444 374.469 218.122 374.469C217.864 374.469 217.635 374.44 217.436 374.381C217.243 374.322 217.07 374.243 216.917 374.144C216.765 374.044 216.63 373.933 216.513 373.81C216.401 373.686 216.299 373.557 216.205 373.423L216.759 373C216.835 373.124 216.914 373.235 216.996 373.335C217.084 373.434 217.178 373.519 217.278 373.59C217.383 373.66 217.503 373.716 217.638 373.757C217.773 373.792 217.934 373.81 218.122 373.81C218.544 373.81 218.864 373.698 219.08 373.475C219.297 373.253 219.406 372.939 219.406 372.534V372.446C219.406 372.042 219.297 371.728 219.08 371.506C218.864 371.283 218.544 371.171 218.122 371.171C217.841 371.171 217.618 371.224 217.454 371.33C217.295 371.429 217.152 371.55 217.023 371.69L216.398 371.602L216.618 368.226H219.907V368.876Z" fill="white"/>
<path d="M303.89 335.318H251.756V361.699H303.89V335.318Z" fill="url(#paint2_linear_564_12435)"/>
<rect x="277.456" y="362.432" width="0.732809" height="2.19843" fill="white" fill-opacity="0.25"/>
<path d="M268.828 374.364V373.713H270.543V368.771H270.482L268.934 370.213L268.503 369.747L270.13 368.226H271.282V373.713H272.865V374.364H268.828ZM278.132 370.477C278.132 370.934 278.064 371.365 277.929 371.769C277.794 372.168 277.619 372.534 277.402 372.869C277.191 373.197 276.956 373.49 276.698 373.748C276.44 374 276.188 374.205 275.942 374.364H274.992C275.32 374.123 275.614 373.889 275.872 373.66C276.129 373.431 276.355 373.194 276.549 372.948C276.742 372.696 276.906 372.429 277.041 372.148C277.176 371.86 277.284 371.538 277.366 371.18L277.323 371.163C277.176 371.415 276.985 371.626 276.751 371.796C276.522 371.96 276.22 372.042 275.845 372.042C275.581 372.042 275.338 371.998 275.115 371.91C274.893 371.822 274.702 371.696 274.544 371.532C274.385 371.368 274.259 371.171 274.166 370.943C274.078 370.708 274.034 370.444 274.034 370.151C274.034 369.852 274.081 369.58 274.174 369.334C274.274 369.081 274.412 368.867 274.588 368.692C274.769 368.51 274.983 368.369 275.23 368.27C275.482 368.17 275.763 368.12 276.074 368.12C276.39 368.12 276.675 368.176 276.927 368.287C277.185 368.393 277.402 368.548 277.578 368.753C277.759 368.952 277.897 369.199 277.991 369.492C278.085 369.785 278.132 370.113 278.132 370.477ZM276.083 371.418C276.487 371.418 276.801 371.306 277.024 371.084C277.252 370.861 277.366 370.541 277.366 370.125V370.055C277.366 369.638 277.252 369.319 277.024 369.096C276.801 368.873 276.487 368.762 276.083 368.762C275.678 368.762 275.362 368.873 275.133 369.096C274.91 369.319 274.799 369.638 274.799 370.055V370.125C274.799 370.541 274.91 370.861 275.133 371.084C275.362 371.306 275.678 371.418 276.083 371.418ZM278.914 375.691L281.209 367.856H281.842L279.547 375.691H278.914ZM286.697 368.876H284.007L283.831 371.215H283.892C284.039 371.01 284.203 370.846 284.385 370.723C284.572 370.6 284.827 370.538 285.15 370.538C285.414 370.538 285.657 370.582 285.88 370.67C286.102 370.758 286.296 370.884 286.46 371.048C286.624 371.207 286.75 371.403 286.838 371.638C286.932 371.872 286.979 372.139 286.979 372.438C286.979 372.737 286.932 373.012 286.838 373.264C286.744 373.511 286.607 373.725 286.425 373.906C286.249 374.082 286.032 374.22 285.774 374.32C285.522 374.419 285.235 374.469 284.912 374.469C284.654 374.469 284.426 374.44 284.226 374.381C284.033 374.323 283.86 374.243 283.708 374.144C283.555 374.044 283.42 373.933 283.303 373.81C283.192 373.686 283.089 373.557 282.995 373.423L283.549 373.001C283.625 373.124 283.705 373.235 283.787 373.335C283.875 373.434 283.968 373.519 284.068 373.59C284.174 373.66 284.294 373.716 284.429 373.757C284.563 373.792 284.725 373.81 284.912 373.81C285.334 373.81 285.654 373.698 285.871 373.475C286.088 373.253 286.196 372.939 286.196 372.534V372.447C286.196 372.042 286.088 371.728 285.871 371.506C285.654 371.283 285.334 371.171 284.912 371.171C284.631 371.171 284.408 371.224 284.244 371.33C284.086 371.429 283.942 371.55 283.813 371.69L283.189 371.602L283.409 368.226H286.697V368.876Z" fill="white"/>
<path d="M370.68 316.998H318.546V361.699H370.68V316.998Z" fill="url(#paint3_linear_564_12435)"/>
<rect x="344.247" y="362.432" width="0.732809" height="2.19843" fill="white" fill-opacity="0.25"/>
<path d="M339.532 374.364H335.504V373.607L337.509 371.761C337.797 371.497 338.037 371.218 338.23 370.925C338.424 370.626 338.521 370.327 338.521 370.028V369.923C338.521 369.583 338.427 369.307 338.239 369.096C338.052 368.885 337.767 368.78 337.386 368.78C337.199 368.78 337.034 368.806 336.894 368.859C336.753 368.911 336.63 368.985 336.524 369.079C336.425 369.172 336.34 369.284 336.269 369.413C336.205 369.536 336.152 369.671 336.111 369.817L335.452 369.562C335.51 369.38 335.589 369.205 335.689 369.035C335.795 368.859 335.923 368.703 336.076 368.568C336.234 368.434 336.422 368.325 336.639 368.243C336.861 368.161 337.122 368.12 337.421 368.12C337.72 368.12 337.987 368.164 338.222 368.252C338.456 368.34 338.652 368.463 338.811 368.621C338.969 368.78 339.089 368.967 339.171 369.184C339.259 369.401 339.303 369.641 339.303 369.905C339.303 370.145 339.268 370.368 339.198 370.573C339.133 370.779 339.042 370.975 338.925 371.163C338.808 371.344 338.664 371.523 338.494 371.699C338.33 371.875 338.151 372.051 337.958 372.227L336.305 373.713H339.532V374.364ZM342.873 374.469C342.14 374.469 341.604 374.191 341.264 373.634C340.93 373.077 340.762 372.297 340.762 371.295C340.762 370.292 340.93 369.512 341.264 368.955C341.604 368.398 342.14 368.12 342.873 368.12C343.606 368.12 344.139 368.398 344.473 368.955C344.813 369.512 344.983 370.292 344.983 371.295C344.983 372.297 344.813 373.077 344.473 373.634C344.139 374.191 343.606 374.469 342.873 374.469ZM342.873 373.827C343.113 373.827 343.318 373.777 343.489 373.678C343.659 373.578 343.796 373.437 343.902 373.256C344.007 373.074 344.084 372.86 344.13 372.614C344.183 372.367 344.21 372.095 344.21 371.796V370.793C344.21 370.494 344.183 370.222 344.13 369.975C344.084 369.729 344.007 369.515 343.902 369.334C343.796 369.152 343.659 369.011 343.489 368.911C343.318 368.812 343.113 368.762 342.873 368.762C342.633 368.762 342.427 368.812 342.257 368.911C342.087 369.011 341.95 369.152 341.844 369.334C341.739 369.515 341.659 369.729 341.607 369.975C341.56 370.222 341.536 370.494 341.536 370.793V371.796C341.536 372.095 341.56 372.367 341.607 372.614C341.659 372.86 341.739 373.074 341.844 373.256C341.95 373.437 342.087 373.578 342.257 373.678C342.427 373.777 342.633 373.827 342.873 373.827ZM345.704 375.691L347.999 367.856H348.632L346.337 375.691H345.704ZM353.488 368.876H350.797L350.621 371.215H350.683C350.829 371.01 350.993 370.846 351.175 370.723C351.363 370.6 351.618 370.538 351.94 370.538C352.204 370.538 352.447 370.582 352.67 370.67C352.893 370.758 353.086 370.884 353.25 371.048C353.414 371.207 353.54 371.403 353.628 371.637C353.722 371.872 353.769 372.139 353.769 372.438C353.769 372.737 353.722 373.012 353.628 373.264C353.535 373.511 353.397 373.725 353.215 373.906C353.039 374.082 352.822 374.22 352.564 374.32C352.312 374.419 352.025 374.469 351.703 374.469C351.445 374.469 351.216 374.44 351.017 374.381C350.823 374.322 350.65 374.243 350.498 374.144C350.345 374.044 350.211 373.933 350.093 373.81C349.982 373.686 349.879 373.557 349.786 373.423L350.34 373C350.416 373.124 350.495 373.235 350.577 373.335C350.665 373.434 350.759 373.519 350.858 373.59C350.964 373.66 351.084 373.716 351.219 373.757C351.354 373.792 351.515 373.81 351.703 373.81C352.125 373.81 352.444 373.698 352.661 373.475C352.878 373.253 352.986 372.939 352.986 372.534V372.446C352.986 372.042 352.878 371.728 352.661 371.506C352.444 371.283 352.125 371.171 351.703 371.171C351.421 371.171 351.198 371.224 351.034 371.33C350.876 371.429 350.732 371.55 350.603 371.69L349.979 371.602L350.199 368.226H353.488V368.876Z" fill="white"/>
<path d="M437.47 320.662H385.336V361.699H437.47V320.662Z" fill="url(#paint4_linear_564_12435)"/>
<rect x="411.037" y="362.432" width="0.732809" height="2.19843" fill="white" fill-opacity="0.25"/>
<path d="M406.322 374.364H402.295V373.607L404.3 371.761C404.587 371.497 404.827 371.218 405.021 370.925C405.214 370.626 405.311 370.327 405.311 370.028V369.923C405.311 369.583 405.217 369.307 405.03 369.096C404.842 368.885 404.558 368.78 404.177 368.78C403.989 368.78 403.825 368.806 403.684 368.859C403.543 368.911 403.42 368.985 403.315 369.079C403.215 369.172 403.13 369.284 403.06 369.413C402.995 369.536 402.942 369.671 402.901 369.817L402.242 369.562C402.301 369.38 402.38 369.205 402.479 369.035C402.585 368.859 402.714 368.703 402.866 368.568C403.025 368.434 403.212 368.325 403.429 368.243C403.652 368.161 403.913 368.12 404.212 368.12C404.511 368.12 404.777 368.164 405.012 368.252C405.246 368.34 405.443 368.463 405.601 368.621C405.759 368.78 405.88 368.967 405.962 369.184C406.05 369.401 406.094 369.641 406.094 369.905C406.094 370.146 406.058 370.368 405.988 370.573C405.924 370.779 405.833 370.975 405.715 371.163C405.598 371.344 405.455 371.523 405.285 371.699C405.12 371.875 404.942 372.051 404.748 372.227L403.095 373.713H406.322V374.364ZM407.799 374.364V373.713H409.514V368.771H409.452L407.905 370.213L407.474 369.747L409.101 368.226H410.252V373.713H411.835V374.364H407.799ZM412.494 375.691L414.79 367.856H415.423L413.128 375.691H412.494ZM420.278 368.876H417.587L417.411 371.215H417.473C417.619 371.01 417.784 370.846 417.965 370.723C418.153 370.6 418.408 370.538 418.73 370.538C418.994 370.538 419.238 370.582 419.46 370.67C419.683 370.758 419.877 370.884 420.041 371.048C420.205 371.207 420.331 371.403 420.419 371.638C420.513 371.872 420.559 372.139 420.559 372.438C420.559 372.737 420.513 373.012 420.419 373.264C420.325 373.511 420.187 373.725 420.005 373.906C419.83 374.082 419.613 374.22 419.355 374.32C419.103 374.419 418.815 374.469 418.493 374.469C418.235 374.469 418.006 374.44 417.807 374.381C417.614 374.323 417.441 374.243 417.288 374.144C417.136 374.044 417.001 373.933 416.884 373.81C416.772 373.686 416.67 373.557 416.576 373.423L417.13 373.001C417.206 373.124 417.285 373.235 417.367 373.335C417.455 373.434 417.549 373.519 417.649 373.59C417.754 373.66 417.874 373.716 418.009 373.757C418.144 373.792 418.305 373.81 418.493 373.81C418.915 373.81 419.235 373.698 419.451 373.475C419.668 373.253 419.777 372.939 419.777 372.534V372.447C419.777 372.042 419.668 371.728 419.451 371.506C419.235 371.283 418.915 371.171 418.493 371.171C418.212 371.171 417.989 371.224 417.825 371.33C417.666 371.429 417.523 371.55 417.394 371.69L416.769 371.602L416.989 368.226H420.278V368.876Z" fill="white"/>
<path d="M504.261 324.326H452.127V361.7H504.261V324.326Z" fill="url(#paint5_linear_564_12435)"/>
<rect x="477.827" y="362.432" width="0.732809" height="2.19843" fill="white" fill-opacity="0.25"/>
<path d="M473.113 374.364H469.085V373.607L471.09 371.761C471.377 371.497 471.618 371.218 471.811 370.925C472.005 370.626 472.101 370.327 472.101 370.028V369.923C472.101 369.583 472.007 369.307 471.82 369.096C471.632 368.885 471.348 368.78 470.967 368.78C470.779 368.78 470.615 368.806 470.474 368.859C470.334 368.911 470.211 368.985 470.105 369.079C470.005 369.172 469.92 369.284 469.85 369.413C469.786 369.536 469.733 369.671 469.692 369.817L469.032 369.562C469.091 369.38 469.17 369.205 469.27 369.035C469.375 368.859 469.504 368.703 469.657 368.568C469.815 368.434 470.002 368.325 470.219 368.243C470.442 368.161 470.703 368.12 471.002 368.12C471.301 368.12 471.568 368.164 471.802 368.252C472.037 368.34 472.233 368.463 472.391 368.621C472.55 368.78 472.67 368.967 472.752 369.184C472.84 369.401 472.884 369.641 472.884 369.905C472.884 370.146 472.849 370.368 472.778 370.573C472.714 370.779 472.623 370.975 472.506 371.163C472.389 371.344 472.245 371.523 472.075 371.699C471.911 371.875 471.732 372.051 471.538 372.227L469.885 373.713H473.113V374.364ZM478.503 374.364H474.475V373.607L476.48 371.761C476.767 371.497 477.008 371.218 477.201 370.925C477.395 370.626 477.491 370.327 477.491 370.028V369.923C477.491 369.583 477.398 369.307 477.21 369.096C477.022 368.885 476.738 368.78 476.357 368.78C476.169 368.78 476.005 368.806 475.864 368.859C475.724 368.911 475.601 368.985 475.495 369.079C475.395 369.172 475.31 369.284 475.24 369.413C475.176 369.536 475.123 369.671 475.082 369.817L474.422 369.562C474.481 369.38 474.56 369.205 474.66 369.035C474.765 368.859 474.894 368.703 475.047 368.568C475.205 368.434 475.393 368.325 475.609 368.243C475.832 368.161 476.093 368.12 476.392 368.12C476.691 368.12 476.958 368.164 477.192 368.252C477.427 368.34 477.623 368.463 477.781 368.621C477.94 368.78 478.06 368.967 478.142 369.184C478.23 369.401 478.274 369.641 478.274 369.905C478.274 370.146 478.239 370.368 478.168 370.573C478.104 370.779 478.013 370.975 477.896 371.163C477.779 371.344 477.635 371.523 477.465 371.699C477.301 371.875 477.122 372.051 476.929 372.227L475.275 373.713H478.503V374.364ZM479.285 375.691L481.58 367.856H482.213L479.918 375.691H479.285ZM487.068 368.876H484.378L484.202 371.215H484.263C484.41 371.01 484.574 370.846 484.756 370.723C484.943 370.6 485.198 370.538 485.521 370.538C485.785 370.538 486.028 370.582 486.251 370.67C486.473 370.758 486.667 370.884 486.831 371.048C486.995 371.207 487.121 371.403 487.209 371.638C487.303 371.872 487.35 372.139 487.35 372.438C487.35 372.737 487.303 373.012 487.209 373.264C487.115 373.511 486.978 373.725 486.796 373.906C486.62 374.082 486.403 374.22 486.145 374.32C485.893 374.419 485.606 374.469 485.283 374.469C485.025 374.469 484.797 374.44 484.597 374.381C484.404 374.323 484.231 374.243 484.079 374.144C483.926 374.044 483.791 373.933 483.674 373.81C483.563 373.686 483.46 373.557 483.366 373.423L483.92 373.001C483.996 373.124 484.076 373.235 484.158 373.335C484.246 373.434 484.339 373.519 484.439 373.59C484.545 373.66 484.665 373.716 484.8 373.757C484.934 373.792 485.096 373.81 485.283 373.81C485.705 373.81 486.025 373.698 486.242 373.475C486.459 373.253 486.567 372.939 486.567 372.534V372.447C486.567 372.042 486.459 371.728 486.242 371.506C486.025 371.283 485.705 371.171 485.283 371.171C485.002 371.171 484.779 371.224 484.615 371.33C484.457 371.429 484.313 371.55 484.184 371.69L483.56 371.602L483.78 368.226H487.068V368.876Z" fill="white"/>
<path d="M571.051 330.189H518.917V361.699H571.051V330.189Z" fill="url(#paint6_linear_564_12435)"/>
<rect x="544.618" y="362.432" width="0.732809" height="2.19843" fill="white" fill-opacity="0.25"/>
<path d="M539.903 374.364H535.875V373.607L537.88 371.761C538.168 371.497 538.408 371.218 538.601 370.925C538.795 370.626 538.892 370.327 538.892 370.028V369.923C538.892 369.583 538.798 369.307 538.61 369.096C538.423 368.885 538.138 368.78 537.757 368.78C537.57 368.78 537.405 368.806 537.265 368.859C537.124 368.911 537.001 368.985 536.895 369.079C536.796 369.172 536.711 369.284 536.64 369.413C536.576 369.536 536.523 369.671 536.482 369.817L535.823 369.562C535.881 369.38 535.96 369.205 536.06 369.035C536.166 368.859 536.295 368.703 536.447 368.568C536.605 368.434 536.793 368.325 537.01 368.243C537.233 368.161 537.493 368.12 537.792 368.12C538.091 368.12 538.358 368.164 538.593 368.252C538.827 368.34 539.024 368.463 539.182 368.621C539.34 368.78 539.46 368.967 539.542 369.184C539.63 369.401 539.674 369.641 539.674 369.905C539.674 370.145 539.639 370.368 539.569 370.573C539.504 370.779 539.413 370.975 539.296 371.163C539.179 371.344 539.035 371.523 538.865 371.699C538.701 371.875 538.522 372.051 538.329 372.227L536.676 373.713H539.903V374.364ZM542.901 370.828C543.317 370.828 543.628 370.735 543.833 370.547C544.044 370.354 544.15 370.107 544.15 369.808V369.747C544.15 369.424 544.047 369.184 543.842 369.026C543.643 368.862 543.379 368.78 543.051 368.78C542.734 368.78 542.476 368.85 542.277 368.991C542.077 369.125 541.913 369.31 541.784 369.545L541.239 369.122C541.315 368.999 541.406 368.879 541.512 368.762C541.623 368.639 541.752 368.53 541.899 368.437C542.045 368.343 542.215 368.267 542.409 368.208C542.602 368.149 542.822 368.12 543.068 368.12C543.326 368.12 543.569 368.155 543.798 368.226C544.027 368.29 544.223 368.39 544.387 368.524C544.557 368.653 544.689 368.815 544.783 369.008C544.883 369.202 544.932 369.421 544.932 369.668C544.932 369.867 544.9 370.046 544.836 370.204C544.777 370.362 544.695 370.5 544.589 370.617C544.484 370.735 544.358 370.834 544.211 370.916C544.071 370.998 543.918 371.06 543.754 371.101V371.136C543.918 371.171 544.076 371.23 544.229 371.312C544.387 371.388 544.525 371.491 544.642 371.62C544.765 371.743 544.862 371.895 544.932 372.077C545.009 372.253 545.047 372.455 545.047 372.684C545.047 372.948 544.997 373.191 544.897 373.414C544.798 373.631 544.657 373.818 544.475 373.977C544.293 374.129 544.074 374.249 543.816 374.337C543.558 374.425 543.273 374.469 542.963 374.469C542.699 374.469 542.464 374.44 542.259 374.381C542.054 374.322 541.872 374.243 541.714 374.144C541.556 374.044 541.415 373.933 541.292 373.81C541.175 373.686 541.069 373.557 540.975 373.423L541.529 373C541.605 373.124 541.688 373.235 541.775 373.335C541.869 373.434 541.972 373.519 542.083 373.59C542.195 373.66 542.321 373.716 542.461 373.757C542.602 373.792 542.766 373.81 542.954 373.81C543.388 373.81 543.716 373.713 543.939 373.519C544.161 373.32 544.273 373.039 544.273 372.675V372.605C544.273 372.241 544.161 371.963 543.939 371.769C543.716 371.57 543.388 371.47 542.954 371.47H542.233V370.828H542.901ZM546.075 375.691L548.37 367.856H549.003L546.708 375.691H546.075ZM553.859 368.876H551.168L550.992 371.215H551.054C551.2 371.01 551.364 370.846 551.546 370.723C551.734 370.6 551.989 370.538 552.311 370.538C552.575 370.538 552.818 370.582 553.041 370.67C553.264 370.758 553.457 370.884 553.621 371.048C553.786 371.207 553.912 371.403 553.999 371.637C554.093 371.872 554.14 372.139 554.14 372.438C554.14 372.737 554.093 373.012 553.999 373.264C553.906 373.511 553.768 373.725 553.586 373.906C553.41 374.082 553.193 374.22 552.935 374.32C552.683 374.419 552.396 374.469 552.074 374.469C551.816 374.469 551.587 374.44 551.388 374.381C551.194 374.322 551.021 374.243 550.869 374.144C550.716 374.044 550.582 373.933 550.464 373.81C550.353 373.686 550.25 373.557 550.157 373.423L550.711 373C550.787 373.124 550.866 373.235 550.948 373.335C551.036 373.434 551.13 373.519 551.229 373.59C551.335 373.66 551.455 373.716 551.59 373.757C551.725 373.792 551.886 373.81 552.074 373.81C552.496 373.81 552.815 373.698 553.032 373.475C553.249 373.253 553.358 372.939 553.358 372.534V372.446C553.358 372.042 553.249 371.728 553.032 371.506C552.815 371.283 552.496 371.171 552.074 371.171C551.792 371.171 551.569 371.224 551.405 371.33C551.247 371.429 551.103 371.55 550.974 371.69L550.35 371.602L550.57 368.226H553.859V368.876Z" fill="white"/>
</g>
</g>
<defs>
<filter id="filter0_d_564_12435" x="0.925342" y="0.67583" width="608.232" height="478.273" filterUnits="userSpaceOnUse" color-interpolation-filters="sRGB">
<feFlood flood-opacity="0" result="BackgroundImageFix"/>
<feColorMatrix in="SourceAlpha" type="matrix" values="0 0 0 0 0 0 0 0 0 0 0 0 0 0 0 0 0 0 127 0" result="hardAlpha"/>
<feMorphology radius="5.86248" operator="erode" in="SourceAlpha" result="effect1_dropShadow_564_12435"/>
<feOffset dx="-29.3124" dy="29.3124"/>
<feGaussianBlur stdDeviation="29.3124"/>
<feColorMatrix type="matrix" values="0 0 0 0 0.568627 0 0 0 0 0.619608 0 0 0 0 0.670588 0 0 0 0.24 0"/>
<feBlend mode="normal" in2="BackgroundImageFix" result="effect1_dropShadow_564_12435"/>
<feBlend mode="normal" in="SourceGraphic" in2="effect1_dropShadow_564_12435" result="shape"/>
</filter>
<linearGradient id="paint0_linear_564_12435" x1="118.175" y1="240.786" x2="206.098" y2="278.696" gradientUnits="userSpaceOnUse">
<stop stop-color="#FB923C"/>
<stop offset="1" stop-color="#F87171"/>
</linearGradient>
<linearGradient id="paint1_linear_564_12435" x1="184.965" y1="291.35" x2="252.27" y2="341.228" gradientUnits="userSpaceOnUse">
<stop stop-color="#FB923C"/>
<stop offset="1" stop-color="#F87171"/>
</linearGradient>
<linearGradient id="paint2_linear_564_12435" x1="251.756" y1="335.318" x2="273.012" y2="377.325" gradientUnits="userSpaceOnUse">
<stop stop-color="#FB923C"/>
<stop offset="1" stop-color="#F87171"/>
</linearGradient>
<linearGradient id="paint3_linear_564_12435" x1="318.546" y1="316.998" x2="362.724" y2="368.522" gradientUnits="userSpaceOnUse">
<stop stop-color="#FB923C"/>
<stop offset="1" stop-color="#F87171"/>
</linearGradient>
<linearGradient id="paint4_linear_564_12435" x1="385.336" y1="320.662" x2="425.226" y2="371.338" gradientUnits="userSpaceOnUse">
<stop stop-color="#FB923C"/>
<stop offset="1" stop-color="#F87171"/>
</linearGradient>
<linearGradient id="paint5_linear_564_12435" x1="452.127" y1="324.326" x2="487.521" y2="373.7" gradientUnits="userSpaceOnUse">
<stop stop-color="#FB923C"/>
<stop offset="1" stop-color="#F87171"/>
</linearGradient>
<linearGradient id="paint6_linear_564_12435" x1="518.917" y1="330.189" x2="546.816" y2="376.348" gradientUnits="userSpaceOnUse">
<stop stop-color="#FB923C"/>
<stop offset="1" stop-color="#F87171"/>
</linearGradient>
<clipPath id="clip0_564_12435">
<rect width="502.707" height="331.711" fill="white" transform="translate(83 65.1631)"/>
</clipPath>
</defs>
</svg>
