<svg width="343" height="446" viewBox="0 0 343 446" fill="none" xmlns="http://www.w3.org/2000/svg">
<rect width="343" height="446" rx="16" fill="#231526"/>
<path d="M23.598 32V22.081H20.455V20.45H28.575V22.081H25.425V32H23.598ZM30.2274 32V24.832H31.9704V32H30.2274ZM31.1024 23.362C30.9111 23.362 30.7338 23.3153 30.5704 23.222C30.4118 23.124 30.2834 22.9957 30.1854 22.837C30.0921 22.6737 30.0454 22.494 30.0454 22.298C30.0454 22.1067 30.0921 21.9317 30.1854 21.773C30.2834 21.6143 30.4118 21.4883 30.5704 21.395C30.7338 21.297 30.9111 21.248 31.1024 21.248C31.2984 21.248 31.4734 21.297 31.6274 21.395C31.7861 21.4883 31.9121 21.6143 32.0054 21.773C32.1034 21.9317 32.1524 22.1067 32.1524 22.298C32.1524 22.494 32.1034 22.6737 32.0054 22.837C31.9121 22.9957 31.7861 23.124 31.6274 23.222C31.4734 23.3153 31.2984 23.362 31.1024 23.362ZM34.5378 32V24.832H36.2808V25.693C36.6121 25.3243 36.9598 25.0513 37.3238 24.874C37.6925 24.6967 38.0961 24.608 38.5348 24.608C39.0995 24.608 39.6011 24.7363 40.0398 24.993C40.4831 25.2497 40.7958 25.595 40.9778 26.029C41.2998 25.5717 41.6661 25.2217 42.0768 24.979C42.4875 24.7317 42.9635 24.608 43.5048 24.608C44.0181 24.608 44.4731 24.7153 44.8698 24.93C45.2711 25.14 45.5861 25.4433 45.8148 25.84C46.0481 26.232 46.1648 26.7057 46.1648 27.261V32H44.4218V27.737C44.4218 27.205 44.2818 26.785 44.0018 26.477C43.7265 26.1643 43.3555 26.008 42.8888 26.008C42.5715 26.008 42.2868 26.0757 42.0348 26.211C41.7828 26.3463 41.5845 26.526 41.4398 26.75C41.2951 26.974 41.2228 27.2143 41.2228 27.471V32H39.4798V27.667C39.4798 27.163 39.3445 26.7617 39.0738 26.463C38.8031 26.1597 38.4345 26.008 37.9678 26.008C37.6458 26.008 37.3565 26.0757 37.0998 26.211C36.8478 26.3463 36.6471 26.526 36.4978 26.75C36.3531 26.9693 36.2808 27.2073 36.2808 27.464V32H34.5378ZM52.0189 32.224C51.2535 32.224 50.5675 32.0583 49.9609 31.727C49.3589 31.3957 48.8805 30.943 48.5259 30.369C48.1759 29.795 48.0009 29.1487 48.0009 28.43C48.0009 27.898 48.1012 27.401 48.3019 26.939C48.5025 26.477 48.7802 26.071 49.1349 25.721C49.4895 25.371 49.9025 25.098 50.3739 24.902C50.8452 24.706 51.3539 24.608 51.8999 24.608C52.6465 24.608 53.2999 24.762 53.8599 25.07C54.4245 25.378 54.8632 25.8073 55.1759 26.358C55.4932 26.9087 55.6519 27.5503 55.6519 28.283C55.6519 28.3437 55.6495 28.395 55.6449 28.437C55.6402 28.4743 55.6309 28.5397 55.6169 28.633H49.7789C49.7789 29.067 49.8769 29.4497 50.0729 29.781C50.2689 30.1077 50.5419 30.3643 50.8919 30.551C51.2465 30.733 51.6525 30.824 52.1099 30.824C52.5439 30.824 52.9289 30.7377 53.2649 30.565C53.6055 30.3877 53.9135 30.1193 54.1889 29.76L55.4559 30.411C55.1152 30.9803 54.6415 31.426 54.0349 31.748C53.4329 32.0653 52.7609 32.224 52.0189 32.224ZM49.8559 27.541H53.9229C53.8622 27.2143 53.7385 26.932 53.5519 26.694C53.3652 26.456 53.1295 26.2717 52.8449 26.141C52.5602 26.0057 52.2429 25.938 51.8929 25.938C51.5242 25.938 51.1952 26.0033 50.9059 26.134C50.6165 26.2647 50.3809 26.449 50.1989 26.687C50.0169 26.925 49.9025 27.2097 49.8559 27.541ZM57.5957 32V24.832H59.3387V25.875C59.5907 25.4643 59.9057 25.1517 60.2837 24.937C60.6617 24.7177 61.077 24.608 61.5297 24.608C61.7677 24.608 62.0104 24.6407 62.2577 24.706C62.5097 24.7667 62.7244 24.8483 62.9017 24.951L62.1807 26.428C62.0267 26.3347 61.847 26.26 61.6417 26.204C61.441 26.148 61.2544 26.12 61.0817 26.12C60.783 26.12 60.5007 26.197 60.2347 26.351C59.9687 26.505 59.7517 26.7033 59.5837 26.946C59.4204 27.1887 59.3387 27.45 59.3387 27.73V32H57.5957Z" fill="white"/>
<path d="M274.92 26.3937C274.899 26.2881 274.856 26.1882 274.793 26.1008C274.73 26.0135 274.649 25.9407 274.555 25.8874L271.759 24.2937L271.747 21.1418C271.747 21.0333 271.723 20.9261 271.677 20.8277C271.631 20.7293 271.565 20.642 271.482 20.5718C270.468 19.7137 269.299 19.0561 268.04 18.634C267.94 18.6004 267.835 18.588 267.731 18.5975C267.627 18.607 267.525 18.6383 267.434 18.6893L264.613 20.2662L261.789 18.6865C261.698 18.6352 261.596 18.6037 261.492 18.594C261.387 18.5843 261.282 18.5967 261.183 18.6303C259.924 19.0551 258.757 19.7152 257.744 20.5756C257.661 20.6456 257.595 20.7328 257.549 20.831C257.503 20.9292 257.479 21.0362 257.479 21.1446L257.465 24.2993L254.668 25.8931C254.574 25.9463 254.493 26.0191 254.43 26.1065C254.368 26.1938 254.324 26.2937 254.303 26.3993C254.047 27.6855 254.047 29.0094 254.303 30.2956C254.324 30.4012 254.368 30.5011 254.43 30.5884C254.493 30.6758 254.574 30.7486 254.668 30.8018L257.465 32.3956L257.476 35.5484C257.476 35.6569 257.5 35.7641 257.546 35.8625C257.592 35.9609 257.658 36.0482 257.741 36.1184C258.756 36.9765 259.924 37.6341 261.184 38.0562C261.283 38.0898 261.388 38.1022 261.492 38.0927C261.597 38.0831 261.698 38.0519 261.789 38.0009L264.613 36.4193L267.437 37.999C267.548 38.0613 267.674 38.0936 267.802 38.0928C267.884 38.0927 267.966 38.0794 268.043 38.0534C269.302 37.6287 270.469 36.9693 271.482 36.1099C271.565 36.0399 271.631 35.9528 271.677 35.8545C271.723 35.7563 271.747 35.6493 271.747 35.5409L271.761 32.3862L274.558 30.7924C274.652 30.7392 274.733 30.6664 274.795 30.579C274.858 30.4917 274.902 30.3918 274.923 30.2862C275.177 29.0011 275.176 27.6784 274.92 26.3937ZM264.613 32.0928C263.871 32.0928 263.146 31.8728 262.53 31.4608C261.913 31.0487 261.432 30.463 261.148 29.7778C260.865 29.0926 260.79 28.3386 260.935 27.6112C261.08 26.8837 261.437 26.2156 261.961 25.6911C262.486 25.1667 263.154 24.8095 263.881 24.6648C264.609 24.5201 265.363 24.5944 266.048 24.8782C266.733 25.162 267.319 25.6427 267.731 26.2594C268.143 26.8761 268.363 27.6011 268.363 28.3428C268.363 29.3373 267.968 30.2911 267.265 30.9944C266.561 31.6977 265.608 32.0928 264.613 32.0928Z" fill="white"/>
<path d="M318.766 34.6336C318.84 34.708 318.899 34.7962 318.939 34.8933C318.979 34.9904 319 35.0945 319 35.1996C319 35.3047 318.979 35.4088 318.939 35.5059C318.899 35.603 318.84 35.6912 318.766 35.7656C318.691 35.8399 318.603 35.8988 318.506 35.9391C318.409 35.9793 318.305 36 318.2 36C318.094 36 317.99 35.9793 317.893 35.9391C317.796 35.8988 317.708 35.8399 317.634 35.7656L311 29.1309L304.366 35.7656C304.216 35.9157 304.013 36 303.8 36C303.588 36 303.385 35.9157 303.234 35.7656C303.084 35.6155 303 35.4119 303 35.1996C303 34.9873 303.084 34.7837 303.234 34.6336L309.869 28L303.234 21.3664C303.084 21.2163 303 21.0127 303 20.8004C303 20.5881 303.084 20.3845 303.234 20.2344C303.385 20.0843 303.588 20 303.8 20C304.013 20 304.216 20.0843 304.366 20.2344L311 26.8691L317.634 20.2344C317.784 20.0843 317.987 20 318.2 20C318.412 20 318.615 20.0843 318.766 20.2344C318.916 20.3845 319 20.5881 319 20.8004C319 21.0127 318.916 21.2163 318.766 21.3664L312.131 28L318.766 34.6336Z" fill="white" stroke="white" stroke-width="0.5"/>
<path d="M283.5 188C283.5 249.856 233.356 300 171.5 300C109.644 300 59.5 249.856 59.5 188C59.5 126.144 109.644 76 171.5 76C233.356 76 283.5 126.144 283.5 188ZM72.94 188C72.94 242.433 117.067 286.56 171.5 286.56C225.933 286.56 270.06 242.433 270.06 188C270.06 133.567 225.933 89.44 171.5 89.44C117.067 89.44 72.94 133.567 72.94 188Z" fill="white" fill-opacity="0.2"/>
<path d="M171.5 82.72C171.5 79.0086 174.512 75.979 178.216 76.2015C198.007 77.3903 217.172 83.8158 233.724 94.8754C252.142 107.182 266.497 124.674 274.975 145.139C283.452 165.605 285.669 188.124 281.348 209.85C277.026 231.576 266.359 251.532 250.696 267.196C235.032 282.859 215.076 293.526 193.35 297.848C171.624 302.169 149.105 299.952 128.639 291.475C108.174 282.997 90.6821 268.642 78.3754 250.224C67.3158 233.672 60.8903 214.507 59.7015 194.716C59.479 191.012 62.5086 188 66.22 188V188C69.9314 188 72.9161 191.012 73.169 194.715C74.3387 211.845 79.9679 228.416 89.5504 242.757C100.38 258.965 115.773 271.598 133.783 279.058C151.792 286.517 171.609 288.469 190.728 284.666C209.847 280.863 227.409 271.476 241.192 257.692C254.976 243.909 264.363 226.347 268.166 207.228C271.969 188.109 270.017 168.292 262.558 150.283C255.098 132.273 242.465 116.88 226.257 106.05C211.916 96.4679 195.346 90.8387 178.215 89.669C174.512 89.4161 171.5 86.4314 171.5 82.72V82.72Z" fill="url(#paint0_linear_872_3211)"/>
<path d="M128.113 201.64C125.419 201.64 123.053 200.92 121.013 199.48C118.973 198.04 117.379 196.033 116.233 193.46C115.099 190.887 114.533 187.907 114.533 184.52C114.533 181.12 115.099 178.14 116.233 175.58C117.379 173.007 118.973 171 121.013 169.56C123.053 168.12 125.419 167.4 128.113 167.4C130.806 167.4 133.166 168.12 135.193 169.56C137.233 171 138.819 173.007 139.953 175.58C141.099 178.14 141.673 181.12 141.673 184.52C141.673 187.907 141.099 190.887 139.953 193.46C138.819 196.033 137.233 198.04 135.193 199.48C133.166 200.92 130.806 201.64 128.113 201.64ZM128.113 195.94C129.499 195.94 130.693 195.48 131.693 194.56C132.693 193.64 133.466 192.327 134.013 190.62C134.559 188.9 134.833 186.867 134.833 184.52C134.833 182.16 134.559 180.127 134.013 178.42C133.466 176.713 132.693 175.4 131.693 174.48C130.693 173.56 129.499 173.1 128.113 173.1C126.726 173.1 125.526 173.56 124.513 174.48C123.513 175.4 122.739 176.713 122.193 178.42C121.646 180.127 121.373 182.16 121.373 184.52C121.373 186.867 121.646 188.9 122.193 190.62C122.739 192.327 123.513 193.64 124.513 194.56C125.526 195.48 126.726 195.94 128.113 195.94ZM149.095 201L158.895 189.38C158.108 189.873 157.135 190.12 155.975 190.12C154.615 190.12 153.302 189.847 152.035 189.3C150.768 188.74 149.635 187.953 148.635 186.94C147.635 185.927 146.842 184.727 146.255 183.34C145.668 181.94 145.375 180.4 145.375 178.72C145.375 176.613 145.855 174.707 146.815 173C147.775 171.28 149.155 169.913 150.955 168.9C152.755 167.873 154.922 167.36 157.455 167.36C160.028 167.36 162.275 167.887 164.195 168.94C166.115 169.993 167.608 171.407 168.675 173.18C169.742 174.94 170.282 176.9 170.295 179.06C170.295 180.353 170.188 181.52 169.975 182.56C169.762 183.6 169.435 184.573 168.995 185.48C168.568 186.387 168.042 187.273 167.415 188.14C166.802 189.007 166.102 189.913 165.315 190.86L156.935 201H149.095ZM157.775 184.52C158.588 184.52 159.342 184.373 160.035 184.08C160.742 183.773 161.355 183.353 161.875 182.82C162.395 182.273 162.802 181.64 163.095 180.92C163.402 180.2 163.555 179.427 163.555 178.6C163.555 177.48 163.302 176.48 162.795 175.6C162.302 174.72 161.622 174.033 160.755 173.54C159.888 173.047 158.895 172.8 157.775 172.8C156.642 172.8 155.628 173.053 154.735 173.56C153.855 174.053 153.155 174.74 152.635 175.62C152.128 176.487 151.875 177.48 151.875 178.6C151.875 179.72 152.128 180.727 152.635 181.62C153.155 182.513 153.862 183.22 154.755 183.74C155.648 184.26 156.655 184.52 157.775 184.52ZM179.721 185.98C178.974 185.98 178.301 185.8 177.701 185.44C177.101 185.08 176.621 184.6 176.261 184C175.901 183.387 175.721 182.713 175.721 181.98C175.721 181.233 175.901 180.56 176.261 179.96C176.621 179.36 177.101 178.88 177.701 178.52C178.301 178.16 178.974 177.98 179.721 177.98C180.468 177.98 181.141 178.16 181.741 178.52C182.341 178.88 182.821 179.36 183.181 179.96C183.541 180.56 183.721 181.233 183.721 181.98C183.721 182.713 183.541 183.387 183.181 184C182.821 184.6 182.341 185.08 181.741 185.44C181.141 185.8 180.468 185.98 179.721 185.98ZM179.721 201.64C178.974 201.64 178.301 201.46 177.701 201.1C177.101 200.74 176.621 200.26 176.261 199.66C175.901 199.047 175.721 198.373 175.721 197.64C175.721 196.893 175.901 196.22 176.261 195.62C176.621 195.02 177.101 194.54 177.701 194.18C178.301 193.82 178.974 193.64 179.721 193.64C180.468 193.64 181.141 193.82 181.741 194.18C182.341 194.54 182.821 195.02 183.181 195.62C183.541 196.22 183.721 196.893 183.721 197.64C183.721 198.373 183.541 199.047 183.181 199.66C182.821 200.26 182.341 200.74 181.741 201.1C181.141 201.46 180.468 201.64 179.721 201.64ZM193.505 201V174.36H188.585V168H199.985V201H193.505ZM217.265 201.6C215.505 201.6 213.845 201.327 212.285 200.78C210.725 200.233 209.365 199.427 208.205 198.36C207.045 197.293 206.178 195.987 205.605 194.44L210.745 191.96C211.131 193.24 211.898 194.267 213.045 195.04C214.205 195.813 215.565 196.2 217.125 196.2C218.338 196.2 219.378 195.967 220.245 195.5C221.125 195.02 221.798 194.353 222.265 193.5C222.745 192.647 222.985 191.667 222.985 190.56C222.985 189.187 222.625 188.013 221.905 187.04C221.198 186.053 220.191 185.3 218.885 184.78C217.591 184.247 216.058 183.98 214.285 183.98C213.058 183.98 211.891 184.147 210.785 184.48C209.678 184.813 208.645 185.3 207.685 185.94L210.505 168H227.345V173.68H216.025L215.045 180.14C218.085 179.487 220.818 179.7 223.245 180.78C224.511 181.207 225.605 181.867 226.525 182.76C227.458 183.64 228.178 184.707 228.685 185.96C229.205 187.213 229.465 188.613 229.465 190.16C229.465 192.533 228.925 194.58 227.845 196.3C226.765 198.007 225.305 199.32 223.465 200.24C221.625 201.147 219.558 201.6 217.265 201.6Z" fill="#F4F4F5"/>
<rect x="121.5" y="320" width="40" height="40" rx="8" fill="url(#paint1_linear_872_3211)" fill-opacity="0.2"/>
<path d="M149.75 332.5V347.5C149.75 347.898 149.592 348.279 149.311 348.561C149.029 348.842 148.648 349 148.25 349H144.5C144.102 349 143.721 348.842 143.439 348.561C143.158 348.279 143 347.898 143 347.5V332.5C143 332.102 143.158 331.721 143.439 331.439C143.721 331.158 144.102 331 144.5 331H148.25C148.648 331 149.029 331.158 149.311 331.439C149.592 331.721 149.75 332.102 149.75 332.5ZM138.5 331H134.75C134.352 331 133.971 331.158 133.689 331.439C133.408 331.721 133.25 332.102 133.25 332.5V347.5C133.25 347.898 133.408 348.279 133.689 348.561C133.971 348.842 134.352 349 134.75 349H138.5C138.898 349 139.279 348.842 139.561 348.561C139.842 348.279 140 347.898 140 347.5V332.5C140 332.102 139.842 331.721 139.561 331.439C139.279 331.158 138.898 331 138.5 331Z" fill="white"/>
<g clip-path="url(#clip0_872_3211)">
<path d="M198.61 333.08C199.48 332.82 200.44 332.65 201.5 332.65C206.29 332.65 210.17 336.53 210.17 341.32C210.17 346.11 206.29 349.99 201.5 349.99C196.71 349.99 192.83 346.11 192.83 341.32C192.83 339.54 193.37 337.88 194.29 336.5" stroke="white" stroke-width="1.5" stroke-linecap="round" stroke-linejoin="round"/>
<path d="M197.37 333.32L200.26 330" stroke="white" stroke-width="1.5" stroke-linecap="round" stroke-linejoin="round"/>
<path d="M197.37 333.32L200.74 335.78" stroke="white" stroke-width="1.5" stroke-linecap="round" stroke-linejoin="round"/>
</g>
<path d="M124 397C124 396.801 124.079 396.61 124.22 396.47C124.36 396.329 124.551 396.25 124.75 396.25H141.25C141.449 396.25 141.64 396.329 141.78 396.47C141.921 396.61 142 396.801 142 397C142 397.199 141.921 397.39 141.78 397.53C141.64 397.671 141.449 397.75 141.25 397.75H124.75C124.551 397.75 124.36 397.671 124.22 397.53C124.079 397.39 124 397.199 124 397ZM124.75 403.75H141.25C141.449 403.75 141.64 403.671 141.78 403.53C141.921 403.39 142 403.199 142 403C142 402.801 141.921 402.61 141.78 402.47C141.64 402.329 141.449 402.25 141.25 402.25H124.75C124.551 402.25 124.36 402.329 124.22 402.47C124.079 402.61 124 402.801 124 403C124 403.199 124.079 403.39 124.22 403.53C124.36 403.671 124.551 403.75 124.75 403.75ZM134.5 408.25H124.75C124.551 408.25 124.36 408.329 124.22 408.47C124.079 408.61 124 408.801 124 409C124 409.199 124.079 409.39 124.22 409.53C124.36 409.671 124.551 409.75 124.75 409.75H134.5C134.699 409.75 134.89 409.671 135.03 409.53C135.171 409.39 135.25 409.199 135.25 409C135.25 408.801 135.171 408.61 135.03 408.47C134.89 408.329 134.699 408.25 134.5 408.25ZM142.75 408.25H141.25V406.75C141.25 406.551 141.171 406.36 141.03 406.22C140.89 406.079 140.699 406 140.5 406C140.301 406 140.11 406.079 139.97 406.22C139.829 406.36 139.75 406.551 139.75 406.75V408.25H138.25C138.051 408.25 137.86 408.329 137.72 408.47C137.579 408.61 137.5 408.801 137.5 409C137.5 409.199 137.579 409.39 137.72 409.53C137.86 409.671 138.051 409.75 138.25 409.75H139.75V411.25C139.75 411.449 139.829 411.64 139.97 411.78C140.11 411.921 140.301 412 140.5 412C140.699 412 140.89 411.921 141.03 411.78C141.171 411.64 141.25 411.449 141.25 411.25V409.75H142.75C142.949 409.75 143.14 409.671 143.28 409.53C143.421 409.39 143.5 409.199 143.5 409C143.5 408.801 143.421 408.61 143.28 408.47C143.14 408.329 142.949 408.25 142.75 408.25Z" fill="url(#paint2_linear_872_3211)"/>
<path d="M155.364 409L159.963 397.45H161.664L166.27 409H164.296L163.162 405.99H158.472L157.331 409H155.364ZM159.095 404.38H162.539L160.81 399.914L159.095 404.38ZM170.779 409.224C170.125 409.224 169.528 409.061 168.987 408.734C168.45 408.407 168.023 407.957 167.706 407.383C167.393 406.809 167.237 406.153 167.237 405.416C167.237 404.683 167.391 404.032 167.699 403.463C168.011 402.889 168.436 402.436 168.973 402.105C169.514 401.774 170.13 401.608 170.821 401.608C171.371 401.608 171.878 401.725 172.34 401.958C172.802 402.191 173.175 402.516 173.46 402.931V396.953H175.203V409H173.46V407.852C173.147 408.281 172.757 408.617 172.291 408.86C171.829 409.103 171.325 409.224 170.779 409.224ZM171.283 407.733C171.717 407.733 172.099 407.635 172.431 407.439C172.767 407.238 173.03 406.965 173.222 406.62C173.413 406.27 173.509 405.871 173.509 405.423C173.509 404.975 173.413 404.576 173.222 404.226C173.03 403.871 172.767 403.596 172.431 403.4C172.099 403.199 171.717 403.099 171.283 403.099C170.858 403.099 170.478 403.199 170.142 403.4C169.806 403.596 169.542 403.871 169.351 404.226C169.159 404.576 169.064 404.977 169.064 405.43C169.064 405.873 169.157 406.27 169.344 406.62C169.535 406.965 169.799 407.238 170.135 407.439C170.471 407.635 170.853 407.733 171.283 407.733ZM180.7 409.224C180.046 409.224 179.449 409.061 178.908 408.734C178.371 408.407 177.944 407.957 177.627 407.383C177.314 406.809 177.158 406.153 177.158 405.416C177.158 404.683 177.312 404.032 177.62 403.463C177.932 402.889 178.357 402.436 178.894 402.105C179.435 401.774 180.051 401.608 180.742 401.608C181.292 401.608 181.799 401.725 182.261 401.958C182.723 402.191 183.096 402.516 183.381 402.931V396.953H185.124V409H183.381V407.852C183.068 408.281 182.678 408.617 182.212 408.86C181.75 409.103 181.246 409.224 180.7 409.224ZM181.204 407.733C181.638 407.733 182.02 407.635 182.352 407.439C182.688 407.238 182.951 406.965 183.143 406.62C183.334 406.27 183.43 405.871 183.43 405.423C183.43 404.975 183.334 404.576 183.143 404.226C182.951 403.871 182.688 403.596 182.352 403.4C182.02 403.199 181.638 403.099 181.204 403.099C180.779 403.099 180.399 403.199 180.063 403.4C179.727 403.596 179.463 403.871 179.272 404.226C179.08 404.576 178.985 404.977 178.985 405.43C178.985 405.873 179.078 406.27 179.265 406.62C179.456 406.965 179.72 407.238 180.056 407.439C180.392 407.635 180.774 407.733 181.204 407.733ZM193.339 409.224C192.69 409.224 192.184 409.014 191.82 408.594C191.46 408.174 191.281 407.584 191.281 406.823V403.155H190.406V401.832H191.281V399.151H193.024V401.832H194.676V403.155H193.024V406.704C193.024 407.017 193.087 407.257 193.213 407.425C193.339 407.588 193.518 407.67 193.752 407.67C193.994 407.67 194.216 407.595 194.417 407.446L194.858 408.839C194.648 408.96 194.407 409.054 194.137 409.119C193.866 409.189 193.6 409.224 193.339 409.224ZM199.634 409.224C198.972 409.224 198.37 409.061 197.828 408.734C197.292 408.403 196.865 407.95 196.547 407.376C196.235 406.802 196.078 406.146 196.078 405.409C196.078 404.681 196.23 404.032 196.533 403.463C196.841 402.889 197.264 402.436 197.8 402.105C198.337 401.774 198.948 401.608 199.634 401.608C200.194 401.608 200.71 401.725 201.181 401.958C201.653 402.191 202.026 402.516 202.301 402.931V401.832H204.044V409H202.301V407.852C201.984 408.286 201.594 408.624 201.132 408.867C200.675 409.105 200.176 409.224 199.634 409.224ZM200.131 407.733C200.565 407.733 200.948 407.635 201.279 407.439C201.611 407.238 201.872 406.963 202.063 406.613C202.255 406.263 202.35 405.864 202.35 405.416C202.35 404.963 202.255 404.564 202.063 404.219C201.872 403.869 201.611 403.596 201.279 403.4C200.948 403.199 200.565 403.099 200.131 403.099C199.702 403.099 199.319 403.199 198.983 403.4C198.647 403.596 198.384 403.869 198.192 404.219C198.001 404.569 197.905 404.968 197.905 405.416C197.905 405.864 198.001 406.263 198.192 406.613C198.384 406.963 198.647 407.238 198.983 407.439C199.319 407.635 199.702 407.733 200.131 407.733ZM208.458 409.224C207.856 409.224 207.319 409.112 206.848 408.888C206.381 408.659 206.001 408.333 205.707 407.908L206.477 406.774C206.752 407.138 207.058 407.42 207.394 407.621C207.734 407.822 208.087 407.922 208.451 407.922C208.675 407.922 208.873 407.882 209.046 407.803C209.218 407.719 209.356 407.6 209.459 407.446C209.561 407.287 209.613 407.101 209.613 406.886C209.613 406.662 209.554 406.487 209.438 406.361C209.321 406.235 209.146 406.121 208.913 406.018C208.679 405.915 208.385 405.794 208.031 405.654C207.732 405.528 207.447 405.388 207.177 405.234C206.906 405.08 206.682 404.886 206.505 404.653C206.332 404.415 206.246 404.114 206.246 403.75C206.246 403.335 206.36 402.966 206.589 402.644C206.822 402.322 207.139 402.07 207.541 401.888C207.947 401.706 208.409 401.615 208.927 401.615C209.3 401.615 209.676 401.683 210.054 401.818C210.432 401.949 210.81 402.14 211.188 402.392L210.558 403.491C210.012 403.038 209.473 402.812 208.941 402.812C208.628 402.812 208.376 402.887 208.185 403.036C207.998 403.185 207.905 403.377 207.905 403.61C207.905 403.801 207.986 403.965 208.15 404.1C208.313 404.235 208.516 404.354 208.759 404.457C209.001 404.56 209.244 404.658 209.487 404.751C209.869 404.891 210.205 405.04 210.495 405.199C210.784 405.358 211.01 405.563 211.174 405.815C211.337 406.067 211.419 406.403 211.419 406.823C211.419 407.327 211.297 407.759 211.055 408.118C210.817 408.477 210.476 408.753 210.033 408.944C209.589 409.131 209.064 409.224 208.458 409.224ZM213.356 409V396.96H215.099V404.569L217.829 401.832H220.09L216.667 405.297L220.251 409H218.011L215.099 405.962V409H213.356Z" fill="url(#paint3_linear_872_3211)"/>
<rect x="22" y="380.5" width="299" height="45" rx="7.5" stroke="white" stroke-opacity="0.25"/>
<defs>
<linearGradient id="paint0_linear_872_3211" x1="59.5" y1="76" x2="283.5" y2="300" gradientUnits="userSpaceOnUse">
<stop stop-color="#FB923C"/>
<stop offset="1" stop-color="#F87171"/>
</linearGradient>
<linearGradient id="paint1_linear_872_3211" x1="121.5" y1="320" x2="161.5" y2="360" gradientUnits="userSpaceOnUse">
<stop stop-color="#FB923C"/>
<stop offset="1" stop-color="#F87171"/>
</linearGradient>
<linearGradient id="paint2_linear_872_3211" x1="124" y1="396.25" x2="139.397" y2="415.314" gradientUnits="userSpaceOnUse">
<stop stop-color="#FB923C"/>
<stop offset="1" stop-color="#F87171"/>
</linearGradient>
<linearGradient id="paint3_linear_872_3211" x1="155" y1="397" x2="159.165" y2="420.254" gradientUnits="userSpaceOnUse">
<stop stop-color="#FB923C"/>
<stop offset="1" stop-color="#F87171"/>
</linearGradient>
<clipPath id="clip0_872_3211">
<rect width="24" height="24" fill="white" transform="translate(189.5 328)"/>
</clipPath>
</defs>
</svg>
