<svg width="24" height="24" viewBox="0 0 24 24" fill="none" xmlns="http://www.w3.org/2000/svg">
<path fill-rule="evenodd" clip-rule="evenodd" d="M18.7496 10.5004C18.898 10.5005 19.0432 10.4566 19.1666 10.3742C19.2901 10.2918 19.3863 10.1746 19.4431 10.0375C19.4999 9.90039 19.5148 9.7495 19.4858 9.60394C19.4568 9.45837 19.3853 9.32468 19.2802 9.21979L17.5599 7.50042L20.0302 5.03104C20.171 4.89031 20.25 4.69944 20.25 4.50042C20.25 4.30139 20.171 4.11052 20.0302 3.96979C19.8895 3.82906 19.6986 3.75 19.4996 3.75C19.3006 3.75 19.1097 3.82906 18.969 3.96979L16.4996 6.4401L14.7802 4.71979C14.6754 4.61478 14.5417 4.54326 14.3961 4.51427C14.2505 4.48528 14.0996 4.50013 13.9625 4.55695C13.8254 4.61376 13.7082 4.70998 13.6258 4.83343C13.5434 4.95687 13.4995 5.10199 13.4996 5.25042V9.75042C13.4996 9.94933 13.5786 10.1401 13.7193 10.2807C13.8599 10.4214 14.0507 10.5004 14.2496 10.5004H18.7496ZM3.80717 19.7866C3.84491 19.8777 3.90023 19.9604 3.96996 20.03C4.03962 20.0998 4.12234 20.1551 4.21339 20.1928C4.30443 20.2306 4.40203 20.25 4.50059 20.25C4.59915 20.25 4.69675 20.2306 4.7878 20.1928C4.87884 20.1551 4.96156 20.0998 5.03122 20.03L7.50059 17.5597L9.21996 19.28C9.32486 19.385 9.45855 19.4566 9.60411 19.4856C9.74967 19.5145 9.90057 19.4997 10.0377 19.4429C10.1748 19.3861 10.292 19.2898 10.3744 19.1664C10.4568 19.043 10.5007 18.8978 10.5006 18.7494V14.2494C10.5006 14.0505 10.4216 13.8597 10.2809 13.7191C10.1403 13.5784 9.9495 13.4994 9.75059 13.4994H5.25059C5.10217 13.4993 4.95705 13.5432 4.8336 13.6256C4.71016 13.708 4.61394 13.8252 4.55712 13.9623C4.50031 14.0994 4.48546 14.2503 4.51444 14.3959C4.54343 14.5415 4.61496 14.6751 4.71996 14.78L6.44028 16.4994L3.96996 18.9688C3.90023 19.0384 3.84491 19.1212 3.80717 19.2122C3.76943 19.3033 3.75 19.4008 3.75 19.4994C3.75 19.598 3.76943 19.6956 3.80717 19.7866ZM14.3961 19.4853C14.2506 19.5142 14.0998 19.4992 13.9627 19.4424C13.8257 19.3857 13.7085 19.2895 13.6261 19.1662C13.5437 19.0429 13.4997 18.8979 13.4996 18.7496V14.2496C13.4996 14.0507 13.5786 13.8599 13.7193 13.7193C13.8599 13.5786 14.0507 13.4996 14.2496 13.4996H18.7496C18.898 13.4995 19.0432 13.5434 19.1666 13.6258C19.2901 13.7082 19.3863 13.8254 19.4431 13.9625C19.4999 14.0996 19.5148 14.2505 19.4858 14.3961C19.4568 14.5416 19.3853 14.6753 19.2802 14.7802L17.5599 16.4996L20.0302 18.969C20.171 19.1097 20.25 19.3006 20.25 19.4996C20.25 19.6986 20.171 19.8895 20.0302 20.0302C19.8895 20.1709 19.6986 20.25 19.4996 20.25C19.3006 20.25 19.1097 20.1709 18.969 20.0302L16.4996 17.5599L14.7802 19.2802C14.6753 19.3851 14.5416 19.4564 14.3961 19.4853ZM4.71987 9.21979L6.44019 7.50042L3.96987 5.03104C3.82914 4.89031 3.75008 4.69944 3.75008 4.50042C3.75008 4.30139 3.82914 4.11052 3.96987 3.96979C4.1106 3.82906 4.30148 3.75 4.5005 3.75C4.69952 3.75 4.89039 3.82906 5.03112 3.96979L7.5005 6.4401L9.21987 4.71979C9.32477 4.61478 9.45846 4.54326 9.60402 4.51427C9.74958 4.48528 9.90047 4.50013 10.0376 4.55695C10.1747 4.61376 10.2919 4.70998 10.3743 4.83343C10.4567 4.95687 10.5006 5.10199 10.5005 5.25042V9.75042C10.5005 9.94933 10.4215 10.1401 10.2808 10.2807C10.1402 10.4214 9.94941 10.5004 9.7505 10.5004H5.2505C5.10208 10.5005 4.95696 10.4566 4.83351 10.3742C4.71007 10.2918 4.61385 10.1746 4.55703 10.0375C4.50022 9.90039 4.48536 9.7495 4.51435 9.60394C4.54334 9.45837 4.61486 9.32468 4.71987 9.21979Z" fill="white"/>
</svg>
