<svg width="24" height="24" viewBox="0 0 24 24" fill="none" xmlns="http://www.w3.org/2000/svg">
<path d="M21.7464 9.37C21.7464 9.56891 21.6674 9.75968 21.5267 9.90033C21.3861 10.041 21.1953 10.12 20.9964 10.12H19.4964V11.62C19.4964 11.8189 19.4174 12.0097 19.2767 12.1503C19.1361 12.291 18.9453 12.37 18.7464 12.37C18.5475 12.37 18.3567 12.291 18.216 12.1503C18.0754 12.0097 17.9964 11.8189 17.9964 11.62V10.12H16.4964C16.2975 10.12 16.1067 10.041 15.966 9.90033C15.8254 9.75968 15.7464 9.56891 15.7464 9.37C15.7464 9.17109 15.8254 8.98032 15.966 8.83967C16.1067 8.69902 16.2975 8.62 16.4964 8.62H17.9964V7.12C17.9964 6.92109 18.0754 6.73032 18.216 6.58967C18.3567 6.44902 18.5475 6.37 18.7464 6.37C18.9453 6.37 19.1361 6.44902 19.2767 6.58967C19.4174 6.73032 19.4964 6.92109 19.4964 7.12V8.62H20.9964C21.1953 8.62 21.3861 8.69902 21.5267 8.83967C21.6674 8.98032 21.7464 9.17109 21.7464 9.37ZM12.7464 5.62H13.4964V6.37C13.4964 6.56891 13.5754 6.75968 13.716 6.90033C13.8567 7.04098 14.0475 7.12 14.2464 7.12C14.4453 7.12 14.6361 7.04098 14.7767 6.90033C14.9174 6.75968 14.9964 6.56891 14.9964 6.37V5.62H15.7464C15.9453 5.62 16.1361 5.54098 16.2767 5.40033C16.4174 5.25968 16.4964 5.06891 16.4964 4.87C16.4964 4.67109 16.4174 4.48032 16.2767 4.33967C16.1361 4.19902 15.9453 4.12 15.7464 4.12H14.9964V3.37C14.9964 3.17109 14.9174 2.98032 14.7767 2.83967C14.6361 2.69902 14.4453 2.62 14.2464 2.62C14.0475 2.62 13.8567 2.69902 13.716 2.83967C13.5754 2.98032 13.4964 3.17109 13.4964 3.37V4.12H12.7464C12.5475 4.12 12.3567 4.19902 12.216 4.33967C12.0754 4.48032 11.9964 4.67109 11.9964 4.87C11.9964 5.06891 12.0754 5.25968 12.216 5.40033C12.3567 5.54098 12.5475 5.62 12.7464 5.62ZM18.8533 14.4634C17.523 14.7263 16.1484 14.6574 14.8511 14.2629C13.5537 13.8685 12.3735 13.1606 11.4147 12.2017C10.4558 11.2429 9.7479 10.0627 9.35344 8.7653C8.95897 7.46795 8.89011 6.09341 9.15294 4.76312C9.17869 4.63258 9.16924 4.49753 9.12556 4.37183C9.08189 4.24614 9.00556 4.13433 8.90441 4.04788C8.80326 3.96142 8.68093 3.90344 8.54997 3.87987C8.41901 3.85629 8.28414 3.86799 8.15919 3.91375C6.739 4.43306 5.47256 5.30183 4.4768 6.43985C3.48104 7.57786 2.78807 8.94843 2.46188 10.425C2.1357 11.9015 2.18681 13.4365 2.61049 14.8881C3.03418 16.3396 3.81678 17.6611 4.88604 18.7303C5.95529 19.7996 7.27673 20.5822 8.72831 21.0059C10.1799 21.4296 11.7148 21.4807 13.1914 21.1545C14.6679 20.8283 16.0385 20.1353 17.1765 19.1396C18.3145 18.1438 19.1833 16.8774 19.7026 15.4572C19.7484 15.3322 19.7601 15.1974 19.7365 15.0664C19.7129 14.9354 19.655 14.8131 19.5685 14.712C19.482 14.6108 19.3702 14.5345 19.2445 14.4908C19.1188 14.4471 18.9838 14.4377 18.8533 14.4634Z" fill="white"/>
</svg>
