<svg width="24" height="24" viewBox="0 0 24 24" fill="none" xmlns="http://www.w3.org/2000/svg">
<path d="M17.63 14.25V9.74999C17.63 9.55107 17.709 9.36031 17.8497 9.21966C17.9903 9.079 18.1811 8.99999 18.38 8.99999C18.5789 8.99999 18.7697 9.079 18.9103 9.21966C19.051 9.36031 19.13 9.55107 19.13 9.74999V14.25C19.13 14.4489 19.051 14.6397 18.9103 14.7803C18.7697 14.921 18.5789 15 18.38 15C18.1811 15 17.9903 14.921 17.8497 14.7803C17.709 14.6397 17.63 14.4489 17.63 14.25ZM21.38 7.49999C21.1811 7.49999 20.9903 7.579 20.8497 7.71966C20.709 7.86031 20.63 8.05107 20.63 8.24999V15.75C20.63 15.9489 20.709 16.1397 20.8497 16.2803C20.9903 16.421 21.1811 16.5 21.38 16.5C21.5789 16.5 21.7697 16.421 21.9103 16.2803C22.051 16.1397 22.13 15.9489 22.13 15.75V8.24999C22.13 8.05107 22.051 7.86031 21.9103 7.71966C21.7697 7.579 21.5789 7.49999 21.38 7.49999ZM5.435 3.24561C5.36914 3.17137 5.2892 3.11094 5.19981 3.06782C5.11041 3.0247 5.01335 2.99975 4.91425 2.99442C4.81514 2.98908 4.71597 3.00348 4.62246 3.03676C4.52896 3.07004 4.44299 3.12154 4.36955 3.18829C4.2961 3.25504 4.23663 3.3357 4.19458 3.42561C4.15254 3.51551 4.12875 3.61286 4.12461 3.71202C4.12047 3.81119 4.13605 3.91018 4.17045 4.00328C4.20485 4.09638 4.25738 4.18172 4.32501 4.25436L7.27532 7.49999H3.38C2.98218 7.49999 2.60065 7.65802 2.31934 7.93933C2.03804 8.22063 1.88 8.60216 1.88 8.99999V15C1.88 15.3978 2.03804 15.7793 2.31934 16.0606C2.60065 16.342 2.98218 16.5 3.38 16.5H7.62219L14.1697 21.5915C14.2805 21.6777 14.4132 21.731 14.5528 21.7454C14.6924 21.7599 14.8333 21.7349 14.9593 21.6732C15.0854 21.6116 15.1917 21.5159 15.2661 21.3968C15.3404 21.2778 15.3799 21.1403 15.38 21V16.4147L19.325 20.7544C19.3909 20.8286 19.4708 20.889 19.5602 20.9322C19.6496 20.9753 19.7467 21.0002 19.8458 21.0056C19.9449 21.0109 20.044 20.9965 20.1375 20.9632C20.231 20.9299 20.317 20.8784 20.3905 20.8117C20.4639 20.7449 20.5234 20.6643 20.5654 20.5744C20.6075 20.4845 20.6313 20.3871 20.6354 20.2879C20.6395 20.1888 20.624 20.0898 20.5896 19.9967C20.5552 19.9036 20.5026 19.8183 20.435 19.7456L5.435 3.24561ZM14.075 10.5197C14.1768 10.6317 14.3102 10.7103 14.4575 10.7451C14.6048 10.7799 14.7592 10.7694 14.9004 10.7148C15.0416 10.6602 15.163 10.5642 15.2486 10.4393C15.3342 10.3145 15.38 10.1667 15.38 10.0153V2.99999C15.3799 2.85965 15.3404 2.72215 15.2661 2.60314C15.1917 2.48412 15.0854 2.38836 14.9593 2.32673C14.8333 2.2651 14.6924 2.24009 14.5528 2.25453C14.4132 2.26897 14.2805 2.32229 14.1697 2.40842L10.4338 5.31467C10.3522 5.37817 10.2846 5.45785 10.2353 5.54871C10.186 5.63956 10.156 5.73963 10.1472 5.84262C10.1384 5.94562 10.151 6.04933 10.1841 6.14724C10.2173 6.24514 10.2704 6.33513 10.34 6.41155L14.075 10.5197Z" fill="white"/>
</svg>
