<svg width="24" height="24" viewBox="0 0 24 24" fill="none" xmlns="http://www.w3.org/2000/svg">
<path d="M20.25 12C20.2506 12.2547 20.1853 12.5051 20.0605 12.7271C19.9356 12.949 19.7555 13.1349 19.5375 13.2666L6.03 21.5297C5.80227 21.6691 5.54144 21.7453 5.27445 21.7502C5.00746 21.7552 4.74399 21.6887 4.51125 21.5578C4.28073 21.4289 4.0887 21.241 3.9549 21.0133C3.82111 20.7855 3.75039 20.5263 3.75 20.2622V3.73782C3.75039 3.47371 3.82111 3.21448 3.9549 2.98676C4.0887 2.75905 4.28073 2.57109 4.51125 2.4422C4.74399 2.31127 5.00746 2.24486 5.27445 2.2498C5.54144 2.25474 5.80227 2.33087 6.03 2.47032L19.5375 10.7334C19.7555 10.8651 19.9356 11.051 20.0605 11.2729C20.1853 11.4949 20.2506 11.7454 20.25 12Z" fill="white"/>
</svg>
