<svg width="24" height="24" viewBox="0 0 24 24" fill="none" xmlns="http://www.w3.org/2000/svg">
<path d="M15.38 2.99999V21C15.3799 21.1403 15.3404 21.2778 15.2661 21.3968C15.1917 21.5159 15.0854 21.6116 14.9593 21.6732C14.8333 21.7349 14.6924 21.7599 14.5528 21.7454C14.4132 21.731 14.2805 21.6777 14.1697 21.5915L7.62219 16.5H3.38C2.98218 16.5 2.60065 16.342 2.31934 16.0606C2.03804 15.7793 1.88 15.3978 1.88 15V8.99999C1.88 8.60216 2.03804 8.22063 2.31934 7.93933C2.60065 7.65802 2.98218 7.49999 3.38 7.49999H7.62219L14.1697 2.40842C14.2805 2.32229 14.4132 2.26897 14.5528 2.25453C14.6924 2.24009 14.8333 2.2651 14.9593 2.32673C15.0854 2.38836 15.1917 2.48412 15.2661 2.60314C15.3404 2.72215 15.3799 2.85965 15.38 2.99999ZM18.38 8.99999C18.1811 8.99999 17.9903 9.079 17.8497 9.21966C17.709 9.36031 17.63 9.55107 17.63 9.74999V14.25C17.63 14.4489 17.709 14.6397 17.8497 14.7803C17.9903 14.921 18.1811 15 18.38 15C18.5789 15 18.7697 14.921 18.9103 14.7803C19.051 14.6397 19.13 14.4489 19.13 14.25V9.74999C19.13 9.55107 19.051 9.36031 18.9103 9.21966C18.7697 9.079 18.5789 8.99999 18.38 8.99999ZM21.38 7.49999C21.1811 7.49999 20.9903 7.579 20.8497 7.71966C20.709 7.86031 20.63 8.05107 20.63 8.24999V15.75C20.63 15.9489 20.709 16.1397 20.8497 16.2803C20.9903 16.421 21.1811 16.5 21.38 16.5C21.5789 16.5 21.7697 16.421 21.9103 16.2803C22.051 16.1397 22.13 15.9489 22.13 15.75V8.24999C22.13 8.05107 22.051 7.86031 21.9103 7.71966C21.7697 7.579 21.5789 7.49999 21.38 7.49999Z" fill="white"/>
</svg>
