<svg width="534" height="505" viewBox="0 0 534 505" fill="none" xmlns="http://www.w3.org/2000/svg">
<g clip-path="url(#clip0_872_3305)">
<path d="M534 353.386C496.052 408.128 433.547 448.073 360.237 464.433C286.925 480.793 208.814 472.229 143.086 440.623C77.3564 409.018 29.3956 356.961 9.75133 295.904C-9.89179 234.847 0.392181 169.792 38.3399 115.05L534 353.386Z" fill="url(#paint0_linear_872_3305)"/>
<path d="M458.167 0H72.8326C61.8794 0 53 10.0769 53 22.5074V482.493C53 494.923 61.8794 505 72.8326 505H458.167C469.121 505 478 494.923 478 482.493V22.5074C478 10.0769 469.121 0 458.167 0Z" fill="#231526"/>
<path d="M80.1807 46.192V27.6234H88.9765V30.2118H82.7787V35.5911H88.7394V38.1794H82.7787V43.6036H88.9765V46.192H80.1807ZM92.7922 46.192V36.7952H91.5625V34.6683H92.7922V31.3485C92.7922 30.328 92.9281 29.4577 93.1985 28.7376C93.477 28.0099 93.87 27.4547 94.3789 27.072C94.8879 26.6895 95.4927 26.498 96.1935 26.498C96.7158 26.498 97.1714 26.5844 97.5618 26.7569C97.9522 26.922 98.2626 27.0945 98.4944 27.2746L97.6217 29.2553C97.5098 29.1801 97.3633 29.1165 97.1847 29.0639C97.0129 29.0038 96.821 28.9739 96.6105 28.9739C96.1149 28.9739 95.7645 29.1614 95.5593 29.5365C95.3608 29.9042 95.2609 30.5195 95.2609 31.3822V34.6683H98.6929V31.3485C98.6929 30.328 98.8274 29.4577 99.0992 28.7376C99.3764 28.0099 99.7667 27.4547 100.269 27.072C100.778 26.6895 101.387 26.498 102.094 26.498C102.662 26.498 103.145 26.5918 103.541 26.7794C103.945 26.9669 104.259 27.1583 104.483 27.3534L103.621 29.3227C103.502 29.2328 103.347 29.154 103.155 29.0864C102.97 29.0114 102.751 28.9739 102.501 28.9739C102.012 28.9739 101.664 29.1614 101.459 29.5365C101.26 29.9042 101.162 30.5195 101.162 31.3822V34.6683H103.63V36.7952H101.162V46.192H98.6929V36.7952H95.2609V46.192H92.7922ZM111.611 46.5521C110.526 46.5521 109.555 46.2859 108.696 45.7532C107.843 45.2205 107.165 44.4927 106.663 43.5699C106.167 42.6472 105.919 41.608 105.919 40.4527C105.919 39.5974 106.062 38.7984 106.346 38.0556C106.629 37.3129 107.022 36.6602 107.526 36.0974C108.028 35.5348 108.613 35.0959 109.281 34.7808C109.948 34.4657 110.669 34.3082 111.443 34.3082C112.501 34.3082 113.425 34.5557 114.219 35.0508C115.019 35.546 115.64 36.2362 116.083 37.1215C116.532 38.0069 116.757 39.0384 116.757 40.2164C116.757 40.3139 116.755 40.3964 116.748 40.4639C116.741 40.5239 116.728 40.629 116.708 40.779H108.437C108.437 41.4767 108.577 42.092 108.854 42.6246C109.131 43.1497 109.519 43.5624 110.015 43.8625C110.517 44.1551 111.093 44.3014 111.74 44.3014C112.354 44.3014 112.9 44.1626 113.376 43.885C113.858 43.6 114.295 43.1685 114.684 42.5909L116.48 43.6375C115.997 44.5527 115.327 45.2692 114.467 45.7869C113.615 46.2971 112.662 46.5521 111.611 46.5521ZM108.547 39.0234H114.309C114.222 38.4983 114.048 38.0444 113.782 37.6617C113.519 37.2792 113.184 36.9828 112.781 36.7727C112.378 36.5551 111.928 36.4464 111.432 36.4464C110.91 36.4464 110.444 36.5513 110.035 36.7615C109.624 36.9715 109.29 37.2679 109.033 37.6505C108.774 38.0331 108.613 38.4907 108.547 39.0234ZM124.29 46.5521C123.523 46.5521 122.799 46.3984 122.119 46.0907C121.444 45.7756 120.849 45.3404 120.333 44.7854C119.818 44.2302 119.411 43.5813 119.113 42.8384C118.822 42.0957 118.677 41.2929 118.677 40.4301C118.677 39.5974 118.816 38.8134 119.094 38.0781C119.378 37.3354 119.771 36.6827 120.273 36.12C120.782 35.5574 121.378 35.1146 122.059 34.792C122.746 34.4695 123.487 34.3082 124.28 34.3082C124.942 34.3082 125.572 34.4169 126.174 34.6344C126.782 34.852 127.285 35.1372 127.681 35.4898L126.799 37.3803C126.217 36.8778 125.5 36.6265 124.647 36.6265C123.946 36.6265 123.342 36.8028 122.833 37.1554C122.324 37.5004 121.933 37.9656 121.662 38.5508C121.391 39.1285 121.255 39.7549 121.255 40.4301C121.255 41.1429 121.398 41.7881 121.682 42.3658C121.967 42.9359 122.366 43.3898 122.882 43.7275C123.398 44.0651 123.992 44.2338 124.667 44.2338C125.083 44.2338 125.473 44.1664 125.837 44.0314C126.207 43.8964 126.524 43.7125 126.788 43.48L127.681 45.3705C127.278 45.7156 126.779 45.9969 126.183 46.2145C125.589 46.4396 124.958 46.5521 124.29 46.5521ZM133.235 46.5521C132.316 46.5521 131.599 46.2145 131.082 45.5393C130.573 44.8642 130.319 43.9151 130.319 42.6922V36.7952H129.08V34.6683H130.319V30.3581H132.789V34.6683H135.128V36.7952H132.789V42.5008C132.789 43.0035 132.878 43.3898 133.057 43.66C133.235 43.9225 133.49 44.0539 133.82 44.0539C134.164 44.0539 134.477 43.9339 134.762 43.6938L135.387 45.9331C135.088 46.1283 134.749 46.2783 134.365 46.3834C133.981 46.4959 133.604 46.5521 133.235 46.5521ZM140.813 46.5521C139.961 46.5521 139.201 46.3721 138.534 46.0119C137.871 45.6444 137.333 45.1192 136.916 44.4364L138.007 42.6134C138.398 43.1986 138.831 43.6525 139.306 43.9751C139.789 44.2976 140.288 44.459 140.804 44.459C141.121 44.459 141.402 44.3952 141.647 44.2677C141.891 44.1327 142.087 43.9413 142.232 43.6938C142.377 43.4387 142.451 43.1386 142.451 42.7934C142.451 42.4334 142.367 42.152 142.201 41.9494C142.036 41.7468 141.788 41.5631 141.458 41.398C141.128 41.2329 140.712 41.0378 140.208 40.8128C139.786 40.6102 139.382 40.3851 138.999 40.1376C138.616 39.8899 138.298 39.5786 138.047 39.2035C137.802 38.8208 137.68 38.337 137.68 37.7518C137.68 37.084 137.842 36.4913 138.166 35.9738C138.496 35.4561 138.947 35.0508 139.514 34.7583C140.09 34.4657 140.744 34.3193 141.478 34.3193C142.007 34.3193 142.54 34.4282 143.074 34.6458C143.61 34.8558 144.145 35.1635 144.681 35.5685L143.788 37.3354C143.015 36.6076 142.252 36.2438 141.498 36.2438C141.056 36.2438 140.699 36.3638 140.427 36.6039C140.163 36.844 140.03 37.1516 140.03 37.5267C140.03 37.8342 140.146 38.0969 140.378 38.3144C140.609 38.532 140.896 38.7233 141.24 38.8884C141.583 39.0535 141.928 39.211 142.272 39.361C142.813 39.5862 143.29 39.8263 143.699 40.0813C144.109 40.3364 144.43 40.6665 144.661 41.0717C144.893 41.4767 145.009 42.017 145.009 42.6922C145.009 43.5025 144.837 44.1963 144.493 44.7741C144.156 45.3518 143.672 45.7943 143.045 46.102C142.417 46.4022 141.673 46.5521 140.813 46.5521Z" fill="white"/>
<path d="M447.961 48.7192C448.053 48.8237 448.126 48.9478 448.177 49.0843C448.226 49.221 448.252 49.3674 448.252 49.5152C448.252 49.6631 448.226 49.8095 448.177 49.9462C448.126 50.0827 448.053 50.2068 447.961 50.3115C447.869 50.4159 447.76 50.4989 447.64 50.5555C447.519 50.612 447.39 50.6412 447.26 50.6412C447.13 50.6412 447.001 50.612 446.881 50.5555C446.759 50.4989 446.65 50.4159 446.558 50.3115L438.335 40.9785L430.112 50.3115C429.927 50.5225 429.674 50.6412 429.412 50.6412C429.148 50.6412 428.896 50.5225 428.71 50.3115C428.524 50.1002 428.419 49.8139 428.419 49.5152C428.419 49.2166 428.524 48.9303 428.71 48.7192L436.934 39.3876L428.71 30.056C428.524 29.8447 428.419 29.5584 428.419 29.2598C428.419 28.9611 428.524 28.6748 428.71 28.4636C428.896 28.2525 429.148 28.1338 429.412 28.1338C429.674 28.1338 429.927 28.2525 430.112 28.4636L438.335 37.7967L446.558 28.4636C446.745 28.2525 446.997 28.1338 447.26 28.1338C447.523 28.1338 447.775 28.2525 447.961 28.4636C448.148 28.6748 448.252 28.9611 448.252 29.2598C448.252 29.5584 448.148 29.8447 447.961 30.056L439.737 39.3876L447.961 48.7192Z" fill="white"/>
<path d="M418.153 107.351H87.5336C82.4415 107.351 78.3136 112.413 78.3136 118.658V161.059C78.3136 167.303 82.4415 172.366 87.5336 172.366H418.153C423.245 172.366 427.373 167.303 427.373 161.059V118.658C427.373 112.413 423.245 107.351 418.153 107.351Z" fill="white" fill-opacity="0.1"/>
<path d="M407.255 134.566H254.308C252.763 134.566 251.51 136.597 251.51 139.102C251.51 141.607 252.763 143.638 254.308 143.638H407.255C408.8 143.638 410.053 141.607 410.053 139.102C410.053 136.597 408.8 134.566 407.255 134.566Z" fill="white"/>
<path d="M408.587 214.7H255.641C254.095 214.7 252.843 216.731 252.843 219.236C252.843 221.741 254.095 223.772 255.641 223.772H408.587C410.132 223.772 411.385 221.741 411.385 219.236C411.385 216.731 410.132 214.7 408.587 214.7Z" fill="white"/>
<path d="M407.255 294.835H254.308C252.763 294.835 251.51 296.866 251.51 299.371C251.51 301.876 252.763 303.907 254.308 303.907H407.255C408.8 303.907 410.053 301.876 410.053 299.371C410.053 296.866 408.8 294.835 407.255 294.835Z" fill="white"/>
<path d="M407.255 294.835H254.308C252.763 294.835 251.51 296.866 251.51 299.371C251.51 301.876 252.763 303.907 254.308 303.907H407.255C408.8 303.907 410.053 301.876 410.053 299.371C410.053 296.866 408.8 294.835 407.255 294.835Z" fill="white"/>
<path d="M320.915 134.566H254.05C252.647 134.566 251.51 136.597 251.51 139.102C251.51 141.607 252.647 143.638 254.05 143.638H320.915C322.317 143.638 323.454 141.607 323.454 139.102C323.454 136.597 322.317 134.566 320.915 134.566Z" fill="url(#paint1_linear_872_3305)"/>
<path d="M297.827 214.7H254.489C253.58 214.7 252.843 216.731 252.843 219.236C252.843 221.741 253.58 223.772 254.489 223.772H297.827C298.736 223.772 299.473 221.741 299.473 219.236C299.473 216.731 298.736 214.7 297.827 214.7Z" fill="url(#paint2_linear_872_3305)"/>
<path d="M351.761 294.835H255.178C253.152 294.835 251.51 296.866 251.51 299.371C251.51 301.876 253.152 303.907 255.178 303.907H351.761C353.787 303.907 355.429 301.876 355.429 299.371C355.429 296.866 353.787 294.835 351.761 294.835Z" fill="url(#paint3_linear_872_3305)"/>
<path d="M329.256 151.925C335.417 151.925 340.411 146.257 340.411 139.264C340.411 132.272 335.417 126.604 329.256 126.604C323.094 126.604 318.1 132.272 318.1 139.264C318.1 146.257 323.094 151.925 329.256 151.925Z" fill="url(#paint4_linear_872_3305)"/>
<path d="M293.309 230.95C299.47 230.95 304.465 225.281 304.465 218.289C304.465 211.297 299.47 205.629 293.309 205.629C287.148 205.629 282.153 211.297 282.153 218.289C282.153 225.281 287.148 230.95 293.309 230.95Z" fill="url(#paint5_linear_872_3305)"/>
<path d="M361.256 311.084C367.417 311.084 372.412 305.416 372.412 298.424C372.412 291.432 367.417 285.764 361.256 285.764C355.095 285.764 350.1 291.432 350.1 298.424C350.1 305.416 355.095 311.084 361.256 311.084Z" fill="url(#paint6_linear_872_3305)"/>
<path d="M416.82 185.973H86.2003C81.1082 185.973 76.9802 191.035 76.9802 197.28V239.681C76.9802 245.925 81.1082 250.988 86.2003 250.988H416.82C421.912 250.988 426.04 245.925 426.04 239.681V197.28C426.04 191.035 421.912 185.973 416.82 185.973Z" fill="white" fill-opacity="0.1"/>
<path d="M417.186 264.596H86.2061C81.1108 264.596 76.9802 269.283 76.9802 275.066V314.329C76.9802 320.112 81.1108 324.799 86.2061 324.799H417.186C422.281 324.799 426.412 320.112 426.412 314.329V275.066C426.412 269.283 422.281 264.596 417.186 264.596Z" fill="white" fill-opacity="0.1"/>
<path d="M417.996 338.733H87.0161C81.9208 338.733 77.7902 343.421 77.7902 349.203V388.466C77.7902 394.249 81.9208 398.937 87.0161 398.937H417.996C423.091 398.937 427.221 394.249 427.221 388.466V349.203C427.221 343.421 423.091 338.733 417.996 338.733Z" fill="white" fill-opacity="0.1"/>
<path d="M407.271 364.387H254.292C252.756 364.387 251.51 366.418 251.51 368.923C251.51 371.428 252.756 373.459 254.292 373.459H407.271C408.807 373.459 410.053 371.428 410.053 368.923C410.053 366.418 408.807 364.387 407.271 364.387Z" fill="white"/>
<path d="M261.89 380.384C267.622 380.384 272.269 375.11 272.269 368.605C272.269 362.1 267.622 356.826 261.89 356.826C256.157 356.826 251.51 362.1 251.51 368.605C251.51 375.11 256.157 380.384 261.89 380.384Z" fill="#938B95"/>
<path d="M417.996 413.004H87.0161C81.9208 413.004 77.7902 417.692 77.7902 423.474V462.737C77.7902 468.52 81.9208 473.208 87.0161 473.208H417.996C423.091 473.208 427.221 468.52 427.221 462.737V423.474C427.221 417.692 423.091 413.004 417.996 413.004Z" fill="white" fill-opacity="0.1"/>
<path d="M407.271 438.473H254.292C252.756 438.473 251.51 440.503 251.51 443.009C251.51 445.514 252.756 447.545 254.292 447.545H407.271C408.807 447.545 410.053 445.514 410.053 443.009C410.053 440.503 408.807 438.473 407.271 438.473Z" fill="white"/>
<path d="M261.89 454.471C267.622 454.471 272.269 449.197 272.269 442.692C272.269 436.187 267.622 430.913 261.89 430.913C256.157 430.913 251.51 436.187 251.51 442.692C251.51 449.197 256.157 454.471 261.89 454.471Z" fill="#938B95"/>
<path d="M102.846 140.518V128.968H105.842C106.598 128.968 107.251 129.098 107.802 129.36C108.353 129.621 108.777 129.997 109.076 130.487C109.379 130.972 109.531 131.553 109.531 132.23C109.531 132.85 109.403 133.399 109.146 133.875C108.894 134.346 108.535 134.729 108.068 135.023C107.606 135.312 107.055 135.489 106.416 135.555L110.259 140.518H108.908L105.226 135.653H103.91V140.518H102.846ZM103.91 134.729H105.59C106.178 134.729 106.684 134.628 107.109 134.428C107.534 134.227 107.86 133.942 108.089 133.574C108.322 133.2 108.439 132.762 108.439 132.258C108.439 131.502 108.187 130.909 107.683 130.48C107.179 130.05 106.481 129.836 105.59 129.836H103.91V134.729Z" fill="white"/>
<path d="M114.833 140.742C114.161 140.742 113.554 140.578 113.013 140.252C112.476 139.92 112.049 139.468 111.732 138.894C111.419 138.32 111.263 137.664 111.263 136.927C111.263 136.199 111.417 135.55 111.725 134.981C112.037 134.407 112.462 133.954 112.999 133.623C113.54 133.291 114.151 133.126 114.833 133.126C115.481 133.126 116.069 133.277 116.597 133.581C117.124 133.884 117.525 134.304 117.801 134.841V133.35H118.823V140.518H117.801V139.006C117.493 139.547 117.08 139.972 116.562 140.28C116.044 140.588 115.467 140.742 114.833 140.742ZM115.085 139.853C115.621 139.853 116.095 139.729 116.506 139.482C116.921 139.23 117.248 138.884 117.486 138.446C117.724 138.002 117.843 137.498 117.843 136.934C117.843 136.364 117.724 135.86 117.486 135.422C117.252 134.983 116.928 134.64 116.513 134.393C116.097 134.141 115.621 134.015 115.085 134.015C114.548 134.015 114.072 134.141 113.657 134.393C113.241 134.64 112.915 134.983 112.677 135.422C112.439 135.86 112.32 136.364 112.32 136.934C112.32 137.498 112.439 138.002 112.677 138.446C112.915 138.884 113.241 139.23 113.657 139.482C114.072 139.729 114.548 139.853 115.085 139.853Z" fill="white"/>
<path d="M121.619 140.518V133.35H122.641V140.518H121.619ZM122.137 131.915C122.011 131.915 121.897 131.884 121.794 131.824C121.696 131.763 121.617 131.681 121.556 131.579C121.495 131.476 121.465 131.364 121.465 131.243C121.465 131.121 121.495 131.012 121.556 130.914C121.617 130.811 121.696 130.729 121.794 130.669C121.897 130.608 122.011 130.578 122.137 130.578C122.258 130.578 122.368 130.608 122.466 130.669C122.564 130.729 122.643 130.809 122.704 130.907C122.769 131.005 122.802 131.117 122.802 131.243C122.802 131.364 122.769 131.476 122.704 131.579C122.643 131.681 122.564 131.763 122.466 131.824C122.368 131.884 122.258 131.915 122.137 131.915Z" fill="white"/>
<path d="M125.449 140.518V133.35H126.471V134.33C126.667 133.994 126.971 133.709 127.381 133.476C127.792 133.242 128.294 133.126 128.886 133.126C129.442 133.126 129.92 133.24 130.321 133.469C130.723 133.697 131.031 134.031 131.245 134.47C131.46 134.904 131.567 135.429 131.567 136.045V140.518H130.545V136.241C130.545 135.499 130.373 134.934 130.027 134.547C129.682 134.155 129.194 133.959 128.564 133.959C128.126 133.959 127.75 134.047 127.437 134.225C127.129 134.397 126.891 134.628 126.723 134.918C126.555 135.202 126.471 135.513 126.471 135.849V140.518H125.449Z" fill="white"/>
<path d="M102.846 220.652V209.102H103.91V214.394H110.217V209.102H111.274V220.652H110.217V215.332H103.91V220.652H102.846Z" fill="white"/>
<path d="M117.813 220.876C117.062 220.876 116.39 220.711 115.797 220.379C115.209 220.048 114.747 219.598 114.411 219.028C114.075 218.454 113.907 217.81 113.907 217.096C113.907 216.56 114.003 216.06 114.194 215.598C114.39 215.132 114.661 214.723 115.006 214.373C115.352 214.023 115.753 213.75 116.21 213.554C116.668 213.358 117.155 213.26 117.673 213.26C118.383 213.26 119.013 213.417 119.563 213.729C120.119 214.037 120.557 214.464 120.879 215.01C121.206 215.556 121.379 216.186 121.397 216.9C121.397 216.956 121.395 217.003 121.39 217.04C121.39 217.073 121.386 217.115 121.376 217.166H114.922C114.922 217.726 115.048 218.221 115.3 218.65C115.552 219.08 115.898 219.418 116.336 219.665C116.78 219.908 117.286 220.029 117.855 220.029C118.397 220.029 118.882 219.917 119.311 219.693C119.745 219.465 120.107 219.138 120.396 218.713L121.152 219.119C120.812 219.675 120.347 220.106 119.759 220.414C119.176 220.722 118.527 220.876 117.813 220.876ZM114.978 216.396H120.375C120.315 215.948 120.158 215.554 119.906 215.213C119.654 214.868 119.335 214.597 118.947 214.401C118.565 214.205 118.145 214.107 117.687 214.107C117.216 214.107 116.787 214.205 116.399 214.401C116.012 214.593 115.692 214.861 115.44 215.206C115.193 215.547 115.039 215.944 114.978 216.396Z" fill="white"/>
<path d="M126.585 220.876C125.913 220.876 125.307 220.713 124.765 220.386C124.229 220.055 123.802 219.602 123.484 219.028C123.172 218.454 123.015 217.799 123.015 217.061C123.015 216.333 123.169 215.685 123.477 215.115C123.79 214.541 124.215 214.089 124.751 213.757C125.293 213.426 125.904 213.26 126.585 213.26C127.234 213.26 127.822 213.412 128.349 213.715C128.877 214.019 129.278 214.439 129.553 214.975V213.484H130.575V220.652H129.553V219.14C129.245 219.682 128.832 220.106 128.314 220.414C127.796 220.722 127.22 220.876 126.585 220.876ZM126.837 219.987C127.374 219.987 127.848 219.864 128.258 219.616C128.674 219.364 129 219.019 129.238 218.58C129.476 218.137 129.595 217.633 129.595 217.068C129.595 216.499 129.476 215.995 129.238 215.556C129.005 215.118 128.681 214.775 128.265 214.527C127.85 214.275 127.374 214.149 126.837 214.149C126.301 214.149 125.825 214.275 125.409 214.527C124.994 214.775 124.667 215.118 124.429 215.556C124.191 215.995 124.072 216.499 124.072 217.068C124.072 217.633 124.191 218.137 124.429 218.58C124.667 219.019 124.994 219.364 125.409 219.616C125.825 219.864 126.301 219.987 126.837 219.987Z" fill="white"/>
<path d="M135.746 220.652L132.267 213.484H133.464L136.082 219.196L138.707 213.484H139.904L136.418 220.652H135.746Z" fill="white"/>
<path d="M142.226 224.292L143.99 220.477L140.581 213.484H141.736L144.571 219.427L147.147 213.484H148.302L143.381 224.292H142.226Z" fill="white"/>
<path d="M153.826 220.652V209.102H156.822C157.578 209.102 158.231 209.233 158.782 209.494C159.333 209.756 159.757 210.131 160.056 210.621C160.359 211.107 160.511 211.688 160.511 212.364C160.511 212.985 160.383 213.533 160.126 214.009C159.874 214.481 159.515 214.863 159.048 215.157C158.586 215.447 158.035 215.624 157.396 215.689L161.239 220.652H159.888L156.206 215.787H154.89V220.652H153.826ZM154.89 214.863H156.57C157.158 214.863 157.664 214.763 158.089 214.562C158.514 214.362 158.84 214.077 159.069 213.708C159.302 213.335 159.419 212.896 159.419 212.392C159.419 211.636 159.167 211.044 158.663 210.614C158.159 210.185 157.461 209.97 156.57 209.97H154.89V214.863Z" fill="white"/>
<path d="M165.813 220.876C165.141 220.876 164.534 220.713 163.993 220.386C163.456 220.055 163.029 219.602 162.712 219.028C162.399 218.454 162.243 217.799 162.243 217.061C162.243 216.333 162.397 215.685 162.705 215.115C163.017 214.541 163.442 214.089 163.979 213.757C164.52 213.426 165.131 213.26 165.813 213.26C166.461 213.26 167.049 213.412 167.577 213.715C168.104 214.019 168.505 214.439 168.781 214.975V213.484H169.803V220.652H168.781V219.14C168.473 219.682 168.06 220.106 167.542 220.414C167.024 220.722 166.447 220.876 165.813 220.876ZM166.065 219.987C166.601 219.987 167.075 219.864 167.486 219.616C167.901 219.364 168.228 219.019 168.466 218.58C168.704 218.137 168.823 217.633 168.823 217.068C168.823 216.499 168.704 215.995 168.466 215.556C168.232 215.118 167.908 214.775 167.493 214.527C167.077 214.275 166.601 214.149 166.065 214.149C165.528 214.149 165.052 214.275 164.637 214.527C164.221 214.775 163.895 215.118 163.657 215.556C163.419 215.995 163.3 216.499 163.3 217.068C163.3 217.633 163.419 218.137 163.657 218.58C163.895 219.019 164.221 219.364 164.637 219.616C165.052 219.864 165.528 219.987 166.065 219.987Z" fill="white"/>
<path d="M172.599 220.652V213.484H173.621V220.652H172.599ZM173.117 212.049C172.991 212.049 172.877 212.019 172.774 211.958C172.676 211.898 172.597 211.816 172.536 211.713C172.476 211.611 172.445 211.499 172.445 211.377C172.445 211.256 172.476 211.146 172.536 211.048C172.597 210.946 172.676 210.864 172.774 210.803C172.877 210.743 172.991 210.712 173.117 210.712C173.239 210.712 173.348 210.743 173.446 210.803C173.544 210.864 173.624 210.943 173.684 211.041C173.75 211.139 173.782 211.251 173.782 211.377C173.782 211.499 173.75 211.611 173.684 211.713C173.624 211.816 173.544 211.898 173.446 211.958C173.348 212.019 173.239 212.049 173.117 212.049Z" fill="white"/>
<path d="M176.429 220.652V213.484H177.451V214.464C177.647 214.128 177.951 213.844 178.361 213.61C178.772 213.377 179.274 213.26 179.866 213.26C180.422 213.26 180.9 213.375 181.301 213.603C181.703 213.832 182.011 214.166 182.225 214.604C182.44 215.038 182.547 215.563 182.547 216.179V220.652H181.525V216.375C181.525 215.633 181.353 215.069 181.007 214.681C180.662 214.289 180.174 214.093 179.544 214.093C179.106 214.093 178.73 214.182 178.417 214.359C178.109 214.532 177.871 214.763 177.703 215.052C177.535 215.337 177.451 215.647 177.451 215.983V220.652H176.429Z" fill="white"/>
<path d="M109.218 297.988C108.354 297.988 107.552 297.836 106.81 297.533C106.068 297.229 105.419 296.807 104.864 296.266C104.313 295.72 103.884 295.083 103.576 294.355C103.268 293.627 103.114 292.84 103.114 291.996C103.114 291.151 103.268 290.365 103.576 289.637C103.884 288.909 104.313 288.274 104.864 287.733C105.419 287.187 106.065 286.762 106.803 286.459C107.545 286.155 108.35 286.004 109.218 286.004C109.941 286.004 110.62 286.111 111.255 286.326C111.889 286.536 112.449 286.825 112.935 287.194L112.431 288.083C112.02 287.751 111.544 287.497 111.003 287.32C110.461 287.142 109.887 287.054 109.281 287.054C108.548 287.054 107.876 287.18 107.265 287.432C106.658 287.684 106.131 288.034 105.683 288.482C105.235 288.93 104.887 289.455 104.64 290.057C104.397 290.659 104.276 291.305 104.276 291.996C104.276 292.686 104.397 293.333 104.64 293.935C104.887 294.537 105.235 295.062 105.683 295.51C106.131 295.958 106.658 296.308 107.265 296.56C107.876 296.812 108.548 296.938 109.281 296.938C109.887 296.938 110.461 296.849 111.003 296.672C111.544 296.494 112.02 296.24 112.431 295.909L112.935 296.798C112.454 297.162 111.896 297.451 111.262 297.666C110.632 297.88 109.95 297.988 109.218 297.988Z" fill="white"/>
<path d="M114.835 297.764V290.596H115.857V297.764H114.835ZM115.353 289.161C115.227 289.161 115.112 289.13 115.01 289.07C114.912 289.009 114.832 288.927 114.772 288.825C114.711 288.722 114.681 288.61 114.681 288.489C114.681 288.367 114.711 288.258 114.772 288.16C114.832 288.057 114.912 287.975 115.01 287.915C115.112 287.854 115.227 287.824 115.353 287.824C115.474 287.824 115.584 287.854 115.682 287.915C115.78 287.975 115.859 288.055 115.92 288.153C115.985 288.251 116.018 288.363 116.018 288.489C116.018 288.61 115.985 288.722 115.92 288.825C115.859 288.927 115.78 289.009 115.682 289.07C115.584 289.13 115.474 289.161 115.353 289.161Z" fill="white"/>
<path d="M120.45 297.988C119.913 297.988 119.496 297.808 119.197 297.449C118.903 297.085 118.756 296.574 118.756 295.916V291.366H118.028V290.596H118.756V287.915H119.778V290.596H121.563V291.366H119.778V295.86C119.778 296.256 119.855 296.56 120.009 296.77C120.163 296.98 120.382 297.085 120.667 297.085C120.942 297.085 121.185 297.008 121.395 296.854L121.654 297.666C121.495 297.764 121.309 297.841 121.094 297.897C120.879 297.957 120.665 297.988 120.45 297.988Z" fill="white"/>
<path d="M124.259 301.404L126.023 297.589L122.614 290.596H123.769L126.604 296.539L129.18 290.596H130.335L125.414 301.404H124.259Z" fill="white"/>
<path d="M135.858 297.764V286.214H136.922L143.124 295.951V286.214H144.188V297.764H143.124L136.922 288.041V297.764H135.858Z" fill="white"/>
<path d="M150.793 297.988C150.046 297.988 149.372 297.827 148.77 297.505C148.173 297.183 147.699 296.735 147.349 296.161C146.999 295.587 146.824 294.926 146.824 294.18C146.824 293.428 146.999 292.768 147.349 292.199C147.699 291.625 148.173 291.177 148.77 290.855C149.367 290.533 150.041 290.372 150.793 290.372C151.539 290.372 152.212 290.533 152.809 290.855C153.411 291.177 153.887 291.625 154.237 292.199C154.587 292.768 154.762 293.428 154.762 294.18C154.762 294.926 154.587 295.587 154.237 296.161C153.887 296.735 153.411 297.183 152.809 297.505C152.212 297.827 151.539 297.988 150.793 297.988ZM150.793 297.078C151.353 297.078 151.852 296.954 152.291 296.707C152.729 296.459 153.075 296.119 153.327 295.685C153.579 295.246 153.705 294.744 153.705 294.18C153.705 293.615 153.579 293.116 153.327 292.682C153.075 292.243 152.729 291.9 152.291 291.653C151.852 291.405 151.353 291.282 150.793 291.282C150.233 291.282 149.733 291.405 149.295 291.653C148.856 291.9 148.511 292.243 148.259 292.682C148.007 293.116 147.881 293.615 147.881 294.18C147.881 294.74 148.007 295.239 148.259 295.678C148.511 296.116 148.856 296.459 149.295 296.707C149.733 296.954 150.233 297.078 150.793 297.078Z" fill="white"/>
<path d="M156.983 297.764V290.596H158.005V297.764H156.983ZM157.501 289.161C157.375 289.161 157.261 289.13 157.158 289.07C157.06 289.009 156.981 288.927 156.92 288.825C156.859 288.722 156.829 288.61 156.829 288.489C156.829 288.367 156.859 288.258 156.92 288.16C156.981 288.057 157.06 287.975 157.158 287.915C157.261 287.854 157.375 287.824 157.501 287.824C157.622 287.824 157.732 287.854 157.83 287.915C157.928 287.975 158.007 288.055 158.068 288.153C158.133 288.251 158.166 288.363 158.166 288.489C158.166 288.61 158.133 288.722 158.068 288.825C158.007 288.927 157.928 289.009 157.83 289.07C157.732 289.13 157.622 289.161 157.501 289.161Z" fill="white"/>
<path d="M162.675 297.988C162.082 297.988 161.56 297.845 161.107 297.561C160.654 297.271 160.302 296.863 160.05 296.336L160.596 295.748C160.82 296.205 161.112 296.562 161.471 296.819C161.83 297.071 162.229 297.197 162.668 297.197C162.962 297.197 163.23 297.136 163.473 297.015C163.72 296.893 163.916 296.721 164.061 296.497C164.21 296.268 164.285 295.997 164.285 295.685C164.285 295.4 164.215 295.176 164.075 295.013C163.94 294.849 163.739 294.709 163.473 294.593C163.212 294.471 162.885 294.336 162.493 294.187C162.19 294.065 161.896 293.928 161.611 293.774C161.326 293.62 161.091 293.426 160.904 293.193C160.722 292.955 160.631 292.654 160.631 292.29C160.631 291.921 160.729 291.594 160.925 291.31C161.121 291.02 161.392 290.794 161.737 290.631C162.082 290.463 162.474 290.379 162.913 290.379C163.314 290.379 163.69 290.465 164.04 290.638C164.395 290.81 164.712 291.055 164.992 291.373L164.523 291.968C164.094 291.403 163.559 291.121 162.92 291.121C162.528 291.121 162.208 291.223 161.961 291.429C161.718 291.634 161.597 291.902 161.597 292.234C161.597 292.472 161.674 292.67 161.828 292.829C161.982 292.987 162.183 293.123 162.43 293.235C162.682 293.347 162.953 293.459 163.242 293.571C163.662 293.729 164.026 293.888 164.334 294.047C164.647 294.205 164.889 294.408 165.062 294.656C165.235 294.898 165.321 295.23 165.321 295.65C165.321 296.13 165.209 296.546 164.985 296.896C164.761 297.246 164.448 297.516 164.047 297.708C163.65 297.894 163.193 297.988 162.675 297.988Z" fill="white"/>
<path d="M170.895 297.988C170.143 297.988 169.471 297.822 168.879 297.491C168.291 297.159 167.829 296.709 167.493 296.14C167.157 295.566 166.989 294.922 166.989 294.208C166.989 293.671 167.084 293.172 167.276 292.71C167.472 292.243 167.742 291.835 168.088 291.485C168.433 291.135 168.834 290.862 169.292 290.666C169.749 290.47 170.237 290.372 170.755 290.372C171.464 290.372 172.094 290.528 172.645 290.841C173.2 291.149 173.639 291.576 173.961 292.122C174.287 292.668 174.46 293.298 174.479 294.012C174.479 294.068 174.476 294.114 174.472 294.152C174.472 294.184 174.467 294.226 174.458 294.278H168.004C168.004 294.838 168.13 295.332 168.382 295.762C168.634 296.191 168.979 296.529 169.418 296.777C169.861 297.019 170.367 297.141 170.937 297.141C171.478 297.141 171.963 297.029 172.393 296.805C172.827 296.576 173.188 296.249 173.478 295.825L174.234 296.231C173.893 296.786 173.429 297.218 172.841 297.526C172.257 297.834 171.609 297.988 170.895 297.988ZM168.06 293.508H173.457C173.396 293.06 173.24 292.665 172.988 292.325C172.736 291.979 172.416 291.709 172.029 291.513C171.646 291.317 171.226 291.219 170.769 291.219C170.297 291.219 169.868 291.317 169.481 291.513C169.093 291.704 168.774 291.972 168.522 292.318C168.274 292.658 168.12 293.055 168.06 293.508Z" fill="white"/>
<path d="M105.268 371.851V361.267H101.747V360.301H109.867V361.267H106.332V371.851H105.268Z" fill="white"/>
<path d="M111.022 371.851V364.683H112.044V365.74C112.272 365.32 112.566 365.002 112.926 364.788C113.29 364.568 113.71 364.459 114.186 364.459C114.396 364.459 114.608 364.482 114.823 364.529C115.042 364.575 115.231 364.636 115.39 364.711L114.97 365.572C114.83 365.502 114.669 365.448 114.487 365.411C114.309 365.373 114.139 365.355 113.976 365.355C113.644 365.355 113.332 365.439 113.038 365.607C112.744 365.775 112.503 365.994 112.317 366.265C112.135 366.531 112.044 366.815 112.044 367.119V371.851H111.022Z" fill="white"/>
<path d="M120.009 372.075C119.337 372.075 118.731 371.911 118.189 371.585C117.653 371.253 117.226 370.801 116.908 370.227C116.596 369.653 116.439 368.997 116.439 368.26C116.439 367.532 116.593 366.883 116.901 366.314C117.214 365.74 117.639 365.287 118.175 364.956C118.717 364.624 119.328 364.459 120.009 364.459C120.658 364.459 121.246 364.61 121.773 364.914C122.301 365.217 122.702 365.637 122.977 366.174V364.683H123.999V371.851H122.977V370.339C122.669 370.88 122.256 371.305 121.738 371.613C121.22 371.921 120.644 372.075 120.009 372.075ZM120.261 371.186C120.798 371.186 121.272 371.062 121.682 370.815C122.098 370.563 122.424 370.217 122.662 369.779C122.9 369.335 123.019 368.831 123.019 368.267C123.019 367.697 122.9 367.193 122.662 366.755C122.429 366.316 122.105 365.973 121.689 365.726C121.274 365.474 120.798 365.348 120.261 365.348C119.725 365.348 119.249 365.474 118.833 365.726C118.418 365.973 118.091 366.316 117.853 366.755C117.615 367.193 117.496 367.697 117.496 368.267C117.496 368.831 117.615 369.335 117.853 369.779C118.091 370.217 118.418 370.563 118.833 370.815C119.249 371.062 119.725 371.186 120.261 371.186Z" fill="white"/>
<path d="M126.796 371.851V364.683H127.818V371.851H126.796ZM127.314 363.248C127.188 363.248 127.073 363.217 126.971 363.157C126.873 363.096 126.793 363.014 126.733 362.912C126.672 362.809 126.642 362.697 126.642 362.576C126.642 362.454 126.672 362.345 126.733 362.247C126.793 362.144 126.873 362.062 126.971 362.002C127.073 361.941 127.188 361.911 127.314 361.911C127.435 361.911 127.545 361.941 127.643 362.002C127.741 362.062 127.82 362.142 127.881 362.24C127.946 362.338 127.979 362.45 127.979 362.576C127.979 362.697 127.946 362.809 127.881 362.912C127.82 363.014 127.741 363.096 127.643 363.157C127.545 363.217 127.435 363.248 127.314 363.248Z" fill="white"/>
<path d="M130.626 371.851V364.683H131.648V365.663C131.844 365.327 132.147 365.042 132.558 364.809C132.969 364.575 133.47 364.459 134.063 364.459C134.618 364.459 135.097 364.573 135.498 364.802C135.899 365.03 136.207 365.364 136.422 365.803C136.637 366.237 136.744 366.762 136.744 367.378V371.851H135.722V367.574C135.722 366.832 135.549 366.267 135.204 365.88C134.859 365.488 134.371 365.292 133.741 365.292C133.302 365.292 132.927 365.38 132.614 365.558C132.306 365.73 132.068 365.961 131.9 366.251C131.732 366.535 131.648 366.846 131.648 367.182V371.851H130.626Z" fill="white"/>
<path d="M104.178 442.913V431.363H110.023V432.301H104.822L105.242 431.986V437.285L104.822 436.655H109.701V437.593H104.822L105.242 436.963V442.913H104.178Z" fill="white"/>
<path d="M112.292 442.913V435.745H113.314V442.913H112.292ZM112.81 434.31C112.684 434.31 112.569 434.28 112.467 434.219C112.369 434.158 112.289 434.077 112.229 433.974C112.168 433.871 112.138 433.759 112.138 433.638C112.138 433.517 112.168 433.407 112.229 433.309C112.289 433.206 112.369 433.125 112.467 433.064C112.569 433.003 112.684 432.973 112.81 432.973C112.931 432.973 113.041 433.003 113.139 433.064C113.237 433.125 113.316 433.204 113.377 433.302C113.442 433.4 113.475 433.512 113.475 433.638C113.475 433.759 113.442 433.871 113.377 433.974C113.316 434.077 113.237 434.158 113.139 434.219C113.041 434.28 112.931 434.31 112.81 434.31Z" fill="white"/>
<path d="M116.122 442.913V435.745H117.144V436.802C117.373 436.382 117.667 436.065 118.026 435.85C118.39 435.631 118.81 435.521 119.286 435.521C119.496 435.521 119.708 435.544 119.923 435.591C120.142 435.638 120.331 435.698 120.49 435.773L120.07 436.634C119.93 436.564 119.769 436.51 119.587 436.473C119.41 436.436 119.239 436.417 119.076 436.417C118.745 436.417 118.432 436.501 118.138 436.669C117.844 436.837 117.604 437.056 117.417 437.327C117.235 437.593 117.144 437.878 117.144 438.181V442.913H116.122Z" fill="white"/>
<path d="M125.438 443.137C124.687 443.137 124.015 442.971 123.422 442.64C122.834 442.309 122.372 441.858 122.036 441.289C121.7 440.715 121.532 440.071 121.532 439.357C121.532 438.82 121.628 438.321 121.819 437.859C122.015 437.392 122.286 436.984 122.631 436.634C122.976 436.284 123.378 436.011 123.835 435.815C124.292 435.619 124.78 435.521 125.298 435.521C126.007 435.521 126.637 435.677 127.188 435.99C127.743 436.298 128.182 436.725 128.504 437.271C128.831 437.817 129.003 438.447 129.022 439.161C129.022 439.217 129.02 439.264 129.015 439.301C129.015 439.334 129.01 439.376 129.001 439.427H122.547C122.547 439.987 122.673 440.482 122.925 440.911C123.177 441.34 123.522 441.679 123.961 441.926C124.404 442.169 124.911 442.29 125.48 442.29C126.021 442.29 126.507 442.178 126.936 441.954C127.37 441.725 127.732 441.399 128.021 440.974L128.777 441.38C128.436 441.935 127.972 442.367 127.384 442.675C126.801 442.983 126.152 443.137 125.438 443.137ZM122.603 438.657H128C127.939 438.209 127.783 437.815 127.531 437.474C127.279 437.129 126.959 436.858 126.572 436.662C126.189 436.466 125.769 436.368 125.312 436.368C124.841 436.368 124.411 436.466 124.024 436.662C123.637 436.853 123.317 437.122 123.065 437.467C122.818 437.808 122.664 438.204 122.603 438.657Z" fill="white"/>
<path d="M131.192 446.553V435.745H132.214V437.229C132.504 436.692 132.907 436.275 133.425 435.976C133.948 435.673 134.527 435.521 135.161 435.521C135.847 435.521 136.461 435.687 137.002 436.018C137.544 436.349 137.971 436.802 138.283 437.376C138.596 437.945 138.752 438.596 138.752 439.329C138.752 440.052 138.596 440.703 138.283 441.282C137.975 441.856 137.551 442.309 137.009 442.64C136.473 442.971 135.861 443.137 135.175 443.137C134.55 443.137 133.976 442.983 133.453 442.675C132.931 442.367 132.518 441.942 132.214 441.401V446.553H131.192ZM134.937 442.248C135.474 442.248 135.95 442.124 136.365 441.877C136.781 441.625 137.105 441.28 137.338 440.841C137.576 440.402 137.695 439.901 137.695 439.336C137.695 438.767 137.576 438.263 137.338 437.824C137.1 437.381 136.774 437.035 136.358 436.788C135.948 436.536 135.474 436.41 134.937 436.41C134.401 436.41 133.925 436.536 133.509 436.788C133.094 437.035 132.767 437.378 132.529 437.817C132.291 438.256 132.172 438.76 132.172 439.329C132.172 439.894 132.291 440.398 132.529 440.841C132.767 441.28 133.094 441.625 133.509 441.877C133.929 442.124 134.405 442.248 134.937 442.248Z" fill="white"/>
<path d="M141.045 442.913V430.873H142.067V442.913H141.045Z" fill="white"/>
<path d="M147.927 443.137C147.255 443.137 146.648 442.974 146.107 442.647C145.57 442.316 145.143 441.863 144.826 441.289C144.513 440.715 144.357 440.059 144.357 439.322C144.357 438.594 144.511 437.945 144.819 437.376C145.132 436.802 145.556 436.349 146.093 436.018C146.634 435.687 147.246 435.521 147.927 435.521C148.576 435.521 149.164 435.673 149.691 435.976C150.218 436.279 150.62 436.699 150.895 437.236V435.745H151.917V442.913H150.895V441.401C150.587 441.942 150.174 442.367 149.656 442.675C149.138 442.983 148.562 443.137 147.927 443.137ZM148.179 442.248C148.716 442.248 149.189 442.124 149.6 441.877C150.015 441.625 150.342 441.28 150.58 440.841C150.818 440.398 150.937 439.894 150.937 439.329C150.937 438.76 150.818 438.256 150.58 437.817C150.347 437.378 150.022 437.035 149.607 436.788C149.192 436.536 148.716 436.41 148.179 436.41C147.642 436.41 147.166 436.536 146.751 436.788C146.336 437.035 146.009 437.378 145.771 437.817C145.533 438.256 145.414 438.76 145.414 439.329C145.414 439.894 145.533 440.398 145.771 440.841C146.009 441.28 146.336 441.625 146.751 441.877C147.166 442.124 147.642 442.248 148.179 442.248Z" fill="white"/>
<path d="M158.052 443.137C157.516 443.137 157.012 443.044 156.54 442.857C156.069 442.666 155.656 442.397 155.301 442.052C154.947 441.707 154.669 441.303 154.468 440.841C154.268 440.379 154.167 439.875 154.167 439.329C154.167 438.788 154.265 438.286 154.461 437.824C154.657 437.362 154.93 436.958 155.28 436.613C155.635 436.268 156.048 435.999 156.519 435.808C156.991 435.617 157.502 435.521 158.052 435.521C158.524 435.521 158.972 435.591 159.396 435.731C159.821 435.871 160.187 436.065 160.495 436.312L160.075 436.998C159.553 436.592 158.918 436.389 158.171 436.389C157.583 436.389 157.065 436.52 156.617 436.781C156.174 437.038 155.829 437.39 155.581 437.838C155.334 438.281 155.21 438.778 155.21 439.329C155.21 439.884 155.336 440.386 155.588 440.834C155.84 441.277 156.19 441.627 156.638 441.884C157.086 442.141 157.6 442.269 158.178 442.269C158.542 442.269 158.885 442.218 159.207 442.115C159.534 442.008 159.821 441.856 160.068 441.66L160.495 442.346C160.183 442.589 159.816 442.78 159.396 442.92C158.976 443.065 158.528 443.137 158.052 443.137Z" fill="white"/>
<path d="M165.868 443.137C165.117 443.137 164.445 442.971 163.852 442.64C163.264 442.309 162.802 441.858 162.466 441.289C162.13 440.715 161.962 440.071 161.962 439.357C161.962 438.82 162.058 438.321 162.249 437.859C162.445 437.392 162.716 436.984 163.061 436.634C163.407 436.284 163.808 436.011 164.265 435.815C164.723 435.619 165.21 435.521 165.728 435.521C166.438 435.521 167.068 435.677 167.618 435.99C168.174 436.298 168.612 436.725 168.934 437.271C169.261 437.817 169.434 438.447 169.452 439.161C169.452 439.217 169.45 439.264 169.445 439.301C169.445 439.334 169.441 439.376 169.431 439.427H162.977C162.977 439.987 163.103 440.482 163.355 440.911C163.607 441.34 163.953 441.679 164.391 441.926C164.835 442.169 165.341 442.29 165.91 442.29C166.452 442.29 166.937 442.178 167.366 441.954C167.8 441.725 168.162 441.399 168.451 440.974L169.207 441.38C168.867 441.935 168.402 442.367 167.814 442.675C167.231 442.983 166.582 443.137 165.868 443.137ZM163.033 438.657H168.43C168.37 438.209 168.213 437.815 167.961 437.474C167.709 437.129 167.39 436.858 167.002 436.662C166.62 436.466 166.2 436.368 165.742 436.368C165.271 436.368 164.842 436.466 164.454 436.662C164.067 436.853 163.747 437.122 163.495 437.467C163.248 437.808 163.094 438.204 163.033 438.657Z" fill="white"/>
</g>
<defs>
<linearGradient id="paint0_linear_872_3305" x1="286.171" y1="-168.333" x2="286.171" y2="504.999" gradientUnits="userSpaceOnUse">
<stop stop-color="#F98754"/>
<stop offset="1" stop-color="#64D171"/>
</linearGradient>
<linearGradient id="paint1_linear_872_3305" x1="0" y1="0" x2="504.24" y2="533.356" gradientUnits="userSpaceOnUse">
<stop stop-color="#FB923C"/>
<stop offset="1" stop-color="#F87171"/>
</linearGradient>
<linearGradient id="paint2_linear_872_3305" x1="0" y1="0" x2="504.24" y2="533.356" gradientUnits="userSpaceOnUse">
<stop stop-color="#FB923C"/>
<stop offset="1" stop-color="#F87171"/>
</linearGradient>
<linearGradient id="paint3_linear_872_3305" x1="0" y1="0" x2="504.24" y2="533.356" gradientUnits="userSpaceOnUse">
<stop stop-color="#FB923C"/>
<stop offset="1" stop-color="#F87171"/>
</linearGradient>
<linearGradient id="paint4_linear_872_3305" x1="0.0133955" y1="-0.0174928" x2="504.232" y2="533.156" gradientUnits="userSpaceOnUse">
<stop stop-color="#FB923C"/>
<stop offset="1" stop-color="#F87171"/>
</linearGradient>
<linearGradient id="paint5_linear_872_3305" x1="0.0133955" y1="-0.0174928" x2="504.232" y2="533.156" gradientUnits="userSpaceOnUse">
<stop stop-color="#FB923C"/>
<stop offset="1" stop-color="#F87171"/>
</linearGradient>
<linearGradient id="paint6_linear_872_3305" x1="0.0133955" y1="-0.0174928" x2="504.232" y2="533.156" gradientUnits="userSpaceOnUse">
<stop stop-color="#FB923C"/>
<stop offset="1" stop-color="#F87171"/>
</linearGradient>
<clipPath id="clip0_872_3305">
<rect width="534" height="505" fill="white"/>
</clipPath>
</defs>
</svg>
