<svg width="534" height="505" viewBox="0 0 534 505" fill="none" xmlns="http://www.w3.org/2000/svg">
<g clip-path="url(#clip0_804_9665)">
<path d="M267 0C302.063 3.95415e-07 336.783 6.53111 369.177 19.2204C401.57 31.9097 431.004 50.5088 455.798 73.9556C480.591 97.4024 500.258 125.238 513.676 155.873C527.094 186.507 534 219.341 534 252.5C534 285.659 527.094 318.493 513.676 349.128C500.258 379.762 480.591 407.598 455.797 431.045C431.004 454.491 401.57 473.09 369.176 485.78C336.782 498.469 302.063 505 267 505L267 252.5L267 0Z" fill="url(#paint0_linear_804_9665)"/>
<g filter="url(#filter0_d_804_9665)">
<rect x="16.001" y="87" width="518" height="356" rx="11.725" fill="#231526" shape-rendering="crispEdges"/>
<path d="M34.0633 111.183C33.6564 111.183 33.287 111.131 32.9553 111.029C32.6236 110.926 32.3312 110.8 32.0781 110.649C31.8285 110.495 31.6182 110.341 31.4472 110.188C31.2762 110.034 31.1463 109.907 31.0573 109.808L31.7652 108.72C31.861 108.82 31.9807 108.938 32.1243 109.074C32.2714 109.211 32.4424 109.346 32.6373 109.48C32.8322 109.61 33.0511 109.719 33.2939 109.808C33.5367 109.893 33.8051 109.936 34.0992 109.936C34.3762 109.936 34.6242 109.89 34.843 109.798C35.0619 109.705 35.2363 109.569 35.3663 109.387C35.4962 109.203 35.5612 108.975 35.5612 108.705C35.5612 108.469 35.5116 108.267 35.4124 108.1C35.3167 107.932 35.1782 107.787 34.9969 107.664C34.8157 107.537 34.6002 107.418 34.3506 107.305C34.1009 107.188 33.8222 107.069 33.5145 106.946C33.2956 106.853 33.0784 106.746 32.863 106.622C32.651 106.499 32.4577 106.352 32.2833 106.181C32.1123 106.01 31.9756 105.814 31.873 105.591C31.7704 105.366 31.7191 105.106 31.7191 104.812C31.7191 104.494 31.7806 104.191 31.9037 103.904C32.0303 103.613 32.2081 103.355 32.4372 103.129C32.6663 102.903 32.9382 102.726 33.2528 102.596C33.5709 102.466 33.9248 102.401 34.3147 102.401C34.6327 102.401 34.9422 102.447 35.2431 102.539C35.5441 102.632 35.8177 102.751 36.0639 102.898C36.3135 103.045 36.517 103.203 36.6743 103.37L36.0895 104.391C35.9596 104.258 35.804 104.133 35.6227 104.017C35.4449 103.897 35.2466 103.801 35.0277 103.729C34.8088 103.657 34.5797 103.622 34.3403 103.622C34.0599 103.622 33.8222 103.676 33.6273 103.786C33.4324 103.895 33.2819 104.039 33.1759 104.217C33.0733 104.391 33.022 104.581 33.022 104.786C33.022 104.964 33.0579 105.116 33.1297 105.243C33.205 105.366 33.3076 105.472 33.4375 105.561C33.5675 105.65 33.7162 105.732 33.8838 105.807C34.0548 105.879 34.2343 105.95 34.4224 106.022C34.7952 106.173 35.1388 106.327 35.4535 106.484C35.7715 106.638 36.0468 106.814 36.2793 107.012C36.5119 107.207 36.6914 107.44 36.818 107.71C36.9479 107.977 37.0129 108.298 37.0129 108.674C37.0129 109.201 36.8864 109.652 36.6333 110.029C36.3836 110.405 36.0365 110.692 35.592 110.89C35.1508 111.085 34.6413 111.183 34.0633 111.183ZM40.1791 111.183C39.7037 111.183 39.3327 111.029 39.066 110.721C38.8026 110.413 38.671 109.981 38.671 109.423V106.735H38.0298V105.766H38.671V103.801H39.9483V105.766H41.1589V106.735H39.9483V109.336C39.9483 109.565 39.9944 109.741 40.0868 109.864C40.1791 109.984 40.3108 110.044 40.4817 110.044C40.6596 110.044 40.822 109.989 40.9691 109.88L41.2922 110.901C41.1383 110.989 40.9622 111.058 40.7639 111.106C40.5655 111.157 40.3706 111.183 40.1791 111.183ZM44.844 111.183C44.3584 111.183 43.9173 111.063 43.5206 110.824C43.1273 110.581 42.8144 110.249 42.5819 109.828C42.3527 109.408 42.2382 108.927 42.2382 108.387C42.2382 107.854 42.3493 107.378 42.5716 106.961C42.7973 106.54 43.1068 106.209 43.5001 105.966C43.8933 105.723 44.3413 105.602 44.844 105.602C45.2544 105.602 45.6323 105.687 45.9777 105.858C46.3231 106.029 46.5967 106.267 46.7984 106.571V105.766H48.0757V111.019H46.7984V110.177C46.5659 110.495 46.2803 110.743 45.9418 110.921C45.6066 111.095 45.2407 111.183 44.844 111.183ZM45.2082 110.09C45.5263 110.09 45.8067 110.018 46.0495 109.875C46.2923 109.728 46.4838 109.526 46.624 109.269C46.7642 109.013 46.8343 108.72 46.8343 108.392C46.8343 108.06 46.7642 107.768 46.624 107.515C46.4838 107.259 46.2923 107.058 46.0495 106.915C45.8067 106.768 45.5263 106.694 45.2082 106.694C44.8936 106.694 44.6132 106.768 44.367 106.915C44.1208 107.058 43.9275 107.259 43.7873 107.515C43.6471 107.771 43.577 108.064 43.577 108.392C43.577 108.72 43.6471 109.013 43.7873 109.269C43.9275 109.526 44.1208 109.728 44.367 109.875C44.6132 110.018 44.8936 110.09 45.2082 110.09ZM51.5157 111.183C51.0403 111.183 50.6693 111.029 50.4025 110.721C50.1392 110.413 50.0075 109.981 50.0075 109.423V106.735H49.3663V105.766H50.0075V103.801H51.2848V105.766H52.4954V106.735H51.2848V109.336C51.2848 109.565 51.331 109.741 51.4233 109.864C51.5157 109.984 51.6473 110.044 51.8183 110.044C51.9961 110.044 52.1586 109.989 52.3056 109.88L52.6288 110.901C52.4749 110.989 52.2988 111.058 52.1004 111.106C51.9021 111.157 51.7072 111.183 51.5157 111.183ZM53.9846 111.019V105.766H55.2619V111.019H53.9846ZM54.6258 104.689C54.4856 104.689 54.3557 104.654 54.236 104.586C54.1197 104.514 54.0257 104.42 53.9538 104.304C53.8854 104.184 53.8513 104.052 53.8513 103.909C53.8513 103.769 53.8854 103.64 53.9538 103.524C54.0257 103.408 54.1197 103.316 54.236 103.247C54.3557 103.175 54.4856 103.139 54.6258 103.139C54.7695 103.139 54.8977 103.175 55.0106 103.247C55.1268 103.316 55.2192 103.408 55.2876 103.524C55.3594 103.64 55.3953 103.769 55.3953 103.909C55.3953 104.052 55.3594 104.184 55.2876 104.304C55.2192 104.42 55.1268 104.514 55.0106 104.586C54.8977 104.654 54.7695 104.689 54.6258 104.689ZM58.5899 111.183C58.1487 111.183 57.7554 111.101 57.41 110.936C57.0681 110.769 56.7893 110.53 56.5739 110.218L57.1382 109.387C57.3399 109.654 57.5639 109.861 57.8102 110.008C58.0598 110.155 58.318 110.229 58.5847 110.229C58.7489 110.229 58.8942 110.2 59.0208 110.141C59.1473 110.08 59.2482 109.993 59.3234 109.88C59.3986 109.763 59.4363 109.627 59.4363 109.469C59.4363 109.305 59.3935 109.177 59.308 109.085C59.2225 108.992 59.0943 108.909 58.9233 108.833C58.7523 108.758 58.5369 108.669 58.277 108.567C58.0581 108.474 57.8495 108.372 57.6511 108.259C57.4528 108.146 57.2886 108.004 57.1587 107.833C57.0322 107.659 56.9689 107.438 56.9689 107.171C56.9689 106.867 57.0527 106.597 57.2202 106.361C57.3912 106.125 57.6238 105.94 57.9179 105.807C58.2154 105.673 58.554 105.607 58.9335 105.607C59.2071 105.607 59.4824 105.656 59.7594 105.756C60.0364 105.851 60.3134 105.991 60.5904 106.176L60.1288 106.982C59.7286 106.65 59.3337 106.484 58.9438 106.484C58.7147 106.484 58.53 106.539 58.3898 106.648C58.253 106.758 58.1846 106.898 58.1846 107.069C58.1846 107.209 58.2445 107.329 58.3642 107.428C58.4838 107.527 58.6326 107.614 58.8104 107.689C58.9883 107.765 59.1661 107.836 59.3439 107.905C59.6243 108.007 59.8706 108.117 60.0826 108.233C60.2946 108.349 60.4605 108.5 60.5802 108.685C60.6999 108.869 60.7597 109.115 60.7597 109.423C60.7597 109.793 60.6708 110.109 60.493 110.372C60.3186 110.636 60.0689 110.837 59.744 110.978C59.4192 111.114 59.0344 111.183 58.5899 111.183ZM63.7715 111.183C63.2962 111.183 62.9252 111.029 62.6584 110.721C62.3951 110.413 62.2634 109.981 62.2634 109.423V106.735H61.6222V105.766H62.2634V103.801H63.5407V105.766H64.7513V106.735H63.5407V109.336C63.5407 109.565 63.5869 109.741 63.6792 109.864C63.7715 109.984 63.9032 110.044 64.0742 110.044C64.252 110.044 64.4145 109.989 64.5615 109.88L64.8847 110.901C64.7308 110.989 64.5547 111.058 64.3563 111.106C64.158 111.157 63.9631 111.183 63.7715 111.183ZM66.2405 111.019V105.766H67.5178V111.019H66.2405ZM66.8817 104.689C66.7415 104.689 66.6116 104.654 66.4919 104.586C66.3756 104.514 66.2816 104.42 66.2097 104.304C66.1413 104.184 66.1071 104.052 66.1071 103.909C66.1071 103.769 66.1413 103.64 66.2097 103.524C66.2816 103.408 66.3756 103.316 66.4919 103.247C66.6116 103.175 66.7415 103.139 66.8817 103.139C67.0254 103.139 67.1536 103.175 67.2665 103.247C67.3827 103.316 67.4751 103.408 67.5435 103.524C67.6153 103.64 67.6512 103.769 67.6512 103.909C67.6512 104.052 67.6153 104.184 67.5435 104.304C67.4751 104.42 67.3827 104.514 67.2665 104.586C67.1536 104.654 67.0254 104.689 66.8817 104.689ZM71.8512 111.183C71.4545 111.183 71.08 111.113 70.7278 110.972C70.379 110.829 70.0712 110.63 69.8044 110.377C69.5377 110.124 69.3274 109.828 69.1735 109.49C69.023 109.151 68.9478 108.785 68.9478 108.392C68.9478 108.013 69.0196 107.655 69.1632 107.32C69.3103 106.982 69.5138 106.684 69.7737 106.428C70.037 106.171 70.3448 105.969 70.697 105.822C71.0527 105.675 71.4357 105.602 71.846 105.602C72.188 105.602 72.5146 105.651 72.8258 105.75C73.1404 105.85 73.4003 105.98 73.6055 106.14L73.149 107.002C72.848 106.773 72.477 106.658 72.0358 106.658C71.6733 106.658 71.3604 106.739 71.0971 106.899C70.8338 107.057 70.632 107.269 70.4918 107.536C70.3516 107.799 70.2815 108.084 70.2815 108.392C70.2815 108.717 70.355 109.011 70.5021 109.274C70.6491 109.534 70.856 109.741 71.1228 109.895C71.3895 110.049 71.6973 110.126 72.0461 110.126C72.2615 110.126 72.4633 110.095 72.6514 110.034C72.8429 109.972 73.0071 109.888 73.1438 109.782L73.6055 110.644C73.3969 110.801 73.1387 110.93 72.8309 111.029C72.5232 111.131 72.1966 111.183 71.8512 111.183Z" fill="white"/>
<path d="M516.242 112.38C516.297 112.435 516.34 112.5 516.369 112.571C516.399 112.642 516.414 112.718 516.414 112.795C516.414 112.872 516.399 112.948 516.369 113.02C516.34 113.091 516.297 113.155 516.242 113.21C516.188 113.264 516.123 113.308 516.052 113.337C515.981 113.367 515.904 113.382 515.827 113.382C515.75 113.382 515.674 113.367 515.603 113.337C515.532 113.308 515.467 113.264 515.413 113.21L510.551 108.348L505.69 113.21C505.58 113.32 505.431 113.382 505.276 113.382C505.12 113.382 504.971 113.32 504.861 113.21C504.751 113.1 504.689 112.951 504.689 112.795C504.689 112.64 504.751 112.49 504.861 112.38L509.723 107.519L504.861 102.658C504.751 102.548 504.689 102.399 504.689 102.243C504.689 102.088 504.751 101.939 504.861 101.829C504.971 101.719 505.12 101.657 505.276 101.657C505.431 101.657 505.58 101.719 505.69 101.829L510.551 106.69L515.413 101.829C515.523 101.719 515.672 101.657 515.827 101.657C515.983 101.657 516.132 101.719 516.242 101.829C516.352 101.939 516.414 102.088 516.414 102.243C516.414 102.399 516.352 102.548 516.242 102.658L511.38 107.519L516.242 112.38Z" fill="white" stroke="white" stroke-width="0.366405"/>
<g clip-path="url(#clip1_804_9665)">
<rect x="151.156" y="132.434" width="120.181" height="24.6562" rx="3.66405" fill="white" fill-opacity="0.1"/>
<path d="M186.873 147.762V140.507H187.765V146.975H190.68V147.762H186.873ZM193.749 147.903C193.33 147.903 192.95 147.8 192.61 147.595C192.273 147.387 192.005 147.103 191.806 146.742C191.609 146.382 191.511 145.97 191.511 145.507C191.511 145.049 191.608 144.642 191.801 144.284C191.995 143.924 192.26 143.639 192.597 143.431C192.934 143.223 193.318 143.119 193.749 143.119C194.13 143.119 194.477 143.204 194.791 143.374C195.108 143.544 195.352 143.78 195.525 144.082V143.26H196.378V147.762H195.525V146.918C195.329 147.229 195.077 147.471 194.769 147.643C194.461 147.816 194.121 147.903 193.749 147.903ZM193.978 147.169C194.285 147.169 194.557 147.098 194.791 146.958C195.029 146.814 195.215 146.618 195.35 146.368C195.484 146.119 195.552 145.833 195.552 145.511C195.552 145.189 195.484 144.903 195.35 144.654C195.215 144.404 195.029 144.21 194.791 144.069C194.557 143.925 194.285 143.853 193.978 143.853C193.673 143.853 193.402 143.925 193.164 144.069C192.927 144.21 192.739 144.404 192.601 144.654C192.467 144.903 192.399 145.189 192.399 145.511C192.399 145.831 192.467 146.116 192.601 146.368C192.739 146.618 192.927 146.814 193.164 146.958C193.402 147.098 193.673 147.169 193.978 147.169ZM199.213 147.903C198.837 147.903 198.505 147.822 198.214 147.661C197.927 147.497 197.699 147.264 197.529 146.962L197.937 146.434C198.093 146.695 198.28 146.897 198.5 147.041C198.72 147.185 198.956 147.257 199.208 147.257C199.372 147.257 199.52 147.224 199.652 147.16C199.787 147.095 199.894 147.003 199.973 146.883C200.052 146.76 200.092 146.615 200.092 146.448C200.092 146.286 200.051 146.16 199.969 146.069C199.89 145.976 199.771 145.894 199.613 145.823C199.457 145.753 199.262 145.672 199.028 145.581C198.84 145.505 198.659 145.419 198.483 145.322C198.307 145.225 198.162 145.104 198.047 144.957C197.936 144.808 197.88 144.618 197.88 144.39C197.88 144.144 197.946 143.925 198.078 143.735C198.213 143.544 198.398 143.395 198.632 143.286C198.867 143.178 199.133 143.124 199.432 143.124C199.676 143.124 199.912 143.172 200.14 143.269C200.369 143.365 200.586 143.505 200.791 143.686L200.448 144.205C200.143 143.883 199.806 143.721 199.437 143.721C199.214 143.721 199.034 143.779 198.896 143.893C198.758 144.004 198.689 144.149 198.689 144.328C198.689 144.466 198.739 144.582 198.839 144.676C198.939 144.766 199.066 144.846 199.221 144.913C199.377 144.98 199.538 145.046 199.705 145.111C199.957 145.205 200.177 145.301 200.365 145.401C200.555 145.501 200.703 145.63 200.809 145.788C200.914 145.943 200.967 146.153 200.967 146.417C200.967 146.725 200.894 146.99 200.747 147.213C200.603 147.435 200.4 147.607 200.136 147.727C199.872 147.844 199.564 147.903 199.213 147.903ZM203.457 147.903C203.088 147.903 202.801 147.781 202.595 147.538C202.39 147.292 202.288 146.947 202.288 146.505V143.906H201.786V143.26H202.288V141.576H203.141V143.26H204.222V143.906H203.141V146.452C203.141 146.675 203.185 146.846 203.273 146.966C203.36 147.087 203.487 147.147 203.651 147.147C203.815 147.147 203.961 147.098 204.09 147.002L204.306 147.683C204.191 147.75 204.058 147.803 203.906 147.841C203.756 147.882 203.607 147.903 203.457 147.903ZM207.189 147.762L210.759 141.294H207.29V140.507H212.078V140.789L208.244 147.762H207.189ZM217.222 147.903C216.806 147.903 216.427 147.8 216.087 147.595C215.75 147.39 215.482 147.107 215.283 146.747C215.086 146.386 214.988 145.974 214.988 145.511C214.988 145.051 215.085 144.642 215.278 144.284C215.475 143.924 215.742 143.639 216.079 143.431C216.419 143.223 216.806 143.119 217.239 143.119C217.615 143.119 217.956 143.204 218.264 143.374C218.575 143.544 218.821 143.78 219.003 144.082V140.195H219.856V147.762H219.003V146.918C218.809 147.226 218.557 147.468 218.246 147.643C217.936 147.816 217.594 147.903 217.222 147.903ZM217.45 147.169C217.758 147.169 218.031 147.098 218.268 146.958C218.506 146.814 218.692 146.618 218.827 146.368C218.962 146.119 219.029 145.835 219.029 145.515C219.029 145.193 218.962 144.907 218.827 144.658C218.692 144.406 218.506 144.21 218.268 144.069C218.031 143.925 217.76 143.853 217.455 143.853C217.15 143.853 216.879 143.925 216.641 144.069C216.404 144.21 216.216 144.406 216.079 144.658C215.944 144.907 215.876 145.193 215.876 145.515C215.876 145.835 215.944 146.119 216.079 146.368C216.213 146.618 216.4 146.814 216.637 146.958C216.874 147.098 217.146 147.169 217.45 147.169ZM223.432 147.903C223.013 147.903 222.633 147.8 222.293 147.595C221.956 147.387 221.688 147.103 221.489 146.742C221.292 146.382 221.194 145.97 221.194 145.507C221.194 145.049 221.291 144.642 221.484 144.284C221.678 143.924 221.943 143.639 222.28 143.431C222.617 143.223 223.001 143.119 223.432 143.119C223.813 143.119 224.16 143.204 224.474 143.374C224.791 143.544 225.035 143.78 225.208 144.082V143.26H226.061V147.762H225.208V146.918C225.012 147.229 224.76 147.471 224.452 147.643C224.144 147.816 223.804 147.903 223.432 147.903ZM223.661 147.169C223.968 147.169 224.24 147.098 224.474 146.958C224.711 146.814 224.898 146.618 225.032 146.368C225.167 146.119 225.235 145.833 225.235 145.511C225.235 145.189 225.167 144.903 225.032 144.654C224.898 144.404 224.711 144.21 224.474 144.069C224.24 143.925 223.968 143.853 223.661 143.853C223.356 143.853 223.085 143.925 222.847 144.069C222.61 144.21 222.422 144.404 222.284 144.654C222.15 144.903 222.082 145.189 222.082 145.511C222.082 145.831 222.15 146.116 222.284 146.368C222.422 146.618 222.61 146.814 222.847 146.958C223.085 147.098 223.356 147.169 223.661 147.169ZM227.897 150.049L229.107 147.516L226.965 143.26H227.937L229.599 146.667L231.09 143.26H232.061L228.865 150.049H227.897ZM233.968 147.903C233.592 147.903 233.26 147.822 232.97 147.661C232.682 147.497 232.454 147.264 232.284 146.962L232.693 146.434C232.848 146.695 233.036 146.897 233.255 147.041C233.475 147.185 233.711 147.257 233.963 147.257C234.127 147.257 234.275 147.224 234.407 147.16C234.542 147.095 234.649 147.003 234.728 146.883C234.807 146.76 234.847 146.615 234.847 146.448C234.847 146.286 234.806 146.16 234.724 146.069C234.645 145.976 234.526 145.894 234.368 145.823C234.212 145.753 234.017 145.672 233.783 145.581C233.595 145.505 233.414 145.419 233.238 145.322C233.062 145.225 232.917 145.104 232.803 144.957C232.691 144.808 232.635 144.618 232.635 144.39C232.635 144.144 232.701 143.925 232.833 143.735C232.968 143.544 233.153 143.395 233.387 143.286C233.622 143.178 233.889 143.124 234.188 143.124C234.431 143.124 234.667 143.172 234.895 143.269C235.124 143.365 235.341 143.505 235.546 143.686L235.203 144.205C234.898 143.883 234.561 143.721 234.192 143.721C233.969 143.721 233.789 143.779 233.651 143.893C233.513 144.004 233.444 144.149 233.444 144.328C233.444 144.466 233.494 144.582 233.594 144.676C233.694 144.766 233.821 144.846 233.976 144.913C234.132 144.98 234.293 145.046 234.46 145.111C234.712 145.205 234.932 145.301 235.12 145.401C235.31 145.501 235.458 145.63 235.564 145.788C235.669 145.943 235.722 146.153 235.722 146.417C235.722 146.725 235.649 146.99 235.502 147.213C235.359 147.435 235.155 147.607 234.891 147.727C234.627 147.844 234.319 147.903 233.968 147.903Z" fill="white"/>
<path d="M310.881 147.762V140.507H311.774V146.975H314.689V147.762H310.881ZM317.758 147.903C317.339 147.903 316.959 147.8 316.619 147.595C316.282 147.387 316.014 147.103 315.814 146.742C315.618 146.382 315.52 145.97 315.52 145.507C315.52 145.049 315.617 144.642 315.81 144.284C316.004 143.924 316.269 143.639 316.606 143.431C316.943 143.223 317.327 143.119 317.758 143.119C318.139 143.119 318.486 143.204 318.8 143.374C319.116 143.544 319.361 143.78 319.534 144.082V143.26H320.387V147.762H319.534V146.918C319.338 147.229 319.086 147.471 318.778 147.643C318.47 147.816 318.13 147.903 317.758 147.903ZM317.987 147.169C318.294 147.169 318.565 147.098 318.8 146.958C319.037 146.814 319.223 146.618 319.358 146.368C319.493 146.119 319.561 145.833 319.561 145.511C319.561 145.189 319.493 144.903 319.358 144.654C319.223 144.404 319.037 144.21 318.8 144.069C318.565 143.925 318.294 143.853 317.987 143.853C317.682 143.853 317.411 143.925 317.173 144.069C316.936 144.21 316.748 144.404 316.61 144.654C316.475 144.903 316.408 145.189 316.408 145.511C316.408 145.831 316.475 146.116 316.61 146.368C316.748 146.618 316.936 146.814 317.173 146.958C317.411 147.098 317.682 147.169 317.987 147.169ZM323.221 147.903C322.846 147.903 322.513 147.822 322.223 147.661C321.936 147.497 321.707 147.264 321.537 146.962L321.946 146.434C322.102 146.695 322.289 146.897 322.509 147.041C322.729 147.185 322.965 147.257 323.217 147.257C323.381 147.257 323.529 147.224 323.661 147.16C323.796 147.095 323.903 147.003 323.982 146.883C324.061 146.76 324.101 146.615 324.101 146.448C324.101 146.286 324.06 146.16 323.978 146.069C323.898 145.976 323.78 145.894 323.621 145.823C323.466 145.753 323.271 145.672 323.037 145.581C322.849 145.505 322.667 145.419 322.491 145.322C322.316 145.225 322.171 145.104 322.056 144.957C321.945 144.808 321.889 144.618 321.889 144.39C321.889 144.144 321.955 143.925 322.087 143.735C322.222 143.544 322.406 143.395 322.641 143.286C322.875 143.178 323.142 143.124 323.441 143.124C323.685 143.124 323.92 143.172 324.149 143.269C324.378 143.365 324.595 143.505 324.8 143.686L324.457 144.205C324.152 143.883 323.815 143.721 323.446 143.721C323.223 143.721 323.043 143.779 322.905 143.893C322.767 144.004 322.698 144.149 322.698 144.328C322.698 144.466 322.748 144.582 322.848 144.676C322.947 144.766 323.075 144.846 323.23 144.913C323.386 144.98 323.547 145.046 323.714 145.111C323.966 145.205 324.186 145.301 324.373 145.401C324.564 145.501 324.712 145.63 324.817 145.788C324.923 145.943 324.976 146.153 324.976 146.417C324.976 146.725 324.902 146.99 324.756 147.213C324.612 147.435 324.409 147.607 324.145 147.727C323.881 147.844 323.573 147.903 323.221 147.903ZM327.466 147.903C327.097 147.903 326.809 147.781 326.604 147.538C326.399 147.292 326.296 146.947 326.296 146.505V143.906H325.795V143.26H326.296V141.576H327.149V143.26H328.231V143.906H327.149V146.452C327.149 146.675 327.193 146.846 327.281 146.966C327.369 147.087 327.495 147.147 327.659 147.147C327.824 147.147 327.97 147.098 328.099 147.002L328.315 147.683C328.2 147.75 328.067 147.803 327.914 147.841C327.765 147.882 327.615 147.903 327.466 147.903ZM333.612 147.903C333.181 147.903 332.793 147.825 332.447 147.67C332.104 147.515 331.822 147.298 331.602 147.019C331.386 146.741 331.249 146.417 331.194 146.047L332.038 145.704C332.047 145.98 332.118 146.223 332.253 146.434C332.388 146.645 332.573 146.81 332.807 146.927C333.042 147.044 333.31 147.103 333.612 147.103C334.049 147.103 334.397 146.982 334.658 146.742C334.919 146.499 335.05 146.182 335.05 145.792C335.05 145.514 334.985 145.263 334.856 145.041C334.73 144.818 334.56 144.642 334.346 144.513C334.132 144.381 333.895 144.315 333.634 144.315C333.519 144.315 333.423 144.328 333.344 144.355V143.717H333.612C333.867 143.717 334.097 143.656 334.302 143.532C334.507 143.409 334.67 143.247 334.79 143.044C334.91 142.839 334.97 142.618 334.97 142.38C334.97 142.143 334.912 141.929 334.795 141.739C334.677 141.548 334.521 141.397 334.324 141.286C334.128 141.174 333.911 141.119 333.673 141.119C333.433 141.119 333.212 141.176 333.009 141.29C332.81 141.404 332.647 141.558 332.521 141.752C332.395 141.945 332.325 142.164 332.31 142.407L331.576 142.117C331.623 141.777 331.745 141.476 331.941 141.215C332.137 140.951 332.387 140.746 332.688 140.6C332.993 140.45 333.326 140.375 333.687 140.375C334.088 140.375 334.449 140.463 334.768 140.639C335.088 140.815 335.34 141.053 335.524 141.352C335.709 141.651 335.801 141.988 335.801 142.363C335.801 142.6 335.759 142.825 335.674 143.036C335.592 143.247 335.475 143.434 335.322 143.598C335.17 143.76 334.991 143.887 334.786 143.981C335.011 144.066 335.212 144.193 335.388 144.363C335.567 144.533 335.706 144.739 335.806 144.979C335.908 145.216 335.96 145.483 335.96 145.779C335.96 146.184 335.863 146.547 335.67 146.87C335.479 147.189 335.208 147.441 334.856 147.626C334.504 147.811 334.09 147.903 333.612 147.903ZM340.18 147.903C339.588 147.903 339.069 147.746 338.623 147.432C338.178 147.116 337.83 146.675 337.581 146.109C337.335 145.543 337.212 144.887 337.212 144.139C337.212 143.389 337.335 142.732 337.581 142.169C337.83 141.604 338.178 141.164 338.623 140.85C339.069 140.534 339.588 140.375 340.18 140.375C340.772 140.375 341.289 140.534 341.732 140.85C342.177 141.164 342.523 141.604 342.77 142.169C343.019 142.732 343.143 143.389 343.143 144.139C343.143 144.887 343.019 145.543 342.77 146.109C342.523 146.675 342.177 147.116 341.732 147.432C341.289 147.746 340.772 147.903 340.18 147.903ZM340.18 147.107C340.587 147.107 340.942 146.985 341.244 146.742C341.546 146.499 341.78 146.154 341.947 145.709C342.114 145.263 342.198 144.74 342.198 144.139C342.198 143.535 342.114 143.012 341.947 142.57C341.78 142.124 341.546 141.78 341.244 141.536C340.942 141.293 340.587 141.171 340.18 141.171C339.772 141.171 339.416 141.293 339.111 141.536C338.809 141.78 338.575 142.124 338.408 142.57C338.241 143.012 338.157 143.535 338.157 144.139C338.157 144.74 338.241 145.263 338.408 145.709C338.575 146.154 338.809 146.499 339.111 146.742C339.416 146.985 339.772 147.107 340.18 147.107ZM348.647 147.903C348.231 147.903 347.853 147.8 347.513 147.595C347.176 147.39 346.908 147.107 346.708 146.747C346.512 146.386 346.414 145.974 346.414 145.511C346.414 145.051 346.51 144.642 346.704 144.284C346.9 143.924 347.167 143.639 347.504 143.431C347.844 143.223 348.231 143.119 348.665 143.119C349.04 143.119 349.381 143.204 349.689 143.374C350 143.544 350.246 143.78 350.428 144.082V140.195H351.281V147.762H350.428V146.918C350.234 147.226 349.982 147.468 349.672 147.643C349.361 147.816 349.019 147.903 348.647 147.903ZM348.876 147.169C349.184 147.169 349.456 147.098 349.694 146.958C349.931 146.814 350.117 146.618 350.252 146.368C350.387 146.119 350.454 145.835 350.454 145.515C350.454 145.193 350.387 144.907 350.252 144.658C350.117 144.406 349.931 144.21 349.694 144.069C349.456 143.925 349.185 143.853 348.88 143.853C348.575 143.853 348.304 143.925 348.067 144.069C347.829 144.21 347.642 144.406 347.504 144.658C347.369 144.907 347.302 145.193 347.302 145.515C347.302 145.835 347.369 146.119 347.504 146.368C347.639 146.618 347.825 146.814 348.062 146.958C348.3 147.098 348.571 147.169 348.876 147.169ZM354.857 147.903C354.438 147.903 354.059 147.8 353.719 147.595C353.381 147.387 353.113 147.103 352.914 146.742C352.718 146.382 352.619 145.97 352.619 145.507C352.619 145.049 352.716 144.642 352.91 144.284C353.103 143.924 353.368 143.639 353.705 143.431C354.042 143.223 354.426 143.119 354.857 143.119C355.238 143.119 355.586 143.204 355.899 143.374C356.216 143.544 356.461 143.78 356.634 144.082V143.26H357.487V147.762H356.634V146.918C356.437 147.229 356.185 147.471 355.877 147.643C355.57 147.816 355.23 147.903 354.857 147.903ZM355.086 147.169C355.394 147.169 355.665 147.098 355.899 146.958C356.137 146.814 356.323 146.618 356.458 146.368C356.593 146.119 356.66 145.833 356.66 145.511C356.66 145.189 356.593 144.903 356.458 144.654C356.323 144.404 356.137 144.21 355.899 144.069C355.665 143.925 355.394 143.853 355.086 143.853C354.781 143.853 354.51 143.925 354.273 144.069C354.035 144.21 353.848 144.404 353.71 144.654C353.575 144.903 353.508 145.189 353.508 145.511C353.508 145.831 353.575 146.116 353.71 146.368C353.848 146.618 354.035 146.814 354.273 146.958C354.51 147.098 354.781 147.169 355.086 147.169ZM359.323 150.049L360.532 147.516L358.391 143.26H359.362L361.024 146.667L362.515 143.26H363.487L360.29 150.049H359.323ZM365.393 147.903C365.018 147.903 364.685 147.822 364.395 147.661C364.108 147.497 363.879 147.264 363.709 146.962L364.118 146.434C364.273 146.695 364.461 146.897 364.681 147.041C364.901 147.185 365.137 147.257 365.389 147.257C365.553 147.257 365.701 147.224 365.833 147.16C365.968 147.095 366.075 147.003 366.154 146.883C366.233 146.76 366.272 146.615 366.272 146.448C366.272 146.286 366.231 146.16 366.149 146.069C366.07 145.976 365.951 145.894 365.793 145.823C365.638 145.753 365.443 145.672 365.208 145.581C365.021 145.505 364.839 145.419 364.663 145.322C364.487 145.225 364.342 145.104 364.228 144.957C364.117 144.808 364.061 144.618 364.061 144.39C364.061 144.144 364.127 143.925 364.259 143.735C364.394 143.544 364.578 143.395 364.813 143.286C365.047 143.178 365.314 143.124 365.613 143.124C365.856 143.124 366.092 143.172 366.321 143.269C366.549 143.365 366.766 143.505 366.972 143.686L366.629 144.205C366.324 143.883 365.987 143.721 365.617 143.721C365.395 143.721 365.214 143.779 365.076 143.893C364.939 144.004 364.87 144.149 364.87 144.328C364.87 144.466 364.92 144.582 365.019 144.676C365.119 144.766 365.246 144.846 365.402 144.913C365.557 144.98 365.718 145.046 365.886 145.111C366.138 145.205 366.357 145.301 366.545 145.401C366.736 145.501 366.884 145.63 366.989 145.788C367.095 145.943 367.147 146.153 367.147 146.417C367.147 146.725 367.074 146.99 366.928 147.213C366.784 147.435 366.58 147.607 366.316 147.727C366.053 147.844 365.745 147.903 365.393 147.903Z" fill="white"/>
<rect x="147.126" y="128.404" width="255.751" height="32.7171" rx="5.49607" stroke="white" stroke-opacity="0.25" stroke-width="0.732809"/>
<path d="M124.875 185.143V176.679H125.655V185.143H124.875ZM127.981 185.143V179.89H128.73V180.608C128.873 180.362 129.095 180.154 129.396 179.983C129.697 179.812 130.065 179.726 130.499 179.726C130.906 179.726 131.257 179.81 131.551 179.977C131.845 180.145 132.071 180.39 132.228 180.711C132.385 181.029 132.464 181.414 132.464 181.865V185.143H131.715V182.009C131.715 181.465 131.588 181.051 131.335 180.767C131.082 180.48 130.725 180.337 130.263 180.337C129.942 180.337 129.667 180.402 129.437 180.531C129.212 180.658 129.037 180.827 128.914 181.039C128.791 181.248 128.73 181.475 128.73 181.722V185.143H127.981ZM138.208 185.307C137.815 185.307 137.509 185.176 137.29 184.912C137.075 184.645 136.967 184.271 136.967 183.789V180.455H136.433V179.89H136.967V177.926H137.716V179.89H139.024V180.455H137.716V183.748C137.716 184.038 137.772 184.261 137.885 184.415C137.998 184.569 138.159 184.645 138.367 184.645C138.569 184.645 138.747 184.589 138.901 184.476L139.091 185.071C138.974 185.143 138.838 185.199 138.68 185.241C138.523 185.285 138.366 185.307 138.208 185.307ZM140.574 185.143V176.315H141.322V180.608C141.466 180.362 141.688 180.154 141.989 179.983C142.29 179.812 142.658 179.726 143.092 179.726C143.499 179.726 143.85 179.81 144.144 179.977C144.438 180.145 144.664 180.39 144.821 180.711C144.978 181.029 145.057 181.414 145.057 181.865V185.143H144.308V182.009C144.308 181.465 144.181 181.05 143.928 180.762C143.675 180.475 143.318 180.331 142.856 180.331C142.535 180.331 142.259 180.396 142.03 180.526C141.805 180.656 141.63 180.827 141.507 181.039C141.384 181.248 141.322 181.475 141.322 181.722V185.143H140.574ZM149.474 185.307C148.924 185.307 148.431 185.186 147.997 184.943C147.566 184.7 147.228 184.37 146.981 183.953C146.735 183.532 146.612 183.06 146.612 182.537C146.612 182.144 146.682 181.778 146.822 181.439C146.966 181.097 147.164 180.798 147.417 180.542C147.67 180.285 147.964 180.085 148.3 179.942C148.635 179.798 148.992 179.726 149.372 179.726C149.892 179.726 150.353 179.841 150.757 180.07C151.164 180.296 151.485 180.608 151.721 181.009C151.96 181.409 152.087 181.87 152.101 182.394C152.101 182.435 152.099 182.469 152.096 182.496C152.096 182.52 152.092 182.551 152.085 182.588H147.356C147.356 182.999 147.448 183.361 147.633 183.676C147.817 183.991 148.07 184.239 148.392 184.42C148.717 184.598 149.088 184.687 149.505 184.687C149.902 184.687 150.257 184.604 150.572 184.44C150.89 184.273 151.155 184.033 151.367 183.722L151.921 184.02C151.672 184.427 151.331 184.743 150.9 184.969C150.473 185.194 149.998 185.307 149.474 185.307ZM147.397 182.024H151.352C151.307 181.696 151.193 181.407 151.008 181.157C150.823 180.904 150.589 180.706 150.305 180.562C150.025 180.419 149.717 180.347 149.382 180.347C149.037 180.347 148.722 180.419 148.438 180.562C148.154 180.702 147.92 180.899 147.735 181.152C147.554 181.402 147.441 181.693 147.397 182.024ZM156.192 185.143V176.32H156.941V185.143H156.192ZM161.236 185.307C160.743 185.307 160.298 185.188 159.902 184.948C159.509 184.705 159.196 184.374 158.963 183.953C158.734 183.532 158.619 183.052 158.619 182.512C158.619 181.978 158.732 181.503 158.958 181.086C159.187 180.665 159.498 180.333 159.892 180.09C160.288 179.848 160.736 179.726 161.236 179.726C161.711 179.726 162.142 179.837 162.528 180.06C162.915 180.282 163.209 180.59 163.41 180.983V179.89H164.159V185.143H163.41V184.035C163.185 184.432 162.882 184.743 162.503 184.969C162.123 185.194 161.701 185.307 161.236 185.307ZM161.42 184.656C161.813 184.656 162.161 184.565 162.461 184.384C162.766 184.199 163.005 183.946 163.18 183.625C163.354 183.3 163.441 182.93 163.441 182.517C163.441 182.099 163.354 181.73 163.18 181.409C163.009 181.087 162.771 180.836 162.467 180.655C162.162 180.47 161.813 180.378 161.42 180.378C161.027 180.378 160.678 180.47 160.374 180.655C160.069 180.836 159.83 181.087 159.656 181.409C159.481 181.73 159.394 182.099 159.394 182.517C159.394 182.93 159.481 183.3 159.656 183.625C159.83 183.946 160.069 184.199 160.374 184.384C160.678 184.565 161.027 184.656 161.42 184.656ZM167.538 185.307C167.104 185.307 166.721 185.203 166.389 184.994C166.057 184.782 165.799 184.483 165.615 184.097L166.015 183.666C166.179 184.001 166.393 184.262 166.656 184.451C166.919 184.635 167.212 184.728 167.533 184.728C167.749 184.728 167.945 184.683 168.123 184.594C168.304 184.505 168.448 184.379 168.554 184.215C168.663 184.047 168.718 183.849 168.718 183.62C168.718 183.411 168.667 183.247 168.564 183.127C168.465 183.007 168.318 182.905 168.123 182.819C167.932 182.73 167.692 182.631 167.405 182.522C167.183 182.433 166.967 182.332 166.759 182.219C166.55 182.106 166.377 181.964 166.24 181.793C166.107 181.619 166.04 181.398 166.04 181.132C166.04 180.862 166.112 180.622 166.256 180.414C166.399 180.201 166.598 180.036 166.851 179.916C167.104 179.793 167.391 179.731 167.713 179.731C168.007 179.731 168.282 179.795 168.539 179.921C168.798 180.048 169.031 180.227 169.236 180.46L168.892 180.896C168.578 180.482 168.186 180.275 167.718 180.275C167.431 180.275 167.196 180.35 167.015 180.501C166.837 180.651 166.748 180.848 166.748 181.091C166.748 181.265 166.805 181.41 166.918 181.527C167.03 181.643 167.177 181.742 167.359 181.824C167.543 181.906 167.742 181.988 167.954 182.07C168.262 182.187 168.528 182.303 168.754 182.419C168.983 182.535 169.161 182.684 169.287 182.865C169.414 183.043 169.477 183.286 169.477 183.594C169.477 183.946 169.395 184.251 169.231 184.507C169.067 184.763 168.838 184.962 168.544 185.102C168.253 185.239 167.918 185.307 167.538 185.307ZM172.317 185.307C171.924 185.307 171.618 185.176 171.399 184.912C171.184 184.645 171.076 184.271 171.076 183.789V180.455H170.542V179.89H171.076V177.926H171.825V179.89H173.133V180.455H171.825V183.748C171.825 184.038 171.881 184.261 171.994 184.415C172.107 184.569 172.268 184.645 172.476 184.645C172.678 184.645 172.856 184.589 173.01 184.476L173.2 185.071C173.083 185.143 172.947 185.199 172.789 185.241C172.632 185.285 172.475 185.307 172.317 185.307ZM176.656 185.143L180.903 177.366H176.733V176.679H182.052V176.941L177.579 185.143H176.656ZM188.215 185.307C187.722 185.307 187.278 185.188 186.881 184.948C186.488 184.709 186.175 184.379 185.942 183.958C185.713 183.537 185.599 183.057 185.599 182.517C185.599 181.98 185.713 181.503 185.942 181.086C186.171 180.665 186.483 180.333 186.876 180.09C187.273 179.848 187.722 179.726 188.225 179.726C188.694 179.726 189.118 179.837 189.497 180.06C189.877 180.282 190.174 180.59 190.39 180.983V176.315H191.139V185.143H190.39V184.035C190.167 184.432 189.865 184.743 189.482 184.969C189.102 185.194 188.68 185.307 188.215 185.307ZM188.394 184.656C188.788 184.656 189.136 184.565 189.441 184.384C189.745 184.199 189.984 183.946 190.159 183.625C190.333 183.3 190.42 182.932 190.42 182.522C190.42 182.105 190.333 181.735 190.159 181.414C189.988 181.089 189.749 180.836 189.441 180.655C189.136 180.47 188.788 180.378 188.394 180.378C188.004 180.378 187.657 180.47 187.353 180.655C187.049 180.836 186.809 181.089 186.635 181.414C186.46 181.735 186.373 182.105 186.373 182.522C186.373 182.936 186.459 183.303 186.63 183.625C186.804 183.946 187.043 184.199 187.348 184.384C187.656 184.565 188.004 184.656 188.394 184.656ZM195.435 185.307C194.942 185.307 194.498 185.188 194.101 184.948C193.708 184.705 193.395 184.374 193.162 183.953C192.933 183.532 192.819 183.052 192.819 182.512C192.819 181.978 192.931 181.503 193.157 181.086C193.386 180.665 193.698 180.333 194.091 180.09C194.487 179.848 194.935 179.726 195.435 179.726C195.91 179.726 196.341 179.837 196.727 180.06C197.114 180.282 197.408 180.59 197.61 180.983V179.89H198.359V185.143H197.61V184.035C197.384 184.432 197.081 184.743 196.702 184.969C196.322 185.194 195.9 185.307 195.435 185.307ZM195.619 184.656C196.013 184.656 196.36 184.565 196.661 184.384C196.965 184.199 197.204 183.946 197.379 183.625C197.553 183.3 197.641 182.93 197.641 182.517C197.641 182.099 197.553 181.73 197.379 181.409C197.208 181.087 196.97 180.836 196.666 180.655C196.362 180.47 196.013 180.378 195.619 180.378C195.226 180.378 194.877 180.47 194.573 180.655C194.269 180.836 194.029 181.087 193.855 181.409C193.68 181.73 193.593 182.099 193.593 182.517C193.593 182.93 193.68 183.3 193.855 183.625C194.029 183.946 194.269 184.199 194.573 184.384C194.877 184.565 195.226 184.656 195.619 184.656ZM200.799 187.81L202.091 185.015L199.593 179.89H200.44L202.517 184.245L204.405 179.89H205.251L201.645 187.81H200.799ZM207.615 185.307C207.181 185.307 206.798 185.203 206.466 184.994C206.134 184.782 205.876 184.483 205.691 184.097L206.091 183.666C206.256 184.001 206.469 184.262 206.733 184.451C206.996 184.635 207.288 184.728 207.61 184.728C207.825 184.728 208.022 184.683 208.2 184.594C208.381 184.505 208.525 184.379 208.631 184.215C208.74 184.047 208.795 183.849 208.795 183.62C208.795 183.411 208.744 183.247 208.641 183.127C208.542 183.007 208.395 182.905 208.2 182.819C208.008 182.73 207.769 182.631 207.482 182.522C207.259 182.433 207.044 182.332 206.835 182.219C206.627 182.106 206.454 181.964 206.317 181.793C206.184 181.619 206.117 181.398 206.117 181.132C206.117 180.862 206.189 180.622 206.333 180.414C206.476 180.201 206.675 180.036 206.928 179.916C207.181 179.793 207.468 179.731 207.789 179.731C208.083 179.731 208.359 179.795 208.615 179.921C208.875 180.048 209.108 180.227 209.313 180.46L208.969 180.896C208.655 180.482 208.263 180.275 207.795 180.275C207.507 180.275 207.273 180.35 207.092 180.501C206.914 180.651 206.825 180.848 206.825 181.091C206.825 181.265 206.881 181.41 206.994 181.527C207.107 181.643 207.254 181.742 207.435 181.824C207.62 181.906 207.818 181.988 208.03 182.07C208.338 182.187 208.605 182.303 208.831 182.419C209.06 182.535 209.238 182.684 209.364 182.865C209.491 183.043 209.554 183.286 209.554 183.594C209.554 183.946 209.472 184.251 209.308 184.507C209.144 184.763 208.914 184.962 208.62 185.102C208.33 185.239 207.995 185.307 207.615 185.307ZM214.023 187.81L215.316 185.015L212.817 179.89H213.664L215.741 184.245L217.629 179.89H218.475L214.869 187.81H214.023ZM222.244 185.307C221.696 185.307 221.202 185.189 220.761 184.953C220.323 184.717 219.976 184.389 219.72 183.968C219.463 183.548 219.335 183.064 219.335 182.517C219.335 181.966 219.463 181.482 219.72 181.065C219.976 180.644 220.323 180.316 220.761 180.08C221.199 179.844 221.693 179.726 222.244 179.726C222.791 179.726 223.283 179.844 223.721 180.08C224.162 180.316 224.511 180.644 224.767 181.065C225.024 181.482 225.152 181.966 225.152 182.517C225.152 183.064 225.024 183.548 224.767 183.968C224.511 184.389 224.162 184.717 223.721 184.953C223.283 185.189 222.791 185.307 222.244 185.307ZM222.244 184.64C222.654 184.64 223.02 184.55 223.341 184.368C223.663 184.187 223.916 183.938 224.1 183.62C224.285 183.298 224.377 182.93 224.377 182.517C224.377 182.103 224.285 181.737 224.1 181.419C223.916 181.097 223.663 180.846 223.341 180.665C223.02 180.484 222.654 180.393 222.244 180.393C221.833 180.393 221.467 180.484 221.146 180.665C220.824 180.846 220.571 181.097 220.387 181.419C220.202 181.737 220.11 182.103 220.11 182.517C220.11 182.927 220.202 183.293 220.387 183.614C220.571 183.936 220.824 184.187 221.146 184.368C221.467 184.55 221.833 184.64 222.244 184.64ZM228.928 185.307C228.132 185.307 227.562 185.128 227.22 184.769C226.878 184.41 226.707 183.809 226.707 182.968V179.89H227.456V182.835C227.456 183.498 227.569 183.972 227.795 184.256C228.021 184.536 228.398 184.676 228.928 184.676C229.462 184.676 229.84 184.536 230.062 184.256C230.288 183.972 230.401 183.498 230.401 182.835V179.89H231.15V182.968C231.15 183.809 230.979 184.41 230.637 184.769C230.298 185.128 229.729 185.307 228.928 185.307ZM235.594 185.143V176.315H236.343V180.608C236.487 180.362 236.709 180.154 237.01 179.983C237.311 179.812 237.679 179.726 238.113 179.726C238.52 179.726 238.87 179.81 239.164 179.977C239.459 180.145 239.684 180.39 239.842 180.711C239.999 181.029 240.078 181.414 240.078 181.865V185.143H239.329V182.009C239.329 181.465 239.202 181.05 238.949 180.762C238.696 180.475 238.339 180.331 237.877 180.331C237.555 180.331 237.28 180.396 237.051 180.526C236.825 180.656 236.651 180.827 236.528 181.039C236.405 181.248 236.343 181.475 236.343 181.722V185.143H235.594ZM244.274 185.307C243.782 185.307 243.337 185.188 242.941 184.948C242.547 184.705 242.234 184.374 242.002 183.953C241.773 183.532 241.658 183.052 241.658 182.512C241.658 181.978 241.771 181.503 241.997 181.086C242.226 180.665 242.537 180.333 242.93 180.09C243.327 179.848 243.775 179.726 244.274 179.726C244.75 179.726 245.181 179.837 245.567 180.06C245.953 180.282 246.248 180.59 246.449 180.983V179.89H247.198V185.143H246.449V184.035C246.224 184.432 245.921 184.743 245.541 184.969C245.162 185.194 244.739 185.307 244.274 185.307ZM244.459 184.656C244.852 184.656 245.199 184.565 245.5 184.384C245.805 184.199 246.044 183.946 246.219 183.625C246.393 183.3 246.48 182.93 246.48 182.517C246.48 182.099 246.393 181.73 246.219 181.409C246.048 181.087 245.81 180.836 245.506 180.655C245.201 180.47 244.852 180.378 244.459 180.378C244.066 180.378 243.717 180.47 243.413 180.655C243.108 180.836 242.869 181.087 242.694 181.409C242.52 181.73 242.433 182.099 242.433 182.517C242.433 182.93 242.52 183.3 242.694 183.625C242.869 183.946 243.108 184.199 243.413 184.384C243.717 184.565 244.066 184.656 244.459 184.656ZM250.988 185.143L248.438 179.89H249.315L251.234 184.076L253.157 179.89H254.035L251.48 185.143H250.988ZM257.743 185.307C257.192 185.307 256.7 185.186 256.265 184.943C255.834 184.7 255.496 184.37 255.25 183.953C255.003 183.532 254.88 183.06 254.88 182.537C254.88 182.144 254.95 181.778 255.091 181.439C255.234 181.097 255.433 180.798 255.686 180.542C255.939 180.285 256.233 180.085 256.568 179.942C256.903 179.798 257.261 179.726 257.64 179.726C258.16 179.726 258.622 179.841 259.025 180.07C259.432 180.296 259.754 180.608 259.99 181.009C260.229 181.409 260.355 181.87 260.369 182.394C260.369 182.435 260.367 182.469 260.364 182.496C260.364 182.52 260.361 182.551 260.354 182.588H255.624C255.624 182.999 255.716 183.361 255.901 183.676C256.086 183.991 256.339 184.239 256.66 184.42C256.985 184.598 257.356 184.687 257.773 184.687C258.17 184.687 258.526 184.604 258.84 184.44C259.159 184.273 259.424 184.033 259.636 183.722L260.19 184.02C259.94 184.427 259.6 184.743 259.169 184.969C258.741 185.194 258.266 185.307 257.743 185.307ZM255.665 182.024H259.62C259.576 181.696 259.461 181.407 259.276 181.157C259.092 180.904 258.858 180.706 258.574 180.562C258.293 180.419 257.986 180.347 257.65 180.347C257.305 180.347 256.99 180.419 256.707 180.562C256.423 180.702 256.188 180.899 256.004 181.152C255.823 181.402 255.71 181.693 255.665 182.024ZM266.923 185.307C266.372 185.307 265.88 185.186 265.445 184.943C265.015 184.7 264.676 184.37 264.43 183.953C264.184 183.532 264.06 183.06 264.06 182.537C264.06 182.144 264.131 181.778 264.271 181.439C264.414 181.097 264.613 180.798 264.866 180.542C265.119 180.285 265.413 180.085 265.748 179.942C266.083 179.798 266.441 179.726 266.82 179.726C267.34 179.726 267.802 179.841 268.205 180.07C268.612 180.296 268.934 180.608 269.17 181.009C269.409 181.409 269.536 181.87 269.549 182.394C269.549 182.435 269.547 182.469 269.544 182.496C269.544 182.52 269.541 182.551 269.534 182.588H264.804C264.804 182.999 264.897 183.361 265.081 183.676C265.266 183.991 265.519 184.239 265.84 184.42C266.165 184.598 266.536 184.687 266.954 184.687C267.35 184.687 267.706 184.604 268.021 184.44C268.339 184.273 268.604 184.033 268.816 183.722L269.37 184.02C269.12 184.427 268.78 184.743 268.349 184.969C267.921 185.194 267.446 185.307 266.923 185.307ZM264.845 182.024H268.8C268.756 181.696 268.641 181.407 268.457 181.157C268.272 180.904 268.038 180.706 267.754 180.562C267.473 180.419 267.166 180.347 266.83 180.347C266.485 180.347 266.17 180.419 265.887 180.562C265.603 180.702 265.369 180.899 265.184 181.152C265.003 181.402 264.89 181.693 264.845 182.024ZM271.14 185.143V179.89H271.888V180.608C272.032 180.362 272.254 180.154 272.555 179.983C272.856 179.812 273.224 179.726 273.658 179.726C274.065 179.726 274.416 179.81 274.71 179.977C275.004 180.145 275.23 180.39 275.387 180.711C275.544 181.029 275.623 181.414 275.623 181.865V185.143H274.874V182.009C274.874 181.465 274.747 181.051 274.494 180.767C274.241 180.48 273.884 180.337 273.422 180.337C273.101 180.337 272.826 180.402 272.596 180.531C272.371 180.658 272.196 180.827 272.073 181.039C271.95 181.248 271.888 181.475 271.888 181.722V185.143H271.14ZM276.911 187.964C276.73 187.964 276.554 187.942 276.383 187.898C276.212 187.853 276.072 187.788 275.962 187.703L276.183 187.103C276.34 187.233 276.538 187.298 276.778 187.298C277.315 187.298 277.583 186.942 277.583 186.231V179.89H278.332V186.297C278.332 186.838 278.211 187.25 277.968 187.533C277.725 187.821 277.373 187.964 276.911 187.964ZM277.958 178.828C277.869 178.828 277.787 178.808 277.711 178.767C277.636 178.722 277.576 178.663 277.532 178.587C277.487 178.512 277.465 178.43 277.465 178.341C277.465 178.249 277.487 178.165 277.532 178.09C277.576 178.015 277.636 177.956 277.711 177.915C277.787 177.871 277.869 177.849 277.958 177.849C278.047 177.849 278.129 177.871 278.204 177.915C278.279 177.956 278.339 178.015 278.383 178.09C278.428 178.165 278.45 178.247 278.45 178.336C278.45 178.425 278.428 178.507 278.383 178.582C278.339 178.657 278.279 178.717 278.204 178.762C278.129 178.806 278.047 178.828 277.958 178.828ZM282.898 185.307C282.351 185.307 281.857 185.189 281.416 184.953C280.978 184.717 280.631 184.389 280.374 183.968C280.118 183.548 279.99 183.064 279.99 182.517C279.99 181.966 280.118 181.482 280.374 181.065C280.631 180.644 280.978 180.316 281.416 180.08C281.853 179.844 282.348 179.726 282.898 179.726C283.445 179.726 283.938 179.844 284.376 180.08C284.817 180.316 285.166 180.644 285.422 181.065C285.678 181.482 285.807 181.966 285.807 182.517C285.807 183.064 285.678 183.548 285.422 183.968C285.166 184.389 284.817 184.717 284.376 184.953C283.938 185.189 283.445 185.307 282.898 185.307ZM282.898 184.64C283.309 184.64 283.674 184.55 283.996 184.368C284.317 184.187 284.57 183.938 284.755 183.62C284.94 183.298 285.032 182.93 285.032 182.517C285.032 182.103 284.94 181.737 284.755 181.419C284.57 181.097 284.317 180.846 283.996 180.665C283.674 180.484 283.309 180.393 282.898 180.393C282.488 180.393 282.122 180.484 281.8 180.665C281.479 180.846 281.226 181.097 281.041 181.419C280.857 181.737 280.764 182.103 280.764 182.517C280.764 182.927 280.857 183.293 281.041 183.614C281.226 183.936 281.479 184.187 281.8 184.368C282.122 184.55 282.488 184.64 282.898 184.64ZM287.835 187.81L289.128 185.015L286.63 179.89H287.476L289.554 184.245L291.441 179.89H292.288L288.682 187.81H287.835ZM296.01 185.307C295.459 185.307 294.967 185.186 294.532 184.943C294.101 184.7 293.763 184.37 293.517 183.953C293.27 183.532 293.147 183.06 293.147 182.537C293.147 182.144 293.217 181.778 293.358 181.439C293.501 181.097 293.7 180.798 293.953 180.542C294.206 180.285 294.5 180.085 294.835 179.942C295.17 179.798 295.527 179.726 295.907 179.726C296.427 179.726 296.889 179.841 297.292 180.07C297.699 180.296 298.02 180.608 298.256 181.009C298.496 181.409 298.622 181.87 298.636 182.394C298.636 182.435 298.634 182.469 298.631 182.496C298.631 182.52 298.627 182.551 298.621 182.588H293.891C293.891 182.999 293.983 183.361 294.168 183.676C294.353 183.991 294.606 184.239 294.927 184.42C295.252 184.598 295.623 184.687 296.04 184.687C296.437 184.687 296.793 184.604 297.107 184.44C297.425 184.273 297.69 184.033 297.902 183.722L298.456 184.02C298.207 184.427 297.867 184.743 297.436 184.969C297.008 185.194 296.533 185.307 296.01 185.307ZM293.932 182.024H297.887C297.843 181.696 297.728 181.407 297.543 181.157C297.359 180.904 297.124 180.706 296.841 180.562C296.56 180.419 296.252 180.347 295.917 180.347C295.572 180.347 295.257 180.419 294.973 180.562C294.69 180.702 294.455 180.899 294.271 181.152C294.089 181.402 293.977 181.693 293.932 182.024ZM302.488 185.307C301.996 185.307 301.551 185.188 301.154 184.948C300.761 184.709 300.448 184.379 300.216 183.958C299.986 183.537 299.872 183.057 299.872 182.517C299.872 181.98 299.986 181.503 300.216 181.086C300.445 180.665 300.756 180.333 301.149 180.09C301.546 179.848 301.996 179.726 302.498 179.726C302.967 179.726 303.391 179.837 303.77 180.06C304.15 180.282 304.448 180.59 304.663 180.983V176.315H305.412V185.143H304.663V184.035C304.441 184.432 304.138 184.743 303.755 184.969C303.375 185.194 302.953 185.307 302.488 185.307ZM302.668 184.656C303.061 184.656 303.41 184.565 303.714 184.384C304.018 184.199 304.258 183.946 304.432 183.625C304.607 183.3 304.694 182.932 304.694 182.522C304.694 182.105 304.607 181.735 304.432 181.414C304.261 181.089 304.022 180.836 303.714 180.655C303.41 180.47 303.061 180.378 302.668 180.378C302.278 180.378 301.931 180.47 301.626 180.655C301.322 180.836 301.083 181.089 300.908 181.414C300.734 181.735 300.647 182.105 300.647 182.522C300.647 182.936 300.732 183.303 300.903 183.625C301.077 183.946 301.317 184.199 301.621 184.384C301.929 184.565 302.278 184.656 302.668 184.656ZM309.947 185.143V179.89H310.696V180.608C310.905 180.318 311.155 180.099 311.445 179.952C311.736 179.801 312.061 179.726 312.42 179.726C312.851 179.726 313.225 179.825 313.543 180.024C313.865 180.222 314.087 180.492 314.21 180.834C314.412 180.499 314.668 180.231 314.98 180.029C315.294 179.827 315.667 179.726 316.098 179.726C316.471 179.726 316.802 179.803 317.093 179.957C317.384 180.107 317.611 180.33 317.775 180.624C317.943 180.915 318.027 181.27 318.027 181.691V185.143H317.278V181.901C317.278 181.422 317.153 181.043 316.903 180.762C316.654 180.482 316.32 180.342 315.903 180.342C315.616 180.342 315.356 180.405 315.123 180.531C314.891 180.658 314.706 180.822 314.569 181.024C314.433 181.222 314.364 181.427 314.364 181.64V185.143H313.615V181.824C313.615 181.369 313.49 181.009 313.241 180.742C312.995 180.475 312.668 180.342 312.261 180.342C311.974 180.342 311.71 180.403 311.471 180.526C311.235 180.646 311.047 180.802 310.907 180.993C310.767 181.185 310.696 181.381 310.696 181.583V185.143H309.947ZM322.117 185.307C321.32 185.307 320.75 185.128 320.408 184.769C320.066 184.41 319.895 183.809 319.895 182.968V179.89H320.644V182.835C320.644 183.498 320.757 183.972 320.983 184.256C321.209 184.536 321.586 184.676 322.117 184.676C322.65 184.676 323.028 184.536 323.25 184.256C323.476 183.972 323.589 183.498 323.589 182.835V179.89H324.338V182.968C324.338 183.809 324.167 184.41 323.825 184.769C323.486 185.128 322.917 185.307 322.117 185.307ZM327.626 185.307C327.191 185.307 326.808 185.203 326.476 184.994C326.145 184.782 325.887 184.483 325.702 184.097L326.102 183.666C326.266 184.001 326.48 184.262 326.743 184.451C327.007 184.635 327.299 184.728 327.62 184.728C327.836 184.728 328.032 184.683 328.21 184.594C328.392 184.505 328.535 184.379 328.641 184.215C328.751 184.047 328.805 183.849 328.805 183.62C328.805 183.411 328.754 183.247 328.651 183.127C328.552 183.007 328.405 182.905 328.21 182.819C328.019 182.73 327.779 182.631 327.492 182.522C327.27 182.433 327.054 182.332 326.846 182.219C326.637 182.106 326.464 181.964 326.328 181.793C326.194 181.619 326.128 181.398 326.128 181.132C326.128 180.862 326.199 180.622 326.343 180.414C326.487 180.201 326.685 180.036 326.938 179.916C327.191 179.793 327.478 179.731 327.8 179.731C328.094 179.731 328.369 179.795 328.626 179.921C328.886 180.048 329.118 180.227 329.323 180.46L328.98 180.896C328.665 180.482 328.274 180.275 327.805 180.275C327.518 180.275 327.284 180.35 327.102 180.501C326.924 180.651 326.836 180.848 326.836 181.091C326.836 181.265 326.892 181.41 327.005 181.527C327.118 181.643 327.265 181.742 327.446 181.824C327.631 181.906 327.829 181.988 328.041 182.07C328.349 182.187 328.616 182.303 328.841 182.419C329.07 182.535 329.248 182.684 329.375 182.865C329.501 183.043 329.565 183.286 329.565 183.594C329.565 183.946 329.482 184.251 329.318 184.507C329.154 184.763 328.925 184.962 328.631 185.102C328.34 185.239 328.005 185.307 327.626 185.307ZM331.182 185.143V179.89H331.931V185.143H331.182ZM331.561 178.839C331.469 178.839 331.385 178.816 331.31 178.772C331.238 178.728 331.18 178.668 331.135 178.592C331.091 178.517 331.069 178.435 331.069 178.346C331.069 178.257 331.091 178.177 331.135 178.105C331.18 178.03 331.238 177.97 331.31 177.926C331.385 177.881 331.469 177.859 331.561 177.859C331.65 177.859 331.73 177.881 331.802 177.926C331.874 177.97 331.932 178.028 331.977 178.1C332.025 178.172 332.048 178.254 332.048 178.346C332.048 178.435 332.025 178.517 331.977 178.592C331.932 178.668 331.874 178.728 331.802 178.772C331.73 178.816 331.65 178.839 331.561 178.839ZM336.43 185.307C336.037 185.307 335.667 185.239 335.322 185.102C334.977 184.962 334.674 184.765 334.414 184.512C334.154 184.259 333.951 183.963 333.804 183.625C333.657 183.286 333.583 182.917 333.583 182.517C333.583 182.12 333.655 181.752 333.799 181.414C333.942 181.075 334.142 180.779 334.399 180.526C334.659 180.273 334.961 180.077 335.307 179.936C335.652 179.796 336.027 179.726 336.43 179.726C336.775 179.726 337.104 179.777 337.415 179.88C337.726 179.983 337.995 180.125 338.22 180.306L337.913 180.808C337.53 180.511 337.064 180.362 336.517 180.362C336.086 180.362 335.707 180.458 335.379 180.649C335.054 180.838 334.801 181.096 334.619 181.424C334.438 181.749 334.347 182.113 334.347 182.517C334.347 182.924 334.44 183.291 334.624 183.62C334.809 183.944 335.066 184.201 335.394 184.389C335.722 184.577 336.098 184.671 336.522 184.671C336.789 184.671 337.041 184.634 337.276 184.558C337.516 184.48 337.726 184.368 337.907 184.225L338.22 184.728C337.991 184.905 337.723 185.046 337.415 185.148C337.107 185.254 336.779 185.307 336.43 185.307ZM342.284 185.143V180.455H341.756V179.89H342.284V178.008C342.284 177.614 342.341 177.281 342.454 177.007C342.566 176.734 342.731 176.525 342.946 176.382C343.162 176.238 343.427 176.166 343.741 176.166C343.936 176.166 344.117 176.194 344.285 176.248C344.452 176.3 344.6 176.375 344.726 176.474L344.464 177.007C344.307 176.884 344.109 176.823 343.869 176.823C343.678 176.823 343.521 176.871 343.397 176.966C343.274 177.059 343.182 177.192 343.12 177.366C343.062 177.541 343.033 177.748 343.033 177.987V179.89H344.372V180.455H343.033V185.143H342.284ZM348.248 185.307C347.701 185.307 347.207 185.189 346.766 184.953C346.328 184.717 345.981 184.389 345.724 183.968C345.468 183.548 345.34 183.064 345.34 182.517C345.34 181.966 345.468 181.482 345.724 181.065C345.981 180.644 346.328 180.316 346.766 180.08C347.203 179.844 347.698 179.726 348.248 179.726C348.795 179.726 349.288 179.844 349.725 180.08C350.167 180.316 350.515 180.644 350.772 181.065C351.028 181.482 351.157 181.966 351.157 182.517C351.157 183.064 351.028 183.548 350.772 183.968C350.515 184.389 350.167 184.717 349.725 184.953C349.288 185.189 348.795 185.307 348.248 185.307ZM348.248 184.64C348.658 184.64 349.024 184.55 349.346 184.368C349.667 184.187 349.92 183.938 350.105 183.62C350.29 183.298 350.382 182.93 350.382 182.517C350.382 182.103 350.29 181.737 350.105 181.419C349.92 181.097 349.667 180.846 349.346 180.665C349.024 180.484 348.658 180.393 348.248 180.393C347.838 180.393 347.472 180.484 347.15 180.665C346.829 180.846 346.576 181.097 346.391 181.419C346.207 181.737 346.114 182.103 346.114 182.517C346.114 182.927 346.207 183.293 346.391 183.614C346.576 183.936 346.829 184.187 347.15 184.368C347.472 184.55 347.838 184.64 348.248 184.64ZM352.789 185.143V179.89H353.538V180.665C353.706 180.357 353.921 180.125 354.185 179.967C354.451 179.807 354.759 179.726 355.108 179.726C355.262 179.726 355.418 179.743 355.575 179.777C355.736 179.812 355.874 179.856 355.99 179.911L355.683 180.542C355.58 180.49 355.462 180.451 355.329 180.424C355.199 180.396 355.074 180.383 354.954 180.383C354.711 180.383 354.482 180.444 354.267 180.567C354.051 180.691 353.875 180.851 353.738 181.05C353.605 181.245 353.538 181.453 353.538 181.675V185.143H352.789ZM360.085 185.143V177.449H359.285V176.679H360.865V185.143H360.085ZM362.682 185.143V184.779C363.468 184.163 364.145 183.618 364.713 183.142C365.281 182.664 365.756 182.24 366.139 181.87C366.522 181.501 366.826 181.169 367.052 180.875C367.278 180.581 367.438 180.309 367.534 180.06C367.63 179.81 367.678 179.564 367.678 179.321C367.678 178.938 367.586 178.591 367.401 178.28C367.22 177.968 366.975 177.72 366.667 177.536C366.36 177.351 366.018 177.259 365.641 177.259C365.265 177.259 364.923 177.351 364.615 177.536C364.308 177.72 364.055 177.974 363.856 178.295C363.658 178.616 363.54 178.986 363.502 179.403L362.8 179.167C362.837 178.791 362.935 178.442 363.092 178.121C363.253 177.799 363.461 177.519 363.718 177.279C363.978 177.04 364.273 176.854 364.605 176.72C364.937 176.587 365.294 176.52 365.677 176.52C366.207 176.52 366.688 176.643 367.119 176.889C367.55 177.132 367.892 177.464 368.145 177.885C368.398 178.305 368.524 178.781 368.524 179.311C368.524 179.584 368.483 179.853 368.401 180.116C368.319 180.379 368.181 180.655 367.986 180.942C367.794 181.229 367.536 181.542 367.211 181.881C366.886 182.216 366.481 182.59 365.995 183.004C365.513 183.418 364.937 183.886 364.267 184.41H368.678V185.143H362.682ZM372.919 185.143V176.315H373.668V180.608C373.812 180.362 374.034 180.154 374.335 179.983C374.636 179.812 375.004 179.726 375.438 179.726C375.845 179.726 376.195 179.81 376.49 179.977C376.784 180.145 377.009 180.39 377.167 180.711C377.324 181.029 377.403 181.414 377.403 181.865V185.143H376.654V182.009C376.654 181.465 376.527 181.05 376.274 180.762C376.021 180.475 375.664 180.331 375.202 180.331C374.881 180.331 374.605 180.396 374.376 180.526C374.15 180.656 373.976 180.827 373.853 181.039C373.73 181.248 373.668 181.475 373.668 181.722V185.143H372.919ZM379.358 185.143V179.89H380.107V180.665C380.274 180.357 380.49 180.125 380.753 179.967C381.02 179.807 381.328 179.726 381.676 179.726C381.83 179.726 381.986 179.743 382.143 179.777C382.304 179.812 382.443 179.856 382.559 179.911L382.251 180.542C382.148 180.49 382.03 180.451 381.897 180.424C381.767 180.396 381.642 180.383 381.523 180.383C381.28 180.383 381.051 180.444 380.835 180.567C380.62 180.691 380.444 180.851 380.307 181.05C380.174 181.245 380.107 181.453 380.107 181.675V185.143H379.358ZM385.067 185.307C384.633 185.307 384.25 185.203 383.918 184.994C383.586 184.782 383.328 184.483 383.143 184.097L383.543 183.666C383.708 184.001 383.921 184.262 384.185 184.451C384.448 184.635 384.74 184.728 385.062 184.728C385.277 184.728 385.474 184.683 385.652 184.594C385.833 184.505 385.977 184.379 386.083 184.215C386.192 184.047 386.247 183.849 386.247 183.62C386.247 183.411 386.196 183.247 386.093 183.127C385.994 183.007 385.847 182.905 385.652 182.819C385.46 182.73 385.221 182.631 384.934 182.522C384.711 182.433 384.496 182.332 384.287 182.219C384.079 182.106 383.906 181.964 383.769 181.793C383.636 181.619 383.569 181.398 383.569 181.132C383.569 180.862 383.641 180.622 383.785 180.414C383.928 180.201 384.127 180.036 384.38 179.916C384.633 179.793 384.92 179.731 385.241 179.731C385.535 179.731 385.811 179.795 386.067 179.921C386.327 180.048 386.56 180.227 386.765 180.46L386.421 180.896C386.107 180.482 385.715 180.275 385.247 180.275C384.959 180.275 384.725 180.35 384.544 180.501C384.366 180.651 384.277 180.848 384.277 181.091C384.277 181.265 384.333 181.41 384.446 181.527C384.559 181.643 384.706 181.742 384.887 181.824C385.072 181.906 385.27 181.988 385.482 182.07C385.79 182.187 386.057 182.303 386.283 182.419C386.512 182.535 386.69 182.684 386.816 182.865C386.943 183.043 387.006 183.286 387.006 183.594C387.006 183.946 386.924 184.251 386.76 184.507C386.596 184.763 386.366 184.962 386.072 185.102C385.782 185.239 385.447 185.307 385.067 185.307ZM393.628 185.302C393.173 185.302 392.746 185.229 392.345 185.082C391.949 184.934 391.603 184.724 391.309 184.451C391.019 184.177 390.803 183.849 390.663 183.466L391.284 183.158C391.451 183.62 391.745 183.984 392.166 184.251C392.59 184.517 393.081 184.651 393.638 184.651C394.09 184.651 394.483 184.563 394.818 184.389C395.157 184.211 395.418 183.962 395.603 183.64C395.791 183.319 395.885 182.939 395.885 182.501C395.885 182.016 395.774 181.597 395.552 181.245C395.329 180.892 395.027 180.62 394.644 180.429C394.261 180.237 393.825 180.142 393.336 180.142C392.908 180.142 392.506 180.225 392.13 180.393C391.754 180.561 391.408 180.807 391.094 181.132L391.786 176.679H396.106V177.366H392.433L392.002 180.157C392.652 179.747 393.363 179.591 394.136 179.69C394.628 179.728 395.062 179.868 395.439 180.111C395.818 180.354 396.114 180.677 396.326 181.08C396.542 181.48 396.649 181.946 396.649 182.476C396.649 183.098 396.511 183.62 396.234 184.04C395.957 184.461 395.589 184.777 395.131 184.989C394.676 185.198 394.175 185.302 393.628 185.302ZM400.918 185.302C400.463 185.302 400.036 185.229 399.636 185.082C399.239 184.934 398.893 184.724 398.599 184.451C398.309 184.177 398.093 183.849 397.953 183.466L398.574 183.158C398.741 183.62 399.035 183.984 399.456 184.251C399.88 184.517 400.371 184.651 400.928 184.651C401.38 184.651 401.773 184.563 402.108 184.389C402.447 184.211 402.708 183.962 402.893 183.64C403.081 183.319 403.175 182.939 403.175 182.501C403.175 182.016 403.064 181.597 402.842 181.245C402.619 180.892 402.317 180.62 401.934 180.429C401.551 180.237 401.115 180.142 400.626 180.142C400.198 180.142 399.796 180.225 399.42 180.393C399.044 180.561 398.699 180.807 398.384 181.132L399.076 176.679H403.396V177.366H399.723L399.292 180.157C399.942 179.747 400.653 179.591 401.426 179.69C401.918 179.728 402.353 179.868 402.729 180.111C403.108 180.354 403.404 180.677 403.616 181.08C403.832 181.48 403.939 181.946 403.939 182.476C403.939 183.098 403.801 183.62 403.524 184.04C403.247 184.461 402.879 184.777 402.421 184.989C401.966 185.198 401.465 185.302 400.918 185.302ZM408.171 185.143V179.89H408.919V180.608C409.128 180.318 409.378 180.099 409.668 179.952C409.959 179.801 410.284 179.726 410.643 179.726C411.074 179.726 411.448 179.825 411.766 180.024C412.088 180.222 412.31 180.492 412.433 180.834C412.635 180.499 412.892 180.231 413.203 180.029C413.517 179.827 413.89 179.726 414.321 179.726C414.694 179.726 415.026 179.803 415.316 179.957C415.607 180.107 415.834 180.33 415.998 180.624C416.166 180.915 416.25 181.27 416.25 181.691V185.143H415.501V181.901C415.501 181.422 415.376 181.043 415.126 180.762C414.877 180.482 414.543 180.342 414.126 180.342C413.839 180.342 413.579 180.405 413.346 180.531C413.114 180.658 412.929 180.822 412.792 181.024C412.656 181.222 412.587 181.427 412.587 181.64V185.143H411.838V181.824C411.838 181.369 411.713 181.009 411.464 180.742C411.218 180.475 410.891 180.342 410.484 180.342C410.197 180.342 409.933 180.403 409.694 180.526C409.458 180.646 409.27 180.802 409.13 180.993C408.99 181.185 408.919 181.381 408.919 181.583V185.143H408.171ZM418.211 185.143V179.89H418.96V185.143H418.211ZM418.59 178.839C418.498 178.839 418.414 178.816 418.339 178.772C418.267 178.728 418.209 178.668 418.165 178.592C418.12 178.517 418.098 178.435 418.098 178.346C418.098 178.257 418.12 178.177 418.165 178.105C418.209 178.03 418.267 177.97 418.339 177.926C418.414 177.881 418.498 177.859 418.59 177.859C418.679 177.859 418.76 177.881 418.831 177.926C418.903 177.97 418.961 178.028 419.006 178.1C419.054 178.172 419.078 178.254 419.078 178.346C419.078 178.435 419.054 178.517 419.006 178.592C418.961 178.668 418.903 178.728 418.831 178.772C418.76 178.816 418.679 178.839 418.59 178.839ZM421.018 185.143V179.89H421.766V180.608C421.91 180.362 422.132 180.154 422.433 179.983C422.734 179.812 423.102 179.726 423.536 179.726C423.943 179.726 424.294 179.81 424.588 179.977C424.882 180.145 425.108 180.39 425.265 180.711C425.422 181.029 425.501 181.414 425.501 181.865V185.143H424.752V182.009C424.752 181.465 424.625 181.051 424.372 180.767C424.119 180.48 423.762 180.337 423.3 180.337C422.979 180.337 422.704 180.402 422.474 180.531C422.249 180.658 422.074 180.827 421.951 181.039C421.828 181.248 421.766 181.475 421.766 181.722V185.143H421.018Z" fill="white" fill-opacity="0.5"/>
<path d="M36.7574 233.525V232.321H33.7939V231.67L36.3617 227.387H37.4609V231.705H38.3491V232.321H37.4609V233.525H36.7574ZM34.4886 231.705H36.7574V227.959H36.7134L34.4886 231.705ZM39.5973 227.018H40.3008V229.727H40.3359C40.4473 229.469 40.6027 229.263 40.802 229.111C41.0072 228.959 41.2798 228.882 41.6198 228.882C42.0888 228.882 42.4582 229.035 42.7278 229.34C43.0034 229.639 43.1411 230.064 43.1411 230.615V233.525H42.4376V230.738C42.4376 229.923 42.0947 229.515 41.4088 229.515C41.2681 229.515 41.1303 229.533 40.9955 229.568C40.8665 229.603 40.7492 229.656 40.6437 229.727C40.5382 229.797 40.4532 229.888 40.3887 229.999C40.3301 230.105 40.3008 230.231 40.3008 230.377V233.525H39.5973V227.018Z" fill="white"/>
<path d="M520.052 230.159H51.1758V230.892H520.052V230.159Z" fill="white" fill-opacity="0.25"/>
<path d="M35.7549 278.649C36.1712 278.649 36.4819 278.555 36.6871 278.368C36.8981 278.174 37.0036 277.928 37.0036 277.629V277.567C37.0036 277.245 36.901 277.005 36.6959 276.846C36.4965 276.682 36.2327 276.6 35.9044 276.6C35.5878 276.6 35.3299 276.67 35.1306 276.811C34.9312 276.946 34.7671 277.131 34.6381 277.365L34.0929 276.943C34.1691 276.82 34.26 276.7 34.3655 276.582C34.4769 276.459 34.6059 276.351 34.7524 276.257C34.899 276.163 35.069 276.087 35.2625 276.028C35.4559 275.97 35.6758 275.941 35.922 275.941C36.18 275.941 36.4232 275.976 36.6519 276.046C36.8805 276.111 37.0769 276.21 37.2411 276.345C37.4111 276.474 37.543 276.635 37.6368 276.829C37.7364 277.022 37.7863 277.242 37.7863 277.488C37.7863 277.688 37.754 277.866 37.6895 278.025C37.6309 278.183 37.5488 278.321 37.4433 278.438C37.3378 278.555 37.2117 278.655 37.0652 278.737C36.9245 278.819 36.7721 278.881 36.6079 278.922V278.957C36.7721 278.992 36.9304 279.051 37.0828 279.133C37.2411 279.209 37.3788 279.311 37.4961 279.44C37.6192 279.564 37.7159 279.716 37.7863 279.898C37.8625 280.074 37.9006 280.276 37.9006 280.504C37.9006 280.768 37.8508 281.012 37.7511 281.234C37.6514 281.451 37.5107 281.639 37.329 281.797C37.1473 281.95 36.9274 282.07 36.6695 282.158C36.4115 282.246 36.1272 282.29 35.8165 282.29C35.5527 282.29 35.3182 282.26 35.113 282.202C34.9078 282.143 34.7261 282.064 34.5678 281.964C34.4095 281.865 34.2688 281.753 34.1457 281.63C34.0284 281.507 33.9229 281.378 33.8291 281.243L34.3831 280.821C34.4593 280.944 34.5414 281.056 34.6293 281.155C34.7231 281.255 34.8257 281.34 34.9371 281.41C35.0485 281.481 35.1745 281.536 35.3152 281.577C35.4559 281.612 35.6201 281.63 35.8077 281.63C36.2415 281.63 36.5698 281.533 36.7926 281.34C37.0154 281.141 37.1267 280.859 37.1267 280.496V280.425C37.1267 280.062 37.0154 279.783 36.7926 279.59C36.5698 279.391 36.2415 279.291 35.8077 279.291H35.0866V278.649H35.7549ZM39.5973 275.677H40.3008V278.385H40.3359C40.4473 278.127 40.6027 277.922 40.802 277.77C41.0072 277.617 41.2798 277.541 41.6198 277.541C42.0888 277.541 42.4582 277.693 42.7278 277.998C43.0034 278.297 43.1411 278.722 43.1411 279.273V282.184H42.4376V279.396C42.4376 278.582 42.0947 278.174 41.4088 278.174C41.2681 278.174 41.1303 278.192 40.9955 278.227C40.8665 278.262 40.7492 278.315 40.6437 278.385C40.5382 278.456 40.4532 278.546 40.3887 278.658C40.3301 278.763 40.3008 278.889 40.3008 279.036V282.184H39.5973V275.677Z" fill="white"/>
<path d="M520.052 278.818H51.1758V279.551H520.052V278.818Z" fill="white" fill-opacity="0.25"/>
<path d="M38.1468 330.842H34.1193V330.086L36.1243 328.239C36.4115 327.976 36.6519 327.697 36.8453 327.404C37.0388 327.105 37.1355 326.806 37.1355 326.507V326.401C37.1355 326.061 37.0417 325.786 36.8541 325.575C36.6665 325.364 36.3822 325.258 36.0011 325.258C35.8135 325.258 35.6494 325.285 35.5087 325.337C35.368 325.39 35.2449 325.463 35.1394 325.557C35.0397 325.651 34.9547 325.762 34.8843 325.891C34.8199 326.015 34.7671 326.149 34.7261 326.296L34.0665 326.041C34.1252 325.859 34.2043 325.683 34.304 325.513C34.4095 325.337 34.5385 325.182 34.6909 325.047C34.8492 324.912 35.0368 324.804 35.2537 324.722C35.4765 324.64 35.7373 324.599 36.0363 324.599C36.3353 324.599 36.6021 324.643 36.8366 324.731C37.0711 324.819 37.2674 324.942 37.4257 325.1C37.584 325.258 37.7042 325.446 37.7863 325.663C37.8742 325.88 37.9182 326.12 37.9182 326.384C37.9182 326.624 37.883 326.847 37.8127 327.052C37.7482 327.257 37.6573 327.454 37.54 327.641C37.4228 327.823 37.2792 328.002 37.1092 328.178C36.945 328.354 36.7662 328.53 36.5727 328.705L34.9195 330.192H38.1468V330.842ZM39.5973 324.335H40.3008V327.043H40.3359C40.4473 326.785 40.6027 326.58 40.802 326.428C41.0072 326.275 41.2798 326.199 41.6198 326.199C42.0888 326.199 42.4582 326.352 42.7278 326.656C43.0034 326.955 43.1411 327.38 43.1411 327.932V330.842H42.4376V328.055C42.4376 327.24 42.0947 326.832 41.4088 326.832C41.2681 326.832 41.1303 326.85 40.9955 326.885C40.8665 326.92 40.7492 326.973 40.6437 327.043C40.5382 327.114 40.4532 327.205 40.3887 327.316C40.3301 327.422 40.3008 327.548 40.3008 327.694V330.842H39.5973V324.335Z" fill="white"/>
<path d="M520.052 327.476H51.1758V328.209H520.052V327.476Z" fill="white" fill-opacity="0.25"/>
<path d="M34.2336 379.501V378.85H35.9484V373.908H35.8868L34.3391 375.35L33.9082 374.884L35.5351 373.363H36.6871V378.85H38.2699V379.501H34.2336ZM39.5973 372.994H40.3008V375.702H40.3359C40.4473 375.444 40.6027 375.239 40.802 375.087C41.0072 374.934 41.2798 374.858 41.6198 374.858C42.0888 374.858 42.4582 375.01 42.7278 375.315C43.0034 375.614 43.1411 376.039 43.1411 376.59V379.501H42.4376V376.713C42.4376 375.898 42.0947 375.491 41.4088 375.491C41.2681 375.491 41.1303 375.509 40.9955 375.544C40.8665 375.579 40.7492 375.632 40.6437 375.702C40.5382 375.772 40.4532 375.863 40.3887 375.975C40.3301 376.08 40.3008 376.206 40.3008 376.353V379.501H39.5973V372.994Z" fill="white"/>
<path d="M520.052 376.135H51.1758V376.868H520.052V376.135Z" fill="white" fill-opacity="0.25"/>
<path d="M36.0979 428.265C35.3651 428.265 34.8287 427.987 34.4886 427.43C34.1545 426.873 33.9874 426.093 33.9874 425.091C33.9874 424.088 34.1545 423.308 34.4886 422.752C34.8287 422.195 35.3651 421.916 36.0979 421.916C36.8307 421.916 37.3642 422.195 37.6983 422.752C38.0384 423.308 38.2084 424.088 38.2084 425.091C38.2084 426.093 38.0384 426.873 37.6983 427.43C37.3642 427.987 36.8307 428.265 36.0979 428.265ZM36.0979 427.623C36.3382 427.623 36.5434 427.573 36.7134 427.474C36.8835 427.374 37.0212 427.233 37.1267 427.052C37.2323 426.87 37.3085 426.656 37.3554 426.41C37.4081 426.163 37.4345 425.891 37.4345 425.592V424.589C37.4345 424.29 37.4081 424.018 37.3554 423.772C37.3085 423.525 37.2323 423.311 37.1267 423.13C37.0212 422.948 36.8835 422.807 36.7134 422.708C36.5434 422.608 36.3382 422.558 36.0979 422.558C35.8575 422.558 35.6523 422.608 35.4823 422.708C35.3123 422.807 35.1745 422.948 35.069 423.13C34.9635 423.311 34.8843 423.525 34.8316 423.772C34.7847 424.018 34.7612 424.29 34.7612 424.589V425.592C34.7612 425.891 34.7847 426.163 34.8316 426.41C34.8843 426.656 34.9635 426.87 35.069 427.052C35.1745 427.233 35.3123 427.374 35.4823 427.474C35.6523 427.573 35.8575 427.623 36.0979 427.623ZM39.5973 421.652H40.3008V424.361H40.3359C40.4473 424.103 40.6027 423.898 40.802 423.745C41.0072 423.593 41.2798 423.517 41.6198 423.517C42.0888 423.517 42.4582 423.669 42.7278 423.974C43.0034 424.273 43.1411 424.698 43.1411 425.249V428.16H42.4376V425.372C42.4376 424.557 42.0947 424.15 41.4088 424.15C41.2681 424.15 41.1303 424.167 40.9955 424.202C40.8665 424.238 40.7492 424.29 40.6437 424.361C40.5382 424.431 40.4532 424.522 40.3887 424.633C40.3301 424.739 40.3008 424.865 40.3008 425.012V428.16H39.5973V421.652Z" fill="white"/>
<path d="M103.31 303.66H51.1758V424.574H103.31V303.66Z" fill="url(#paint1_linear_804_9665)"/>
<path d="M170.1 354.224H117.966V424.573H170.1V354.224Z" fill="url(#paint2_linear_804_9665)"/>
<path d="M236.891 398.192H184.757V424.574H236.891V398.192Z" fill="url(#paint3_linear_804_9665)"/>
<path d="M303.681 379.872H251.547V424.573H303.681V379.872Z" fill="url(#paint4_linear_804_9665)"/>
<path d="M370.471 383.536H318.337V424.573H370.471V383.536Z" fill="url(#paint5_linear_804_9665)"/>
<path d="M437.262 387.2H385.127V424.573H437.262V387.2Z" fill="url(#paint6_linear_804_9665)"/>
<path d="M504.052 393.063H451.918V424.574H504.052V393.063Z" fill="url(#paint7_linear_804_9665)"/>
</g>
</g>
</g>
<defs>
<filter id="filter0_d_804_9665" x="12.001" y="87" width="526" height="364" filterUnits="userSpaceOnUse" color-interpolation-filters="sRGB">
<feFlood flood-opacity="0" result="BackgroundImageFix"/>
<feColorMatrix in="SourceAlpha" type="matrix" values="0 0 0 0 0 0 0 0 0 0 0 0 0 0 0 0 0 0 127 0" result="hardAlpha"/>
<feOffset dy="4"/>
<feGaussianBlur stdDeviation="2"/>
<feComposite in2="hardAlpha" operator="out"/>
<feColorMatrix type="matrix" values="0 0 0 0 0 0 0 0 0 0 0 0 0 0 0 0 0 0 0.25 0"/>
<feBlend mode="normal" in2="BackgroundImageFix" result="effect1_dropShadow_804_9665"/>
<feBlend mode="normal" in="SourceGraphic" in2="effect1_dropShadow_804_9665" result="shape"/>
</filter>
<linearGradient id="paint0_linear_804_9665" x1="267" y1="0" x2="267" y2="505" gradientUnits="userSpaceOnUse">
<stop stop-color="#F98754"/>
<stop offset="1" stop-color="#64D171"/>
</linearGradient>
<linearGradient id="paint1_linear_804_9665" x1="51.1758" y1="303.66" x2="139.099" y2="341.57" gradientUnits="userSpaceOnUse">
<stop stop-color="#FB923C"/>
<stop offset="1" stop-color="#F87171"/>
</linearGradient>
<linearGradient id="paint2_linear_804_9665" x1="117.966" y1="354.224" x2="185.271" y2="404.102" gradientUnits="userSpaceOnUse">
<stop stop-color="#FB923C"/>
<stop offset="1" stop-color="#F87171"/>
</linearGradient>
<linearGradient id="paint3_linear_804_9665" x1="184.757" y1="398.192" x2="206.013" y2="440.199" gradientUnits="userSpaceOnUse">
<stop stop-color="#FB923C"/>
<stop offset="1" stop-color="#F87171"/>
</linearGradient>
<linearGradient id="paint4_linear_804_9665" x1="251.547" y1="379.872" x2="295.725" y2="431.396" gradientUnits="userSpaceOnUse">
<stop stop-color="#FB923C"/>
<stop offset="1" stop-color="#F87171"/>
</linearGradient>
<linearGradient id="paint5_linear_804_9665" x1="318.337" y1="383.536" x2="358.226" y2="434.212" gradientUnits="userSpaceOnUse">
<stop stop-color="#FB923C"/>
<stop offset="1" stop-color="#F87171"/>
</linearGradient>
<linearGradient id="paint6_linear_804_9665" x1="385.127" y1="387.2" x2="420.522" y2="436.574" gradientUnits="userSpaceOnUse">
<stop stop-color="#FB923C"/>
<stop offset="1" stop-color="#F87171"/>
</linearGradient>
<linearGradient id="paint7_linear_804_9665" x1="451.918" y1="393.063" x2="479.817" y2="439.222" gradientUnits="userSpaceOnUse">
<stop stop-color="#FB923C"/>
<stop offset="1" stop-color="#F87171"/>
</linearGradient>
<clipPath id="clip0_804_9665">
<rect width="534.001" height="505" fill="white"/>
</clipPath>
<clipPath id="clip1_804_9665">
<rect width="518" height="296" fill="white" transform="translate(16.001 128.037)"/>
</clipPath>
</defs>
</svg>
