<svg width="534" height="505" viewBox="0 0 534 505" fill="none" xmlns="http://www.w3.org/2000/svg">
<g clip-path="url(#clip0_872_3245)">
<path d="M423.813 119.343C459.972 169.92 473.093 228.079 460.29 281.024C447.488 333.969 409.81 377.364 355.546 401.663C301.282 425.962 234.876 429.174 170.938 410.592C106.999 392.01 50.7652 353.157 14.6067 302.58L423.813 119.343Z" fill="url(#paint0_linear_872_3245)"/>
<g filter="url(#filter0_d_872_3245)">
<rect x="88" y="24" width="343" height="446" rx="16" fill="#231526" shape-rendering="crispEdges"/>
<path d="M111.598 56V46.081H108.455V44.45H116.575V46.081H113.425V56H111.598ZM118.227 56V48.832H119.97V56H118.227ZM119.102 47.362C118.911 47.362 118.734 47.3153 118.57 47.222C118.412 47.124 118.283 46.9957 118.185 46.837C118.092 46.6737 118.045 46.494 118.045 46.298C118.045 46.1067 118.092 45.9317 118.185 45.773C118.283 45.6143 118.412 45.4883 118.57 45.395C118.734 45.297 118.911 45.248 119.102 45.248C119.298 45.248 119.473 45.297 119.627 45.395C119.786 45.4883 119.912 45.6143 120.005 45.773C120.103 45.9317 120.152 46.1067 120.152 46.298C120.152 46.494 120.103 46.6737 120.005 46.837C119.912 46.9957 119.786 47.124 119.627 47.222C119.473 47.3153 119.298 47.362 119.102 47.362ZM122.538 56V48.832H124.281V49.693C124.612 49.3243 124.96 49.0513 125.324 48.874C125.692 48.6967 126.096 48.608 126.535 48.608C127.099 48.608 127.601 48.7363 128.04 48.993C128.483 49.2497 128.796 49.595 128.978 50.029C129.3 49.5717 129.666 49.2217 130.077 48.979C130.487 48.7317 130.963 48.608 131.505 48.608C132.018 48.608 132.473 48.7153 132.87 48.93C133.271 49.14 133.586 49.4433 133.815 49.84C134.048 50.232 134.165 50.7057 134.165 51.261V56H132.422V51.737C132.422 51.205 132.282 50.785 132.002 50.477C131.726 50.1643 131.355 50.008 130.889 50.008C130.571 50.008 130.287 50.0757 130.035 50.211C129.783 50.3463 129.584 50.526 129.44 50.75C129.295 50.974 129.223 51.2143 129.223 51.471V56H127.48V51.667C127.48 51.163 127.344 50.7617 127.074 50.463C126.803 50.1597 126.434 50.008 125.968 50.008C125.646 50.008 125.356 50.0757 125.1 50.211C124.848 50.3463 124.647 50.526 124.498 50.75C124.353 50.9693 124.281 51.2073 124.281 51.464V56H122.538ZM140.019 56.224C139.254 56.224 138.568 56.0583 137.961 55.727C137.359 55.3957 136.881 54.943 136.526 54.369C136.176 53.795 136.001 53.1487 136.001 52.43C136.001 51.898 136.101 51.401 136.302 50.939C136.503 50.477 136.78 50.071 137.135 49.721C137.49 49.371 137.903 49.098 138.374 48.902C138.845 48.706 139.354 48.608 139.9 48.608C140.647 48.608 141.3 48.762 141.86 49.07C142.425 49.378 142.863 49.8073 143.176 50.358C143.493 50.9087 143.652 51.5503 143.652 52.283C143.652 52.3437 143.65 52.395 143.645 52.437C143.64 52.4743 143.631 52.5397 143.617 52.633H137.779C137.779 53.067 137.877 53.4497 138.073 53.781C138.269 54.1077 138.542 54.3643 138.892 54.551C139.247 54.733 139.653 54.824 140.11 54.824C140.544 54.824 140.929 54.7377 141.265 54.565C141.606 54.3877 141.914 54.1193 142.189 53.76L143.456 54.411C143.115 54.9803 142.642 55.426 142.035 55.748C141.433 56.0653 140.761 56.224 140.019 56.224ZM137.856 51.541H141.923C141.862 51.2143 141.739 50.932 141.552 50.694C141.365 50.456 141.13 50.2717 140.845 50.141C140.56 50.0057 140.243 49.938 139.893 49.938C139.524 49.938 139.195 50.0033 138.906 50.134C138.617 50.2647 138.381 50.449 138.199 50.687C138.017 50.925 137.903 51.2097 137.856 51.541ZM145.596 56V48.832H147.339V49.875C147.591 49.4643 147.906 49.1517 148.284 48.937C148.662 48.7177 149.077 48.608 149.53 48.608C149.768 48.608 150.01 48.6407 150.258 48.706C150.51 48.7667 150.724 48.8483 150.902 48.951L150.181 50.428C150.027 50.3347 149.847 50.26 149.642 50.204C149.441 50.148 149.254 50.12 149.082 50.12C148.783 50.12 148.501 50.197 148.235 50.351C147.969 50.505 147.752 50.7033 147.584 50.946C147.42 51.1887 147.339 51.45 147.339 51.73V56H145.596Z" fill="white"/>
<path d="M362.92 50.3937C362.899 50.2881 362.856 50.1882 362.793 50.1008C362.73 50.0135 362.649 49.9407 362.555 49.8874L359.759 48.2937L359.747 45.1418C359.747 45.0333 359.723 44.9261 359.677 44.8277C359.631 44.7293 359.565 44.642 359.482 44.5718C358.468 43.7137 357.299 43.0561 356.04 42.634C355.94 42.6004 355.835 42.588 355.731 42.5975C355.627 42.607 355.525 42.6383 355.434 42.6893L352.613 44.2662L349.789 42.6865C349.698 42.6352 349.596 42.6037 349.492 42.594C349.387 42.5843 349.282 42.5967 349.183 42.6303C347.924 43.0551 346.757 43.7152 345.744 44.5756C345.661 44.6456 345.595 44.7328 345.549 44.831C345.503 44.9292 345.479 45.0362 345.479 45.1446L345.465 48.2993L342.668 49.8931C342.574 49.9463 342.493 50.0191 342.43 50.1065C342.368 50.1938 342.324 50.2937 342.303 50.3993C342.047 51.6855 342.047 53.0094 342.303 54.2956C342.324 54.4012 342.368 54.5011 342.43 54.5884C342.493 54.6758 342.574 54.7486 342.668 54.8018L345.465 56.3956L345.476 59.5484C345.476 59.6569 345.5 59.7641 345.546 59.8625C345.592 59.9609 345.658 60.0482 345.741 60.1184C346.756 60.9765 347.924 61.6341 349.184 62.0562C349.283 62.0898 349.388 62.1022 349.492 62.0927C349.597 62.0831 349.698 62.0519 349.789 62.0009L352.613 60.4193L355.437 61.999C355.548 62.0613 355.674 62.0936 355.802 62.0928C355.884 62.0927 355.966 62.0794 356.043 62.0534C357.302 61.6287 358.469 60.9693 359.482 60.1099C359.565 60.0399 359.631 59.9528 359.677 59.8545C359.723 59.7563 359.747 59.6493 359.747 59.5409L359.761 56.3862L362.558 54.7924C362.652 54.7392 362.733 54.6664 362.795 54.579C362.858 54.4917 362.902 54.3918 362.923 54.2862C363.177 53.0011 363.176 51.6784 362.92 50.3937ZM352.613 56.0928C351.871 56.0928 351.146 55.8728 350.53 55.4608C349.913 55.0487 349.432 54.463 349.148 53.7778C348.865 53.0926 348.79 52.3386 348.935 51.6112C349.08 50.8837 349.437 50.2156 349.961 49.6911C350.486 49.1667 351.154 48.8095 351.881 48.6648C352.609 48.5201 353.363 48.5944 354.048 48.8782C354.733 49.162 355.319 49.6427 355.731 50.2594C356.143 50.8761 356.363 51.6011 356.363 52.3428C356.363 53.3373 355.968 54.2911 355.265 54.9944C354.561 55.6977 353.608 56.0928 352.613 56.0928Z" fill="white"/>
<path d="M406.766 58.6336C406.84 58.708 406.899 58.7962 406.939 58.8933C406.979 58.9904 407 59.0945 407 59.1996C407 59.3047 406.979 59.4088 406.939 59.5059C406.899 59.603 406.84 59.6912 406.766 59.7656C406.691 59.8399 406.603 59.8988 406.506 59.9391C406.409 59.9793 406.305 60 406.2 60C406.094 60 405.99 59.9793 405.893 59.9391C405.796 59.8988 405.708 59.8399 405.634 59.7656L399 53.1309L392.366 59.7656C392.216 59.9157 392.013 60 391.8 60C391.588 60 391.385 59.9157 391.234 59.7656C391.084 59.6155 391 59.4119 391 59.1996C391 58.9873 391.084 58.7837 391.234 58.6336L397.869 52L391.234 45.3664C391.084 45.2163 391 45.0127 391 44.8004C391 44.5881 391.084 44.3845 391.234 44.2344C391.385 44.0843 391.588 44 391.8 44C392.013 44 392.216 44.0843 392.366 44.2344L399 50.8691L405.634 44.2344C405.784 44.0843 405.987 44 406.2 44C406.412 44 406.615 44.0843 406.766 44.2344C406.916 44.3845 407 44.5881 407 44.8004C407 45.0127 406.916 45.2163 406.766 45.3664L400.131 52L406.766 58.6336Z" fill="white" stroke="white" stroke-width="0.5"/>
<path d="M371.5 212C371.5 273.856 321.356 324 259.5 324C197.644 324 147.5 273.856 147.5 212C147.5 150.144 197.644 100 259.5 100C321.356 100 371.5 150.144 371.5 212ZM160.94 212C160.94 266.433 205.067 310.56 259.5 310.56C313.933 310.56 358.06 266.433 358.06 212C358.06 157.567 313.933 113.44 259.5 113.44C205.067 113.44 160.94 157.567 160.94 212Z" fill="white" fill-opacity="0.2"/>
<path d="M259.5 106.72C259.5 103.009 262.512 99.979 266.216 100.202C286.007 101.39 305.172 107.816 321.724 118.875C340.142 131.182 354.497 148.674 362.975 169.139C371.452 189.605 373.669 212.124 369.348 233.85C365.026 255.576 354.359 275.532 338.696 291.196C323.032 306.859 303.076 317.526 281.35 321.848C259.624 326.169 237.105 323.952 216.639 315.475C196.174 306.997 178.682 292.642 166.375 274.224C155.316 257.672 148.89 238.507 147.702 218.716C147.479 215.012 150.509 212 154.22 212V212C157.931 212 160.916 215.012 161.169 218.715C162.339 235.845 167.968 252.416 177.55 266.757C188.38 282.965 203.773 295.598 221.783 303.058C239.792 310.517 259.609 312.469 278.728 308.666C297.847 304.863 315.409 295.476 329.192 281.692C342.976 267.909 352.363 250.347 356.166 231.228C359.969 212.109 358.017 192.292 350.558 174.283C343.098 156.273 330.465 140.88 314.257 130.05C299.916 120.468 283.346 114.839 266.215 113.669C262.512 113.416 259.5 110.431 259.5 106.72V106.72Z" fill="url(#paint1_linear_872_3245)"/>
<path d="M216.113 225.64C213.419 225.64 211.053 224.92 209.013 223.48C206.973 222.04 205.379 220.033 204.233 217.46C203.099 214.887 202.533 211.907 202.533 208.52C202.533 205.12 203.099 202.14 204.233 199.58C205.379 197.007 206.973 195 209.013 193.56C211.053 192.12 213.419 191.4 216.113 191.4C218.806 191.4 221.166 192.12 223.193 193.56C225.233 195 226.819 197.007 227.953 199.58C229.099 202.14 229.673 205.12 229.673 208.52C229.673 211.907 229.099 214.887 227.953 217.46C226.819 220.033 225.233 222.04 223.193 223.48C221.166 224.92 218.806 225.64 216.113 225.64ZM216.113 219.94C217.499 219.94 218.693 219.48 219.693 218.56C220.693 217.64 221.466 216.327 222.013 214.62C222.559 212.9 222.833 210.867 222.833 208.52C222.833 206.16 222.559 204.127 222.013 202.42C221.466 200.713 220.693 199.4 219.693 198.48C218.693 197.56 217.499 197.1 216.113 197.1C214.726 197.1 213.526 197.56 212.513 198.48C211.513 199.4 210.739 200.713 210.193 202.42C209.646 204.127 209.373 206.16 209.373 208.52C209.373 210.867 209.646 212.9 210.193 214.62C210.739 216.327 211.513 217.64 212.513 218.56C213.526 219.48 214.726 219.94 216.113 219.94ZM237.095 225L246.895 213.38C246.108 213.873 245.135 214.12 243.975 214.12C242.615 214.12 241.302 213.847 240.035 213.3C238.768 212.74 237.635 211.953 236.635 210.94C235.635 209.927 234.842 208.727 234.255 207.34C233.668 205.94 233.375 204.4 233.375 202.72C233.375 200.613 233.855 198.707 234.815 197C235.775 195.28 237.155 193.913 238.955 192.9C240.755 191.873 242.922 191.36 245.455 191.36C248.028 191.36 250.275 191.887 252.195 192.94C254.115 193.993 255.608 195.407 256.675 197.18C257.742 198.94 258.282 200.9 258.295 203.06C258.295 204.353 258.188 205.52 257.975 206.56C257.762 207.6 257.435 208.573 256.995 209.48C256.568 210.387 256.042 211.273 255.415 212.14C254.802 213.007 254.102 213.913 253.315 214.86L244.935 225H237.095ZM245.775 208.52C246.588 208.52 247.342 208.373 248.035 208.08C248.742 207.773 249.355 207.353 249.875 206.82C250.395 206.273 250.802 205.64 251.095 204.92C251.402 204.2 251.555 203.427 251.555 202.6C251.555 201.48 251.302 200.48 250.795 199.6C250.302 198.72 249.622 198.033 248.755 197.54C247.888 197.047 246.895 196.8 245.775 196.8C244.642 196.8 243.628 197.053 242.735 197.56C241.855 198.053 241.155 198.74 240.635 199.62C240.128 200.487 239.875 201.48 239.875 202.6C239.875 203.72 240.128 204.727 240.635 205.62C241.155 206.513 241.862 207.22 242.755 207.74C243.648 208.26 244.655 208.52 245.775 208.52ZM267.721 209.98C266.974 209.98 266.301 209.8 265.701 209.44C265.101 209.08 264.621 208.6 264.261 208C263.901 207.387 263.721 206.713 263.721 205.98C263.721 205.233 263.901 204.56 264.261 203.96C264.621 203.36 265.101 202.88 265.701 202.52C266.301 202.16 266.974 201.98 267.721 201.98C268.468 201.98 269.141 202.16 269.741 202.52C270.341 202.88 270.821 203.36 271.181 203.96C271.541 204.56 271.721 205.233 271.721 205.98C271.721 206.713 271.541 207.387 271.181 208C270.821 208.6 270.341 209.08 269.741 209.44C269.141 209.8 268.468 209.98 267.721 209.98ZM267.721 225.64C266.974 225.64 266.301 225.46 265.701 225.1C265.101 224.74 264.621 224.26 264.261 223.66C263.901 223.047 263.721 222.373 263.721 221.64C263.721 220.893 263.901 220.22 264.261 219.62C264.621 219.02 265.101 218.54 265.701 218.18C266.301 217.82 266.974 217.64 267.721 217.64C268.468 217.64 269.141 217.82 269.741 218.18C270.341 218.54 270.821 219.02 271.181 219.62C271.541 220.22 271.721 220.893 271.721 221.64C271.721 222.373 271.541 223.047 271.181 223.66C270.821 224.26 270.341 224.74 269.741 225.1C269.141 225.46 268.468 225.64 267.721 225.64ZM281.505 225V198.36H276.585V192H287.985V225H281.505ZM305.265 225.6C303.505 225.6 301.845 225.327 300.285 224.78C298.725 224.233 297.365 223.427 296.205 222.36C295.045 221.293 294.178 219.987 293.605 218.44L298.745 215.96C299.131 217.24 299.898 218.267 301.045 219.04C302.205 219.813 303.565 220.2 305.125 220.2C306.338 220.2 307.378 219.967 308.245 219.5C309.125 219.02 309.798 218.353 310.265 217.5C310.745 216.647 310.985 215.667 310.985 214.56C310.985 213.187 310.625 212.013 309.905 211.04C309.198 210.053 308.191 209.3 306.885 208.78C305.591 208.247 304.058 207.98 302.285 207.98C301.058 207.98 299.891 208.147 298.785 208.48C297.678 208.813 296.645 209.3 295.685 209.94L298.505 192H315.345V197.68H304.025L303.045 204.14C306.085 203.487 308.818 203.7 311.245 204.78C312.511 205.207 313.605 205.867 314.525 206.76C315.458 207.64 316.178 208.707 316.685 209.96C317.205 211.213 317.465 212.613 317.465 214.16C317.465 216.533 316.925 218.58 315.845 220.3C314.765 222.007 313.305 223.32 311.465 224.24C309.625 225.147 307.558 225.6 305.265 225.6Z" fill="#F4F4F5"/>
<rect x="209.5" y="344" width="40" height="40" rx="8" fill="url(#paint2_linear_872_3245)" fill-opacity="0.2"/>
<path d="M237.75 356.5V371.5C237.75 371.898 237.592 372.279 237.311 372.561C237.029 372.842 236.648 373 236.25 373H232.5C232.102 373 231.721 372.842 231.439 372.561C231.158 372.279 231 371.898 231 371.5V356.5C231 356.102 231.158 355.721 231.439 355.439C231.721 355.158 232.102 355 232.5 355H236.25C236.648 355 237.029 355.158 237.311 355.439C237.592 355.721 237.75 356.102 237.75 356.5ZM226.5 355H222.75C222.352 355 221.971 355.158 221.689 355.439C221.408 355.721 221.25 356.102 221.25 356.5V371.5C221.25 371.898 221.408 372.279 221.689 372.561C221.971 372.842 222.352 373 222.75 373H226.5C226.898 373 227.279 372.842 227.561 372.561C227.842 372.279 228 371.898 228 371.5V356.5C228 356.102 227.842 355.721 227.561 355.439C227.279 355.158 226.898 355 226.5 355Z" fill="white"/>
<g clip-path="url(#clip1_872_3245)">
<path d="M286.61 357.08C287.48 356.82 288.44 356.65 289.5 356.65C294.29 356.65 298.17 360.53 298.17 365.32C298.17 370.11 294.29 373.99 289.5 373.99C284.71 373.99 280.83 370.11 280.83 365.32C280.83 363.54 281.37 361.88 282.29 360.5" stroke="white" stroke-width="1.5" stroke-linecap="round" stroke-linejoin="round"/>
<path d="M285.37 357.32L288.26 354" stroke="white" stroke-width="1.5" stroke-linecap="round" stroke-linejoin="round"/>
<path d="M285.37 357.32L288.74 359.78" stroke="white" stroke-width="1.5" stroke-linecap="round" stroke-linejoin="round"/>
</g>
<path d="M212 421C212 420.801 212.079 420.61 212.22 420.47C212.36 420.329 212.551 420.25 212.75 420.25H229.25C229.449 420.25 229.64 420.329 229.78 420.47C229.921 420.61 230 420.801 230 421C230 421.199 229.921 421.39 229.78 421.53C229.64 421.671 229.449 421.75 229.25 421.75H212.75C212.551 421.75 212.36 421.671 212.22 421.53C212.079 421.39 212 421.199 212 421ZM212.75 427.75H229.25C229.449 427.75 229.64 427.671 229.78 427.53C229.921 427.39 230 427.199 230 427C230 426.801 229.921 426.61 229.78 426.47C229.64 426.329 229.449 426.25 229.25 426.25H212.75C212.551 426.25 212.36 426.329 212.22 426.47C212.079 426.61 212 426.801 212 427C212 427.199 212.079 427.39 212.22 427.53C212.36 427.671 212.551 427.75 212.75 427.75ZM222.5 432.25H212.75C212.551 432.25 212.36 432.329 212.22 432.47C212.079 432.61 212 432.801 212 433C212 433.199 212.079 433.39 212.22 433.53C212.36 433.671 212.551 433.75 212.75 433.75H222.5C222.699 433.75 222.89 433.671 223.03 433.53C223.171 433.39 223.25 433.199 223.25 433C223.25 432.801 223.171 432.61 223.03 432.47C222.89 432.329 222.699 432.25 222.5 432.25ZM230.75 432.25H229.25V430.75C229.25 430.551 229.171 430.36 229.03 430.22C228.89 430.079 228.699 430 228.5 430C228.301 430 228.11 430.079 227.97 430.22C227.829 430.36 227.75 430.551 227.75 430.75V432.25H226.25C226.051 432.25 225.86 432.329 225.72 432.47C225.579 432.61 225.5 432.801 225.5 433C225.5 433.199 225.579 433.39 225.72 433.53C225.86 433.671 226.051 433.75 226.25 433.75H227.75V435.25C227.75 435.449 227.829 435.64 227.97 435.78C228.11 435.921 228.301 436 228.5 436C228.699 436 228.89 435.921 229.03 435.78C229.171 435.64 229.25 435.449 229.25 435.25V433.75H230.75C230.949 433.75 231.14 433.671 231.28 433.53C231.421 433.39 231.5 433.199 231.5 433C231.5 432.801 231.421 432.61 231.28 432.47C231.14 432.329 230.949 432.25 230.75 432.25Z" fill="url(#paint3_linear_872_3245)"/>
<path d="M243.364 433L247.963 421.45H249.664L254.27 433H252.296L251.162 429.99H246.472L245.331 433H243.364ZM247.095 428.38H250.539L248.81 423.914L247.095 428.38ZM258.779 433.224C258.125 433.224 257.528 433.061 256.987 432.734C256.45 432.407 256.023 431.957 255.706 431.383C255.393 430.809 255.237 430.153 255.237 429.416C255.237 428.683 255.391 428.032 255.699 427.463C256.011 426.889 256.436 426.436 256.973 426.105C257.514 425.774 258.13 425.608 258.821 425.608C259.371 425.608 259.878 425.725 260.34 425.958C260.802 426.191 261.175 426.516 261.46 426.931V420.953H263.203V433H261.46V431.852C261.147 432.281 260.757 432.617 260.291 432.86C259.829 433.103 259.325 433.224 258.779 433.224ZM259.283 431.733C259.717 431.733 260.099 431.635 260.431 431.439C260.767 431.238 261.03 430.965 261.222 430.62C261.413 430.27 261.509 429.871 261.509 429.423C261.509 428.975 261.413 428.576 261.222 428.226C261.03 427.871 260.767 427.596 260.431 427.4C260.099 427.199 259.717 427.099 259.283 427.099C258.858 427.099 258.478 427.199 258.142 427.4C257.806 427.596 257.542 427.871 257.351 428.226C257.159 428.576 257.064 428.977 257.064 429.43C257.064 429.873 257.157 430.27 257.344 430.62C257.535 430.965 257.799 431.238 258.135 431.439C258.471 431.635 258.853 431.733 259.283 431.733ZM268.7 433.224C268.046 433.224 267.449 433.061 266.908 432.734C266.371 432.407 265.944 431.957 265.627 431.383C265.314 430.809 265.158 430.153 265.158 429.416C265.158 428.683 265.312 428.032 265.62 427.463C265.932 426.889 266.357 426.436 266.894 426.105C267.435 425.774 268.051 425.608 268.742 425.608C269.292 425.608 269.799 425.725 270.261 425.958C270.723 426.191 271.096 426.516 271.381 426.931V420.953H273.124V433H271.381V431.852C271.068 432.281 270.678 432.617 270.212 432.86C269.75 433.103 269.246 433.224 268.7 433.224ZM269.204 431.733C269.638 431.733 270.02 431.635 270.352 431.439C270.688 431.238 270.951 430.965 271.143 430.62C271.334 430.27 271.43 429.871 271.43 429.423C271.43 428.975 271.334 428.576 271.143 428.226C270.951 427.871 270.688 427.596 270.352 427.4C270.02 427.199 269.638 427.099 269.204 427.099C268.779 427.099 268.399 427.199 268.063 427.4C267.727 427.596 267.463 427.871 267.272 428.226C267.08 428.576 266.985 428.977 266.985 429.43C266.985 429.873 267.078 430.27 267.265 430.62C267.456 430.965 267.72 431.238 268.056 431.439C268.392 431.635 268.774 431.733 269.204 431.733ZM281.339 433.224C280.69 433.224 280.184 433.014 279.82 432.594C279.46 432.174 279.281 431.584 279.281 430.823V427.155H278.406V425.832H279.281V423.151H281.024V425.832H282.676V427.155H281.024V430.704C281.024 431.017 281.087 431.257 281.213 431.425C281.339 431.588 281.518 431.67 281.752 431.67C281.994 431.67 282.216 431.595 282.417 431.446L282.858 432.839C282.648 432.96 282.407 433.054 282.137 433.119C281.866 433.189 281.6 433.224 281.339 433.224ZM287.634 433.224C286.972 433.224 286.37 433.061 285.828 432.734C285.292 432.403 284.865 431.95 284.547 431.376C284.235 430.802 284.078 430.146 284.078 429.409C284.078 428.681 284.23 428.032 284.533 427.463C284.841 426.889 285.264 426.436 285.8 426.105C286.337 425.774 286.948 425.608 287.634 425.608C288.194 425.608 288.71 425.725 289.181 425.958C289.653 426.191 290.026 426.516 290.301 426.931V425.832H292.044V433H290.301V431.852C289.984 432.286 289.594 432.624 289.132 432.867C288.675 433.105 288.176 433.224 287.634 433.224ZM288.131 431.733C288.565 431.733 288.948 431.635 289.279 431.439C289.611 431.238 289.872 430.963 290.063 430.613C290.255 430.263 290.35 429.864 290.35 429.416C290.35 428.963 290.255 428.564 290.063 428.219C289.872 427.869 289.611 427.596 289.279 427.4C288.948 427.199 288.565 427.099 288.131 427.099C287.702 427.099 287.319 427.199 286.983 427.4C286.647 427.596 286.384 427.869 286.192 428.219C286.001 428.569 285.905 428.968 285.905 429.416C285.905 429.864 286.001 430.263 286.192 430.613C286.384 430.963 286.647 431.238 286.983 431.439C287.319 431.635 287.702 431.733 288.131 431.733ZM296.458 433.224C295.856 433.224 295.319 433.112 294.848 432.888C294.381 432.659 294.001 432.333 293.707 431.908L294.477 430.774C294.752 431.138 295.058 431.42 295.394 431.621C295.734 431.822 296.087 431.922 296.451 431.922C296.675 431.922 296.873 431.882 297.046 431.803C297.218 431.719 297.356 431.6 297.459 431.446C297.561 431.287 297.613 431.101 297.613 430.886C297.613 430.662 297.554 430.487 297.438 430.361C297.321 430.235 297.146 430.121 296.913 430.018C296.679 429.915 296.385 429.794 296.031 429.654C295.732 429.528 295.447 429.388 295.177 429.234C294.906 429.08 294.682 428.886 294.505 428.653C294.332 428.415 294.246 428.114 294.246 427.75C294.246 427.335 294.36 426.966 294.589 426.644C294.822 426.322 295.139 426.07 295.541 425.888C295.947 425.706 296.409 425.615 296.927 425.615C297.3 425.615 297.676 425.683 298.054 425.818C298.432 425.949 298.81 426.14 299.188 426.392L298.558 427.491C298.012 427.038 297.473 426.812 296.941 426.812C296.628 426.812 296.376 426.887 296.185 427.036C295.998 427.185 295.905 427.377 295.905 427.61C295.905 427.801 295.986 427.965 296.15 428.1C296.313 428.235 296.516 428.354 296.759 428.457C297.001 428.56 297.244 428.658 297.487 428.751C297.869 428.891 298.205 429.04 298.495 429.199C298.784 429.358 299.01 429.563 299.174 429.815C299.337 430.067 299.419 430.403 299.419 430.823C299.419 431.327 299.297 431.759 299.055 432.118C298.817 432.477 298.476 432.753 298.033 432.944C297.589 433.131 297.064 433.224 296.458 433.224ZM301.356 433V420.96H303.099V428.569L305.829 425.832H308.09L304.667 429.297L308.251 433H306.011L303.099 429.962V433H301.356Z" fill="url(#paint4_linear_872_3245)"/>
<rect x="110" y="404.5" width="299" height="45" rx="7.5" stroke="white" stroke-opacity="0.25"/>
</g>
</g>
<defs>
<filter id="filter0_d_872_3245" x="84" y="24" width="351" height="454" filterUnits="userSpaceOnUse" color-interpolation-filters="sRGB">
<feFlood flood-opacity="0" result="BackgroundImageFix"/>
<feColorMatrix in="SourceAlpha" type="matrix" values="0 0 0 0 0 0 0 0 0 0 0 0 0 0 0 0 0 0 127 0" result="hardAlpha"/>
<feOffset dy="4"/>
<feGaussianBlur stdDeviation="2"/>
<feComposite in2="hardAlpha" operator="out"/>
<feColorMatrix type="matrix" values="0 0 0 0 0 0 0 0 0 0 0 0 0 0 0 0 0 0 0.25 0"/>
<feBlend mode="normal" in2="BackgroundImageFix" result="effect1_dropShadow_872_3245"/>
<feBlend mode="normal" in="SourceGraphic" in2="effect1_dropShadow_872_3245" result="shape"/>
</filter>
<linearGradient id="paint0_linear_872_3245" x1="240.376" y1="83.0178" x2="664.783" y2="347.882" gradientUnits="userSpaceOnUse">
<stop stop-color="#F98754"/>
<stop offset="1" stop-color="#64D171"/>
</linearGradient>
<linearGradient id="paint1_linear_872_3245" x1="147.5" y1="100" x2="371.5" y2="324" gradientUnits="userSpaceOnUse">
<stop stop-color="#FB923C"/>
<stop offset="1" stop-color="#F87171"/>
</linearGradient>
<linearGradient id="paint2_linear_872_3245" x1="209.5" y1="344" x2="249.5" y2="384" gradientUnits="userSpaceOnUse">
<stop stop-color="#FB923C"/>
<stop offset="1" stop-color="#F87171"/>
</linearGradient>
<linearGradient id="paint3_linear_872_3245" x1="212" y1="420.25" x2="227.397" y2="439.314" gradientUnits="userSpaceOnUse">
<stop stop-color="#FB923C"/>
<stop offset="1" stop-color="#F87171"/>
</linearGradient>
<linearGradient id="paint4_linear_872_3245" x1="243" y1="421" x2="247.165" y2="444.254" gradientUnits="userSpaceOnUse">
<stop stop-color="#FB923C"/>
<stop offset="1" stop-color="#F87171"/>
</linearGradient>
<clipPath id="clip0_872_3245">
<rect width="534" height="505" fill="white"/>
</clipPath>
<clipPath id="clip1_872_3245">
<rect width="24" height="24" fill="white" transform="translate(277.5 352)"/>
</clipPath>
</defs>
</svg>
