<svg width="24" height="24" viewBox="0 0 24 24" fill="none" xmlns="http://www.w3.org/2000/svg">
<path d="M19.7656 18.6336C19.8399 18.708 19.8988 18.7962 19.9391 18.8933C19.9793 18.9904 20 19.0945 20 19.1996C20 19.3047 19.9793 19.4088 19.9391 19.5059C19.8988 19.603 19.8399 19.6912 19.7656 19.7656C19.6912 19.8399 19.603 19.8988 19.5059 19.9391C19.4088 19.9793 19.3047 20 19.1996 20C19.0945 20 18.9904 19.9793 18.8933 19.9391C18.7962 19.8988 18.708 19.8399 18.6336 19.7656L12 13.1309L5.36637 19.7656C5.21626 19.9157 5.01268 20 4.8004 20C4.58812 20 4.38454 19.9157 4.23443 19.7656C4.08433 19.6155 4 19.4119 4 19.1996C4 18.9873 4.08433 18.7837 4.23443 18.6336L10.8691 12L4.23443 5.36637C4.08433 5.21626 4 5.01268 4 4.8004C4 4.58812 4.08433 4.38454 4.23443 4.23443C4.38454 4.08433 4.58812 4 4.8004 4C5.01268 4 5.21626 4.08433 5.36637 4.23443L12 10.8691L18.6336 4.23443C18.7837 4.08433 18.9873 4 19.1996 4C19.4119 4 19.6155 4.08433 19.7656 4.23443C19.9157 4.38454 20 4.58812 20 4.8004C20 5.01268 19.9157 5.21626 19.7656 5.36637L13.1309 12L19.7656 18.6336Z" fill="gray" stroke="gray" stroke-width="0.5"/>
</svg>
