<svg width="36" height="36" viewBox="0 0 36 36" fill="none" xmlns="http://www.w3.org/2000/svg">
<path d="M21.796 24.7041C22.0073 24.9154 22.1261 25.2021 22.1261 25.501C22.1261 25.7999 22.0073 26.0865 21.796 26.2978C21.5846 26.5092 21.298 26.6279 20.9991 26.6279C20.7002 26.6279 20.4136 26.5092 20.2022 26.2978L12.7022 18.7978C12.5973 18.6933 12.5141 18.5691 12.4573 18.4324C12.4006 18.2956 12.3713 18.149 12.3713 18.001C12.3713 17.8529 12.4006 17.7063 12.4573 17.5696C12.5141 17.4328 12.5973 17.3086 12.7022 17.2041L20.2022 9.7041C20.4136 9.49276 20.7002 9.37402 20.9991 9.37402C21.298 9.37402 21.5846 9.49276 21.796 9.7041C22.0073 9.91544 22.1261 10.2021 22.1261 10.501C22.1261 10.7999 22.0073 11.0865 21.796 11.2978L15.0938 18L21.796 24.7041Z" fill="white"/>
</svg>
