<svg width="747" height="727" viewBox="0 0 747 727" fill="none" xmlns="http://www.w3.org/2000/svg">
<g clip-path="url(#clip0_863_823)">
<rect x="144" y="207" width="452" height="299" fill="white"/>
<path d="M658.294 363.5L711.206 286.256C713.651 282.456 715.198 278.175 715.736 273.723C716.274 269.27 715.79 264.757 714.319 260.508C712.982 256.218 710.578 252.315 707.32 249.145C704.063 245.974 700.052 243.635 695.644 242.333L603.825 205.983L596.044 116.623C595.904 112.315 594.867 108.08 592.994 104.175C591.121 100.27 588.453 96.7753 585.15 93.9043C581.369 91.2721 577.03 89.4977 572.452 88.7114C567.873 87.9251 563.172 88.1469 558.694 89.3605L460.65 109.05L396.844 39.3793C390.506 33.6301 382.164 30.4333 373.5 30.4333C364.836 30.4333 356.494 33.6301 350.156 39.3793L286.35 109.05L188.306 89.3605C183.828 88.1469 179.127 87.9251 174.548 88.7114C169.97 89.4977 165.631 91.2721 161.85 93.9043C158.547 96.7753 155.879 100.27 154.006 104.175C152.133 108.08 151.096 112.315 150.956 116.623L143.175 205.983L51.3562 242.333C46.9478 243.635 42.9372 245.974 39.6797 249.145C36.4223 252.315 34.0184 256.218 32.6812 260.508C31.2099 264.757 30.7259 269.27 31.2641 273.723C31.8023 278.175 33.3494 282.456 35.7937 286.256L88.7062 363.5L35.7937 440.744C33.4459 444.539 31.982 448.789 31.5052 453.195C31.0284 457.601 31.5504 462.055 33.0343 466.243C34.5182 470.431 36.9279 474.251 40.0935 477.434C43.2592 480.618 47.1037 483.086 51.3562 484.667L143.175 521.017L150.956 610.377C151.096 614.685 152.133 618.92 154.006 622.825C155.879 626.731 158.547 630.225 161.85 633.096C165.631 635.728 169.97 637.502 174.548 638.289C179.127 639.075 183.828 638.853 188.306 637.64L286.35 617.95L350.156 686.106C353.077 689.33 356.669 691.911 360.694 693.679C364.719 695.447 369.084 696.362 373.5 696.362C377.916 696.362 382.281 695.447 386.306 693.679C390.331 691.911 393.923 689.33 396.844 686.106L460.65 617.95L558.694 637.64C563.172 638.853 567.873 639.075 572.452 638.289C577.03 637.502 581.369 635.728 585.15 633.096C588.453 630.225 591.121 626.731 592.994 622.825C594.867 618.92 595.904 614.685 596.044 610.377L603.825 521.017L695.644 484.667C699.896 483.086 703.741 480.618 706.906 477.434C710.072 474.251 712.482 470.431 713.966 466.243C715.45 462.055 715.972 457.601 715.495 453.195C715.018 448.789 713.554 444.539 711.206 440.744L658.294 363.5ZM280.125 471.035L214.762 422.569L197.644 408.938H196.087L205.425 430.142L231.881 490.725L199.2 502.842L144.731 372.588L177.412 360.471L244.331 408.938L261.45 422.569C258.75 415.828 255.632 409.252 252.112 402.879L227.212 340.781L259.894 327.15L314.363 457.404L280.125 471.035ZM331.481 451.346L277.012 319.577L379.725 280.198L390.619 307.46L322.144 333.208L331.481 357.442L390.619 333.208L401.512 358.956L342.375 381.675L353.269 410.452L423.3 383.19L434.194 410.452L331.481 451.346ZM547.8 365.015L507.337 308.975L493.331 286.256H491.775C494.373 294.711 496.451 303.309 498 312.004L510.45 380.16L477.769 393.792L385.95 277.169L420.188 263.538L455.981 313.519L476.213 343.811C473.517 332.312 471.439 320.684 469.988 308.975L459.094 248.392L490.219 236.275L526.013 287.771L544.688 316.548C544.688 316.548 541.575 295.344 538.462 280.198L529.125 221.129L561.806 207.498L580.481 352.898L547.8 365.015Z" fill="#FF9155"/>
</g>
<defs>
<clipPath id="clip0_863_823">
<rect width="747" height="727" fill="white"/>
</clipPath>
</defs>
</svg>
