<svg width="21" height="20" viewBox="0 0 21 20" fill="none" xmlns="http://www.w3.org/2000/svg">
<path d="M19.7188 7.71328L15.3438 2.71328C15.2853 2.64647 15.2132 2.59289 15.1324 2.55612C15.0516 2.51934 14.9639 2.50021 14.8751 2.5H6.12506C6.03626 2.50021 5.94852 2.51934 5.86769 2.55612C5.78687 2.59289 5.7148 2.64647 5.65631 2.71328L1.28131 7.71328C1.17924 7.82981 1.12409 7.98009 1.12654 8.13498C1.129 8.28987 1.18888 8.43832 1.29459 8.55156L10.0446 17.9266C10.1031 17.9893 10.1738 18.0392 10.2524 18.0734C10.3311 18.1076 10.4159 18.1252 10.5016 18.1252C10.5874 18.1252 10.6722 18.1076 10.7508 18.0734C10.8294 18.0392 10.9002 17.9893 10.9587 17.9266L19.7087 8.55156C19.8139 8.43793 19.8732 8.28926 19.8751 8.13438C19.877 7.97949 19.8213 7.82943 19.7188 7.71328ZM17.8727 7.5H14.5626L11.7501 3.75H14.5915L17.8727 7.5ZM6.32662 8.75L8.68053 14.6352L3.18834 8.75H6.32662ZM13.3266 8.75L10.5001 15.8172L7.67349 8.75H13.3266ZM8.00006 7.5L10.5001 4.16641L13.0001 7.5H8.00006ZM14.6735 8.75H17.8118L12.3196 14.6352L14.6735 8.75ZM6.40865 3.75H9.25006L6.43756 7.5H3.1274L6.40865 3.75Z" fill="white"/>
</svg>
