<svg width="100" height="100" viewBox="0 0 100 100" fill="none" xmlns="http://www.w3.org/2000/svg">
<path d="M50 0C36.7392 -1.58134e-07 24.0215 5.26784 14.6447 14.6447C5.26784 24.0215 1.1593e-06 36.7392 0 50C-1.1593e-06 63.2608 5.26784 75.9785 14.6447 85.3553C24.0215 94.7322 36.7392 100 50 100L50 50V0Z" fill="#F98754" fill-opacity="0.15"/>
<path d="M70.85 43.3L35.85 25.8C34.4687 25.1125 32.909 24.8677 31.3836 25.0991C29.8581 25.3304 28.4412 26.0266 27.3258 27.0927C26.2105 28.1589 25.4511 29.543 25.1512 31.0565C24.8513 32.57 25.0255 34.1391 25.65 35.55L31.65 48.975C31.7861 49.2995 31.8563 49.648 31.8563 50C31.8563 50.3519 31.7861 50.7004 31.65 51.025L25.65 64.45C25.1418 65.5917 24.9269 66.8424 25.025 68.0884C25.123 69.3343 25.5309 70.536 26.2115 71.5842C26.8921 72.6324 27.8238 73.494 28.9221 74.0905C30.0203 74.687 31.2502 74.9997 32.5 75C33.6706 74.9883 34.8237 74.7149 35.875 74.2L70.875 56.7C72.1165 56.0754 73.1601 55.1182 73.8892 53.9352C74.6184 52.7521 75.0045 51.3897 75.0045 50C75.0045 48.6102 74.6184 47.2478 73.8892 46.0648C73.1601 44.8817 72.1165 43.9245 70.875 43.3H70.85ZM68.625 52.225L33.625 69.725C33.1654 69.9456 32.6493 70.0205 32.146 69.9396C31.6426 69.8586 31.176 69.6257 30.8088 69.2721C30.4415 68.9184 30.1912 68.461 30.0913 67.961C29.9915 67.4611 30.0468 66.9426 30.25 66.475L36.225 53.05C36.3024 52.8707 36.3691 52.687 36.425 52.5H53.65C54.313 52.5 54.9489 52.2366 55.4178 51.7677C55.8866 51.2989 56.15 50.663 56.15 50C56.15 49.3369 55.8866 48.701 55.4178 48.2322C54.9489 47.7633 54.313 47.5 53.65 47.5H36.425C36.3691 47.3129 36.3024 47.1292 36.225 46.95L30.25 33.525C30.0468 33.0574 29.9915 32.5388 30.0913 32.0389C30.1912 31.5389 30.4415 31.0815 30.8088 30.7278C31.176 30.3742 31.6426 30.1413 32.146 30.0603C32.6493 29.9794 33.1654 30.0543 33.625 30.275L68.625 47.775C69.0345 47.9848 69.3782 48.3035 69.6182 48.6961C69.8581 49.0886 69.9851 49.5398 69.9851 50C69.9851 50.4601 69.8581 50.9113 69.6182 51.3038C69.3782 51.6964 69.0345 52.0152 68.625 52.225Z" fill="url(#paint0_linear_573_12258)"/>
<defs>
<linearGradient id="paint0_linear_573_12258" x1="50.0032" y1="25.0143" x2="50.0032" y2="75" gradientUnits="userSpaceOnUse">
<stop stop-color="#F98754"/>
<stop offset="1" stop-color="#D7554E"/>
</linearGradient>
</defs>
</svg>
