<svg width="100" height="100" viewBox="0 0 100 100" fill="none" xmlns="http://www.w3.org/2000/svg">
<path d="M50 0C36.7392 -1.58134e-07 24.0215 5.26784 14.6447 14.6447C5.26784 24.0215 1.1593e-06 36.7392 0 50C-1.1593e-06 63.2608 5.26784 75.9785 14.6447 85.3553C24.0215 94.7322 36.7392 100 50 100L50 50V0Z" fill="#64D171" fill-opacity="0.15"/>
<path d="M42.518 77.342C42.896 77.762 43.436 78 44 78H52C52.818 78 53.552 77.502 53.858 76.742L61.354 58H70C74.412 58 78 54.412 78 50C78 45.588 74.412 42 70 42H61.354L53.858 23.258C53.7092 22.8869 53.4527 22.5688 53.1216 22.3446C52.7905 22.1204 52.3999 22.0004 52 22H44C43.7202 21.9991 43.4433 22.057 43.1874 22.1701C42.9315 22.2832 42.7022 22.4489 42.5145 22.6564C42.3269 22.8639 42.1849 23.1086 42.098 23.3745C42.0111 23.6404 41.9811 23.9217 42.01 24.2L43.79 42H35.442L33.896 37.368C33.7639 36.9696 33.5096 36.6229 33.1693 36.3774C32.8289 36.1318 32.4197 35.9997 32 36H24C23.7043 36.0005 23.4125 36.0666 23.1453 36.1933C22.8782 36.3201 22.6425 36.5044 22.4551 36.7331C22.2677 36.9618 22.1333 37.2292 22.0615 37.516C21.9898 37.8028 21.9824 38.102 22.04 38.392L24 48.198V51.804L22.04 61.608C21.9824 61.898 21.9898 62.1972 22.0615 62.484C22.1333 62.7708 22.2677 63.0382 22.4551 63.2669C22.6425 63.4956 22.8782 63.6799 23.1453 63.8067C23.4125 63.9335 23.7043 63.9995 24 64H32C32.4197 64.0003 32.8289 63.8683 33.1693 63.6227C33.5096 63.3771 33.7639 63.0304 33.896 62.632L35.442 58H43.79L42.01 75.8C41.982 76.0783 42.0128 76.3593 42.1003 76.6249C42.1878 76.8906 42.3301 77.1348 42.518 77.342ZM34 54C33.5803 53.9997 33.1711 54.1318 32.8307 54.3773C32.4904 54.6229 32.2361 54.9696 32.104 55.368L30.558 60H26.44L27.962 52.392C27.986 52.264 28 52.13 28 52V48C27.9997 47.8683 27.9863 47.737 27.96 47.608L26.44 40H30.56L32.104 44.632C32.2361 45.0304 32.4904 45.3771 32.8307 45.6227C33.1711 45.8683 33.5803 46.0003 34 46H46C46.2798 46.0009 46.5567 45.943 46.8126 45.8299C47.0685 45.7168 47.2978 45.5511 47.4855 45.3436C47.6731 45.1361 47.8151 44.8915 47.902 44.6255C47.9889 44.3596 48.0189 44.0783 47.99 43.8L46.21 26H50.646L58.142 44.742C58.448 45.502 59.182 46 60 46H70C72.206 46 74 47.794 74 50C74 52.206 72.206 54 70 54H60C59.182 54 58.448 54.498 58.142 55.258L50.646 74H46.21L47.99 56.2C48.018 55.9219 47.9873 55.641 47.9 55.3755C47.8127 55.1099 47.6708 54.8657 47.4833 54.6584C47.2958 54.4511 47.0669 54.2854 46.8114 54.172C46.5559 54.0586 46.2795 54 46 54H34Z" fill="#64D171"/>
</svg>
