<svg width="610" height="632" viewBox="0 0 610 632" fill="none" xmlns="http://www.w3.org/2000/svg">
<path d="M301 0C338.427 4.44743e-07 375.487 7.34588 410.065 21.6182C444.643 35.8906 476.061 56.8099 502.525 83.1817C528.99 109.554 549.983 140.862 564.306 175.318C578.628 209.774 586 246.705 586 284C586 321.296 578.628 358.226 564.306 392.682C549.983 427.139 528.99 458.447 502.525 484.818C476.061 511.19 444.642 532.11 410.065 546.382C375.487 560.654 338.427 568 301 568L301 284V0Z" fill="url(#paint0_linear_573_12256)"/>
<g filter="url(#filter0_d_573_12256)">
<rect x="83" y="177.126" width="502.707" height="372.749" rx="11.725" fill="#231526"/>
<path d="M101.062 201.309C100.655 201.309 100.286 201.257 99.9543 201.155C99.6226 201.052 99.3302 200.926 99.0771 200.775C98.8275 200.621 98.6171 200.467 98.4462 200.313C98.2752 200.16 98.1452 200.033 98.0563 199.934L98.7642 198.846C98.86 198.945 98.9796 199.063 99.1233 199.2C99.2703 199.337 99.4413 199.472 99.6362 199.606C99.8312 199.735 100.05 199.845 100.293 199.934C100.536 200.019 100.804 200.062 101.098 200.062C101.375 200.062 101.623 200.016 101.842 199.924C102.061 199.831 102.235 199.694 102.365 199.513C102.495 199.329 102.56 199.101 102.56 198.831C102.56 198.595 102.511 198.393 102.411 198.226C102.316 198.058 102.177 197.913 101.996 197.79C101.815 197.663 101.599 197.543 101.35 197.431C101.1 197.314 100.821 197.195 100.513 197.071C100.295 196.979 100.077 196.871 99.8619 196.748C99.6499 196.625 99.4567 196.478 99.2823 196.307C99.1113 196.136 98.9745 195.94 98.8719 195.717C98.7693 195.492 98.718 195.232 98.718 194.938C98.718 194.619 98.7796 194.317 98.9027 194.03C99.0292 193.739 99.2071 193.481 99.4362 193.255C99.6653 193.029 99.9372 192.851 100.252 192.721C100.57 192.592 100.924 192.527 101.314 192.527C101.632 192.527 101.941 192.573 102.242 192.665C102.543 192.757 102.817 192.877 103.063 193.024C103.313 193.171 103.516 193.329 103.673 193.496L103.089 194.517C102.959 194.384 102.803 194.259 102.622 194.142C102.444 194.023 102.246 193.927 102.027 193.855C101.808 193.783 101.579 193.747 101.339 193.747C101.059 193.747 100.821 193.802 100.626 193.912C100.431 194.021 100.281 194.165 100.175 194.342C100.072 194.517 100.021 194.707 100.021 194.912C100.021 195.09 100.057 195.242 100.129 195.368C100.204 195.492 100.307 195.598 100.436 195.686C100.566 195.775 100.715 195.857 100.883 195.933C101.054 196.004 101.233 196.076 101.421 196.148C101.794 196.299 102.138 196.452 102.452 196.61C102.77 196.764 103.046 196.94 103.278 197.138C103.511 197.333 103.69 197.566 103.817 197.836C103.947 198.103 104.012 198.424 104.012 198.8C104.012 199.327 103.885 199.778 103.632 200.154C103.383 200.531 103.035 200.818 102.591 201.016C102.15 201.211 101.64 201.309 101.062 201.309ZM107.178 201.309C106.703 201.309 106.332 201.155 106.065 200.847C105.802 200.539 105.67 200.107 105.67 199.549V196.861H105.029V195.892H105.67V193.927H106.947V195.892H108.158V196.861H106.947V199.462C106.947 199.691 106.993 199.867 107.086 199.99C107.178 200.11 107.31 200.17 107.481 200.17C107.659 200.17 107.821 200.115 107.968 200.006L108.291 201.026C108.137 201.115 107.961 201.184 107.763 201.232C107.564 201.283 107.37 201.309 107.178 201.309ZM111.843 201.309C111.357 201.309 110.916 201.189 110.52 200.949C110.126 200.707 109.813 200.375 109.581 199.954C109.352 199.534 109.237 199.053 109.237 198.513C109.237 197.979 109.348 197.504 109.571 197.087C109.796 196.666 110.106 196.334 110.499 196.092C110.892 195.849 111.34 195.727 111.843 195.727C112.253 195.727 112.631 195.813 112.977 195.984C113.322 196.155 113.596 196.393 113.797 196.697V195.892H115.075V201.144H113.797V200.303C113.565 200.621 113.279 200.869 112.941 201.047C112.606 201.221 112.24 201.309 111.843 201.309ZM112.207 200.216C112.525 200.216 112.806 200.144 113.048 200C113.291 199.853 113.483 199.652 113.623 199.395C113.763 199.139 113.833 198.846 113.833 198.518C113.833 198.186 113.763 197.894 113.623 197.641C113.483 197.384 113.291 197.184 113.048 197.041C112.806 196.894 112.525 196.82 112.207 196.82C111.893 196.82 111.612 196.894 111.366 197.041C111.12 197.184 110.927 197.384 110.786 197.641C110.646 197.897 110.576 198.19 110.576 198.518C110.576 198.846 110.646 199.139 110.786 199.395C110.927 199.652 111.12 199.853 111.366 200C111.612 200.144 111.893 200.216 112.207 200.216ZM118.515 201.309C118.039 201.309 117.668 201.155 117.401 200.847C117.138 200.539 117.006 200.107 117.006 199.549V196.861H116.365V195.892H117.006V193.927H118.284V195.892H119.494V196.861H118.284V199.462C118.284 199.691 118.33 199.867 118.422 199.99C118.515 200.11 118.646 200.17 118.817 200.17C118.995 200.17 119.158 200.115 119.305 200.006L119.628 201.026C119.474 201.115 119.298 201.184 119.099 201.232C118.901 201.283 118.706 201.309 118.515 201.309ZM120.984 201.144V195.892H122.261V201.144H120.984ZM121.625 194.814C121.485 194.814 121.355 194.78 121.235 194.712C121.119 194.64 121.025 194.546 120.953 194.43C120.884 194.31 120.85 194.178 120.85 194.035C120.85 193.894 120.884 193.766 120.953 193.65C121.025 193.534 121.119 193.441 121.235 193.373C121.355 193.301 121.485 193.265 121.625 193.265C121.768 193.265 121.897 193.301 122.01 193.373C122.126 193.441 122.218 193.534 122.287 193.65C122.358 193.766 122.394 193.894 122.394 194.035C122.394 194.178 122.358 194.31 122.287 194.43C122.218 194.546 122.126 194.64 122.01 194.712C121.897 194.78 121.768 194.814 121.625 194.814ZM125.589 201.309C125.148 201.309 124.754 201.226 124.409 201.062C124.067 200.895 123.788 200.655 123.573 200.344L124.137 199.513C124.339 199.78 124.563 199.987 124.809 200.134C125.059 200.281 125.317 200.354 125.584 200.354C125.748 200.354 125.893 200.325 126.02 200.267C126.146 200.206 126.247 200.118 126.322 200.006C126.398 199.889 126.435 199.753 126.435 199.595C126.435 199.431 126.392 199.303 126.307 199.211C126.221 199.118 126.093 199.034 125.922 198.959C125.751 198.884 125.536 198.795 125.276 198.692C125.057 198.6 124.848 198.498 124.65 198.385C124.452 198.272 124.288 198.13 124.158 197.959C124.031 197.784 123.968 197.564 123.968 197.297C123.968 196.993 124.052 196.723 124.219 196.487C124.39 196.251 124.623 196.066 124.917 195.933C125.214 195.799 125.553 195.733 125.933 195.733C126.206 195.733 126.481 195.782 126.758 195.881C127.035 195.977 127.312 196.117 127.589 196.302L127.128 197.107C126.728 196.776 126.333 196.61 125.943 196.61C125.714 196.61 125.529 196.665 125.389 196.774C125.252 196.883 125.184 197.024 125.184 197.195C125.184 197.335 125.243 197.454 125.363 197.554C125.483 197.653 125.632 197.74 125.809 197.815C125.987 197.89 126.165 197.962 126.343 198.031C126.623 198.133 126.87 198.243 127.082 198.359C127.294 198.475 127.459 198.626 127.579 198.81C127.699 198.995 127.759 199.241 127.759 199.549C127.759 199.918 127.67 200.235 127.492 200.498C127.318 200.761 127.068 200.963 126.743 201.103C126.418 201.24 126.033 201.309 125.589 201.309ZM130.771 201.309C130.295 201.309 129.924 201.155 129.657 200.847C129.394 200.539 129.262 200.107 129.262 199.549V196.861H128.621V195.892H129.262V193.927H130.54V195.892H131.75V196.861H130.54V199.462C130.54 199.691 130.586 199.867 130.678 199.99C130.771 200.11 130.902 200.17 131.073 200.17C131.251 200.17 131.413 200.115 131.56 200.006L131.884 201.026C131.73 201.115 131.554 201.184 131.355 201.232C131.157 201.283 130.962 201.309 130.771 201.309ZM133.239 201.144V195.892H134.517V201.144H133.239ZM133.881 194.814C133.74 194.814 133.611 194.78 133.491 194.712C133.375 194.64 133.281 194.546 133.209 194.43C133.14 194.31 133.106 194.178 133.106 194.035C133.106 193.894 133.14 193.766 133.209 193.65C133.281 193.534 133.375 193.441 133.491 193.373C133.611 193.301 133.74 193.265 133.881 193.265C134.024 193.265 134.153 193.301 134.265 193.373C134.382 193.441 134.474 193.534 134.542 193.65C134.614 193.766 134.65 193.894 134.65 194.035C134.65 194.178 134.614 194.31 134.542 194.43C134.474 194.546 134.382 194.64 134.265 194.712C134.153 194.78 134.024 194.814 133.881 194.814ZM138.85 201.309C138.453 201.309 138.079 201.238 137.727 201.098C137.378 200.955 137.07 200.756 136.803 200.503C136.537 200.25 136.326 199.954 136.172 199.616C136.022 199.277 135.947 198.911 135.947 198.518C135.947 198.138 136.019 197.781 136.162 197.446C136.309 197.107 136.513 196.81 136.773 196.553C137.036 196.297 137.344 196.095 137.696 195.948C138.052 195.801 138.435 195.727 138.845 195.727C139.187 195.727 139.514 195.777 139.825 195.876C140.139 195.975 140.399 196.105 140.604 196.266L140.148 197.128C139.847 196.899 139.476 196.784 139.035 196.784C138.672 196.784 138.359 196.865 138.096 197.025C137.833 197.183 137.631 197.395 137.491 197.661C137.351 197.925 137.28 198.21 137.28 198.518C137.28 198.843 137.354 199.137 137.501 199.4C137.648 199.66 137.855 199.867 138.122 200.021C138.388 200.175 138.696 200.252 139.045 200.252C139.261 200.252 139.462 200.221 139.65 200.16C139.842 200.098 140.006 200.014 140.143 199.908L140.604 200.77C140.396 200.927 140.138 201.055 139.83 201.155C139.522 201.257 139.196 201.309 138.85 201.309Z" fill="white"/>
<path d="M567.948 202.506C568.002 202.56 568.046 202.625 568.075 202.696C568.105 202.767 568.12 202.843 568.12 202.92C568.12 202.997 568.105 203.074 568.075 203.145C568.046 203.216 568.002 203.281 567.948 203.335C567.894 203.39 567.829 203.433 567.758 203.462C567.687 203.492 567.61 203.507 567.533 203.507C567.456 203.507 567.38 203.492 567.309 203.462C567.238 203.433 567.173 203.39 567.119 203.335L562.257 198.473L557.396 203.335C557.286 203.445 557.137 203.507 556.981 203.507C556.826 203.507 556.677 203.445 556.567 203.335C556.457 203.225 556.395 203.076 556.395 202.92C556.395 202.765 556.457 202.616 556.567 202.506L561.429 197.644L556.567 192.783C556.457 192.673 556.395 192.524 556.395 192.368C556.395 192.213 556.457 192.064 556.567 191.954C556.677 191.844 556.826 191.782 556.981 191.782C557.137 191.782 557.286 191.844 557.396 191.954L562.257 196.816L567.119 191.954C567.229 191.844 567.378 191.782 567.533 191.782C567.689 191.782 567.838 191.844 567.948 191.954C568.058 192.064 568.12 192.213 568.12 192.368C568.12 192.524 568.058 192.673 567.948 192.783L563.086 197.644L567.948 202.506Z" fill="white" stroke="white" stroke-width="0.366405"/>
<g clip-path="url(#clip0_573_12256)">
<rect x="210.509" y="222.56" width="120.181" height="24.6562" rx="3.66405" fill="white" fill-opacity="0.1"/>
<path d="M246.225 237.888V230.633H247.117V237.101H250.032V237.888H246.225ZM253.101 238.029C252.682 238.029 252.302 237.926 251.962 237.721C251.625 237.513 251.357 237.229 251.158 236.868C250.961 236.507 250.863 236.096 250.863 235.632C250.863 235.175 250.96 234.768 251.153 234.41C251.347 234.05 251.612 233.765 251.949 233.557C252.286 233.349 252.67 233.245 253.101 233.245C253.482 233.245 253.83 233.33 254.143 233.5C254.46 233.67 254.704 233.906 254.877 234.208V233.386H255.73V237.888H254.877V237.044C254.681 237.355 254.429 237.596 254.121 237.769C253.813 237.942 253.473 238.029 253.101 238.029ZM253.33 237.294C253.638 237.294 253.909 237.224 254.143 237.083C254.381 236.94 254.567 236.743 254.702 236.494C254.836 236.245 254.904 235.959 254.904 235.637C254.904 235.314 254.836 235.029 254.702 234.779C254.567 234.53 254.381 234.335 254.143 234.195C253.909 234.051 253.638 233.979 253.33 233.979C253.025 233.979 252.754 234.051 252.516 234.195C252.279 234.335 252.091 234.53 251.954 234.779C251.819 235.029 251.751 235.314 251.751 235.637C251.751 235.956 251.819 236.242 251.954 236.494C252.091 236.743 252.279 236.94 252.516 237.083C252.754 237.224 253.025 237.294 253.33 237.294ZM258.565 238.029C258.189 238.029 257.857 237.948 257.567 237.787C257.279 237.623 257.051 237.39 256.881 237.088L257.29 236.56C257.445 236.821 257.632 237.023 257.852 237.167C258.072 237.311 258.308 237.382 258.56 237.382C258.724 237.382 258.872 237.35 259.004 237.286C259.139 237.221 259.246 237.129 259.325 237.009C259.404 236.886 259.444 236.74 259.444 236.573C259.444 236.412 259.403 236.286 259.321 236.195C259.242 236.101 259.123 236.019 258.965 235.949C258.809 235.879 258.614 235.798 258.38 235.707C258.192 235.631 258.011 235.545 257.835 235.448C257.659 235.351 257.514 235.229 257.399 235.083C257.288 234.933 257.232 234.744 257.232 234.516C257.232 234.269 257.298 234.051 257.43 233.861C257.565 233.67 257.75 233.521 257.984 233.412C258.219 233.304 258.485 233.249 258.784 233.249C259.028 233.249 259.264 233.298 259.492 233.394C259.721 233.491 259.938 233.63 260.143 233.812L259.8 234.331C259.495 234.009 259.158 233.847 258.789 233.847C258.566 233.847 258.386 233.905 258.248 234.019C258.11 234.13 258.041 234.275 258.041 234.454C258.041 234.592 258.091 234.708 258.191 234.801C258.291 234.892 258.418 234.971 258.573 235.039C258.729 235.106 258.89 235.172 259.057 235.237C259.309 235.331 259.529 235.427 259.717 235.527C259.907 235.627 260.055 235.756 260.161 235.914C260.266 236.069 260.319 236.279 260.319 236.543C260.319 236.85 260.246 237.116 260.099 237.338C259.955 237.561 259.752 237.733 259.488 237.853C259.224 237.97 258.916 238.029 258.565 238.029ZM262.809 238.029C262.44 238.029 262.153 237.907 261.947 237.664C261.742 237.418 261.64 237.073 261.64 236.631V234.032H261.138V233.386H261.64V231.702H262.493V233.386H263.574V234.032H262.493V236.578C262.493 236.801 262.537 236.972 262.625 237.092C262.712 237.212 262.839 237.273 263.003 237.273C263.167 237.273 263.313 237.224 263.442 237.127L263.658 237.809C263.543 237.876 263.41 237.929 263.258 237.967C263.108 238.008 262.959 238.029 262.809 238.029ZM266.541 237.888L270.111 231.42H266.642V230.633H271.43V230.915L267.596 237.888H266.541ZM276.574 238.029C276.158 238.029 275.779 237.926 275.439 237.721C275.102 237.516 274.834 237.233 274.635 236.872C274.438 236.512 274.34 236.1 274.34 235.637C274.34 235.177 274.437 234.768 274.63 234.41C274.827 234.05 275.094 233.765 275.431 233.557C275.771 233.349 276.158 233.245 276.591 233.245C276.967 233.245 277.308 233.33 277.616 233.5C277.927 233.67 278.173 233.906 278.355 234.208V230.321H279.208V237.888H278.355V237.044C278.161 237.352 277.909 237.593 277.598 237.769C277.288 237.942 276.946 238.029 276.574 238.029ZM276.802 237.294C277.11 237.294 277.383 237.224 277.62 237.083C277.858 236.94 278.044 236.743 278.179 236.494C278.314 236.245 278.381 235.961 278.381 235.641C278.381 235.319 278.314 235.033 278.179 234.784C278.044 234.532 277.858 234.335 277.62 234.195C277.383 234.051 277.112 233.979 276.807 233.979C276.502 233.979 276.231 234.051 275.993 234.195C275.756 234.335 275.568 234.532 275.431 234.784C275.296 235.033 275.228 235.319 275.228 235.641C275.228 235.961 275.296 236.245 275.431 236.494C275.566 236.743 275.752 236.94 275.989 237.083C276.226 237.224 276.498 237.294 276.802 237.294ZM282.784 238.029C282.365 238.029 281.985 237.926 281.645 237.721C281.308 237.513 281.04 237.229 280.841 236.868C280.644 236.507 280.546 236.096 280.546 235.632C280.546 235.175 280.643 234.768 280.836 234.41C281.03 234.05 281.295 233.765 281.632 233.557C281.969 233.349 282.353 233.245 282.784 233.245C283.165 233.245 283.512 233.33 283.826 233.5C284.143 233.67 284.387 233.906 284.56 234.208V233.386H285.413V237.888H284.56V237.044C284.364 237.355 284.112 237.596 283.804 237.769C283.496 237.942 283.156 238.029 282.784 238.029ZM283.013 237.294C283.32 237.294 283.592 237.224 283.826 237.083C284.063 236.94 284.25 236.743 284.384 236.494C284.519 236.245 284.587 235.959 284.587 235.637C284.587 235.314 284.519 235.029 284.384 234.779C284.25 234.53 284.063 234.335 283.826 234.195C283.592 234.051 283.32 233.979 283.013 233.979C282.708 233.979 282.437 234.051 282.199 234.195C281.962 234.335 281.774 234.53 281.636 234.779C281.502 235.029 281.434 235.314 281.434 235.637C281.434 235.956 281.502 236.242 281.636 236.494C281.774 236.743 281.962 236.94 282.199 237.083C282.437 237.224 282.708 237.294 283.013 237.294ZM287.249 240.174L288.459 237.642L286.317 233.386H287.289L288.951 236.793L290.442 233.386H291.413L288.217 240.174H287.249ZM293.32 238.029C292.944 238.029 292.612 237.948 292.322 237.787C292.034 237.623 291.806 237.39 291.636 237.088L292.045 236.56C292.2 236.821 292.388 237.023 292.607 237.167C292.827 237.311 293.063 237.382 293.315 237.382C293.479 237.382 293.627 237.35 293.759 237.286C293.894 237.221 294.001 237.129 294.08 237.009C294.159 236.886 294.199 236.74 294.199 236.573C294.199 236.412 294.158 236.286 294.076 236.195C293.997 236.101 293.878 236.019 293.72 235.949C293.564 235.879 293.37 235.798 293.135 235.707C292.947 235.631 292.766 235.545 292.59 235.448C292.414 235.351 292.269 235.229 292.155 235.083C292.043 234.933 291.987 234.744 291.987 234.516C291.987 234.269 292.053 234.051 292.185 233.861C292.32 233.67 292.505 233.521 292.739 233.412C292.974 233.304 293.241 233.249 293.54 233.249C293.783 233.249 294.019 233.298 294.247 233.394C294.476 233.491 294.693 233.63 294.898 233.812L294.555 234.331C294.25 234.009 293.913 233.847 293.544 233.847C293.321 233.847 293.141 233.905 293.003 234.019C292.865 234.13 292.796 234.275 292.796 234.454C292.796 234.592 292.846 234.708 292.946 234.801C293.046 234.892 293.173 234.971 293.328 235.039C293.484 235.106 293.645 235.172 293.812 235.237C294.064 235.331 294.284 235.427 294.472 235.527C294.662 235.627 294.81 235.756 294.916 235.914C295.021 236.069 295.074 236.279 295.074 236.543C295.074 236.85 295.001 237.116 294.854 237.338C294.711 237.561 294.507 237.733 294.243 237.853C293.979 237.97 293.671 238.029 293.32 238.029Z" fill="white"/>
<path d="M370.234 237.888V230.633H371.126V237.101H374.041V237.888H370.234ZM377.11 238.029C376.691 238.029 376.311 237.926 375.971 237.721C375.634 237.513 375.366 237.229 375.167 236.868C374.97 236.507 374.872 236.096 374.872 235.632C374.872 235.175 374.969 234.768 375.162 234.41C375.356 234.05 375.621 233.765 375.958 233.557C376.295 233.349 376.679 233.245 377.11 233.245C377.491 233.245 377.838 233.33 378.152 233.5C378.469 233.67 378.713 233.906 378.886 234.208V233.386H379.739V237.888H378.886V237.044C378.69 237.355 378.438 237.596 378.13 237.769C377.822 237.942 377.482 238.029 377.11 238.029ZM377.339 237.294C377.646 237.294 377.918 237.224 378.152 237.083C378.389 236.94 378.576 236.743 378.71 236.494C378.845 236.245 378.913 235.959 378.913 235.637C378.913 235.314 378.845 235.029 378.71 234.779C378.576 234.53 378.389 234.335 378.152 234.195C377.918 234.051 377.646 233.979 377.339 233.979C377.034 233.979 376.763 234.051 376.525 234.195C376.288 234.335 376.1 234.53 375.962 234.779C375.828 235.029 375.76 235.314 375.76 235.637C375.76 235.956 375.828 236.242 375.962 236.494C376.1 236.743 376.288 236.94 376.525 237.083C376.763 237.224 377.034 237.294 377.339 237.294ZM382.573 238.029C382.198 238.029 381.866 237.948 381.575 237.787C381.288 237.623 381.059 237.39 380.889 237.088L381.298 236.56C381.454 236.821 381.641 237.023 381.861 237.167C382.081 237.311 382.317 237.382 382.569 237.382C382.733 237.382 382.881 237.35 383.013 237.286C383.148 237.221 383.255 237.129 383.334 237.009C383.413 236.886 383.453 236.74 383.453 236.573C383.453 236.412 383.412 236.286 383.33 236.195C383.251 236.101 383.132 236.019 382.974 235.949C382.818 235.879 382.623 235.798 382.389 235.707C382.201 235.631 382.019 235.545 381.844 235.448C381.668 235.351 381.523 235.229 381.408 235.083C381.297 234.933 381.241 234.744 381.241 234.516C381.241 234.269 381.307 234.051 381.439 233.861C381.574 233.67 381.759 233.521 381.993 233.412C382.228 233.304 382.494 233.249 382.793 233.249C383.037 233.249 383.273 233.298 383.501 233.394C383.73 233.491 383.947 233.63 384.152 233.812L383.809 234.331C383.504 234.009 383.167 233.847 382.798 233.847C382.575 233.847 382.395 233.905 382.257 234.019C382.119 234.13 382.05 234.275 382.05 234.454C382.05 234.592 382.1 234.708 382.2 234.801C382.299 234.892 382.427 234.971 382.582 235.039C382.738 235.106 382.899 235.172 383.066 235.237C383.318 235.331 383.538 235.427 383.725 235.527C383.916 235.627 384.064 235.756 384.17 235.914C384.275 236.069 384.328 236.279 384.328 236.543C384.328 236.85 384.255 237.116 384.108 237.338C383.964 237.561 383.761 237.733 383.497 237.853C383.233 237.97 382.925 238.029 382.573 238.029ZM386.818 238.029C386.449 238.029 386.161 237.907 385.956 237.664C385.751 237.418 385.649 237.073 385.649 236.631V234.032H385.147V233.386H385.649V231.702H386.501V233.386H387.583V234.032H386.501V236.578C386.501 236.801 386.545 236.972 386.633 237.092C386.721 237.212 386.847 237.273 387.012 237.273C387.176 237.273 387.322 237.224 387.451 237.127L387.667 237.809C387.552 237.876 387.419 237.929 387.267 237.967C387.117 238.008 386.968 238.029 386.818 238.029ZM392.964 238.029C392.533 238.029 392.145 237.951 391.799 237.796C391.456 237.64 391.174 237.423 390.955 237.145C390.738 236.867 390.601 236.543 390.546 236.173L391.39 235.83C391.399 236.106 391.47 236.349 391.605 236.56C391.74 236.771 391.925 236.935 392.159 237.053C392.394 237.17 392.662 237.229 392.964 237.229C393.401 237.229 393.749 237.108 394.01 236.868C394.271 236.625 394.402 236.308 394.402 235.918C394.402 235.64 394.337 235.389 394.208 235.166C394.082 234.944 393.912 234.768 393.698 234.639C393.484 234.507 393.247 234.441 392.986 234.441C392.872 234.441 392.775 234.454 392.696 234.48V233.843H392.964C393.219 233.843 393.449 233.781 393.654 233.658C393.859 233.535 394.022 233.372 394.142 233.17C394.262 232.965 394.323 232.744 394.323 232.506C394.323 232.269 394.264 232.055 394.147 231.864C394.029 231.674 393.873 231.523 393.676 231.411C393.48 231.3 393.263 231.244 393.025 231.244C392.785 231.244 392.564 231.302 392.362 231.416C392.162 231.53 392 231.684 391.873 231.878C391.747 232.071 391.677 232.289 391.662 232.533L390.928 232.242C390.975 231.902 391.097 231.602 391.293 231.341C391.489 231.077 391.739 230.872 392.041 230.726C392.345 230.576 392.678 230.501 393.039 230.501C393.44 230.501 393.801 230.589 394.12 230.765C394.44 230.941 394.692 231.178 394.877 231.477C395.061 231.776 395.154 232.114 395.154 232.489C395.154 232.726 395.111 232.95 395.026 233.161C394.944 233.372 394.827 233.56 394.674 233.724C394.522 233.885 394.343 234.013 394.138 234.107C394.364 234.192 394.564 234.319 394.74 234.489C394.919 234.659 395.058 234.864 395.158 235.105C395.261 235.342 395.312 235.609 395.312 235.905C395.312 236.31 395.215 236.673 395.022 236.995C394.831 237.315 394.56 237.567 394.208 237.752C393.856 237.936 393.442 238.029 392.964 238.029ZM399.532 238.029C398.94 238.029 398.421 237.872 397.975 237.558C397.53 237.242 397.183 236.801 396.933 236.235C396.687 235.669 396.564 235.013 396.564 234.265C396.564 233.515 396.687 232.858 396.933 232.295C397.183 231.73 397.53 231.29 397.975 230.976C398.421 230.66 398.94 230.501 399.532 230.501C400.124 230.501 400.641 230.66 401.084 230.976C401.53 231.29 401.875 231.73 402.122 232.295C402.371 232.858 402.495 233.515 402.495 234.265C402.495 235.013 402.371 235.669 402.122 236.235C401.875 236.801 401.53 237.242 401.084 237.558C400.641 237.872 400.124 238.029 399.532 238.029ZM399.532 237.233C399.939 237.233 400.294 237.111 400.596 236.868C400.898 236.625 401.132 236.28 401.299 235.835C401.467 235.389 401.55 234.866 401.55 234.265C401.55 233.661 401.467 233.138 401.299 232.695C401.132 232.25 400.898 231.905 400.596 231.662C400.294 231.419 399.939 231.297 399.532 231.297C399.124 231.297 398.768 231.419 398.463 231.662C398.162 231.905 397.927 232.25 397.76 232.695C397.593 233.138 397.509 233.661 397.509 234.265C397.509 234.866 397.593 235.389 397.76 235.835C397.927 236.28 398.162 236.625 398.463 236.868C398.768 237.111 399.124 237.233 399.532 237.233ZM407.999 238.029C407.583 238.029 407.205 237.926 406.865 237.721C406.528 237.516 406.26 237.233 406.06 236.872C405.864 236.512 405.766 236.1 405.766 235.637C405.766 235.177 405.862 234.768 406.056 234.41C406.252 234.05 406.519 233.765 406.856 233.557C407.196 233.349 407.583 233.245 408.017 233.245C408.392 233.245 408.734 233.33 409.041 233.5C409.352 233.67 409.598 233.906 409.78 234.208V230.321H410.633V237.888H409.78V237.044C409.587 237.352 409.334 237.593 409.024 237.769C408.713 237.942 408.372 238.029 407.999 238.029ZM408.228 237.294C408.536 237.294 408.808 237.224 409.046 237.083C409.283 236.94 409.469 236.743 409.604 236.494C409.739 236.245 409.806 235.961 409.806 235.641C409.806 235.319 409.739 235.033 409.604 234.784C409.469 234.532 409.283 234.335 409.046 234.195C408.808 234.051 408.537 233.979 408.232 233.979C407.927 233.979 407.656 234.051 407.419 234.195C407.181 234.335 406.994 234.532 406.856 234.784C406.721 235.033 406.654 235.319 406.654 235.641C406.654 235.961 406.721 236.245 406.856 236.494C406.991 236.743 407.177 236.94 407.415 237.083C407.652 237.224 407.923 237.294 408.228 237.294ZM414.209 238.029C413.79 238.029 413.411 237.926 413.071 237.721C412.734 237.513 412.465 237.229 412.266 236.868C412.07 236.507 411.971 236.096 411.971 235.632C411.971 235.175 412.068 234.768 412.262 234.41C412.455 234.05 412.72 233.765 413.057 233.557C413.395 233.349 413.779 233.245 414.209 233.245C414.591 233.245 414.938 233.33 415.252 233.5C415.568 233.67 415.813 233.906 415.986 234.208V233.386H416.839V237.888H415.986V237.044C415.789 237.355 415.537 237.596 415.23 237.769C414.922 237.942 414.582 238.029 414.209 238.029ZM414.438 237.294C414.746 237.294 415.017 237.224 415.252 237.083C415.489 236.94 415.675 236.743 415.81 236.494C415.945 236.245 416.012 235.959 416.012 235.637C416.012 235.314 415.945 235.029 415.81 234.779C415.675 234.53 415.489 234.335 415.252 234.195C415.017 234.051 414.746 233.979 414.438 233.979C414.133 233.979 413.862 234.051 413.625 234.195C413.387 234.335 413.2 234.53 413.062 234.779C412.927 235.029 412.86 235.314 412.86 235.637C412.86 235.956 412.927 236.242 413.062 236.494C413.2 236.743 413.387 236.94 413.625 237.083C413.862 237.224 414.133 237.294 414.438 237.294ZM418.675 240.174L419.884 237.642L417.743 233.386H418.714L420.376 236.793L421.867 233.386H422.839L419.642 240.174H418.675ZM424.745 238.029C424.37 238.029 424.037 237.948 423.747 237.787C423.46 237.623 423.231 237.39 423.061 237.088L423.47 236.56C423.625 236.821 423.813 237.023 424.033 237.167C424.253 237.311 424.489 237.382 424.741 237.382C424.905 237.382 425.053 237.35 425.185 237.286C425.32 237.221 425.427 237.129 425.506 237.009C425.585 236.886 425.625 236.74 425.625 236.573C425.625 236.412 425.583 236.286 425.501 236.195C425.422 236.101 425.304 236.019 425.145 235.949C424.99 235.879 424.795 235.798 424.56 235.707C424.373 235.631 424.191 235.545 424.015 235.448C423.839 235.351 423.694 235.229 423.58 235.083C423.469 234.933 423.413 234.744 423.413 234.516C423.413 234.269 423.479 234.051 423.611 233.861C423.746 233.67 423.93 233.521 424.165 233.412C424.399 233.304 424.666 233.249 424.965 233.249C425.208 233.249 425.444 233.298 425.673 233.394C425.902 233.491 426.118 233.63 426.324 233.812L425.981 234.331C425.676 234.009 425.339 233.847 424.969 233.847C424.747 233.847 424.566 233.905 424.429 234.019C424.291 234.13 424.222 234.275 424.222 234.454C424.222 234.592 424.272 234.708 424.371 234.801C424.471 234.892 424.599 234.971 424.754 235.039C424.909 235.106 425.071 235.172 425.238 235.237C425.49 235.331 425.71 235.427 425.897 235.527C426.088 235.627 426.236 235.756 426.341 235.914C426.447 236.069 426.499 236.279 426.499 236.543C426.499 236.85 426.426 237.116 426.28 237.338C426.136 237.561 425.932 237.733 425.668 237.853C425.405 237.97 425.097 238.029 424.745 238.029Z" fill="white"/>
<rect x="206.478" y="218.529" width="255.751" height="32.7171" rx="5.49607" stroke="white" stroke-opacity="0.25" stroke-width="0.732809"/>
<path d="M184.227 275.269V266.805H185.007V275.269H184.227ZM187.333 275.269V270.016H188.082V270.735C188.226 270.488 188.448 270.28 188.749 270.109C189.05 269.938 189.418 269.852 189.852 269.852C190.259 269.852 190.609 269.936 190.903 270.104C191.198 270.271 191.423 270.516 191.581 270.837C191.738 271.155 191.817 271.54 191.817 271.991V275.269H191.068V272.135C191.068 271.591 190.941 271.177 190.688 270.894C190.435 270.606 190.078 270.463 189.616 270.463C189.294 270.463 189.019 270.528 188.79 270.658C188.564 270.784 188.39 270.953 188.267 271.165C188.144 271.374 188.082 271.601 188.082 271.848V275.269H187.333ZM197.561 275.433C197.168 275.433 196.862 275.302 196.643 275.038C196.427 274.772 196.319 274.397 196.319 273.915V270.581H195.786V270.016H196.319V268.052H197.068V270.016H198.376V270.581H197.068V273.874C197.068 274.165 197.125 274.387 197.238 274.541C197.351 274.695 197.511 274.772 197.72 274.772C197.922 274.772 198.099 274.715 198.253 274.602L198.443 275.197C198.327 275.269 198.19 275.326 198.033 275.367C197.875 275.411 197.718 275.433 197.561 275.433ZM199.926 275.269V266.441H200.675V270.735C200.819 270.488 201.041 270.28 201.342 270.109C201.643 269.938 202.01 269.852 202.445 269.852C202.852 269.852 203.202 269.936 203.496 270.104C203.79 270.271 204.016 270.516 204.173 270.837C204.331 271.155 204.409 271.54 204.409 271.991V275.269H203.661V272.135C203.661 271.591 203.534 271.176 203.281 270.888C203.028 270.601 202.67 270.458 202.209 270.458C201.887 270.458 201.612 270.523 201.383 270.652C201.157 270.782 200.983 270.953 200.86 271.165C200.737 271.374 200.675 271.601 200.675 271.848V275.269H199.926ZM208.827 275.433C208.276 275.433 207.784 275.312 207.35 275.069C206.919 274.826 206.58 274.496 206.334 274.079C206.088 273.658 205.965 273.187 205.965 272.663C205.965 272.27 206.035 271.904 206.175 271.566C206.318 271.224 206.517 270.924 206.77 270.668C207.023 270.411 207.317 270.211 207.652 270.068C207.987 269.924 208.345 269.852 208.724 269.852C209.244 269.852 209.706 269.967 210.109 270.196C210.516 270.422 210.838 270.735 211.074 271.135C211.313 271.535 211.44 271.996 211.453 272.52C211.453 272.561 211.452 272.595 211.448 272.622C211.448 272.646 211.445 272.677 211.438 272.715H206.708C206.708 273.125 206.801 273.487 206.985 273.802C207.17 274.117 207.423 274.365 207.745 274.546C208.069 274.724 208.44 274.813 208.858 274.813C209.254 274.813 209.61 274.731 209.925 274.566C210.243 274.399 210.508 274.159 210.72 273.848L211.274 274.146C211.024 274.553 210.684 274.869 210.253 275.095C209.825 275.32 209.35 275.433 208.827 275.433ZM206.749 272.15H210.704C210.66 271.822 210.545 271.533 210.361 271.283C210.176 271.03 209.942 270.832 209.658 270.688C209.377 270.545 209.07 270.473 208.735 270.473C208.389 270.473 208.075 270.545 207.791 270.688C207.507 270.829 207.273 271.025 207.088 271.278C206.907 271.528 206.794 271.819 206.749 272.15ZM215.545 275.269V266.446H216.294V275.269H215.545ZM220.588 275.433C220.096 275.433 219.651 275.314 219.254 275.074C218.861 274.831 218.548 274.5 218.316 274.079C218.087 273.658 217.972 273.178 217.972 272.638C217.972 272.104 218.085 271.629 218.311 271.212C218.54 270.791 218.851 270.459 219.244 270.216C219.641 269.974 220.089 269.852 220.588 269.852C221.063 269.852 221.494 269.963 221.881 270.186C222.267 270.408 222.561 270.716 222.763 271.109V270.016H223.512V275.269H222.763V274.161C222.537 274.558 222.235 274.869 221.855 275.095C221.476 275.32 221.053 275.433 220.588 275.433ZM220.773 274.782C221.166 274.782 221.513 274.691 221.814 274.51C222.118 274.325 222.358 274.072 222.532 273.751C222.707 273.426 222.794 273.057 222.794 272.643C222.794 272.226 222.707 271.856 222.532 271.535C222.361 271.213 222.124 270.962 221.819 270.781C221.515 270.596 221.166 270.504 220.773 270.504C220.379 270.504 220.031 270.596 219.726 270.781C219.422 270.962 219.183 271.213 219.008 271.535C218.834 271.856 218.747 272.226 218.747 272.643C218.747 273.057 218.834 273.426 219.008 273.751C219.183 274.072 219.422 274.325 219.726 274.51C220.031 274.691 220.379 274.782 220.773 274.782ZM226.891 275.433C226.457 275.433 226.074 275.329 225.742 275.12C225.41 274.908 225.152 274.609 224.967 274.223L225.367 273.792C225.532 274.127 225.745 274.389 226.009 274.577C226.272 274.761 226.564 274.854 226.886 274.854C227.101 274.854 227.298 274.809 227.476 274.72C227.657 274.631 227.801 274.505 227.907 274.341C228.016 274.173 228.071 273.975 228.071 273.746C228.071 273.537 228.019 273.373 227.917 273.253C227.818 273.134 227.671 273.031 227.476 272.945C227.284 272.857 227.045 272.757 226.757 272.648C226.535 272.559 226.32 272.458 226.111 272.345C225.903 272.232 225.73 272.09 225.593 271.919C225.46 271.745 225.393 271.525 225.393 271.258C225.393 270.988 225.465 270.748 225.608 270.54C225.752 270.328 225.95 270.162 226.203 270.042C226.457 269.919 226.744 269.857 227.065 269.857C227.359 269.857 227.635 269.921 227.891 270.047C228.151 270.174 228.384 270.353 228.589 270.586L228.245 271.022C227.93 270.608 227.539 270.401 227.07 270.401C226.783 270.401 226.549 270.476 226.368 270.627C226.19 270.777 226.101 270.974 226.101 271.217C226.101 271.391 226.157 271.536 226.27 271.653C226.383 271.769 226.53 271.868 226.711 271.95C226.896 272.032 227.094 272.114 227.306 272.196C227.614 272.313 227.881 272.429 228.107 272.545C228.336 272.662 228.514 272.81 228.64 272.992C228.767 273.169 228.83 273.412 228.83 273.72C228.83 274.072 228.748 274.377 228.584 274.633C228.42 274.89 228.19 275.088 227.896 275.228C227.606 275.365 227.27 275.433 226.891 275.433ZM231.67 275.433C231.277 275.433 230.971 275.302 230.752 275.038C230.536 274.772 230.429 274.397 230.429 273.915V270.581H229.895V270.016H230.429V268.052H231.177V270.016H232.486V270.581H231.177V273.874C231.177 274.165 231.234 274.387 231.347 274.541C231.46 274.695 231.62 274.772 231.829 274.772C232.031 274.772 232.209 274.715 232.362 274.602L232.552 275.197C232.436 275.269 232.299 275.326 232.142 275.367C231.985 275.411 231.827 275.433 231.67 275.433ZM236.008 275.269L240.256 267.493H236.085V266.805H241.405V267.067L236.932 275.269H236.008ZM247.567 275.433C247.075 275.433 246.63 275.314 246.234 275.074C245.84 274.835 245.527 274.505 245.295 274.084C245.066 273.664 244.951 273.183 244.951 272.643C244.951 272.106 245.066 271.629 245.295 271.212C245.524 270.791 245.835 270.459 246.228 270.216C246.625 269.974 247.075 269.852 247.578 269.852C248.046 269.852 248.47 269.963 248.85 270.186C249.229 270.408 249.527 270.716 249.742 271.109V266.441H250.491V275.269H249.742V274.161C249.52 274.558 249.217 274.869 248.834 275.095C248.455 275.32 248.032 275.433 247.567 275.433ZM247.747 274.782C248.14 274.782 248.489 274.691 248.793 274.51C249.098 274.325 249.337 274.072 249.511 273.751C249.686 273.426 249.773 273.058 249.773 272.648C249.773 272.231 249.686 271.861 249.511 271.54C249.34 271.215 249.101 270.962 248.793 270.781C248.489 270.596 248.14 270.504 247.747 270.504C247.357 270.504 247.01 270.596 246.706 270.781C246.401 270.962 246.162 271.215 245.987 271.54C245.813 271.861 245.726 272.231 245.726 272.648C245.726 273.062 245.811 273.429 245.982 273.751C246.157 274.072 246.396 274.325 246.7 274.51C247.008 274.691 247.357 274.782 247.747 274.782ZM254.787 275.433C254.295 275.433 253.85 275.314 253.454 275.074C253.06 274.831 252.747 274.5 252.515 274.079C252.286 273.658 252.171 273.178 252.171 272.638C252.171 272.104 252.284 271.629 252.51 271.212C252.739 270.791 253.05 270.459 253.443 270.216C253.84 269.974 254.288 269.852 254.787 269.852C255.263 269.852 255.694 269.963 256.08 270.186C256.466 270.408 256.761 270.716 256.962 271.109V270.016H257.711V275.269H256.962V274.161C256.737 274.558 256.434 274.869 256.054 275.095C255.675 275.32 255.252 275.433 254.787 275.433ZM254.972 274.782C255.365 274.782 255.712 274.691 256.013 274.51C256.318 274.325 256.557 274.072 256.731 273.751C256.906 273.426 256.993 273.057 256.993 272.643C256.993 272.226 256.906 271.856 256.731 271.535C256.561 271.213 256.323 270.962 256.018 270.781C255.714 270.596 255.365 270.504 254.972 270.504C254.579 270.504 254.23 270.596 253.926 270.781C253.621 270.962 253.382 271.213 253.207 271.535C253.033 271.856 252.946 272.226 252.946 272.643C252.946 273.057 253.033 273.426 253.207 273.751C253.382 274.072 253.621 274.325 253.926 274.51C254.23 274.691 254.579 274.782 254.972 274.782ZM260.151 277.937L261.444 275.141L258.946 270.016H259.792L261.87 274.371L263.758 270.016H264.604L260.998 277.937H260.151ZM266.968 275.433C266.533 275.433 266.15 275.329 265.819 275.12C265.487 274.908 265.229 274.609 265.044 274.223L265.444 273.792C265.608 274.127 265.822 274.389 266.085 274.577C266.349 274.761 266.641 274.854 266.962 274.854C267.178 274.854 267.375 274.809 267.552 274.72C267.734 274.631 267.877 274.505 267.983 274.341C268.093 274.173 268.147 273.975 268.147 273.746C268.147 273.537 268.096 273.373 267.994 273.253C267.894 273.134 267.747 273.031 267.552 272.945C267.361 272.857 267.121 272.757 266.834 272.648C266.612 272.559 266.396 272.458 266.188 272.345C265.979 272.232 265.807 272.09 265.67 271.919C265.536 271.745 265.47 271.525 265.47 271.258C265.47 270.988 265.542 270.748 265.685 270.54C265.829 270.328 266.027 270.162 266.28 270.042C266.533 269.919 266.821 269.857 267.142 269.857C267.436 269.857 267.711 269.921 267.968 270.047C268.228 270.174 268.46 270.353 268.666 270.586L268.322 271.022C268.007 270.608 267.616 270.401 267.147 270.401C266.86 270.401 266.626 270.476 266.444 270.627C266.267 270.777 266.178 270.974 266.178 271.217C266.178 271.391 266.234 271.536 266.347 271.653C266.46 271.769 266.607 271.868 266.788 271.95C266.973 272.032 267.171 272.114 267.383 272.196C267.691 272.313 267.958 272.429 268.183 272.545C268.412 272.662 268.59 272.81 268.717 272.992C268.843 273.169 268.907 273.412 268.907 273.72C268.907 274.072 268.825 274.377 268.66 274.633C268.496 274.89 268.267 275.088 267.973 275.228C267.682 275.365 267.347 275.433 266.968 275.433ZM273.375 277.937L274.668 275.141L272.17 270.016H273.016L275.094 274.371L276.982 270.016H277.828L274.222 277.937H273.375ZM281.596 275.433C281.049 275.433 280.555 275.315 280.114 275.079C279.676 274.843 279.329 274.515 279.072 274.094C278.816 273.674 278.688 273.19 278.688 272.643C278.688 272.092 278.816 271.608 279.072 271.191C279.329 270.77 279.676 270.442 280.114 270.206C280.551 269.97 281.046 269.852 281.596 269.852C282.143 269.852 282.636 269.97 283.073 270.206C283.515 270.442 283.863 270.77 284.12 271.191C284.376 271.608 284.505 272.092 284.505 272.643C284.505 273.19 284.376 273.674 284.12 274.094C283.863 274.515 283.515 274.843 283.073 275.079C282.636 275.315 282.143 275.433 281.596 275.433ZM281.596 274.766C282.006 274.766 282.372 274.676 282.694 274.495C283.015 274.313 283.268 274.064 283.453 273.746C283.638 273.424 283.73 273.057 283.73 272.643C283.73 272.229 283.638 271.863 283.453 271.545C283.268 271.224 283.015 270.972 282.694 270.791C282.372 270.61 282.006 270.519 281.596 270.519C281.186 270.519 280.82 270.61 280.498 270.791C280.177 270.972 279.924 271.224 279.739 271.545C279.554 271.863 279.462 272.229 279.462 272.643C279.462 273.053 279.554 273.419 279.739 273.741C279.924 274.062 280.177 274.313 280.498 274.495C280.82 274.676 281.186 274.766 281.596 274.766ZM288.281 275.433C287.484 275.433 286.915 275.254 286.573 274.895C286.231 274.536 286.06 273.935 286.06 273.094V270.016H286.809V272.961C286.809 273.624 286.922 274.098 287.147 274.382C287.373 274.662 287.751 274.802 288.281 274.802C288.815 274.802 289.192 274.662 289.415 274.382C289.64 274.098 289.753 273.624 289.753 272.961V270.016H290.502V273.094C290.502 273.935 290.331 274.536 289.989 274.895C289.651 275.254 289.081 275.433 288.281 275.433ZM294.947 275.269V266.441H295.696V270.735C295.839 270.488 296.062 270.28 296.363 270.109C296.664 269.938 297.031 269.852 297.465 269.852C297.872 269.852 298.223 269.936 298.517 270.104C298.811 270.271 299.037 270.516 299.194 270.837C299.351 271.155 299.43 271.54 299.43 271.991V275.269H298.681V272.135C298.681 271.591 298.555 271.176 298.302 270.888C298.049 270.601 297.691 270.458 297.229 270.458C296.908 270.458 296.633 270.523 296.404 270.652C296.178 270.782 296.003 270.953 295.88 271.165C295.757 271.374 295.696 271.601 295.696 271.848V275.269H294.947ZM303.627 275.433C303.135 275.433 302.69 275.314 302.293 275.074C301.9 274.831 301.587 274.5 301.355 274.079C301.125 273.658 301.011 273.178 301.011 272.638C301.011 272.104 301.124 271.629 301.349 271.212C301.579 270.791 301.89 270.459 302.283 270.216C302.68 269.974 303.128 269.852 303.627 269.852C304.102 269.852 304.533 269.963 304.92 270.186C305.306 270.408 305.6 270.716 305.802 271.109V270.016H306.551V275.269H305.802V274.161C305.576 274.558 305.274 274.869 304.894 275.095C304.514 275.32 304.092 275.433 303.627 275.433ZM303.812 274.782C304.205 274.782 304.552 274.691 304.853 274.51C305.157 274.325 305.397 274.072 305.571 273.751C305.746 273.426 305.833 273.057 305.833 272.643C305.833 272.226 305.746 271.856 305.571 271.535C305.4 271.213 305.162 270.962 304.858 270.781C304.554 270.596 304.205 270.504 303.812 270.504C303.418 270.504 303.07 270.596 302.765 270.781C302.461 270.962 302.221 271.213 302.047 271.535C301.873 271.856 301.785 272.226 301.785 272.643C301.785 273.057 301.873 273.426 302.047 273.751C302.221 274.072 302.461 274.325 302.765 274.51C303.07 274.691 303.418 274.782 303.812 274.782ZM310.34 275.269L307.791 270.016H308.668L310.586 274.202L312.51 270.016H313.387L310.833 275.269H310.34ZM317.095 275.433C316.545 275.433 316.052 275.312 315.618 275.069C315.187 274.826 314.849 274.496 314.602 274.079C314.356 273.658 314.233 273.187 314.233 272.663C314.233 272.27 314.303 271.904 314.443 271.566C314.587 271.224 314.785 270.924 315.038 270.668C315.291 270.411 315.585 270.211 315.921 270.068C316.256 269.924 316.613 269.852 316.993 269.852C317.513 269.852 317.974 269.967 318.378 270.196C318.785 270.422 319.106 270.735 319.342 271.135C319.581 271.535 319.708 271.996 319.722 272.52C319.722 272.561 319.72 272.595 319.717 272.622C319.717 272.646 319.713 272.677 319.706 272.715H314.977C314.977 273.125 315.069 273.487 315.254 273.802C315.438 274.117 315.691 274.365 316.013 274.546C316.338 274.724 316.709 274.813 317.126 274.813C317.523 274.813 317.878 274.731 318.193 274.566C318.511 274.399 318.776 274.159 318.988 273.848L319.542 274.146C319.293 274.553 318.952 274.869 318.521 275.095C318.094 275.32 317.619 275.433 317.095 275.433ZM315.018 272.15H318.973C318.928 271.822 318.814 271.533 318.629 271.283C318.444 271.03 318.21 270.832 317.926 270.688C317.646 270.545 317.338 270.473 317.003 270.473C316.658 270.473 316.343 270.545 316.059 270.688C315.775 270.829 315.541 271.025 315.356 271.278C315.175 271.528 315.062 271.819 315.018 272.15ZM326.275 275.433C325.725 275.433 325.232 275.312 324.798 275.069C324.367 274.826 324.029 274.496 323.782 274.079C323.536 273.658 323.413 273.187 323.413 272.663C323.413 272.27 323.483 271.904 323.623 271.566C323.767 271.224 323.965 270.924 324.218 270.668C324.471 270.411 324.766 270.211 325.101 270.068C325.436 269.924 325.793 269.852 326.173 269.852C326.693 269.852 327.154 269.967 327.558 270.196C327.965 270.422 328.286 270.735 328.522 271.135C328.762 271.535 328.888 271.996 328.902 272.52C328.902 272.561 328.9 272.595 328.897 272.622C328.897 272.646 328.893 272.677 328.886 272.715H324.157C324.157 273.125 324.249 273.487 324.434 273.802C324.619 274.117 324.872 274.365 325.193 274.546C325.518 274.724 325.889 274.813 326.306 274.813C326.703 274.813 327.059 274.731 327.373 274.566C327.691 274.399 327.956 274.159 328.168 273.848L328.722 274.146C328.473 274.553 328.132 274.869 327.701 275.095C327.274 275.32 326.799 275.433 326.275 275.433ZM324.198 272.15H328.153C328.108 271.822 327.994 271.533 327.809 271.283C327.625 271.03 327.39 270.832 327.106 270.688C326.826 270.545 326.518 270.473 326.183 270.473C325.838 270.473 325.523 270.545 325.239 270.688C324.955 270.829 324.721 271.025 324.536 271.278C324.355 271.528 324.242 271.819 324.198 272.15ZM330.492 275.269V270.016H331.241V270.735C331.385 270.488 331.607 270.28 331.908 270.109C332.209 269.938 332.577 269.852 333.011 269.852C333.418 269.852 333.768 269.936 334.062 270.104C334.357 270.271 334.582 270.516 334.74 270.837C334.897 271.155 334.975 271.54 334.975 271.991V275.269H334.227V272.135C334.227 271.591 334.1 271.177 333.847 270.894C333.594 270.606 333.237 270.463 332.775 270.463C332.453 270.463 332.178 270.528 331.949 270.658C331.723 270.784 331.549 270.953 331.426 271.165C331.303 271.374 331.241 271.601 331.241 271.848V275.269H330.492ZM336.264 278.09C336.083 278.09 335.906 278.068 335.735 278.024C335.564 277.979 335.424 277.914 335.315 277.829L335.535 277.229C335.693 277.359 335.891 277.424 336.13 277.424C336.667 277.424 336.936 277.068 336.936 276.357V270.016H337.685V276.423C337.685 276.964 337.563 277.376 337.321 277.66C337.078 277.947 336.725 278.09 336.264 278.09ZM337.31 268.955C337.221 268.955 337.139 268.934 337.064 268.893C336.989 268.849 336.929 268.789 336.885 268.713C336.84 268.638 336.818 268.556 336.818 268.467C336.818 268.375 336.84 268.291 336.885 268.216C336.929 268.141 336.989 268.083 337.064 268.041C337.139 267.997 337.221 267.975 337.31 267.975C337.399 267.975 337.481 267.997 337.557 268.041C337.632 268.083 337.692 268.141 337.736 268.216C337.78 268.291 337.803 268.373 337.803 268.462C337.803 268.551 337.78 268.633 337.736 268.708C337.692 268.784 337.632 268.843 337.557 268.888C337.481 268.932 337.399 268.955 337.31 268.955ZM342.251 275.433C341.704 275.433 341.209 275.315 340.768 275.079C340.331 274.843 339.983 274.515 339.727 274.094C339.471 273.674 339.342 273.19 339.342 272.643C339.342 272.092 339.471 271.608 339.727 271.191C339.983 270.77 340.331 270.442 340.768 270.206C341.206 269.97 341.7 269.852 342.251 269.852C342.798 269.852 343.29 269.97 343.728 270.206C344.169 270.442 344.518 270.77 344.775 271.191C345.031 271.608 345.159 272.092 345.159 272.643C345.159 273.19 345.031 273.674 344.775 274.094C344.518 274.515 344.169 274.843 343.728 275.079C343.29 275.315 342.798 275.433 342.251 275.433ZM342.251 274.766C342.661 274.766 343.027 274.676 343.349 274.495C343.67 274.313 343.923 274.064 344.108 273.746C344.292 273.424 344.385 273.057 344.385 272.643C344.385 272.229 344.292 271.863 344.108 271.545C343.923 271.224 343.67 270.972 343.349 270.791C343.027 270.61 342.661 270.519 342.251 270.519C341.84 270.519 341.475 270.61 341.153 270.791C340.832 270.972 340.579 271.224 340.394 271.545C340.209 271.863 340.117 272.229 340.117 272.643C340.117 273.053 340.209 273.419 340.394 273.741C340.579 274.062 340.832 274.313 341.153 274.495C341.475 274.676 341.84 274.766 342.251 274.766ZM347.188 277.937L348.48 275.141L345.982 270.016H346.829L348.906 274.371L350.794 270.016H351.64L348.034 277.937H347.188ZM355.362 275.433C354.812 275.433 354.319 275.312 353.885 275.069C353.454 274.826 353.115 274.496 352.869 274.079C352.623 273.658 352.5 273.187 352.5 272.663C352.5 272.27 352.57 271.904 352.71 271.566C352.854 271.224 353.052 270.924 353.305 270.668C353.558 270.411 353.852 270.211 354.188 270.068C354.523 269.924 354.88 269.852 355.26 269.852C355.779 269.852 356.241 269.967 356.645 270.196C357.052 270.422 357.373 270.735 357.609 271.135C357.848 271.535 357.975 271.996 357.989 272.52C357.989 272.561 357.987 272.595 357.983 272.622C357.983 272.646 357.98 272.677 357.973 272.715H353.244C353.244 273.125 353.336 273.487 353.521 273.802C353.705 274.117 353.958 274.365 354.28 274.546C354.605 274.724 354.976 274.813 355.393 274.813C355.79 274.813 356.145 274.731 356.46 274.566C356.778 274.399 357.043 274.159 357.255 273.848L357.809 274.146C357.559 274.553 357.219 274.869 356.788 275.095C356.361 275.32 355.885 275.433 355.362 275.433ZM353.285 272.15H357.24C357.195 271.822 357.081 271.533 356.896 271.283C356.711 271.03 356.477 270.832 356.193 270.688C355.913 270.545 355.605 270.473 355.27 270.473C354.924 270.473 354.61 270.545 354.326 270.688C354.042 270.829 353.808 271.025 353.623 271.278C353.442 271.528 353.329 271.819 353.285 272.15ZM361.841 275.433C361.348 275.433 360.904 275.314 360.507 275.074C360.114 274.835 359.801 274.505 359.568 274.084C359.339 273.664 359.225 273.183 359.225 272.643C359.225 272.106 359.339 271.629 359.568 271.212C359.797 270.791 360.109 270.459 360.502 270.216C360.899 269.974 361.348 269.852 361.851 269.852C362.319 269.852 362.743 269.963 363.123 270.186C363.503 270.408 363.8 270.716 364.016 271.109V266.441H364.765V275.269H364.016V274.161C363.793 274.558 363.491 274.869 363.108 275.095C362.728 275.32 362.306 275.433 361.841 275.433ZM362.02 274.782C362.413 274.782 362.762 274.691 363.067 274.51C363.371 274.325 363.61 274.072 363.785 273.751C363.959 273.426 364.046 273.058 364.046 272.648C364.046 272.231 363.959 271.861 363.785 271.54C363.614 271.215 363.374 270.962 363.067 270.781C362.762 270.596 362.413 270.504 362.02 270.504C361.63 270.504 361.283 270.596 360.979 270.781C360.675 270.962 360.435 271.215 360.261 271.54C360.086 271.861 359.999 272.231 359.999 272.648C359.999 273.062 360.085 273.429 360.256 273.751C360.43 274.072 360.669 274.325 360.974 274.51C361.282 274.691 361.63 274.782 362.02 274.782ZM369.3 275.269V270.016H370.049V270.735C370.258 270.444 370.507 270.225 370.798 270.078C371.089 269.927 371.414 269.852 371.773 269.852C372.203 269.852 372.578 269.951 372.896 270.15C373.217 270.348 373.44 270.618 373.563 270.96C373.765 270.625 374.021 270.357 374.332 270.155C374.647 269.953 375.02 269.852 375.451 269.852C375.823 269.852 376.155 269.929 376.446 270.083C376.736 270.234 376.964 270.456 377.128 270.75C377.296 271.041 377.379 271.396 377.379 271.817V275.269H376.63V272.027C376.63 271.548 376.506 271.169 376.256 270.888C376.006 270.608 375.673 270.468 375.256 270.468C374.968 270.468 374.708 270.531 374.476 270.658C374.243 270.784 374.059 270.948 373.922 271.15C373.785 271.348 373.717 271.554 373.717 271.766V275.269H372.968V271.95C372.968 271.495 372.843 271.135 372.593 270.868C372.347 270.601 372.021 270.468 371.614 270.468C371.326 270.468 371.063 270.529 370.824 270.652C370.588 270.772 370.4 270.928 370.259 271.119C370.119 271.311 370.049 271.507 370.049 271.709V275.269H369.3ZM381.469 275.433C380.672 275.433 380.103 275.254 379.761 274.895C379.419 274.536 379.248 273.935 379.248 273.094V270.016H379.997V272.961C379.997 273.624 380.11 274.098 380.335 274.382C380.561 274.662 380.939 274.802 381.469 274.802C382.003 274.802 382.38 274.662 382.603 274.382C382.828 274.098 382.941 273.624 382.941 272.961V270.016H383.69V273.094C383.69 273.935 383.519 274.536 383.177 274.895C382.839 275.254 382.269 275.433 381.469 275.433ZM386.978 275.433C386.544 275.433 386.161 275.329 385.829 275.12C385.497 274.908 385.239 274.609 385.054 274.223L385.455 273.792C385.619 274.127 385.832 274.389 386.096 274.577C386.359 274.761 386.652 274.854 386.973 274.854C387.188 274.854 387.385 274.809 387.563 274.72C387.744 274.631 387.888 274.505 387.994 274.341C388.103 274.173 388.158 273.975 388.158 273.746C388.158 273.537 388.107 273.373 388.004 273.253C387.905 273.134 387.758 273.031 387.563 272.945C387.371 272.857 387.132 272.757 386.845 272.648C386.622 272.559 386.407 272.458 386.198 272.345C385.99 272.232 385.817 272.09 385.68 271.919C385.547 271.745 385.48 271.525 385.48 271.258C385.48 270.988 385.552 270.748 385.696 270.54C385.839 270.328 386.038 270.162 386.291 270.042C386.544 269.919 386.831 269.857 387.153 269.857C387.447 269.857 387.722 269.921 387.978 270.047C388.238 270.174 388.471 270.353 388.676 270.586L388.332 271.022C388.018 270.608 387.626 270.401 387.158 270.401C386.87 270.401 386.636 270.476 386.455 270.627C386.277 270.777 386.188 270.974 386.188 271.217C386.188 271.391 386.245 271.536 386.357 271.653C386.47 271.769 386.617 271.868 386.799 271.95C386.983 272.032 387.182 272.114 387.394 272.196C387.701 272.313 387.968 272.429 388.194 272.545C388.423 272.662 388.601 272.81 388.727 272.992C388.854 273.169 388.917 273.412 388.917 273.72C388.917 274.072 388.835 274.377 388.671 274.633C388.507 274.89 388.278 275.088 387.984 275.228C387.693 275.365 387.358 275.433 386.978 275.433ZM390.534 275.269V270.016H391.283V275.269H390.534ZM390.914 268.965C390.821 268.965 390.738 268.943 390.662 268.898C390.591 268.854 390.532 268.794 390.488 268.719C390.444 268.643 390.421 268.561 390.421 268.472C390.421 268.383 390.444 268.303 390.488 268.231C390.532 268.156 390.591 268.096 390.662 268.052C390.738 268.007 390.821 267.985 390.914 267.985C391.003 267.985 391.083 268.007 391.155 268.052C391.227 268.096 391.285 268.154 391.329 268.226C391.377 268.298 391.401 268.38 391.401 268.472C391.401 268.561 391.377 268.643 391.329 268.719C391.285 268.794 391.227 268.854 391.155 268.898C391.083 268.943 391.003 268.965 390.914 268.965ZM395.783 275.433C395.389 275.433 395.02 275.365 394.675 275.228C394.329 275.088 394.027 274.891 393.767 274.638C393.507 274.385 393.303 274.089 393.156 273.751C393.009 273.412 392.936 273.043 392.936 272.643C392.936 272.246 393.008 271.878 393.151 271.54C393.295 271.201 393.495 270.906 393.751 270.652C394.011 270.399 394.314 270.203 394.659 270.063C395.005 269.922 395.379 269.852 395.783 269.852C396.128 269.852 396.456 269.904 396.768 270.006C397.079 270.109 397.347 270.251 397.573 270.432L397.265 270.935C396.882 270.637 396.417 270.488 395.87 270.488C395.439 270.488 395.059 270.584 394.731 270.776C394.406 270.964 394.153 271.222 393.972 271.55C393.791 271.875 393.7 272.239 393.7 272.643C393.7 273.05 393.792 273.417 393.977 273.746C394.162 274.071 394.418 274.327 394.747 274.515C395.075 274.703 395.451 274.797 395.875 274.797C396.142 274.797 396.393 274.76 396.629 274.684C396.868 274.606 397.079 274.495 397.26 274.351L397.573 274.854C397.344 275.031 397.075 275.172 396.768 275.274C396.46 275.38 396.132 275.433 395.783 275.433ZM401.637 275.269V270.581H401.109V270.016H401.637V268.134C401.637 267.741 401.693 267.407 401.806 267.134C401.919 266.86 402.083 266.651 402.299 266.508C402.514 266.364 402.779 266.292 403.094 266.292C403.289 266.292 403.47 266.32 403.638 266.374C403.805 266.426 403.952 266.501 404.079 266.6L403.817 267.134C403.66 267.01 403.461 266.949 403.222 266.949C403.03 266.949 402.873 266.997 402.75 267.092C402.627 267.185 402.535 267.318 402.473 267.493C402.415 267.667 402.386 267.874 402.386 268.113V270.016H403.725V270.581H402.386V275.269H401.637ZM407.601 275.433C407.054 275.433 406.559 275.315 406.118 275.079C405.681 274.843 405.333 274.515 405.077 274.094C404.82 273.674 404.692 273.19 404.692 272.643C404.692 272.092 404.82 271.608 405.077 271.191C405.333 270.77 405.681 270.442 406.118 270.206C406.556 269.97 407.05 269.852 407.601 269.852C408.148 269.852 408.64 269.97 409.078 270.206C409.519 270.442 409.868 270.77 410.125 271.191C410.381 271.608 410.509 272.092 410.509 272.643C410.509 273.19 410.381 273.674 410.125 274.094C409.868 274.515 409.519 274.843 409.078 275.079C408.64 275.315 408.148 275.433 407.601 275.433ZM407.601 274.766C408.011 274.766 408.377 274.676 408.698 274.495C409.02 274.313 409.273 274.064 409.458 273.746C409.642 273.424 409.735 273.057 409.735 272.643C409.735 272.229 409.642 271.863 409.458 271.545C409.273 271.224 409.02 270.972 408.698 270.791C408.377 270.61 408.011 270.519 407.601 270.519C407.19 270.519 406.824 270.61 406.503 270.791C406.182 270.972 405.928 271.224 405.744 271.545C405.559 271.863 405.467 272.229 405.467 272.643C405.467 273.053 405.559 273.419 405.744 273.741C405.928 274.062 406.182 274.313 406.503 274.495C406.824 274.676 407.19 274.766 407.601 274.766ZM412.142 275.269V270.016H412.891V270.791C413.059 270.483 413.274 270.251 413.537 270.093C413.804 269.933 414.112 269.852 414.461 269.852C414.615 269.852 414.77 269.869 414.927 269.904C415.088 269.938 415.227 269.982 415.343 270.037L415.035 270.668C414.933 270.617 414.815 270.577 414.681 270.55C414.551 270.523 414.426 270.509 414.307 270.509C414.064 270.509 413.835 270.57 413.619 270.694C413.404 270.817 413.228 270.977 413.091 271.176C412.958 271.371 412.891 271.579 412.891 271.802V275.269H412.142ZM419.438 275.269V267.575H418.637V266.805H420.217V275.269H419.438ZM422.034 275.269V274.905C422.821 274.289 423.498 273.744 424.066 273.269C424.633 272.79 425.109 272.366 425.492 271.996C425.875 271.627 426.179 271.295 426.405 271.001C426.63 270.707 426.791 270.435 426.887 270.186C426.983 269.936 427.03 269.69 427.03 269.447C427.03 269.064 426.938 268.717 426.753 268.406C426.572 268.094 426.328 267.847 426.02 267.662C425.712 267.477 425.37 267.385 424.994 267.385C424.618 267.385 424.276 267.477 423.968 267.662C423.66 267.847 423.407 268.1 423.209 268.421C423.011 268.743 422.893 269.112 422.855 269.529L422.152 269.293C422.19 268.917 422.287 268.568 422.445 268.247C422.605 267.925 422.814 267.645 423.07 267.405C423.33 267.166 423.626 266.98 423.958 266.846C424.289 266.713 424.647 266.646 425.03 266.646C425.56 266.646 426.04 266.769 426.471 267.016C426.902 267.258 427.244 267.59 427.497 268.011C427.75 268.431 427.877 268.907 427.877 269.437C427.877 269.71 427.836 269.979 427.754 270.242C427.672 270.505 427.533 270.781 427.338 271.068C427.147 271.355 426.889 271.668 426.564 272.007C426.239 272.342 425.834 272.716 425.348 273.13C424.866 273.544 424.289 274.012 423.619 274.536H428.031V275.269H422.034ZM432.272 275.269V266.441H433.021V270.735C433.165 270.488 433.387 270.28 433.688 270.109C433.989 269.938 434.356 269.852 434.791 269.852C435.198 269.852 435.548 269.936 435.842 270.104C436.136 270.271 436.362 270.516 436.519 270.837C436.677 271.155 436.755 271.54 436.755 271.991V275.269H436.006V272.135C436.006 271.591 435.88 271.176 435.627 270.888C435.374 270.601 435.016 270.458 434.555 270.458C434.233 270.458 433.958 270.523 433.729 270.652C433.503 270.782 433.329 270.953 433.206 271.165C433.082 271.374 433.021 271.601 433.021 271.848V275.269H432.272ZM438.71 275.269V270.016H439.459V270.791C439.627 270.483 439.842 270.251 440.106 270.093C440.372 269.933 440.68 269.852 441.029 269.852C441.183 269.852 441.339 269.869 441.496 269.904C441.657 269.938 441.795 269.982 441.911 270.037L441.604 270.668C441.501 270.617 441.383 270.577 441.25 270.55C441.12 270.523 440.995 270.509 440.875 270.509C440.632 270.509 440.403 270.57 440.188 270.694C439.972 270.817 439.796 270.977 439.659 271.176C439.526 271.371 439.459 271.579 439.459 271.802V275.269H438.71ZM444.42 275.433C443.985 275.433 443.602 275.329 443.271 275.12C442.939 274.908 442.681 274.609 442.496 274.223L442.896 273.792C443.06 274.127 443.274 274.389 443.537 274.577C443.801 274.761 444.093 274.854 444.414 274.854C444.63 274.854 444.827 274.809 445.004 274.72C445.186 274.631 445.329 274.505 445.435 274.341C445.545 274.173 445.599 273.975 445.599 273.746C445.599 273.537 445.548 273.373 445.446 273.253C445.346 273.134 445.199 273.031 445.004 272.945C444.813 272.857 444.573 272.757 444.286 272.648C444.064 272.559 443.848 272.458 443.64 272.345C443.431 272.232 443.259 272.09 443.122 271.919C442.988 271.745 442.922 271.525 442.922 271.258C442.922 270.988 442.994 270.748 443.137 270.54C443.281 270.328 443.479 270.162 443.732 270.042C443.985 269.919 444.273 269.857 444.594 269.857C444.888 269.857 445.163 269.921 445.42 270.047C445.68 270.174 445.912 270.353 446.117 270.586L445.774 271.022C445.459 270.608 445.068 270.401 444.599 270.401C444.312 270.401 444.078 270.476 443.896 270.627C443.719 270.777 443.63 270.974 443.63 271.217C443.63 271.391 443.686 271.536 443.799 271.653C443.912 271.769 444.059 271.868 444.24 271.95C444.425 272.032 444.623 272.114 444.835 272.196C445.143 272.313 445.41 272.429 445.635 272.545C445.864 272.662 446.042 272.81 446.169 272.992C446.295 273.169 446.359 273.412 446.359 273.72C446.359 274.072 446.277 274.377 446.112 274.633C445.948 274.89 445.719 275.088 445.425 275.228C445.134 275.365 444.799 275.433 444.42 275.433ZM452.98 275.428C452.526 275.428 452.098 275.355 451.698 275.208C451.301 275.061 450.956 274.85 450.662 274.577C450.371 274.303 450.156 273.975 450.016 273.592L450.636 273.284C450.804 273.746 451.098 274.11 451.519 274.377C451.943 274.643 452.433 274.777 452.991 274.777C453.442 274.777 453.835 274.69 454.171 274.515C454.509 274.337 454.771 274.088 454.955 273.766C455.144 273.445 455.238 273.065 455.238 272.627C455.238 272.142 455.126 271.723 454.904 271.371C454.682 271.018 454.379 270.747 453.996 270.555C453.613 270.363 453.177 270.268 452.688 270.268C452.261 270.268 451.859 270.352 451.483 270.519C451.106 270.687 450.761 270.933 450.446 271.258L451.139 266.805H455.458V267.493H451.785L451.354 270.283C452.004 269.873 452.715 269.717 453.488 269.816C453.981 269.854 454.415 269.994 454.791 270.237C455.171 270.48 455.467 270.803 455.679 271.206C455.894 271.607 456.002 272.072 456.002 272.602C456.002 273.224 455.863 273.746 455.586 274.166C455.309 274.587 454.942 274.903 454.483 275.115C454.029 275.324 453.528 275.428 452.98 275.428ZM460.271 275.428C459.816 275.428 459.388 275.355 458.988 275.208C458.591 275.061 458.246 274.85 457.952 274.577C457.661 274.303 457.446 273.975 457.306 273.592L457.926 273.284C458.094 273.746 458.388 274.11 458.809 274.377C459.233 274.643 459.723 274.777 460.281 274.777C460.732 274.777 461.126 274.69 461.461 274.515C461.799 274.337 462.061 274.088 462.246 273.766C462.434 273.445 462.528 273.065 462.528 272.627C462.528 272.142 462.417 271.723 462.194 271.371C461.972 271.018 461.669 270.747 461.286 270.555C460.903 270.363 460.467 270.268 459.978 270.268C459.551 270.268 459.149 270.352 458.773 270.519C458.397 270.687 458.051 270.933 457.737 271.258L458.429 266.805H462.748V267.493H459.075L458.644 270.283C459.294 269.873 460.006 269.717 460.778 269.816C461.271 269.854 461.705 269.994 462.081 270.237C462.461 270.48 462.757 270.803 462.969 271.206C463.184 271.607 463.292 272.072 463.292 272.602C463.292 273.224 463.153 273.746 462.876 274.166C462.599 274.587 462.232 274.903 461.774 275.115C461.319 275.324 460.818 275.428 460.271 275.428ZM467.523 275.269V270.016H468.272V270.735C468.481 270.444 468.73 270.225 469.021 270.078C469.312 269.927 469.637 269.852 469.996 269.852C470.427 269.852 470.801 269.951 471.119 270.15C471.441 270.348 471.663 270.618 471.786 270.96C471.988 270.625 472.244 270.357 472.555 270.155C472.87 269.953 473.243 269.852 473.674 269.852C474.046 269.852 474.378 269.929 474.669 270.083C474.959 270.234 475.187 270.456 475.351 270.75C475.519 271.041 475.602 271.396 475.602 271.817V275.269H474.853V272.027C474.853 271.548 474.729 271.169 474.479 270.888C474.229 270.608 473.896 270.468 473.479 270.468C473.191 270.468 472.932 270.531 472.699 270.658C472.466 270.784 472.282 270.948 472.145 271.15C472.008 271.348 471.94 271.554 471.94 271.766V275.269H471.191V271.95C471.191 271.495 471.066 271.135 470.816 270.868C470.57 270.601 470.244 270.468 469.837 270.468C469.549 270.468 469.286 270.529 469.047 270.652C468.811 270.772 468.623 270.928 468.482 271.119C468.342 271.311 468.272 271.507 468.272 271.709V275.269H467.523ZM477.563 275.269V270.016H478.312V275.269H477.563ZM477.943 268.965C477.851 268.965 477.767 268.943 477.692 268.898C477.62 268.854 477.562 268.794 477.517 268.719C477.473 268.643 477.451 268.561 477.451 268.472C477.451 268.383 477.473 268.303 477.517 268.231C477.562 268.156 477.62 268.096 477.692 268.052C477.767 268.007 477.851 267.985 477.943 267.985C478.032 267.985 478.112 268.007 478.184 268.052C478.256 268.096 478.314 268.154 478.358 268.226C478.406 268.298 478.43 268.38 478.43 268.472C478.43 268.561 478.406 268.643 478.358 268.719C478.314 268.794 478.256 268.854 478.184 268.898C478.112 268.943 478.032 268.965 477.943 268.965ZM480.37 275.269V270.016H481.119V270.735C481.263 270.488 481.485 270.28 481.786 270.109C482.087 269.938 482.455 269.852 482.889 269.852C483.296 269.852 483.646 269.936 483.94 270.104C484.234 270.271 484.46 270.516 484.618 270.837C484.775 271.155 484.853 271.54 484.853 271.991V275.269H484.105V272.135C484.105 271.591 483.978 271.177 483.725 270.894C483.472 270.606 483.115 270.463 482.653 270.463C482.331 270.463 482.056 270.528 481.827 270.658C481.601 270.784 481.427 270.953 481.304 271.165C481.181 271.374 481.119 271.601 481.119 271.848V275.269H480.37Z" fill="white" fill-opacity="0.5"/>
<path d="M103.756 323.652V322.447H100.793V321.796L103.361 317.514H104.46V321.831H105.348V322.447H104.46V323.652H103.756ZM101.488 321.831H103.756V318.085H103.712L101.488 321.831ZM106.596 317.144H107.3V319.853H107.335C107.446 319.595 107.602 319.39 107.801 319.237C108.006 319.085 108.279 319.008 108.619 319.008C109.088 319.008 109.457 319.161 109.727 319.466C110.002 319.765 110.14 320.19 110.14 320.741V323.652H109.437V320.864C109.437 320.049 109.094 319.642 108.408 319.642C108.267 319.642 108.129 319.659 107.995 319.694C107.866 319.73 107.748 319.782 107.643 319.853C107.537 319.923 107.452 320.014 107.388 320.125C107.329 320.231 107.3 320.357 107.3 320.503V323.652H106.596V317.144Z" fill="white"/>
<path d="M571.051 320.285H118.175V321.018H571.051V320.285Z" fill="white" fill-opacity="0.25"/>
<path d="M102.754 368.775C103.17 368.775 103.481 368.681 103.686 368.494C103.897 368.3 104.003 368.054 104.003 367.755V367.693C104.003 367.371 103.9 367.131 103.695 366.972C103.496 366.808 103.232 366.726 102.904 366.726C102.587 366.726 102.329 366.796 102.13 366.937C101.93 367.072 101.766 367.257 101.637 367.491L101.092 367.069C101.168 366.946 101.259 366.826 101.365 366.709C101.476 366.585 101.605 366.477 101.752 366.383C101.898 366.289 102.068 366.213 102.262 366.155C102.455 366.096 102.675 366.067 102.921 366.067C103.179 366.067 103.422 366.102 103.651 366.172C103.88 366.237 104.076 366.336 104.24 366.471C104.41 366.6 104.542 366.761 104.636 366.955C104.736 367.148 104.785 367.368 104.785 367.614C104.785 367.814 104.753 367.992 104.689 368.151C104.63 368.309 104.548 368.447 104.442 368.564C104.337 368.681 104.211 368.781 104.064 368.863C103.924 368.945 103.771 369.007 103.607 369.048V369.083C103.771 369.118 103.929 369.177 104.082 369.259C104.24 369.335 104.378 369.438 104.495 369.566C104.618 369.69 104.715 369.842 104.785 370.024C104.862 370.2 104.9 370.402 104.9 370.631C104.9 370.894 104.85 371.138 104.75 371.36C104.651 371.577 104.51 371.765 104.328 371.923C104.146 372.076 103.927 372.196 103.669 372.284C103.411 372.372 103.126 372.416 102.816 372.416C102.552 372.416 102.317 372.386 102.112 372.328C101.907 372.269 101.725 372.19 101.567 372.09C101.409 371.991 101.268 371.879 101.145 371.756C101.028 371.633 100.922 371.504 100.828 371.369L101.382 370.947C101.458 371.07 101.54 371.182 101.628 371.281C101.722 371.381 101.825 371.466 101.936 371.536C102.048 371.607 102.174 371.662 102.314 371.703C102.455 371.739 102.619 371.756 102.807 371.756C103.241 371.756 103.569 371.659 103.792 371.466C104.014 371.267 104.126 370.985 104.126 370.622V370.551C104.126 370.188 104.014 369.909 103.792 369.716C103.569 369.517 103.241 369.417 102.807 369.417H102.086V368.775H102.754ZM106.596 365.803H107.3V368.511H107.335C107.446 368.253 107.602 368.048 107.801 367.896C108.006 367.743 108.279 367.667 108.619 367.667C109.088 367.667 109.457 367.819 109.727 368.124C110.002 368.423 110.14 368.848 110.14 369.399V372.31H109.437V369.523C109.437 368.708 109.094 368.3 108.408 368.3C108.267 368.3 108.129 368.318 107.995 368.353C107.866 368.388 107.748 368.441 107.643 368.511C107.537 368.582 107.452 368.672 107.388 368.784C107.329 368.889 107.3 369.015 107.3 369.162V372.31H106.596V365.803Z" fill="white"/>
<path d="M571.051 368.944H118.175V369.676H571.051V368.944Z" fill="white" fill-opacity="0.25"/>
<path d="M105.146 420.969H101.118V420.213L103.123 418.366C103.411 418.102 103.651 417.824 103.844 417.53C104.038 417.231 104.135 416.932 104.135 416.634V416.528C104.135 416.188 104.041 415.912 103.853 415.701C103.666 415.49 103.381 415.385 103 415.385C102.813 415.385 102.648 415.411 102.508 415.464C102.367 415.517 102.244 415.59 102.138 415.684C102.039 415.778 101.954 415.889 101.883 416.018C101.819 416.141 101.766 416.276 101.725 416.422L101.066 416.167C101.124 415.986 101.203 415.81 101.303 415.64C101.409 415.464 101.538 415.309 101.69 415.174C101.848 415.039 102.036 414.93 102.253 414.848C102.476 414.766 102.736 414.725 103.035 414.725C103.334 414.725 103.601 414.769 103.836 414.857C104.07 414.945 104.267 415.068 104.425 415.227C104.583 415.385 104.703 415.572 104.785 415.789C104.873 416.006 104.917 416.247 104.917 416.51C104.917 416.751 104.882 416.974 104.812 417.179C104.747 417.384 104.656 417.58 104.539 417.768C104.422 417.95 104.278 418.128 104.108 418.304C103.944 418.48 103.765 418.656 103.572 418.832L101.919 420.318H105.146V420.969ZM106.596 414.461H107.3V417.17H107.335C107.446 416.912 107.602 416.707 107.801 416.554C108.006 416.402 108.279 416.326 108.619 416.326C109.088 416.326 109.457 416.478 109.727 416.783C110.002 417.082 110.14 417.507 110.14 418.058V420.969H109.437V418.181C109.437 417.366 109.094 416.959 108.408 416.959C108.267 416.959 108.129 416.976 107.995 417.012C107.866 417.047 107.748 417.1 107.643 417.17C107.537 417.24 107.452 417.331 107.388 417.443C107.329 417.548 107.3 417.674 107.3 417.821V420.969H106.596V414.461Z" fill="white"/>
<path d="M571.051 417.602H118.175V418.335H571.051V417.602Z" fill="white" fill-opacity="0.25"/>
<path d="M101.233 469.627V468.977H102.947V464.034H102.886L101.338 465.477L100.907 465.011L102.534 463.489H103.686V468.977H105.269V469.627H101.233ZM106.596 463.12H107.3V465.828H107.335C107.446 465.57 107.602 465.365 107.801 465.213C108.006 465.06 108.279 464.984 108.619 464.984C109.088 464.984 109.457 465.137 109.727 465.441C110.002 465.74 110.14 466.165 110.14 466.717V469.627H109.437V466.84C109.437 466.025 109.094 465.617 108.408 465.617C108.267 465.617 108.129 465.635 107.995 465.67C107.866 465.705 107.748 465.758 107.643 465.828C107.537 465.899 107.452 465.99 107.388 466.101C107.329 466.207 107.3 466.333 107.3 466.479V469.627H106.596V463.12Z" fill="white"/>
<path d="M571.051 466.261H118.175V466.994H571.051V466.261Z" fill="white" fill-opacity="0.25"/>
<path d="M103.097 518.391C102.364 518.391 101.828 518.113 101.488 517.556C101.154 516.999 100.986 516.219 100.986 515.217C100.986 514.214 101.154 513.435 101.488 512.878C101.828 512.321 102.364 512.042 103.097 512.042C103.83 512.042 104.363 512.321 104.697 512.878C105.037 513.435 105.207 514.214 105.207 515.217C105.207 516.219 105.037 516.999 104.697 517.556C104.363 518.113 103.83 518.391 103.097 518.391ZM103.097 517.75C103.337 517.75 103.543 517.7 103.713 517.6C103.883 517.5 104.02 517.36 104.126 517.178C104.231 516.996 104.308 516.782 104.354 516.536C104.407 516.29 104.434 516.017 104.434 515.718V514.716C104.434 514.417 104.407 514.144 104.354 513.898C104.308 513.652 104.231 513.438 104.126 513.256C104.02 513.074 103.883 512.934 103.713 512.834C103.543 512.734 103.337 512.684 103.097 512.684C102.857 512.684 102.651 512.734 102.481 512.834C102.311 512.934 102.174 513.074 102.068 513.256C101.963 513.438 101.883 513.652 101.831 513.898C101.784 514.144 101.76 514.417 101.76 514.716V515.718C101.76 516.017 101.784 516.29 101.831 516.536C101.883 516.782 101.963 516.996 102.068 517.178C102.174 517.36 102.311 517.5 102.481 517.6C102.651 517.7 102.857 517.75 103.097 517.75ZM106.596 511.779H107.3V514.487H107.335C107.446 514.229 107.602 514.024 107.801 513.872C108.006 513.719 108.279 513.643 108.619 513.643C109.088 513.643 109.457 513.795 109.727 514.1C110.002 514.399 110.14 514.824 110.14 515.375V518.286H109.437V515.498C109.437 514.683 109.094 514.276 108.408 514.276C108.267 514.276 108.129 514.294 107.995 514.329C107.866 514.364 107.748 514.417 107.643 514.487C107.537 514.557 107.452 514.648 107.388 514.76C107.329 514.865 107.3 514.991 107.3 515.138V518.286H106.596V511.779Z" fill="white"/>
<path d="M571.051 514.92H118.175V515.652H571.051V514.92Z" fill="white" fill-opacity="0.5"/>
<path d="M170.309 393.786H118.175V514.7H170.309V393.786Z" fill="url(#paint1_linear_573_12256)"/>
<rect x="143.876" y="515.432" width="0.732809" height="2.19843" fill="white" fill-opacity="0.25"/>
<path d="M135.248 527.364V526.713H136.962V521.771H136.901L135.353 523.213L134.922 522.747L136.549 521.226H137.701V526.713H139.284V527.364H135.248ZM141.403 527.364L143.751 521.859H141.13V523.002H140.471V521.226H144.498V521.876L142.194 527.364H141.403ZM145.333 528.691L147.628 520.856H148.261L145.966 528.691H145.333ZM153.117 521.876H150.426L150.25 524.215H150.312C150.458 524.01 150.622 523.846 150.804 523.723C150.992 523.6 151.247 523.538 151.569 523.538C151.833 523.538 152.076 523.582 152.299 523.67C152.522 523.758 152.715 523.884 152.879 524.048C153.043 524.207 153.169 524.403 153.257 524.638C153.351 524.872 153.398 525.139 153.398 525.438C153.398 525.737 153.351 526.012 153.257 526.264C153.164 526.511 153.026 526.725 152.844 526.906C152.668 527.082 152.451 527.22 152.193 527.32C151.941 527.419 151.654 527.469 151.332 527.469C151.074 527.469 150.845 527.44 150.646 527.381C150.452 527.323 150.279 527.243 150.127 527.144C149.974 527.044 149.84 526.933 149.722 526.81C149.611 526.686 149.508 526.557 149.415 526.423L149.969 526.001C150.045 526.124 150.124 526.235 150.206 526.335C150.294 526.434 150.388 526.519 150.487 526.59C150.593 526.66 150.713 526.716 150.848 526.757C150.983 526.792 151.144 526.81 151.332 526.81C151.754 526.81 152.073 526.698 152.29 526.475C152.507 526.253 152.615 525.939 152.615 525.534V525.447C152.615 525.042 152.507 524.728 152.29 524.506C152.073 524.283 151.754 524.171 151.332 524.171C151.05 524.171 150.827 524.224 150.663 524.33C150.505 524.429 150.361 524.55 150.232 524.69L149.608 524.602L149.828 521.226H153.117V521.876Z" fill="white"/>
<path d="M237.099 444.35H184.965V514.699H237.099V444.35Z" fill="url(#paint2_linear_573_12256)"/>
<rect x="210.666" y="515.432" width="0.732809" height="2.19843" fill="white" fill-opacity="0.25"/>
<path d="M202.038 527.364V526.713H203.753V521.771H203.691L202.143 523.213L201.713 522.747L203.339 521.226H204.491V526.713H206.074V527.364H202.038ZM209.292 527.469C208.941 527.469 208.633 527.425 208.369 527.337C208.105 527.243 207.882 527.117 207.701 526.959C207.525 526.801 207.39 526.613 207.296 526.396C207.208 526.179 207.164 525.945 207.164 525.693C207.164 525.271 207.279 524.936 207.507 524.69C207.736 524.444 208.035 524.271 208.404 524.171V524.101C208.082 523.99 207.824 523.811 207.63 523.565C207.443 523.313 207.349 523.011 207.349 522.659C207.349 522.19 207.519 521.818 207.859 521.542C208.199 521.261 208.677 521.12 209.292 521.12C209.908 521.12 210.386 521.261 210.726 521.542C211.066 521.818 211.236 522.19 211.236 522.659C211.236 523.011 211.139 523.313 210.945 523.565C210.758 523.811 210.503 523.99 210.18 524.101V524.171C210.55 524.271 210.849 524.444 211.077 524.69C211.306 524.936 211.42 525.271 211.42 525.693C211.42 525.945 211.373 526.179 211.28 526.396C211.192 526.613 211.057 526.801 210.875 526.959C210.699 527.117 210.479 527.243 210.216 527.337C209.952 527.425 209.644 527.469 209.292 527.469ZM209.292 526.827C209.72 526.827 210.051 526.733 210.286 526.546C210.52 526.352 210.638 526.08 210.638 525.728V525.543C210.638 525.191 210.52 524.922 210.286 524.734C210.051 524.541 209.72 524.444 209.292 524.444C208.864 524.444 208.533 524.541 208.299 524.734C208.064 524.922 207.947 525.191 207.947 525.543V525.728C207.947 526.08 208.064 526.352 208.299 526.546C208.533 526.733 208.864 526.827 209.292 526.827ZM209.292 523.828C209.679 523.828 209.972 523.746 210.172 523.582C210.371 523.418 210.471 523.178 210.471 522.861V522.729C210.471 522.413 210.371 522.172 210.172 522.008C209.972 521.844 209.679 521.762 209.292 521.762C208.905 521.762 208.612 521.844 208.413 522.008C208.214 522.172 208.114 522.413 208.114 522.729V522.861C208.114 523.178 208.214 523.418 208.413 523.582C208.612 523.746 208.905 523.828 209.292 523.828ZM212.123 528.691L214.418 520.856H215.052L212.756 528.691H212.123ZM219.907 521.876H217.216L217.04 524.215H217.102C217.248 524.01 217.413 523.846 217.594 523.723C217.782 523.6 218.037 523.538 218.359 523.538C218.623 523.538 218.866 523.582 219.089 523.67C219.312 523.758 219.505 523.884 219.67 524.048C219.834 524.207 219.96 524.403 220.048 524.637C220.142 524.872 220.188 525.139 220.188 525.438C220.188 525.737 220.142 526.012 220.048 526.264C219.954 526.511 219.816 526.725 219.634 526.906C219.459 527.082 219.242 527.22 218.984 527.32C218.732 527.419 218.444 527.469 218.122 527.469C217.864 527.469 217.635 527.44 217.436 527.381C217.243 527.322 217.07 527.243 216.917 527.144C216.765 527.044 216.63 526.933 216.513 526.81C216.401 526.686 216.299 526.557 216.205 526.423L216.759 526C216.835 526.124 216.914 526.235 216.996 526.335C217.084 526.434 217.178 526.519 217.278 526.59C217.383 526.66 217.503 526.716 217.638 526.757C217.773 526.792 217.934 526.81 218.122 526.81C218.544 526.81 218.864 526.698 219.08 526.475C219.297 526.253 219.406 525.939 219.406 525.534V525.446C219.406 525.042 219.297 524.728 219.08 524.506C218.864 524.283 218.544 524.171 218.122 524.171C217.841 524.171 217.618 524.224 217.454 524.33C217.295 524.429 217.152 524.55 217.023 524.69L216.398 524.602L216.618 521.226H219.907V521.876Z" fill="white"/>
<path d="M303.89 488.318H251.756V514.699H303.89V488.318Z" fill="url(#paint3_linear_573_12256)"/>
<rect x="277.456" y="515.432" width="0.732809" height="2.19843" fill="white" fill-opacity="0.25"/>
<path d="M268.828 527.364V526.713H270.543V521.771H270.482L268.934 523.213L268.503 522.747L270.13 521.226H271.282V526.713H272.865V527.364H268.828ZM278.132 523.477C278.132 523.934 278.064 524.365 277.929 524.769C277.794 525.168 277.619 525.534 277.402 525.869C277.191 526.197 276.956 526.49 276.698 526.748C276.44 527 276.188 527.205 275.942 527.364H274.992C275.32 527.123 275.614 526.889 275.872 526.66C276.129 526.431 276.355 526.194 276.549 525.948C276.742 525.696 276.906 525.429 277.041 525.148C277.176 524.86 277.284 524.538 277.366 524.18L277.323 524.163C277.176 524.415 276.985 524.626 276.751 524.796C276.522 524.96 276.22 525.042 275.845 525.042C275.581 525.042 275.338 524.998 275.115 524.91C274.893 524.822 274.702 524.696 274.544 524.532C274.385 524.368 274.259 524.171 274.166 523.943C274.078 523.708 274.034 523.444 274.034 523.151C274.034 522.852 274.081 522.58 274.174 522.334C274.274 522.081 274.412 521.867 274.588 521.692C274.769 521.51 274.983 521.369 275.23 521.27C275.482 521.17 275.763 521.12 276.074 521.12C276.39 521.12 276.675 521.176 276.927 521.287C277.185 521.393 277.402 521.548 277.578 521.753C277.759 521.952 277.897 522.199 277.991 522.492C278.085 522.785 278.132 523.113 278.132 523.477ZM276.083 524.418C276.487 524.418 276.801 524.306 277.024 524.084C277.252 523.861 277.366 523.541 277.366 523.125V523.055C277.366 522.638 277.252 522.319 277.024 522.096C276.801 521.873 276.487 521.762 276.083 521.762C275.678 521.762 275.362 521.873 275.133 522.096C274.91 522.319 274.799 522.638 274.799 523.055V523.125C274.799 523.541 274.91 523.861 275.133 524.084C275.362 524.306 275.678 524.418 276.083 524.418ZM278.914 528.691L281.209 520.856H281.842L279.547 528.691H278.914ZM286.697 521.876H284.007L283.831 524.215H283.892C284.039 524.01 284.203 523.846 284.385 523.723C284.572 523.6 284.827 523.538 285.15 523.538C285.414 523.538 285.657 523.582 285.88 523.67C286.102 523.758 286.296 523.884 286.46 524.048C286.624 524.207 286.75 524.403 286.838 524.638C286.932 524.872 286.979 525.139 286.979 525.438C286.979 525.737 286.932 526.012 286.838 526.264C286.744 526.511 286.607 526.725 286.425 526.906C286.249 527.082 286.032 527.22 285.774 527.32C285.522 527.419 285.235 527.469 284.912 527.469C284.654 527.469 284.426 527.44 284.226 527.381C284.033 527.323 283.86 527.243 283.708 527.144C283.555 527.044 283.42 526.933 283.303 526.81C283.192 526.686 283.089 526.557 282.995 526.423L283.549 526.001C283.625 526.124 283.705 526.235 283.787 526.335C283.875 526.434 283.968 526.519 284.068 526.59C284.174 526.66 284.294 526.716 284.429 526.757C284.563 526.792 284.725 526.81 284.912 526.81C285.334 526.81 285.654 526.698 285.871 526.475C286.088 526.253 286.196 525.939 286.196 525.534V525.447C286.196 525.042 286.088 524.728 285.871 524.506C285.654 524.283 285.334 524.171 284.912 524.171C284.631 524.171 284.408 524.224 284.244 524.33C284.086 524.429 283.942 524.55 283.813 524.69L283.189 524.602L283.409 521.226H286.697V521.876Z" fill="white"/>
<path d="M370.68 469.998H318.546V514.699H370.68V469.998Z" fill="url(#paint4_linear_573_12256)"/>
<rect x="344.247" y="515.432" width="0.732809" height="2.19843" fill="white" fill-opacity="0.25"/>
<path d="M339.532 527.364H335.504V526.607L337.509 524.761C337.797 524.497 338.037 524.218 338.23 523.925C338.424 523.626 338.521 523.327 338.521 523.028V522.923C338.521 522.583 338.427 522.307 338.239 522.096C338.052 521.885 337.767 521.78 337.386 521.78C337.199 521.78 337.034 521.806 336.894 521.859C336.753 521.911 336.63 521.985 336.524 522.079C336.425 522.172 336.34 522.284 336.269 522.413C336.205 522.536 336.152 522.671 336.111 522.817L335.452 522.562C335.51 522.38 335.589 522.205 335.689 522.035C335.795 521.859 335.923 521.703 336.076 521.568C336.234 521.434 336.422 521.325 336.639 521.243C336.861 521.161 337.122 521.12 337.421 521.12C337.72 521.12 337.987 521.164 338.222 521.252C338.456 521.34 338.652 521.463 338.811 521.621C338.969 521.78 339.089 521.967 339.171 522.184C339.259 522.401 339.303 522.641 339.303 522.905C339.303 523.145 339.268 523.368 339.198 523.573C339.133 523.779 339.042 523.975 338.925 524.163C338.808 524.344 338.664 524.523 338.494 524.699C338.33 524.875 338.151 525.051 337.958 525.227L336.305 526.713H339.532V527.364ZM342.873 527.469C342.14 527.469 341.604 527.191 341.264 526.634C340.93 526.077 340.762 525.297 340.762 524.295C340.762 523.292 340.93 522.512 341.264 521.955C341.604 521.398 342.14 521.12 342.873 521.12C343.606 521.12 344.139 521.398 344.473 521.955C344.813 522.512 344.983 523.292 344.983 524.295C344.983 525.297 344.813 526.077 344.473 526.634C344.139 527.191 343.606 527.469 342.873 527.469ZM342.873 526.827C343.113 526.827 343.318 526.777 343.489 526.678C343.659 526.578 343.796 526.437 343.902 526.256C344.007 526.074 344.084 525.86 344.13 525.614C344.183 525.367 344.21 525.095 344.21 524.796V523.793C344.21 523.494 344.183 523.222 344.13 522.975C344.084 522.729 344.007 522.515 343.902 522.334C343.796 522.152 343.659 522.011 343.489 521.911C343.318 521.812 343.113 521.762 342.873 521.762C342.633 521.762 342.427 521.812 342.257 521.911C342.087 522.011 341.95 522.152 341.844 522.334C341.739 522.515 341.659 522.729 341.607 522.975C341.56 523.222 341.536 523.494 341.536 523.793V524.796C341.536 525.095 341.56 525.367 341.607 525.614C341.659 525.86 341.739 526.074 341.844 526.256C341.95 526.437 342.087 526.578 342.257 526.678C342.427 526.777 342.633 526.827 342.873 526.827ZM345.704 528.691L347.999 520.856H348.632L346.337 528.691H345.704ZM353.488 521.876H350.797L350.621 524.215H350.683C350.829 524.01 350.993 523.846 351.175 523.723C351.363 523.6 351.618 523.538 351.94 523.538C352.204 523.538 352.447 523.582 352.67 523.67C352.893 523.758 353.086 523.884 353.25 524.048C353.414 524.207 353.54 524.403 353.628 524.637C353.722 524.872 353.769 525.139 353.769 525.438C353.769 525.737 353.722 526.012 353.628 526.264C353.535 526.511 353.397 526.725 353.215 526.906C353.039 527.082 352.822 527.22 352.564 527.32C352.312 527.419 352.025 527.469 351.703 527.469C351.445 527.469 351.216 527.44 351.017 527.381C350.823 527.322 350.65 527.243 350.498 527.144C350.345 527.044 350.211 526.933 350.093 526.81C349.982 526.686 349.879 526.557 349.786 526.423L350.34 526C350.416 526.124 350.495 526.235 350.577 526.335C350.665 526.434 350.759 526.519 350.858 526.59C350.964 526.66 351.084 526.716 351.219 526.757C351.354 526.792 351.515 526.81 351.703 526.81C352.125 526.81 352.444 526.698 352.661 526.475C352.878 526.253 352.986 525.939 352.986 525.534V525.446C352.986 525.042 352.878 524.728 352.661 524.506C352.444 524.283 352.125 524.171 351.703 524.171C351.421 524.171 351.198 524.224 351.034 524.33C350.876 524.429 350.732 524.55 350.603 524.69L349.979 524.602L350.199 521.226H353.488V521.876Z" fill="white"/>
<path d="M437.47 473.662H385.336V514.699H437.47V473.662Z" fill="url(#paint5_linear_573_12256)"/>
<rect x="411.037" y="515.432" width="0.732809" height="2.19843" fill="white" fill-opacity="0.25"/>
<path d="M406.322 527.364H402.295V526.607L404.3 524.761C404.587 524.497 404.827 524.218 405.021 523.925C405.214 523.626 405.311 523.327 405.311 523.028V522.923C405.311 522.583 405.217 522.307 405.03 522.096C404.842 521.885 404.558 521.78 404.177 521.78C403.989 521.78 403.825 521.806 403.684 521.859C403.543 521.911 403.42 521.985 403.315 522.079C403.215 522.172 403.13 522.284 403.06 522.413C402.995 522.536 402.942 522.671 402.901 522.817L402.242 522.562C402.301 522.38 402.38 522.205 402.479 522.035C402.585 521.859 402.714 521.703 402.866 521.568C403.025 521.434 403.212 521.325 403.429 521.243C403.652 521.161 403.913 521.12 404.212 521.12C404.511 521.12 404.777 521.164 405.012 521.252C405.246 521.34 405.443 521.463 405.601 521.621C405.759 521.78 405.88 521.967 405.962 522.184C406.05 522.401 406.094 522.641 406.094 522.905C406.094 523.146 406.058 523.368 405.988 523.573C405.924 523.779 405.833 523.975 405.715 524.163C405.598 524.344 405.455 524.523 405.285 524.699C405.12 524.875 404.942 525.051 404.748 525.227L403.095 526.713H406.322V527.364ZM407.799 527.364V526.713H409.514V521.771H409.452L407.905 523.213L407.474 522.747L409.101 521.226H410.252V526.713H411.835V527.364H407.799ZM412.494 528.691L414.79 520.856H415.423L413.128 528.691H412.494ZM420.278 521.876H417.587L417.411 524.215H417.473C417.619 524.01 417.784 523.846 417.965 523.723C418.153 523.6 418.408 523.538 418.73 523.538C418.994 523.538 419.238 523.582 419.46 523.67C419.683 523.758 419.877 523.884 420.041 524.048C420.205 524.207 420.331 524.403 420.419 524.638C420.513 524.872 420.559 525.139 420.559 525.438C420.559 525.737 420.513 526.012 420.419 526.264C420.325 526.511 420.187 526.725 420.005 526.906C419.83 527.082 419.613 527.22 419.355 527.32C419.103 527.419 418.815 527.469 418.493 527.469C418.235 527.469 418.006 527.44 417.807 527.381C417.614 527.323 417.441 527.243 417.288 527.144C417.136 527.044 417.001 526.933 416.884 526.81C416.772 526.686 416.67 526.557 416.576 526.423L417.13 526.001C417.206 526.124 417.285 526.235 417.367 526.335C417.455 526.434 417.549 526.519 417.649 526.59C417.754 526.66 417.874 526.716 418.009 526.757C418.144 526.792 418.305 526.81 418.493 526.81C418.915 526.81 419.235 526.698 419.451 526.475C419.668 526.253 419.777 525.939 419.777 525.534V525.447C419.777 525.042 419.668 524.728 419.451 524.506C419.235 524.283 418.915 524.171 418.493 524.171C418.212 524.171 417.989 524.224 417.825 524.33C417.666 524.429 417.523 524.55 417.394 524.69L416.769 524.602L416.989 521.226H420.278V521.876Z" fill="white"/>
<path d="M504.261 477.326H452.127V514.7H504.261V477.326Z" fill="url(#paint6_linear_573_12256)"/>
<rect x="477.827" y="515.432" width="0.732809" height="2.19843" fill="white" fill-opacity="0.25"/>
<path d="M473.113 527.364H469.085V526.607L471.09 524.761C471.377 524.497 471.618 524.218 471.811 523.925C472.005 523.626 472.101 523.327 472.101 523.028V522.923C472.101 522.583 472.007 522.307 471.82 522.096C471.632 521.885 471.348 521.78 470.967 521.78C470.779 521.78 470.615 521.806 470.474 521.859C470.334 521.911 470.211 521.985 470.105 522.079C470.005 522.172 469.92 522.284 469.85 522.413C469.786 522.536 469.733 522.671 469.692 522.817L469.032 522.562C469.091 522.38 469.17 522.205 469.27 522.035C469.375 521.859 469.504 521.703 469.657 521.568C469.815 521.434 470.002 521.325 470.219 521.243C470.442 521.161 470.703 521.12 471.002 521.12C471.301 521.12 471.568 521.164 471.802 521.252C472.037 521.34 472.233 521.463 472.391 521.621C472.55 521.78 472.67 521.967 472.752 522.184C472.84 522.401 472.884 522.641 472.884 522.905C472.884 523.146 472.849 523.368 472.778 523.573C472.714 523.779 472.623 523.975 472.506 524.163C472.389 524.344 472.245 524.523 472.075 524.699C471.911 524.875 471.732 525.051 471.538 525.227L469.885 526.713H473.113V527.364ZM478.503 527.364H474.475V526.607L476.48 524.761C476.767 524.497 477.008 524.218 477.201 523.925C477.395 523.626 477.491 523.327 477.491 523.028V522.923C477.491 522.583 477.398 522.307 477.21 522.096C477.022 521.885 476.738 521.78 476.357 521.78C476.169 521.78 476.005 521.806 475.864 521.859C475.724 521.911 475.601 521.985 475.495 522.079C475.395 522.172 475.31 522.284 475.24 522.413C475.176 522.536 475.123 522.671 475.082 522.817L474.422 522.562C474.481 522.38 474.56 522.205 474.66 522.035C474.765 521.859 474.894 521.703 475.047 521.568C475.205 521.434 475.393 521.325 475.609 521.243C475.832 521.161 476.093 521.12 476.392 521.12C476.691 521.12 476.958 521.164 477.192 521.252C477.427 521.34 477.623 521.463 477.781 521.621C477.94 521.78 478.06 521.967 478.142 522.184C478.23 522.401 478.274 522.641 478.274 522.905C478.274 523.146 478.239 523.368 478.168 523.573C478.104 523.779 478.013 523.975 477.896 524.163C477.779 524.344 477.635 524.523 477.465 524.699C477.301 524.875 477.122 525.051 476.929 525.227L475.275 526.713H478.503V527.364ZM479.285 528.691L481.58 520.856H482.213L479.918 528.691H479.285ZM487.068 521.876H484.378L484.202 524.215H484.263C484.41 524.01 484.574 523.846 484.756 523.723C484.943 523.6 485.198 523.538 485.521 523.538C485.785 523.538 486.028 523.582 486.251 523.67C486.473 523.758 486.667 523.884 486.831 524.048C486.995 524.207 487.121 524.403 487.209 524.638C487.303 524.872 487.35 525.139 487.35 525.438C487.35 525.737 487.303 526.012 487.209 526.264C487.115 526.511 486.978 526.725 486.796 526.906C486.62 527.082 486.403 527.22 486.145 527.32C485.893 527.419 485.606 527.469 485.283 527.469C485.025 527.469 484.797 527.44 484.597 527.381C484.404 527.323 484.231 527.243 484.079 527.144C483.926 527.044 483.791 526.933 483.674 526.81C483.563 526.686 483.46 526.557 483.366 526.423L483.92 526.001C483.996 526.124 484.076 526.235 484.158 526.335C484.246 526.434 484.339 526.519 484.439 526.59C484.545 526.66 484.665 526.716 484.8 526.757C484.934 526.792 485.096 526.81 485.283 526.81C485.705 526.81 486.025 526.698 486.242 526.475C486.459 526.253 486.567 525.939 486.567 525.534V525.447C486.567 525.042 486.459 524.728 486.242 524.506C486.025 524.283 485.705 524.171 485.283 524.171C485.002 524.171 484.779 524.224 484.615 524.33C484.457 524.429 484.313 524.55 484.184 524.69L483.56 524.602L483.78 521.226H487.068V521.876Z" fill="white"/>
<path d="M571.051 483.189H518.917V514.699H571.051V483.189Z" fill="url(#paint7_linear_573_12256)"/>
<rect x="544.618" y="515.432" width="0.732809" height="2.19843" fill="white" fill-opacity="0.25"/>
<path d="M539.903 527.364H535.875V526.607L537.88 524.761C538.168 524.497 538.408 524.218 538.601 523.925C538.795 523.626 538.892 523.327 538.892 523.028V522.923C538.892 522.583 538.798 522.307 538.61 522.096C538.423 521.885 538.138 521.78 537.757 521.78C537.57 521.78 537.405 521.806 537.265 521.859C537.124 521.911 537.001 521.985 536.895 522.079C536.796 522.172 536.711 522.284 536.64 522.413C536.576 522.536 536.523 522.671 536.482 522.817L535.823 522.562C535.881 522.38 535.96 522.205 536.06 522.035C536.166 521.859 536.295 521.703 536.447 521.568C536.605 521.434 536.793 521.325 537.01 521.243C537.233 521.161 537.493 521.12 537.792 521.12C538.091 521.12 538.358 521.164 538.593 521.252C538.827 521.34 539.024 521.463 539.182 521.621C539.34 521.78 539.46 521.967 539.542 522.184C539.63 522.401 539.674 522.641 539.674 522.905C539.674 523.145 539.639 523.368 539.569 523.573C539.504 523.779 539.413 523.975 539.296 524.163C539.179 524.344 539.035 524.523 538.865 524.699C538.701 524.875 538.522 525.051 538.329 525.227L536.676 526.713H539.903V527.364ZM542.901 523.828C543.317 523.828 543.628 523.735 543.833 523.547C544.044 523.354 544.15 523.107 544.15 522.808V522.747C544.15 522.424 544.047 522.184 543.842 522.026C543.643 521.862 543.379 521.78 543.051 521.78C542.734 521.78 542.476 521.85 542.277 521.991C542.077 522.125 541.913 522.31 541.784 522.545L541.239 522.122C541.315 521.999 541.406 521.879 541.512 521.762C541.623 521.639 541.752 521.53 541.899 521.437C542.045 521.343 542.215 521.267 542.409 521.208C542.602 521.149 542.822 521.12 543.068 521.12C543.326 521.12 543.569 521.155 543.798 521.226C544.027 521.29 544.223 521.39 544.387 521.524C544.557 521.653 544.689 521.815 544.783 522.008C544.883 522.202 544.932 522.421 544.932 522.668C544.932 522.867 544.9 523.046 544.836 523.204C544.777 523.362 544.695 523.5 544.589 523.617C544.484 523.735 544.358 523.834 544.211 523.916C544.071 523.998 543.918 524.06 543.754 524.101V524.136C543.918 524.171 544.076 524.23 544.229 524.312C544.387 524.388 544.525 524.491 544.642 524.62C544.765 524.743 544.862 524.895 544.932 525.077C545.009 525.253 545.047 525.455 545.047 525.684C545.047 525.948 544.997 526.191 544.897 526.414C544.798 526.631 544.657 526.818 544.475 526.977C544.293 527.129 544.074 527.249 543.816 527.337C543.558 527.425 543.273 527.469 542.963 527.469C542.699 527.469 542.464 527.44 542.259 527.381C542.054 527.322 541.872 527.243 541.714 527.144C541.556 527.044 541.415 526.933 541.292 526.81C541.175 526.686 541.069 526.557 540.975 526.423L541.529 526C541.605 526.124 541.688 526.235 541.775 526.335C541.869 526.434 541.972 526.519 542.083 526.59C542.195 526.66 542.321 526.716 542.461 526.757C542.602 526.792 542.766 526.81 542.954 526.81C543.388 526.81 543.716 526.713 543.939 526.519C544.161 526.32 544.273 526.039 544.273 525.675V525.605C544.273 525.241 544.161 524.963 543.939 524.769C543.716 524.57 543.388 524.47 542.954 524.47H542.233V523.828H542.901ZM546.075 528.691L548.37 520.856H549.003L546.708 528.691H546.075ZM553.859 521.876H551.168L550.992 524.215H551.054C551.2 524.01 551.364 523.846 551.546 523.723C551.734 523.6 551.989 523.538 552.311 523.538C552.575 523.538 552.818 523.582 553.041 523.67C553.264 523.758 553.457 523.884 553.621 524.048C553.786 524.207 553.912 524.403 553.999 524.637C554.093 524.872 554.14 525.139 554.14 525.438C554.14 525.737 554.093 526.012 553.999 526.264C553.906 526.511 553.768 526.725 553.586 526.906C553.41 527.082 553.193 527.22 552.935 527.32C552.683 527.419 552.396 527.469 552.074 527.469C551.816 527.469 551.587 527.44 551.388 527.381C551.194 527.322 551.021 527.243 550.869 527.144C550.716 527.044 550.582 526.933 550.464 526.81C550.353 526.686 550.25 526.557 550.157 526.423L550.711 526C550.787 526.124 550.866 526.235 550.948 526.335C551.036 526.434 551.13 526.519 551.229 526.59C551.335 526.66 551.455 526.716 551.59 526.757C551.725 526.792 551.886 526.81 552.074 526.81C552.496 526.81 552.815 526.698 553.032 526.475C553.249 526.253 553.358 525.939 553.358 525.534V525.446C553.358 525.042 553.249 524.728 553.032 524.506C552.815 524.283 552.496 524.171 552.074 524.171C551.792 524.171 551.569 524.224 551.405 524.33C551.247 524.429 551.103 524.55 550.974 524.69L550.35 524.602L550.57 521.226H553.859V521.876Z" fill="white"/>
</g>
</g>
<defs>
<filter id="filter0_d_573_12256" x="0.925342" y="153.676" width="608.232" height="478.273" filterUnits="userSpaceOnUse" color-interpolation-filters="sRGB">
<feFlood flood-opacity="0" result="BackgroundImageFix"/>
<feColorMatrix in="SourceAlpha" type="matrix" values="0 0 0 0 0 0 0 0 0 0 0 0 0 0 0 0 0 0 127 0" result="hardAlpha"/>
<feMorphology radius="5.86248" operator="erode" in="SourceAlpha" result="effect1_dropShadow_573_12256"/>
<feOffset dx="-29.3124" dy="29.3124"/>
<feGaussianBlur stdDeviation="29.3124"/>
<feColorMatrix type="matrix" values="0 0 0 0 0.568627 0 0 0 0 0.619608 0 0 0 0 0.670588 0 0 0 0.24 0"/>
<feBlend mode="normal" in2="BackgroundImageFix" result="effect1_dropShadow_573_12256"/>
<feBlend mode="normal" in="SourceGraphic" in2="effect1_dropShadow_573_12256" result="shape"/>
</filter>
<linearGradient id="paint0_linear_573_12256" x1="301" y1="0" x2="301" y2="568" gradientUnits="userSpaceOnUse">
<stop stop-color="#F98754"/>
<stop offset="1" stop-color="#64D171"/>
</linearGradient>
<linearGradient id="paint1_linear_573_12256" x1="118.175" y1="393.786" x2="206.098" y2="431.696" gradientUnits="userSpaceOnUse">
<stop stop-color="#FB923C"/>
<stop offset="1" stop-color="#F87171"/>
</linearGradient>
<linearGradient id="paint2_linear_573_12256" x1="184.965" y1="444.35" x2="252.27" y2="494.228" gradientUnits="userSpaceOnUse">
<stop stop-color="#FB923C"/>
<stop offset="1" stop-color="#F87171"/>
</linearGradient>
<linearGradient id="paint3_linear_573_12256" x1="251.756" y1="488.318" x2="273.012" y2="530.325" gradientUnits="userSpaceOnUse">
<stop stop-color="#FB923C"/>
<stop offset="1" stop-color="#F87171"/>
</linearGradient>
<linearGradient id="paint4_linear_573_12256" x1="318.546" y1="469.998" x2="362.724" y2="521.522" gradientUnits="userSpaceOnUse">
<stop stop-color="#FB923C"/>
<stop offset="1" stop-color="#F87171"/>
</linearGradient>
<linearGradient id="paint5_linear_573_12256" x1="385.336" y1="473.662" x2="425.226" y2="524.338" gradientUnits="userSpaceOnUse">
<stop stop-color="#FB923C"/>
<stop offset="1" stop-color="#F87171"/>
</linearGradient>
<linearGradient id="paint6_linear_573_12256" x1="452.127" y1="477.326" x2="487.521" y2="526.7" gradientUnits="userSpaceOnUse">
<stop stop-color="#FB923C"/>
<stop offset="1" stop-color="#F87171"/>
</linearGradient>
<linearGradient id="paint7_linear_573_12256" x1="518.917" y1="483.189" x2="546.816" y2="529.348" gradientUnits="userSpaceOnUse">
<stop stop-color="#FB923C"/>
<stop offset="1" stop-color="#F87171"/>
</linearGradient>
<clipPath id="clip0_573_12256">
<rect width="502.707" height="331.711" fill="white" transform="translate(83 218.163)"/>
</clipPath>
</defs>
</svg>
