<svg width="1492" height="1580" viewBox="0 0 1492 1580" fill="none" xmlns="http://www.w3.org/2000/svg">
<g filter="url(#filter0_d_580_12257)">
<rect x="934" y="231" width="343" height="446" rx="16" fill="#231526"/>
<path d="M957.598 263V253.081H954.455V251.45H962.575V253.081H959.425V263H957.598ZM964.227 263V255.832H965.97V263H964.227ZM965.102 254.362C964.911 254.362 964.734 254.315 964.57 254.222C964.412 254.124 964.283 253.996 964.185 253.837C964.092 253.674 964.045 253.494 964.045 253.298C964.045 253.107 964.092 252.932 964.185 252.773C964.283 252.614 964.412 252.488 964.57 252.395C964.734 252.297 964.911 252.248 965.102 252.248C965.298 252.248 965.473 252.297 965.627 252.395C965.786 252.488 965.912 252.614 966.005 252.773C966.103 252.932 966.152 253.107 966.152 253.298C966.152 253.494 966.103 253.674 966.005 253.837C965.912 253.996 965.786 254.124 965.627 254.222C965.473 254.315 965.298 254.362 965.102 254.362ZM968.538 263V255.832H970.281V256.693C970.612 256.324 970.96 256.051 971.324 255.874C971.692 255.697 972.096 255.608 972.535 255.608C973.099 255.608 973.601 255.736 974.04 255.993C974.483 256.25 974.796 256.595 974.978 257.029C975.3 256.572 975.666 256.222 976.077 255.979C976.487 255.732 976.963 255.608 977.505 255.608C978.018 255.608 978.473 255.715 978.87 255.93C979.271 256.14 979.586 256.443 979.815 256.84C980.048 257.232 980.165 257.706 980.165 258.261V263H978.422V258.737C978.422 258.205 978.282 257.785 978.002 257.477C977.726 257.164 977.355 257.008 976.889 257.008C976.571 257.008 976.287 257.076 976.035 257.211C975.783 257.346 975.584 257.526 975.44 257.75C975.295 257.974 975.223 258.214 975.223 258.471V263H973.48V258.667C973.48 258.163 973.344 257.762 973.074 257.463C972.803 257.16 972.434 257.008 971.968 257.008C971.646 257.008 971.356 257.076 971.1 257.211C970.848 257.346 970.647 257.526 970.498 257.75C970.353 257.969 970.281 258.207 970.281 258.464V263H968.538ZM986.019 263.224C985.254 263.224 984.568 263.058 983.961 262.727C983.359 262.396 982.881 261.943 982.526 261.369C982.176 260.795 982.001 260.149 982.001 259.43C982.001 258.898 982.101 258.401 982.302 257.939C982.503 257.477 982.78 257.071 983.135 256.721C983.49 256.371 983.903 256.098 984.374 255.902C984.845 255.706 985.354 255.608 985.9 255.608C986.647 255.608 987.3 255.762 987.86 256.07C988.425 256.378 988.863 256.807 989.176 257.358C989.493 257.909 989.652 258.55 989.652 259.283C989.652 259.344 989.65 259.395 989.645 259.437C989.64 259.474 989.631 259.54 989.617 259.633H983.779C983.779 260.067 983.877 260.45 984.073 260.781C984.269 261.108 984.542 261.364 984.892 261.551C985.247 261.733 985.653 261.824 986.11 261.824C986.544 261.824 986.929 261.738 987.265 261.565C987.606 261.388 987.914 261.119 988.189 260.76L989.456 261.411C989.115 261.98 988.642 262.426 988.035 262.748C987.433 263.065 986.761 263.224 986.019 263.224ZM983.856 258.541H987.923C987.862 258.214 987.739 257.932 987.552 257.694C987.365 257.456 987.13 257.272 986.845 257.141C986.56 257.006 986.243 256.938 985.893 256.938C985.524 256.938 985.195 257.003 984.906 257.134C984.617 257.265 984.381 257.449 984.199 257.687C984.017 257.925 983.903 258.21 983.856 258.541ZM991.596 263V255.832H993.339V256.875C993.591 256.464 993.906 256.152 994.284 255.937C994.662 255.718 995.077 255.608 995.53 255.608C995.768 255.608 996.01 255.641 996.258 255.706C996.51 255.767 996.724 255.848 996.902 255.951L996.181 257.428C996.027 257.335 995.847 257.26 995.642 257.204C995.441 257.148 995.254 257.12 995.082 257.12C994.783 257.12 994.501 257.197 994.235 257.351C993.969 257.505 993.752 257.703 993.584 257.946C993.42 258.189 993.339 258.45 993.339 258.73V263H991.596Z" fill="white"/>
<path d="M1208.92 257.393C1208.9 257.288 1208.86 257.188 1208.79 257.101C1208.73 257.013 1208.65 256.94 1208.56 256.887L1205.76 255.293L1205.75 252.142C1205.75 252.033 1205.72 251.926 1205.68 251.827C1205.63 251.729 1205.56 251.642 1205.48 251.572C1204.47 250.713 1203.3 250.056 1202.04 249.634C1201.94 249.6 1201.84 249.588 1201.73 249.597C1201.63 249.607 1201.53 249.638 1201.43 249.689L1198.61 251.266L1195.79 249.686C1195.7 249.635 1195.6 249.603 1195.49 249.594C1195.39 249.584 1195.28 249.596 1195.18 249.63C1193.92 250.055 1192.76 250.715 1191.74 251.575C1191.66 251.645 1191.59 251.733 1191.55 251.831C1191.5 251.929 1191.48 252.036 1191.48 252.144L1191.46 255.299L1188.67 256.893C1188.57 256.946 1188.49 257.019 1188.43 257.106C1188.37 257.194 1188.32 257.293 1188.3 257.399C1188.05 258.685 1188.05 260.009 1188.3 261.295C1188.32 261.401 1188.37 261.501 1188.43 261.588C1188.49 261.676 1188.57 261.748 1188.67 261.802L1191.46 263.395L1191.48 266.548C1191.48 266.657 1191.5 266.764 1191.55 266.862C1191.59 266.961 1191.66 267.048 1191.74 267.118C1192.76 267.976 1193.92 268.634 1195.18 269.056C1195.28 269.09 1195.39 269.102 1195.49 269.092C1195.6 269.083 1195.7 269.052 1195.79 269.001L1198.61 267.419L1201.44 268.999C1201.55 269.061 1201.67 269.093 1201.8 269.093C1201.88 269.092 1201.97 269.079 1202.04 269.053C1203.3 268.628 1204.47 267.969 1205.48 267.11C1205.56 267.04 1205.63 266.953 1205.68 266.854C1205.72 266.756 1205.75 266.649 1205.75 266.541L1205.76 263.386L1208.56 261.792C1208.65 261.739 1208.73 261.666 1208.8 261.579C1208.86 261.491 1208.9 261.392 1208.92 261.286C1209.18 260.001 1209.18 258.678 1208.92 257.393ZM1198.61 263.093C1197.87 263.093 1197.15 262.873 1196.53 262.461C1195.91 262.048 1195.43 261.463 1195.15 260.778C1194.86 260.092 1194.79 259.338 1194.94 258.611C1195.08 257.883 1195.44 257.215 1195.96 256.691C1196.49 256.166 1197.15 255.809 1197.88 255.665C1198.61 255.52 1199.36 255.594 1200.05 255.878C1200.73 256.162 1201.32 256.642 1201.73 257.259C1202.14 257.876 1202.36 258.601 1202.36 259.343C1202.36 260.337 1201.97 261.291 1201.26 261.994C1200.56 262.697 1199.61 263.093 1198.61 263.093Z" fill="white"/>
<path d="M1252.77 265.634C1252.84 265.708 1252.9 265.796 1252.94 265.893C1252.98 265.99 1253 266.094 1253 266.2C1253 266.305 1252.98 266.409 1252.94 266.506C1252.9 266.603 1252.84 266.691 1252.77 266.766C1252.69 266.84 1252.6 266.899 1252.51 266.939C1252.41 266.979 1252.3 267 1252.2 267C1252.09 267 1251.99 266.979 1251.89 266.939C1251.8 266.899 1251.71 266.84 1251.63 266.766L1245 260.131L1238.37 266.766C1238.22 266.916 1238.01 267 1237.8 267C1237.59 267 1237.38 266.916 1237.23 266.766C1237.08 266.615 1237 266.412 1237 266.2C1237 265.987 1237.08 265.784 1237.23 265.634L1243.87 259L1237.23 252.366C1237.08 252.216 1237 252.013 1237 251.8C1237 251.588 1237.08 251.385 1237.23 251.234C1237.38 251.084 1237.59 251 1237.8 251C1238.01 251 1238.22 251.084 1238.37 251.234L1245 257.869L1251.63 251.234C1251.78 251.084 1251.99 251 1252.2 251C1252.41 251 1252.62 251.084 1252.77 251.234C1252.92 251.385 1253 251.588 1253 251.8C1253 252.013 1252.92 252.216 1252.77 252.366L1246.13 259L1252.77 265.634Z" fill="white" stroke="white" stroke-width="0.5"/>
<path d="M1217.5 419C1217.5 480.856 1167.36 531 1105.5 531C1043.64 531 993.5 480.856 993.5 419C993.5 357.144 1043.64 307 1105.5 307C1167.36 307 1217.5 357.144 1217.5 419ZM1006.94 419C1006.94 473.433 1051.07 517.56 1105.5 517.56C1159.93 517.56 1204.06 473.433 1204.06 419C1204.06 364.567 1159.93 320.44 1105.5 320.44C1051.07 320.44 1006.94 364.567 1006.94 419Z" fill="white" fill-opacity="0.2"/>
<path d="M1105.5 313.72C1105.5 310.009 1108.51 306.979 1112.22 307.202C1132.01 308.39 1151.17 314.816 1167.72 325.875C1186.14 338.182 1200.5 355.674 1208.97 376.139C1217.45 396.605 1219.67 419.124 1215.35 440.85C1211.03 462.576 1200.36 482.532 1184.7 498.196C1169.03 513.859 1149.08 524.526 1127.35 528.848C1105.62 533.169 1083.1 530.952 1062.64 522.475C1042.17 513.997 1024.68 499.642 1012.38 481.224C1001.32 464.672 994.89 445.507 993.702 425.716C993.479 422.012 996.509 419 1000.22 419C1003.93 419 1006.92 422.012 1007.17 425.715C1008.34 442.846 1013.97 459.416 1023.55 473.757C1034.38 489.965 1049.77 502.598 1067.78 510.058C1085.79 517.517 1105.61 519.469 1124.73 515.666C1143.85 511.863 1161.41 502.476 1175.19 488.692C1188.98 474.909 1198.36 457.347 1202.17 438.228C1205.97 419.109 1204.02 399.292 1196.56 381.283C1189.1 363.273 1176.47 347.88 1160.26 337.05C1145.92 327.468 1129.35 321.839 1112.22 320.669C1108.51 320.416 1105.5 317.431 1105.5 313.72Z" fill="url(#paint0_linear_580_12257)"/>
<path d="M1062.11 432.64C1059.42 432.64 1057.05 431.92 1055.01 430.48C1052.97 429.04 1051.38 427.033 1050.23 424.46C1049.1 421.887 1048.53 418.907 1048.53 415.52C1048.53 412.12 1049.1 409.14 1050.23 406.58C1051.38 404.007 1052.97 402 1055.01 400.56C1057.05 399.12 1059.42 398.4 1062.11 398.4C1064.81 398.4 1067.17 399.12 1069.19 400.56C1071.23 402 1072.82 404.007 1073.95 406.58C1075.1 409.14 1075.67 412.12 1075.67 415.52C1075.67 418.907 1075.1 421.887 1073.95 424.46C1072.82 427.033 1071.23 429.04 1069.19 430.48C1067.17 431.92 1064.81 432.64 1062.11 432.64ZM1062.11 426.94C1063.5 426.94 1064.69 426.48 1065.69 425.56C1066.69 424.64 1067.47 423.327 1068.01 421.62C1068.56 419.9 1068.83 417.867 1068.83 415.52C1068.83 413.16 1068.56 411.127 1068.01 409.42C1067.47 407.713 1066.69 406.4 1065.69 405.48C1064.69 404.56 1063.5 404.1 1062.11 404.1C1060.73 404.1 1059.53 404.56 1058.51 405.48C1057.51 406.4 1056.74 407.713 1056.19 409.42C1055.65 411.127 1055.37 413.16 1055.37 415.52C1055.37 417.867 1055.65 419.9 1056.19 421.62C1056.74 423.327 1057.51 424.64 1058.51 425.56C1059.53 426.48 1060.73 426.94 1062.11 426.94ZM1083.1 432L1092.9 420.38C1092.11 420.873 1091.14 421.12 1089.98 421.12C1088.62 421.12 1087.3 420.847 1086.04 420.3C1084.77 419.74 1083.64 418.953 1082.64 417.94C1081.64 416.927 1080.84 415.727 1080.26 414.34C1079.67 412.94 1079.38 411.4 1079.38 409.72C1079.38 407.613 1079.86 405.707 1080.81 404C1081.78 402.28 1083.16 400.913 1084.96 399.9C1086.76 398.873 1088.92 398.36 1091.46 398.36C1094.03 398.36 1096.28 398.887 1098.2 399.94C1100.12 400.993 1101.61 402.407 1102.68 404.18C1103.74 405.94 1104.28 407.9 1104.3 410.06C1104.3 411.353 1104.19 412.52 1103.98 413.56C1103.76 414.6 1103.44 415.573 1103 416.48C1102.57 417.387 1102.04 418.273 1101.42 419.14C1100.8 420.007 1100.1 420.913 1099.32 421.86L1090.94 432H1083.1ZM1091.78 415.52C1092.59 415.52 1093.34 415.373 1094.04 415.08C1094.74 414.773 1095.36 414.353 1095.88 413.82C1096.4 413.273 1096.8 412.64 1097.1 411.92C1097.4 411.2 1097.56 410.427 1097.56 409.6C1097.56 408.48 1097.3 407.48 1096.8 406.6C1096.3 405.72 1095.62 405.033 1094.76 404.54C1093.89 404.047 1092.9 403.8 1091.78 403.8C1090.64 403.8 1089.63 404.053 1088.74 404.56C1087.86 405.053 1087.16 405.74 1086.64 406.62C1086.13 407.487 1085.88 408.48 1085.88 409.6C1085.88 410.72 1086.13 411.727 1086.64 412.62C1087.16 413.513 1087.86 414.22 1088.76 414.74C1089.65 415.26 1090.66 415.52 1091.78 415.52ZM1113.72 416.98C1112.97 416.98 1112.3 416.8 1111.7 416.44C1111.1 416.08 1110.62 415.6 1110.26 415C1109.9 414.387 1109.72 413.713 1109.72 412.98C1109.72 412.233 1109.9 411.56 1110.26 410.96C1110.62 410.36 1111.1 409.88 1111.7 409.52C1112.3 409.16 1112.97 408.98 1113.72 408.98C1114.47 408.98 1115.14 409.16 1115.74 409.52C1116.34 409.88 1116.82 410.36 1117.18 410.96C1117.54 411.56 1117.72 412.233 1117.72 412.98C1117.72 413.713 1117.54 414.387 1117.18 415C1116.82 415.6 1116.34 416.08 1115.74 416.44C1115.14 416.8 1114.47 416.98 1113.72 416.98ZM1113.72 432.64C1112.97 432.64 1112.3 432.46 1111.7 432.1C1111.1 431.74 1110.62 431.26 1110.26 430.66C1109.9 430.047 1109.72 429.373 1109.72 428.64C1109.72 427.893 1109.9 427.22 1110.26 426.62C1110.62 426.02 1111.1 425.54 1111.7 425.18C1112.3 424.82 1112.97 424.64 1113.72 424.64C1114.47 424.64 1115.14 424.82 1115.74 425.18C1116.34 425.54 1116.82 426.02 1117.18 426.62C1117.54 427.22 1117.72 427.893 1117.72 428.64C1117.72 429.373 1117.54 430.047 1117.18 430.66C1116.82 431.26 1116.34 431.74 1115.74 432.1C1115.14 432.46 1114.47 432.64 1113.72 432.64ZM1127.5 432V405.36H1122.59V399H1133.99V432H1127.5ZM1151.26 432.6C1149.5 432.6 1147.84 432.327 1146.28 431.78C1144.72 431.233 1143.36 430.427 1142.2 429.36C1141.04 428.293 1140.18 426.987 1139.6 425.44L1144.74 422.96C1145.13 424.24 1145.9 425.267 1147.04 426.04C1148.2 426.813 1149.56 427.2 1151.12 427.2C1152.34 427.2 1153.38 426.967 1154.24 426.5C1155.12 426.02 1155.8 425.353 1156.26 424.5C1156.74 423.647 1156.98 422.667 1156.98 421.56C1156.98 420.187 1156.62 419.013 1155.9 418.04C1155.2 417.053 1154.19 416.3 1152.88 415.78C1151.59 415.247 1150.06 414.98 1148.28 414.98C1147.06 414.98 1145.89 415.147 1144.78 415.48C1143.68 415.813 1142.64 416.3 1141.68 416.94L1144.5 399H1161.34V404.68H1150.02L1149.04 411.14C1152.08 410.487 1154.82 410.7 1157.24 411.78C1158.51 412.207 1159.6 412.867 1160.52 413.76C1161.46 414.64 1162.18 415.707 1162.68 416.96C1163.2 418.213 1163.46 419.613 1163.46 421.16C1163.46 423.533 1162.92 425.58 1161.84 427.3C1160.76 429.007 1159.3 430.32 1157.46 431.24C1155.62 432.147 1153.56 432.6 1151.26 432.6Z" fill="#F4F4F5"/>
<rect x="1055.5" y="551" width="40" height="40" rx="8" fill="url(#paint1_linear_580_12257)" fill-opacity="0.2"/>
<path d="M1083.75 563.5V578.5C1083.75 578.898 1083.59 579.279 1083.31 579.561C1083.03 579.842 1082.65 580 1082.25 580H1078.5C1078.1 580 1077.72 579.842 1077.44 579.561C1077.16 579.279 1077 578.898 1077 578.5V563.5C1077 563.102 1077.16 562.721 1077.44 562.439C1077.72 562.158 1078.1 562 1078.5 562H1082.25C1082.65 562 1083.03 562.158 1083.31 562.439C1083.59 562.721 1083.75 563.102 1083.75 563.5ZM1072.5 562H1068.75C1068.35 562 1067.97 562.158 1067.69 562.439C1067.41 562.721 1067.25 563.102 1067.25 563.5V578.5C1067.25 578.898 1067.41 579.279 1067.69 579.561C1067.97 579.842 1068.35 580 1068.75 580H1072.5C1072.9 580 1073.28 579.842 1073.56 579.561C1073.84 579.279 1074 578.898 1074 578.5V563.5C1074 563.102 1073.84 562.721 1073.56 562.439C1073.28 562.158 1072.9 562 1072.5 562Z" fill="white"/>
<g clip-path="url(#clip0_580_12257)">
<path d="M1132.61 564.08C1133.48 563.82 1134.44 563.65 1135.5 563.65C1140.29 563.65 1144.17 567.53 1144.17 572.32C1144.17 577.11 1140.29 580.99 1135.5 580.99C1130.71 580.99 1126.83 577.11 1126.83 572.32C1126.83 570.54 1127.37 568.88 1128.29 567.5" stroke="white" stroke-width="1.5" stroke-linecap="round" stroke-linejoin="round"/>
<path d="M1131.37 564.32L1134.26 561" stroke="white" stroke-width="1.5" stroke-linecap="round" stroke-linejoin="round"/>
<path d="M1131.37 564.32L1134.74 566.78" stroke="white" stroke-width="1.5" stroke-linecap="round" stroke-linejoin="round"/>
</g>
<path d="M1058 628C1058 627.801 1058.08 627.61 1058.22 627.47C1058.36 627.329 1058.55 627.25 1058.75 627.25H1075.25C1075.45 627.25 1075.64 627.329 1075.78 627.47C1075.92 627.61 1076 627.801 1076 628C1076 628.199 1075.92 628.39 1075.78 628.53C1075.64 628.671 1075.45 628.75 1075.25 628.75H1058.75C1058.55 628.75 1058.36 628.671 1058.22 628.53C1058.08 628.39 1058 628.199 1058 628ZM1058.75 634.75H1075.25C1075.45 634.75 1075.64 634.671 1075.78 634.53C1075.92 634.39 1076 634.199 1076 634C1076 633.801 1075.92 633.61 1075.78 633.47C1075.64 633.329 1075.45 633.25 1075.25 633.25H1058.75C1058.55 633.25 1058.36 633.329 1058.22 633.47C1058.08 633.61 1058 633.801 1058 634C1058 634.199 1058.08 634.39 1058.22 634.53C1058.36 634.671 1058.55 634.75 1058.75 634.75ZM1068.5 639.25H1058.75C1058.55 639.25 1058.36 639.329 1058.22 639.47C1058.08 639.61 1058 639.801 1058 640C1058 640.199 1058.08 640.39 1058.22 640.53C1058.36 640.671 1058.55 640.75 1058.75 640.75H1068.5C1068.7 640.75 1068.89 640.671 1069.03 640.53C1069.17 640.39 1069.25 640.199 1069.25 640C1069.25 639.801 1069.17 639.61 1069.03 639.47C1068.89 639.329 1068.7 639.25 1068.5 639.25ZM1076.75 639.25H1075.25V637.75C1075.25 637.551 1075.17 637.36 1075.03 637.22C1074.89 637.079 1074.7 637 1074.5 637C1074.3 637 1074.11 637.079 1073.97 637.22C1073.83 637.36 1073.75 637.551 1073.75 637.75V639.25H1072.25C1072.05 639.25 1071.86 639.329 1071.72 639.47C1071.58 639.61 1071.5 639.801 1071.5 640C1071.5 640.199 1071.58 640.39 1071.72 640.53C1071.86 640.671 1072.05 640.75 1072.25 640.75H1073.75V642.25C1073.75 642.449 1073.83 642.64 1073.97 642.78C1074.11 642.921 1074.3 643 1074.5 643C1074.7 643 1074.89 642.921 1075.03 642.78C1075.17 642.64 1075.25 642.449 1075.25 642.25V640.75H1076.75C1076.95 640.75 1077.14 640.671 1077.28 640.53C1077.42 640.39 1077.5 640.199 1077.5 640C1077.5 639.801 1077.42 639.61 1077.28 639.47C1077.14 639.329 1076.95 639.25 1076.75 639.25Z" fill="url(#paint2_linear_580_12257)"/>
<path d="M1089.36 640L1093.96 628.45H1095.66L1100.27 640H1098.3L1097.16 636.99H1092.47L1091.33 640H1089.36ZM1093.1 635.38H1096.54L1094.81 630.914L1093.1 635.38ZM1104.78 640.224C1104.13 640.224 1103.53 640.061 1102.99 639.734C1102.45 639.407 1102.02 638.957 1101.71 638.383C1101.39 637.809 1101.24 637.153 1101.24 636.416C1101.24 635.683 1101.39 635.032 1101.7 634.463C1102.01 633.889 1102.44 633.436 1102.97 633.105C1103.51 632.774 1104.13 632.608 1104.82 632.608C1105.37 632.608 1105.88 632.725 1106.34 632.958C1106.8 633.191 1107.18 633.516 1107.46 633.931V627.953H1109.2V640H1107.46V638.852C1107.15 639.281 1106.76 639.617 1106.29 639.86C1105.83 640.103 1105.32 640.224 1104.78 640.224ZM1105.28 638.733C1105.72 638.733 1106.1 638.635 1106.43 638.439C1106.77 638.238 1107.03 637.965 1107.22 637.62C1107.41 637.27 1107.51 636.871 1107.51 636.423C1107.51 635.975 1107.41 635.576 1107.22 635.226C1107.03 634.871 1106.77 634.596 1106.43 634.4C1106.1 634.199 1105.72 634.099 1105.28 634.099C1104.86 634.099 1104.48 634.199 1104.14 634.4C1103.81 634.596 1103.54 634.871 1103.35 635.226C1103.16 635.576 1103.06 635.977 1103.06 636.43C1103.06 636.873 1103.16 637.27 1103.34 637.62C1103.54 637.965 1103.8 638.238 1104.13 638.439C1104.47 638.635 1104.85 638.733 1105.28 638.733ZM1114.7 640.224C1114.05 640.224 1113.45 640.061 1112.91 639.734C1112.37 639.407 1111.94 638.957 1111.63 638.383C1111.31 637.809 1111.16 637.153 1111.16 636.416C1111.16 635.683 1111.31 635.032 1111.62 634.463C1111.93 633.889 1112.36 633.436 1112.89 633.105C1113.43 632.774 1114.05 632.608 1114.74 632.608C1115.29 632.608 1115.8 632.725 1116.26 632.958C1116.72 633.191 1117.1 633.516 1117.38 633.931V627.953H1119.12V640H1117.38V638.852C1117.07 639.281 1116.68 639.617 1116.21 639.86C1115.75 640.103 1115.25 640.224 1114.7 640.224ZM1115.2 638.733C1115.64 638.733 1116.02 638.635 1116.35 638.439C1116.69 638.238 1116.95 637.965 1117.14 637.62C1117.33 637.27 1117.43 636.871 1117.43 636.423C1117.43 635.975 1117.33 635.576 1117.14 635.226C1116.95 634.871 1116.69 634.596 1116.35 634.4C1116.02 634.199 1115.64 634.099 1115.2 634.099C1114.78 634.099 1114.4 634.199 1114.06 634.4C1113.73 634.596 1113.46 634.871 1113.27 635.226C1113.08 635.576 1112.98 635.977 1112.98 636.43C1112.98 636.873 1113.08 637.27 1113.26 637.62C1113.46 637.965 1113.72 638.238 1114.06 638.439C1114.39 638.635 1114.77 638.733 1115.2 638.733ZM1127.34 640.224C1126.69 640.224 1126.18 640.014 1125.82 639.594C1125.46 639.174 1125.28 638.584 1125.28 637.823V634.155H1124.41V632.832H1125.28V630.151H1127.02V632.832H1128.68V634.155H1127.02V637.704C1127.02 638.017 1127.09 638.257 1127.21 638.425C1127.34 638.588 1127.52 638.67 1127.75 638.67C1127.99 638.67 1128.22 638.595 1128.42 638.446L1128.86 639.839C1128.65 639.96 1128.41 640.054 1128.14 640.119C1127.87 640.189 1127.6 640.224 1127.34 640.224ZM1133.63 640.224C1132.97 640.224 1132.37 640.061 1131.83 639.734C1131.29 639.403 1130.86 638.95 1130.55 638.376C1130.23 637.802 1130.08 637.146 1130.08 636.409C1130.08 635.681 1130.23 635.032 1130.53 634.463C1130.84 633.889 1131.26 633.436 1131.8 633.105C1132.34 632.774 1132.95 632.608 1133.63 632.608C1134.19 632.608 1134.71 632.725 1135.18 632.958C1135.65 633.191 1136.03 633.516 1136.3 633.931V632.832H1138.04V640H1136.3V638.852C1135.98 639.286 1135.59 639.624 1135.13 639.867C1134.68 640.105 1134.18 640.224 1133.63 640.224ZM1134.13 638.733C1134.57 638.733 1134.95 638.635 1135.28 638.439C1135.61 638.238 1135.87 637.963 1136.06 637.613C1136.25 637.263 1136.35 636.864 1136.35 636.416C1136.35 635.963 1136.25 635.564 1136.06 635.219C1135.87 634.869 1135.61 634.596 1135.28 634.4C1134.95 634.199 1134.57 634.099 1134.13 634.099C1133.7 634.099 1133.32 634.199 1132.98 634.4C1132.65 634.596 1132.38 634.869 1132.19 635.219C1132 635.569 1131.91 635.968 1131.91 636.416C1131.91 636.864 1132 637.263 1132.19 637.613C1132.38 637.963 1132.65 638.238 1132.98 638.439C1133.32 638.635 1133.7 638.733 1134.13 638.733ZM1142.46 640.224C1141.86 640.224 1141.32 640.112 1140.85 639.888C1140.38 639.659 1140 639.333 1139.71 638.908L1140.48 637.774C1140.75 638.138 1141.06 638.42 1141.39 638.621C1141.73 638.822 1142.09 638.922 1142.45 638.922C1142.67 638.922 1142.87 638.882 1143.05 638.803C1143.22 638.719 1143.36 638.6 1143.46 638.446C1143.56 638.287 1143.61 638.101 1143.61 637.886C1143.61 637.662 1143.55 637.487 1143.44 637.361C1143.32 637.235 1143.15 637.121 1142.91 637.018C1142.68 636.915 1142.39 636.794 1142.03 636.654C1141.73 636.528 1141.45 636.388 1141.18 636.234C1140.91 636.08 1140.68 635.886 1140.5 635.653C1140.33 635.415 1140.25 635.114 1140.25 634.75C1140.25 634.335 1140.36 633.966 1140.59 633.644C1140.82 633.322 1141.14 633.07 1141.54 632.888C1141.95 632.706 1142.41 632.615 1142.93 632.615C1143.3 632.615 1143.68 632.683 1144.05 632.818C1144.43 632.949 1144.81 633.14 1145.19 633.392L1144.56 634.491C1144.01 634.038 1143.47 633.812 1142.94 633.812C1142.63 633.812 1142.38 633.887 1142.18 634.036C1142 634.185 1141.9 634.377 1141.9 634.61C1141.9 634.801 1141.99 634.965 1142.15 635.1C1142.31 635.235 1142.52 635.354 1142.76 635.457C1143 635.56 1143.24 635.658 1143.49 635.751C1143.87 635.891 1144.21 636.04 1144.49 636.199C1144.78 636.358 1145.01 636.563 1145.17 636.815C1145.34 637.067 1145.42 637.403 1145.42 637.823C1145.42 638.327 1145.3 638.759 1145.05 639.118C1144.82 639.477 1144.48 639.753 1144.03 639.944C1143.59 640.131 1143.06 640.224 1142.46 640.224ZM1147.36 640V627.96H1149.1V635.569L1151.83 632.832H1154.09L1150.67 636.297L1154.25 640H1152.01L1149.1 636.962V640H1147.36Z" fill="url(#paint3_linear_580_12257)"/>
<rect x="956" y="611.5" width="299" height="45" rx="7.5" stroke="white" stroke-opacity="0.25"/>
</g>
<g filter="url(#filter1_f_580_12257)">
<circle cx="1267" cy="789" r="191" fill="#F98754"/>
</g>
<g filter="url(#filter2_f_580_12257)">
<circle cx="791" cy="473" r="191" fill="#64D171"/>
</g>
<defs>
<filter id="filter0_d_580_12257" x="822" y="199" width="487" height="590" filterUnits="userSpaceOnUse" color-interpolation-filters="sRGB">
<feFlood flood-opacity="0" result="BackgroundImageFix"/>
<feColorMatrix in="SourceAlpha" type="matrix" values="0 0 0 0 0 0 0 0 0 0 0 0 0 0 0 0 0 0 127 0" result="hardAlpha"/>
<feMorphology radius="8" operator="erode" in="SourceAlpha" result="effect1_dropShadow_580_12257"/>
<feOffset dx="-40" dy="40"/>
<feGaussianBlur stdDeviation="40"/>
<feColorMatrix type="matrix" values="0 0 0 0 0.568627 0 0 0 0 0.619608 0 0 0 0 0.670588 0 0 0 0.24 0"/>
<feBlend mode="normal" in2="BackgroundImageFix" result="effect1_dropShadow_580_12257"/>
<feBlend mode="normal" in="SourceGraphic" in2="effect1_dropShadow_580_12257" result="shape"/>
</filter>
<filter id="filter1_f_580_12257" x="476" y="-2" width="1582" height="1582" filterUnits="userSpaceOnUse" color-interpolation-filters="sRGB">
<feFlood flood-opacity="0" result="BackgroundImageFix"/>
<feBlend mode="normal" in="SourceGraphic" in2="BackgroundImageFix" result="shape"/>
<feGaussianBlur stdDeviation="300" result="effect1_foregroundBlur_580_12257"/>
</filter>
<filter id="filter2_f_580_12257" x="0" y="-318" width="1582" height="1582" filterUnits="userSpaceOnUse" color-interpolation-filters="sRGB">
<feFlood flood-opacity="0" result="BackgroundImageFix"/>
<feBlend mode="normal" in="SourceGraphic" in2="BackgroundImageFix" result="shape"/>
<feGaussianBlur stdDeviation="300" result="effect1_foregroundBlur_580_12257"/>
</filter>
<linearGradient id="paint0_linear_580_12257" x1="993.5" y1="307" x2="1217.5" y2="531" gradientUnits="userSpaceOnUse">
<stop stop-color="#FB923C"/>
<stop offset="1" stop-color="#F87171"/>
</linearGradient>
<linearGradient id="paint1_linear_580_12257" x1="1055.5" y1="551" x2="1095.5" y2="591" gradientUnits="userSpaceOnUse">
<stop stop-color="#FB923C"/>
<stop offset="1" stop-color="#F87171"/>
</linearGradient>
<linearGradient id="paint2_linear_580_12257" x1="1058" y1="627.25" x2="1073.4" y2="646.314" gradientUnits="userSpaceOnUse">
<stop stop-color="#FB923C"/>
<stop offset="1" stop-color="#F87171"/>
</linearGradient>
<linearGradient id="paint3_linear_580_12257" x1="1089" y1="628" x2="1093.16" y2="651.254" gradientUnits="userSpaceOnUse">
<stop stop-color="#FB923C"/>
<stop offset="1" stop-color="#F87171"/>
</linearGradient>
<clipPath id="clip0_580_12257">
<rect width="24" height="24" fill="white" transform="translate(1123.5 559)"/>
</clipPath>
</defs>
</svg>
