<svg width="487" height="590" viewBox="0 0 487 590" fill="none" xmlns="http://www.w3.org/2000/svg">
<g filter="url(#filter0_d_564_12340)">
<rect x="112" y="32" width="343" height="446" rx="16" fill="#231526"/>
<path d="M135.598 64V54.081H132.455V52.45H140.575V54.081H137.425V64H135.598ZM142.227 64V56.832H143.97V64H142.227ZM143.102 55.362C142.911 55.362 142.734 55.3153 142.57 55.222C142.412 55.124 142.283 54.9957 142.185 54.837C142.092 54.6737 142.045 54.494 142.045 54.298C142.045 54.1067 142.092 53.9317 142.185 53.773C142.283 53.6143 142.412 53.4883 142.57 53.395C142.734 53.297 142.911 53.248 143.102 53.248C143.298 53.248 143.473 53.297 143.627 53.395C143.786 53.4883 143.912 53.6143 144.005 53.773C144.103 53.9317 144.152 54.1067 144.152 54.298C144.152 54.494 144.103 54.6737 144.005 54.837C143.912 54.9957 143.786 55.124 143.627 55.222C143.473 55.3153 143.298 55.362 143.102 55.362ZM146.538 64V56.832H148.281V57.693C148.612 57.3243 148.96 57.0513 149.324 56.874C149.692 56.6967 150.096 56.608 150.535 56.608C151.099 56.608 151.601 56.7363 152.04 56.993C152.483 57.2497 152.796 57.595 152.978 58.029C153.3 57.5717 153.666 57.2217 154.077 56.979C154.487 56.7317 154.963 56.608 155.505 56.608C156.018 56.608 156.473 56.7153 156.87 56.93C157.271 57.14 157.586 57.4433 157.815 57.84C158.048 58.232 158.165 58.7057 158.165 59.261V64H156.422V59.737C156.422 59.205 156.282 58.785 156.002 58.477C155.726 58.1643 155.355 58.008 154.889 58.008C154.571 58.008 154.287 58.0757 154.035 58.211C153.783 58.3463 153.584 58.526 153.44 58.75C153.295 58.974 153.223 59.2143 153.223 59.471V64H151.48V59.667C151.48 59.163 151.344 58.7617 151.074 58.463C150.803 58.1597 150.434 58.008 149.968 58.008C149.646 58.008 149.356 58.0757 149.1 58.211C148.848 58.3463 148.647 58.526 148.498 58.75C148.353 58.9693 148.281 59.2073 148.281 59.464V64H146.538ZM164.019 64.224C163.254 64.224 162.568 64.0583 161.961 63.727C161.359 63.3957 160.881 62.943 160.526 62.369C160.176 61.795 160.001 61.1487 160.001 60.43C160.001 59.898 160.101 59.401 160.302 58.939C160.503 58.477 160.78 58.071 161.135 57.721C161.49 57.371 161.903 57.098 162.374 56.902C162.845 56.706 163.354 56.608 163.9 56.608C164.647 56.608 165.3 56.762 165.86 57.07C166.425 57.378 166.863 57.8073 167.176 58.358C167.493 58.9087 167.652 59.5503 167.652 60.283C167.652 60.3437 167.65 60.395 167.645 60.437C167.64 60.4743 167.631 60.5397 167.617 60.633H161.779C161.779 61.067 161.877 61.4497 162.073 61.781C162.269 62.1077 162.542 62.3643 162.892 62.551C163.247 62.733 163.653 62.824 164.11 62.824C164.544 62.824 164.929 62.7377 165.265 62.565C165.606 62.3877 165.914 62.1193 166.189 61.76L167.456 62.411C167.115 62.9803 166.642 63.426 166.035 63.748C165.433 64.0653 164.761 64.224 164.019 64.224ZM161.856 59.541H165.923C165.862 59.2143 165.739 58.932 165.552 58.694C165.365 58.456 165.13 58.2717 164.845 58.141C164.56 58.0057 164.243 57.938 163.893 57.938C163.524 57.938 163.195 58.0033 162.906 58.134C162.617 58.2647 162.381 58.449 162.199 58.687C162.017 58.925 161.903 59.2097 161.856 59.541ZM169.596 64V56.832H171.339V57.875C171.591 57.4643 171.906 57.1517 172.284 56.937C172.662 56.7177 173.077 56.608 173.53 56.608C173.768 56.608 174.01 56.6407 174.258 56.706C174.51 56.7667 174.724 56.8483 174.902 56.951L174.181 58.428C174.027 58.3347 173.847 58.26 173.642 58.204C173.441 58.148 173.254 58.12 173.082 58.12C172.783 58.12 172.501 58.197 172.235 58.351C171.969 58.505 171.752 58.7033 171.584 58.946C171.42 59.1887 171.339 59.45 171.339 59.73V64H169.596Z" fill="white"/>
<path d="M386.92 58.3934C386.899 58.2878 386.856 58.188 386.793 58.1006C386.73 58.0132 386.649 57.9405 386.555 57.8872L383.759 56.2934L383.747 53.1416C383.747 53.033 383.723 52.9258 383.677 52.8274C383.632 52.729 383.565 52.6417 383.482 52.5716C382.468 51.7135 381.3 51.0559 380.04 50.6338C379.94 50.6002 379.835 50.5878 379.731 50.5973C379.627 50.6068 379.526 50.6381 379.434 50.6891L376.613 52.2659L373.789 50.6863C373.698 50.635 373.597 50.6035 373.492 50.5938C373.388 50.5841 373.282 50.5964 373.183 50.63C371.924 51.0548 370.757 51.715 369.744 52.5753C369.661 52.6454 369.595 52.7325 369.549 52.8308C369.503 52.929 369.479 53.036 369.479 53.1444L369.465 56.2991L366.668 57.8928C366.575 57.9461 366.494 58.0189 366.431 58.1062C366.368 58.1936 366.324 58.2935 366.303 58.3991C366.047 59.6852 366.047 61.0092 366.303 62.2953C366.324 62.4009 366.368 62.5008 366.431 62.5882C366.494 62.6755 366.575 62.7483 366.668 62.8016L369.465 64.3953L369.476 67.5481C369.476 67.6567 369.5 67.7639 369.546 67.8623C369.592 67.9607 369.658 68.048 369.741 68.1181C370.756 68.9762 371.924 69.6338 373.184 70.0559C373.283 70.0895 373.388 70.102 373.492 70.0924C373.597 70.0829 373.698 70.0516 373.789 70.0006L376.613 68.4191L379.437 69.9988C379.549 70.061 379.675 70.0933 379.802 70.0925C379.884 70.0925 379.966 70.0792 380.043 70.0531C381.302 69.6285 382.469 68.969 383.482 68.1097C383.565 68.0397 383.631 67.9525 383.677 67.8543C383.723 67.756 383.747 67.649 383.747 67.5406L383.762 64.3859L386.558 62.7922C386.652 62.7389 386.733 62.6662 386.796 62.5788C386.859 62.4914 386.902 62.3916 386.923 62.2859C387.177 61.0008 387.176 59.6782 386.92 58.3934ZM376.613 64.0925C375.871 64.0925 375.146 63.8726 374.53 63.4605C373.913 63.0485 373.432 62.4628 373.149 61.7776C372.865 61.0924 372.79 60.3384 372.935 59.6109C373.08 58.8835 373.437 58.2153 373.961 57.6909C374.486 57.1664 375.154 56.8093 375.882 56.6646C376.609 56.5199 377.363 56.5941 378.048 56.878C378.733 57.1618 379.319 57.6424 379.731 58.2591C380.143 58.8758 380.363 59.6008 380.363 60.3425C380.363 61.3371 379.968 62.2909 379.265 62.9942C378.561 63.6974 377.608 64.0925 376.613 64.0925Z" fill="white"/>
<path d="M430.766 66.6336C430.84 66.708 430.899 66.7962 430.939 66.8933C430.979 66.9904 431 67.0945 431 67.1996C431 67.3047 430.979 67.4088 430.939 67.5059C430.899 67.603 430.84 67.6912 430.766 67.7656C430.691 67.8399 430.603 67.8988 430.506 67.9391C430.409 67.9793 430.305 68 430.2 68C430.094 68 429.99 67.9793 429.893 67.9391C429.796 67.8988 429.708 67.8399 429.634 67.7656L423 61.1309L416.366 67.7656C416.216 67.9157 416.013 68 415.8 68C415.588 68 415.385 67.9157 415.234 67.7656C415.084 67.6155 415 67.4119 415 67.1996C415 66.9873 415.084 66.7837 415.234 66.6336L421.869 60L415.234 53.3664C415.084 53.2163 415 53.0127 415 52.8004C415 52.5881 415.084 52.3845 415.234 52.2344C415.385 52.0843 415.588 52 415.8 52C416.013 52 416.216 52.0843 416.366 52.2344L423 58.8691L429.634 52.2344C429.784 52.0843 429.987 52 430.2 52C430.412 52 430.615 52.0843 430.766 52.2344C430.916 52.3845 431 52.5881 431 52.8004C431 53.0127 430.916 53.2163 430.766 53.3664L424.131 60L430.766 66.6336Z" fill="white" stroke="white" stroke-width="0.5"/>
<path d="M395.5 220C395.5 281.856 345.356 332 283.5 332C221.644 332 171.5 281.856 171.5 220C171.5 158.144 221.644 108 283.5 108C345.356 108 395.5 158.144 395.5 220ZM184.94 220C184.94 274.433 229.067 318.56 283.5 318.56C337.933 318.56 382.06 274.433 382.06 220C382.06 165.567 337.933 121.44 283.5 121.44C229.067 121.44 184.94 165.567 184.94 220Z" fill="white" fill-opacity="0.2"/>
<path d="M283.5 114.72C283.5 111.009 286.512 107.979 290.216 108.202C310.007 109.39 329.172 115.816 345.724 126.875C364.142 139.182 378.497 156.674 386.975 177.139C395.452 197.605 397.669 220.124 393.348 241.85C389.026 263.576 378.359 283.532 362.696 299.196C347.032 314.859 327.076 325.526 305.35 329.848C283.624 334.169 261.105 331.952 240.639 323.475C220.174 314.997 202.682 300.642 190.375 282.224C179.316 265.672 172.89 246.507 171.702 226.716C171.479 223.012 174.509 220 178.22 220C181.931 220 184.916 223.012 185.169 226.715C186.339 243.846 191.968 260.416 201.55 274.757C212.38 290.965 227.773 303.598 245.783 311.058C263.792 318.517 283.609 320.469 302.728 316.666C321.847 312.863 339.409 303.476 353.192 289.692C366.976 275.909 376.363 258.347 380.166 239.228C383.969 220.109 382.017 200.292 374.558 182.283C367.098 164.273 354.465 148.88 338.257 138.05C323.916 128.468 307.346 122.839 290.215 121.669C286.512 121.416 283.5 118.431 283.5 114.72Z" fill="url(#paint0_linear_564_12340)"/>
<path d="M240.113 233.64C237.419 233.64 235.053 232.92 233.013 231.48C230.973 230.04 229.379 228.033 228.233 225.46C227.099 222.887 226.533 219.907 226.533 216.52C226.533 213.12 227.099 210.14 228.233 207.58C229.379 205.007 230.973 203 233.013 201.56C235.053 200.12 237.419 199.4 240.113 199.4C242.806 199.4 245.166 200.12 247.193 201.56C249.233 203 250.819 205.007 251.953 207.58C253.099 210.14 253.673 213.12 253.673 216.52C253.673 219.907 253.099 222.887 251.953 225.46C250.819 228.033 249.233 230.04 247.193 231.48C245.166 232.92 242.806 233.64 240.113 233.64ZM240.113 227.94C241.499 227.94 242.693 227.48 243.693 226.56C244.693 225.64 245.466 224.327 246.013 222.62C246.559 220.9 246.833 218.867 246.833 216.52C246.833 214.16 246.559 212.127 246.013 210.42C245.466 208.713 244.693 207.4 243.693 206.48C242.693 205.56 241.499 205.1 240.113 205.1C238.726 205.1 237.526 205.56 236.513 206.48C235.513 207.4 234.739 208.713 234.193 210.42C233.646 212.127 233.373 214.16 233.373 216.52C233.373 218.867 233.646 220.9 234.193 222.62C234.739 224.327 235.513 225.64 236.513 226.56C237.526 227.48 238.726 227.94 240.113 227.94ZM261.095 233L270.895 221.38C270.108 221.873 269.135 222.12 267.975 222.12C266.615 222.12 265.302 221.847 264.035 221.3C262.768 220.74 261.635 219.953 260.635 218.94C259.635 217.927 258.842 216.727 258.255 215.34C257.668 213.94 257.375 212.4 257.375 210.72C257.375 208.613 257.855 206.707 258.815 205C259.775 203.28 261.155 201.913 262.955 200.9C264.755 199.873 266.922 199.36 269.455 199.36C272.028 199.36 274.275 199.887 276.195 200.94C278.115 201.993 279.608 203.407 280.675 205.18C281.742 206.94 282.282 208.9 282.295 211.06C282.295 212.353 282.188 213.52 281.975 214.56C281.762 215.6 281.435 216.573 280.995 217.48C280.568 218.387 280.042 219.273 279.415 220.14C278.802 221.007 278.102 221.913 277.315 222.86L268.935 233H261.095ZM269.775 216.52C270.588 216.52 271.342 216.373 272.035 216.08C272.742 215.773 273.355 215.353 273.875 214.82C274.395 214.273 274.802 213.64 275.095 212.92C275.402 212.2 275.555 211.427 275.555 210.6C275.555 209.48 275.302 208.48 274.795 207.6C274.302 206.72 273.622 206.033 272.755 205.54C271.888 205.047 270.895 204.8 269.775 204.8C268.642 204.8 267.628 205.053 266.735 205.56C265.855 206.053 265.155 206.74 264.635 207.62C264.128 208.487 263.875 209.48 263.875 210.6C263.875 211.72 264.128 212.727 264.635 213.62C265.155 214.513 265.862 215.22 266.755 215.74C267.648 216.26 268.655 216.52 269.775 216.52ZM291.721 217.98C290.974 217.98 290.301 217.8 289.701 217.44C289.101 217.08 288.621 216.6 288.261 216C287.901 215.387 287.721 214.713 287.721 213.98C287.721 213.233 287.901 212.56 288.261 211.96C288.621 211.36 289.101 210.88 289.701 210.52C290.301 210.16 290.974 209.98 291.721 209.98C292.468 209.98 293.141 210.16 293.741 210.52C294.341 210.88 294.821 211.36 295.181 211.96C295.541 212.56 295.721 213.233 295.721 213.98C295.721 214.713 295.541 215.387 295.181 216C294.821 216.6 294.341 217.08 293.741 217.44C293.141 217.8 292.468 217.98 291.721 217.98ZM291.721 233.64C290.974 233.64 290.301 233.46 289.701 233.1C289.101 232.74 288.621 232.26 288.261 231.66C287.901 231.047 287.721 230.373 287.721 229.64C287.721 228.893 287.901 228.22 288.261 227.62C288.621 227.02 289.101 226.54 289.701 226.18C290.301 225.82 290.974 225.64 291.721 225.64C292.468 225.64 293.141 225.82 293.741 226.18C294.341 226.54 294.821 227.02 295.181 227.62C295.541 228.22 295.721 228.893 295.721 229.64C295.721 230.373 295.541 231.047 295.181 231.66C294.821 232.26 294.341 232.74 293.741 233.1C293.141 233.46 292.468 233.64 291.721 233.64ZM305.505 233V206.36H300.585V200H311.985V233H305.505ZM329.265 233.6C327.505 233.6 325.845 233.327 324.285 232.78C322.725 232.233 321.365 231.427 320.205 230.36C319.045 229.293 318.178 227.987 317.605 226.44L322.745 223.96C323.131 225.24 323.898 226.267 325.045 227.04C326.205 227.813 327.565 228.2 329.125 228.2C330.338 228.2 331.378 227.967 332.245 227.5C333.125 227.02 333.798 226.353 334.265 225.5C334.745 224.647 334.985 223.667 334.985 222.56C334.985 221.187 334.625 220.013 333.905 219.04C333.198 218.053 332.191 217.3 330.885 216.78C329.591 216.247 328.058 215.98 326.285 215.98C325.058 215.98 323.891 216.147 322.785 216.48C321.678 216.813 320.645 217.3 319.685 217.94L322.505 200H339.345V205.68H328.025L327.045 212.14C330.085 211.487 332.818 211.7 335.245 212.78C336.511 213.207 337.605 213.867 338.525 214.76C339.458 215.64 340.178 216.707 340.685 217.96C341.205 219.213 341.465 220.613 341.465 222.16C341.465 224.533 340.925 226.58 339.845 228.3C338.765 230.007 337.305 231.32 335.465 232.24C333.625 233.147 331.558 233.6 329.265 233.6Z" fill="#F4F4F5"/>
<rect x="233.5" y="352" width="40" height="40" rx="8" fill="url(#paint1_linear_564_12340)" fill-opacity="0.2"/>
<path d="M261.75 364.5V379.5C261.75 379.898 261.592 380.279 261.311 380.561C261.029 380.842 260.648 381 260.25 381H256.5C256.102 381 255.721 380.842 255.439 380.561C255.158 380.279 255 379.898 255 379.5V364.5C255 364.102 255.158 363.721 255.439 363.439C255.721 363.158 256.102 363 256.5 363H260.25C260.648 363 261.029 363.158 261.311 363.439C261.592 363.721 261.75 364.102 261.75 364.5ZM250.5 363H246.75C246.352 363 245.971 363.158 245.689 363.439C245.408 363.721 245.25 364.102 245.25 364.5V379.5C245.25 379.898 245.408 380.279 245.689 380.561C245.971 380.842 246.352 381 246.75 381H250.5C250.898 381 251.279 380.842 251.561 380.561C251.842 380.279 252 379.898 252 379.5V364.5C252 364.102 251.842 363.721 251.561 363.439C251.279 363.158 250.898 363 250.5 363Z" fill="white"/>
<g clip-path="url(#clip0_564_12340)">
<path d="M310.61 365.08C311.48 364.82 312.44 364.65 313.5 364.65C318.29 364.65 322.17 368.53 322.17 373.32C322.17 378.11 318.29 381.99 313.5 381.99C308.71 381.99 304.83 378.11 304.83 373.32C304.83 371.54 305.37 369.88 306.29 368.5" stroke="white" stroke-width="1.5" stroke-linecap="round" stroke-linejoin="round"/>
<path d="M309.37 365.32L312.26 362" stroke="white" stroke-width="1.5" stroke-linecap="round" stroke-linejoin="round"/>
<path d="M309.37 365.32L312.74 367.78" stroke="white" stroke-width="1.5" stroke-linecap="round" stroke-linejoin="round"/>
</g>
<path d="M236 429C236 428.801 236.079 428.61 236.22 428.47C236.36 428.329 236.551 428.25 236.75 428.25H253.25C253.449 428.25 253.64 428.329 253.78 428.47C253.921 428.61 254 428.801 254 429C254 429.199 253.921 429.39 253.78 429.53C253.64 429.671 253.449 429.75 253.25 429.75H236.75C236.551 429.75 236.36 429.671 236.22 429.53C236.079 429.39 236 429.199 236 429ZM236.75 435.75H253.25C253.449 435.75 253.64 435.671 253.78 435.53C253.921 435.39 254 435.199 254 435C254 434.801 253.921 434.61 253.78 434.47C253.64 434.329 253.449 434.25 253.25 434.25H236.75C236.551 434.25 236.36 434.329 236.22 434.47C236.079 434.61 236 434.801 236 435C236 435.199 236.079 435.39 236.22 435.53C236.36 435.671 236.551 435.75 236.75 435.75ZM246.5 440.25H236.75C236.551 440.25 236.36 440.329 236.22 440.47C236.079 440.61 236 440.801 236 441C236 441.199 236.079 441.39 236.22 441.53C236.36 441.671 236.551 441.75 236.75 441.75H246.5C246.699 441.75 246.89 441.671 247.03 441.53C247.171 441.39 247.25 441.199 247.25 441C247.25 440.801 247.171 440.61 247.03 440.47C246.89 440.329 246.699 440.25 246.5 440.25ZM254.75 440.25H253.25V438.75C253.25 438.551 253.171 438.36 253.03 438.22C252.89 438.079 252.699 438 252.5 438C252.301 438 252.11 438.079 251.97 438.22C251.829 438.36 251.75 438.551 251.75 438.75V440.25H250.25C250.051 440.25 249.86 440.329 249.72 440.47C249.579 440.61 249.5 440.801 249.5 441C249.5 441.199 249.579 441.39 249.72 441.53C249.86 441.671 250.051 441.75 250.25 441.75H251.75V443.25C251.75 443.449 251.829 443.64 251.97 443.78C252.11 443.921 252.301 444 252.5 444C252.699 444 252.89 443.921 253.03 443.78C253.171 443.64 253.25 443.449 253.25 443.25V441.75H254.75C254.949 441.75 255.14 441.671 255.28 441.53C255.421 441.39 255.5 441.199 255.5 441C255.5 440.801 255.421 440.61 255.28 440.47C255.14 440.329 254.949 440.25 254.75 440.25Z" fill="url(#paint2_linear_564_12340)"/>
<path d="M267.364 441L271.963 429.45H273.664L278.27 441H276.296L275.162 437.99H270.472L269.331 441H267.364ZM271.095 436.38H274.539L272.81 431.914L271.095 436.38ZM282.779 441.224C282.125 441.224 281.528 441.061 280.987 440.734C280.45 440.407 280.023 439.957 279.706 439.383C279.393 438.809 279.237 438.153 279.237 437.416C279.237 436.683 279.391 436.032 279.699 435.463C280.011 434.889 280.436 434.436 280.973 434.105C281.514 433.774 282.13 433.608 282.821 433.608C283.371 433.608 283.878 433.725 284.34 433.958C284.802 434.191 285.175 434.516 285.46 434.931V428.953H287.203V441H285.46V439.852C285.147 440.281 284.757 440.617 284.291 440.86C283.829 441.103 283.325 441.224 282.779 441.224ZM283.283 439.733C283.717 439.733 284.099 439.635 284.431 439.439C284.767 439.238 285.03 438.965 285.222 438.62C285.413 438.27 285.509 437.871 285.509 437.423C285.509 436.975 285.413 436.576 285.222 436.226C285.03 435.871 284.767 435.596 284.431 435.4C284.099 435.199 283.717 435.099 283.283 435.099C282.858 435.099 282.478 435.199 282.142 435.4C281.806 435.596 281.542 435.871 281.351 436.226C281.159 436.576 281.064 436.977 281.064 437.43C281.064 437.873 281.157 438.27 281.344 438.62C281.535 438.965 281.799 439.238 282.135 439.439C282.471 439.635 282.853 439.733 283.283 439.733ZM292.7 441.224C292.046 441.224 291.449 441.061 290.908 440.734C290.371 440.407 289.944 439.957 289.627 439.383C289.314 438.809 289.158 438.153 289.158 437.416C289.158 436.683 289.312 436.032 289.62 435.463C289.932 434.889 290.357 434.436 290.894 434.105C291.435 433.774 292.051 433.608 292.742 433.608C293.292 433.608 293.799 433.725 294.261 433.958C294.723 434.191 295.096 434.516 295.381 434.931V428.953H297.124V441H295.381V439.852C295.068 440.281 294.678 440.617 294.212 440.86C293.75 441.103 293.246 441.224 292.7 441.224ZM293.204 439.733C293.638 439.733 294.02 439.635 294.352 439.439C294.688 439.238 294.951 438.965 295.143 438.62C295.334 438.27 295.43 437.871 295.43 437.423C295.43 436.975 295.334 436.576 295.143 436.226C294.951 435.871 294.688 435.596 294.352 435.4C294.02 435.199 293.638 435.099 293.204 435.099C292.779 435.099 292.399 435.199 292.063 435.4C291.727 435.596 291.463 435.871 291.272 436.226C291.08 436.576 290.985 436.977 290.985 437.43C290.985 437.873 291.078 438.27 291.265 438.62C291.456 438.965 291.72 439.238 292.056 439.439C292.392 439.635 292.774 439.733 293.204 439.733ZM305.339 441.224C304.69 441.224 304.184 441.014 303.82 440.594C303.46 440.174 303.281 439.584 303.281 438.823V435.155H302.406V433.832H303.281V431.151H305.024V433.832H306.676V435.155H305.024V438.704C305.024 439.017 305.087 439.257 305.213 439.425C305.339 439.588 305.518 439.67 305.752 439.67C305.994 439.67 306.216 439.595 306.417 439.446L306.858 440.839C306.648 440.96 306.407 441.054 306.137 441.119C305.866 441.189 305.6 441.224 305.339 441.224ZM311.634 441.224C310.972 441.224 310.37 441.061 309.828 440.734C309.292 440.403 308.865 439.95 308.547 439.376C308.235 438.802 308.078 438.146 308.078 437.409C308.078 436.681 308.23 436.032 308.533 435.463C308.841 434.889 309.264 434.436 309.8 434.105C310.337 433.774 310.948 433.608 311.634 433.608C312.194 433.608 312.71 433.725 313.181 433.958C313.653 434.191 314.026 434.516 314.301 434.931V433.832H316.044V441H314.301V439.852C313.984 440.286 313.594 440.624 313.132 440.867C312.675 441.105 312.176 441.224 311.634 441.224ZM312.131 439.733C312.565 439.733 312.948 439.635 313.279 439.439C313.611 439.238 313.872 438.963 314.063 438.613C314.255 438.263 314.35 437.864 314.35 437.416C314.35 436.963 314.255 436.564 314.063 436.219C313.872 435.869 313.611 435.596 313.279 435.4C312.948 435.199 312.565 435.099 312.131 435.099C311.702 435.099 311.319 435.199 310.983 435.4C310.647 435.596 310.384 435.869 310.192 436.219C310.001 436.569 309.905 436.968 309.905 437.416C309.905 437.864 310.001 438.263 310.192 438.613C310.384 438.963 310.647 439.238 310.983 439.439C311.319 439.635 311.702 439.733 312.131 439.733ZM320.458 441.224C319.856 441.224 319.319 441.112 318.848 440.888C318.381 440.659 318.001 440.333 317.707 439.908L318.477 438.774C318.752 439.138 319.058 439.42 319.394 439.621C319.734 439.822 320.087 439.922 320.451 439.922C320.675 439.922 320.873 439.882 321.046 439.803C321.218 439.719 321.356 439.6 321.459 439.446C321.561 439.287 321.613 439.101 321.613 438.886C321.613 438.662 321.554 438.487 321.438 438.361C321.321 438.235 321.146 438.121 320.913 438.018C320.679 437.915 320.385 437.794 320.031 437.654C319.732 437.528 319.447 437.388 319.177 437.234C318.906 437.08 318.682 436.886 318.505 436.653C318.332 436.415 318.246 436.114 318.246 435.75C318.246 435.335 318.36 434.966 318.589 434.644C318.822 434.322 319.139 434.07 319.541 433.888C319.947 433.706 320.409 433.615 320.927 433.615C321.3 433.615 321.676 433.683 322.054 433.818C322.432 433.949 322.81 434.14 323.188 434.392L322.558 435.491C322.012 435.038 321.473 434.812 320.941 434.812C320.628 434.812 320.376 434.887 320.185 435.036C319.998 435.185 319.905 435.377 319.905 435.61C319.905 435.801 319.986 435.965 320.15 436.1C320.313 436.235 320.516 436.354 320.759 436.457C321.001 436.56 321.244 436.658 321.487 436.751C321.869 436.891 322.205 437.04 322.495 437.199C322.784 437.358 323.01 437.563 323.174 437.815C323.337 438.067 323.419 438.403 323.419 438.823C323.419 439.327 323.297 439.759 323.055 440.118C322.817 440.477 322.476 440.753 322.033 440.944C321.589 441.131 321.064 441.224 320.458 441.224ZM325.356 441V428.96H327.099V436.569L329.829 433.832H332.09L328.667 437.297L332.251 441H330.011L327.099 437.962V441H325.356Z" fill="url(#paint3_linear_564_12340)"/>
<rect x="134" y="412.5" width="299" height="45" rx="7.5" stroke="white" stroke-opacity="0.25"/>
</g>
<defs>
<filter id="filter0_d_564_12340" x="0" y="0" width="487" height="590" filterUnits="userSpaceOnUse" color-interpolation-filters="sRGB">
<feFlood flood-opacity="0" result="BackgroundImageFix"/>
<feColorMatrix in="SourceAlpha" type="matrix" values="0 0 0 0 0 0 0 0 0 0 0 0 0 0 0 0 0 0 127 0" result="hardAlpha"/>
<feMorphology radius="8" operator="erode" in="SourceAlpha" result="effect1_dropShadow_564_12340"/>
<feOffset dx="-40" dy="40"/>
<feGaussianBlur stdDeviation="40"/>
<feColorMatrix type="matrix" values="0 0 0 0 0.568627 0 0 0 0 0.619608 0 0 0 0 0.670588 0 0 0 0.24 0"/>
<feBlend mode="normal" in2="BackgroundImageFix" result="effect1_dropShadow_564_12340"/>
<feBlend mode="normal" in="SourceGraphic" in2="effect1_dropShadow_564_12340" result="shape"/>
</filter>
<linearGradient id="paint0_linear_564_12340" x1="171.5" y1="108" x2="395.5" y2="332" gradientUnits="userSpaceOnUse">
<stop stop-color="#FB923C"/>
<stop offset="1" stop-color="#F87171"/>
</linearGradient>
<linearGradient id="paint1_linear_564_12340" x1="233.5" y1="352" x2="273.5" y2="392" gradientUnits="userSpaceOnUse">
<stop stop-color="#FB923C"/>
<stop offset="1" stop-color="#F87171"/>
</linearGradient>
<linearGradient id="paint2_linear_564_12340" x1="236" y1="428.25" x2="251.397" y2="447.314" gradientUnits="userSpaceOnUse">
<stop stop-color="#FB923C"/>
<stop offset="1" stop-color="#F87171"/>
</linearGradient>
<linearGradient id="paint3_linear_564_12340" x1="267" y1="429" x2="271.165" y2="452.254" gradientUnits="userSpaceOnUse">
<stop stop-color="#FB923C"/>
<stop offset="1" stop-color="#F87171"/>
</linearGradient>
<clipPath id="clip0_564_12340">
<rect width="24" height="24" fill="white" transform="translate(301.5 360)"/>
</clipPath>
</defs>
</svg>
