<svg width="24" height="24" viewBox="0 0 24 24" fill="none" xmlns="http://www.w3.org/2000/svg">
<path d="M20.2861 4.41211H16.5361V3.66211C16.5361 3.06537 16.2991 2.49308 15.8771 2.07112C15.4552 1.64916 14.8829 1.41211 14.2861 1.41211H9.78613C9.1894 1.41211 8.6171 1.64916 8.19514 2.07112C7.77319 2.49308 7.53613 3.06537 7.53613 3.66211V4.41211H3.78613C3.58722 4.41211 3.39646 4.49113 3.2558 4.63178C3.11515 4.77243 3.03613 4.9632 3.03613 5.16211C3.03613 5.36102 3.11515 5.55179 3.2558 5.69244C3.39646 5.83309 3.58722 5.91211 3.78613 5.91211H4.53613V19.4121C4.53613 19.8099 4.69417 20.1915 4.97547 20.4728C5.25678 20.7541 5.63831 20.9121 6.03613 20.9121H18.0361C18.434 20.9121 18.8155 20.7541 19.0968 20.4728C19.3781 20.1915 19.5361 19.8099 19.5361 19.4121V5.91211H20.2861C20.485 5.91211 20.6758 5.83309 20.8165 5.69244C20.9571 5.55179 21.0361 5.36102 21.0361 5.16211C21.0361 4.9632 20.9571 4.77243 20.8165 4.63178C20.6758 4.49113 20.485 4.41211 20.2861 4.41211ZM9.03613 3.66211C9.03613 3.4632 9.11515 3.27243 9.2558 3.13178C9.39646 2.99113 9.58722 2.91211 9.78613 2.91211H14.2861C14.485 2.91211 14.6758 2.99113 14.8165 3.13178C14.9571 3.27243 15.0361 3.4632 15.0361 3.66211V4.41211H9.03613V3.66211ZM18.0361 19.4121H6.03613V5.91211H18.0361V19.4121ZM10.5361 9.66211V15.6621C10.5361 15.861 10.4571 16.0518 10.3165 16.1924C10.1758 16.3331 9.98504 16.4121 9.78613 16.4121C9.58722 16.4121 9.39646 16.3331 9.2558 16.1924C9.11515 16.0518 9.03613 15.861 9.03613 15.6621V9.66211C9.03613 9.4632 9.11515 9.27243 9.2558 9.13178C9.39646 8.99113 9.58722 8.91211 9.78613 8.91211C9.98504 8.91211 10.1758 8.99113 10.3165 9.13178C10.4571 9.27243 10.5361 9.4632 10.5361 9.66211ZM15.0361 9.66211V15.6621C15.0361 15.861 14.9571 16.0518 14.8165 16.1924C14.6758 16.3331 14.485 16.4121 14.2861 16.4121C14.0872 16.4121 13.8965 16.3331 13.7558 16.1924C13.6151 16.0518 13.5361 15.861 13.5361 15.6621V9.66211C13.5361 9.4632 13.6151 9.27243 13.7558 9.13178C13.8965 8.99113 14.0872 8.91211 14.2861 8.91211C14.485 8.91211 14.6758 8.99113 14.8165 9.13178C14.9571 9.27243 15.0361 9.4632 15.0361 9.66211Z" fill="white" fill-opacity="0.5"/>
</svg>
