<svg width="41" height="40" viewBox="0 0 41 40" fill="none" xmlns="http://www.w3.org/2000/svg">
<rect x="0.5" width="40" height="40" rx="8" fill="url(#paint0_linear_231_1169)" fill-opacity="0.2"/>
<path d="M28.75 12.5V27.5C28.75 27.8978 28.592 28.2794 28.3107 28.5607C28.0294 28.842 27.6478 29 27.25 29H23.5C23.1022 29 22.7206 28.842 22.4393 28.5607C22.158 28.2794 22 27.8978 22 27.5V12.5C22 12.1022 22.158 11.7206 22.4393 11.4393C22.7206 11.158 23.1022 11 23.5 11H27.25C27.6478 11 28.0294 11.158 28.3107 11.4393C28.592 11.7206 28.75 12.1022 28.75 12.5ZM17.5 11H13.75C13.3522 11 12.9706 11.158 12.6893 11.4393C12.408 11.7206 12.25 12.1022 12.25 12.5V27.5C12.25 27.8978 12.408 28.2794 12.6893 28.5607C12.9706 28.842 13.3522 29 13.75 29H17.5C17.8978 29 18.2794 28.842 18.5607 28.5607C18.842 28.2794 19 27.8978 19 27.5V12.5C19 12.1022 18.842 11.7206 18.5607 11.4393C18.2794 11.158 17.8978 11 17.5 11Z" fill="white"/>
<defs>
<linearGradient id="paint0_linear_231_1169" x1="0.5" y1="0" x2="40.5" y2="40" gradientUnits="userSpaceOnUse">
<stop stop-color="#FB923C"/>
<stop offset="1" stop-color="#F87171"/>
</linearGradient>
</defs>
</svg>
