<svg width="41" height="40" viewBox="0 0 41 40" fill="none" xmlns="http://www.w3.org/2000/svg">
<rect x="0.5" width="40" height="40" rx="8" fill="url(#paint0_linear_106_815)" fill-opacity="0.2"/>
<path d="M28.75 20C28.7506 20.2546 28.6853 20.5051 28.5605 20.727C28.4356 20.949 28.2555 21.1348 28.0375 21.2665L14.53 29.5297C14.3023 29.6691 14.0414 29.7452 13.7744 29.7502C13.5075 29.7551 13.244 29.6887 13.0113 29.5578C12.7807 29.4289 12.5887 29.2409 12.4549 29.0132C12.3211 28.7855 12.2504 28.5263 12.25 28.2622V11.7378C12.2504 11.4737 12.3211 11.2144 12.4549 10.9867C12.5887 10.759 12.7807 10.5711 13.0113 10.4422C13.244 10.3112 13.5075 10.2448 13.7744 10.2498C14.0414 10.2547 14.3023 10.3308 14.53 10.4703L28.0375 18.7334C28.2555 18.8651 28.4356 19.051 28.5605 19.2729C28.6853 19.4949 28.7506 19.7453 28.75 20Z" fill="white"/>
<defs>
<linearGradient id="paint0_linear_106_815" x1="0.5" y1="0" x2="40.5" y2="40" gradientUnits="userSpaceOnUse">
<stop stop-color="#FB923C"/>
<stop offset="1" stop-color="#F87171"/>
</linearGradient>
</defs>
</svg>
