<svg width="36" height="36" viewBox="0 0 36 36" fill="none" xmlns="http://www.w3.org/2000/svg">
<path d="M27.9198 16.3934C27.899 16.2878 27.8556 16.188 27.7926 16.1006C27.7297 16.0132 27.6487 15.9405 27.5552 15.8872L24.7586 14.2934L24.7473 11.1416C24.747 11.033 24.7231 10.9258 24.6773 10.8274C24.6315 10.729 24.5649 10.6417 24.482 10.5716C23.4676 9.71348 22.2994 9.05589 21.0395 8.63376C20.9403 8.60018 20.8352 8.58775 20.7309 8.59728C20.6266 8.60681 20.5254 8.63808 20.4339 8.68907L17.613 10.2659L14.7892 8.68626C14.6977 8.63498 14.5964 8.60347 14.4919 8.59378C14.3874 8.58409 14.2821 8.59643 14.1827 8.63001C12.9236 9.05485 11.7566 9.71498 10.7439 10.5753C10.6612 10.6454 10.5946 10.7325 10.5488 10.8308C10.503 10.929 10.4791 11.036 10.4786 11.1444L10.4645 14.2991L7.66797 15.8928C7.57441 15.9461 7.49341 16.0189 7.43049 16.1062C7.36756 16.1936 7.32417 16.2935 7.30328 16.3991C7.04734 17.6852 7.04734 19.0092 7.30328 20.2953C7.32417 20.4009 7.36756 20.5008 7.43049 20.5882C7.49341 20.6755 7.57441 20.7483 7.66797 20.8016L10.4645 22.3953L10.4758 25.5481C10.4761 25.6567 10.5 25.7639 10.5458 25.8623C10.5916 25.9607 10.6583 26.048 10.7411 26.1181C11.7555 26.9762 12.9237 27.6338 14.1836 28.0559C14.2828 28.0895 14.388 28.102 14.4923 28.0924C14.5966 28.0829 14.6977 28.0516 14.7892 28.0006L17.613 26.4191L20.4367 27.9988C20.5485 28.061 20.6744 28.0933 20.8023 28.0925C20.8843 28.0925 20.9656 28.0792 21.0433 28.0531C22.3021 27.6285 23.4689 26.969 24.482 26.1097C24.5648 26.0397 24.6313 25.9525 24.6771 25.8543C24.7229 25.756 24.7469 25.649 24.7473 25.5406L24.7614 22.3859L27.558 20.7922C27.6515 20.7389 27.7325 20.6662 27.7955 20.5788C27.8584 20.4914 27.9018 20.3916 27.9227 20.2859C28.1772 19.0008 28.1762 17.6782 27.9198 16.3934ZM17.613 22.0925C16.8713 22.0925 16.1463 21.8726 15.5296 21.4605C14.9129 21.0485 14.4323 20.4628 14.1484 19.7776C13.8646 19.0924 13.7903 18.3384 13.935 17.6109C14.0797 16.8835 14.4369 16.2153 14.9613 15.6909C15.4858 15.1664 16.154 14.8093 16.8814 14.6646C17.6088 14.5199 18.3628 14.5941 19.048 14.878C19.7333 15.1618 20.3189 15.6424 20.731 16.2591C21.143 16.8758 21.363 17.6008 21.363 18.3425C21.363 19.3371 20.9679 20.2909 20.2646 20.9942C19.5614 21.6974 18.6075 22.0925 17.613 22.0925Z" fill="white"/>
</svg>
