<svg width="48" height="48" viewBox="0 0 48 48" fill="none" xmlns="http://www.w3.org/2000/svg">
<rect width="48" height="48" rx="24" fill="url(#paint0_linear_4_620)"/>
<path d="M23.25 19.5C23.25 20.2417 23.0301 20.9667 22.618 21.5834C22.206 22.2001 21.6203 22.6807 20.9351 22.9646C20.2498 23.2484 19.4958 23.3226 18.7684 23.1779C18.041 23.0333 17.3728 22.6761 16.8484 22.1517C16.3239 21.6272 15.9668 20.959 15.8221 20.2316C15.6774 19.5042 15.7516 18.7502 16.0355 18.0649C16.3193 17.3797 16.7999 16.794 17.4166 16.382C18.0333 15.9699 18.7583 15.75 19.5 15.75C20.4946 15.75 21.4484 16.1451 22.1517 16.8484C22.8549 17.5516 23.25 18.5054 23.25 19.5ZM28.5 23.25C29.2417 23.25 29.9667 23.0301 30.5834 22.618C31.2001 22.206 31.6807 21.6203 31.9646 20.9351C32.2484 20.2498 32.3226 19.4958 32.1779 18.7684C32.0333 18.041 31.6761 17.3728 31.1517 16.8484C30.6272 16.3239 29.959 15.9668 29.2316 15.8221C28.5042 15.6774 27.7502 15.7516 27.0649 16.0355C26.3797 16.3193 25.794 16.7999 25.382 17.4166C24.9699 18.0333 24.75 18.7583 24.75 19.5C24.75 20.4946 25.1451 21.4484 25.8484 22.1517C26.5516 22.8549 27.5054 23.25 28.5 23.25ZM19.5 24.75C18.7583 24.75 18.0333 24.9699 17.4166 25.382C16.7999 25.794 16.3193 26.3797 16.0355 27.0649C15.7516 27.7502 15.6774 28.5042 15.8221 29.2316C15.9668 29.959 16.3239 30.6272 16.8484 31.1517C17.3728 31.6761 18.041 32.0333 18.7684 32.1779C19.4958 32.3226 20.2498 32.2484 20.9351 31.9646C21.6203 31.6807 22.206 31.2001 22.618 30.5834C23.0301 29.9667 23.25 29.2417 23.25 28.5C23.25 27.5054 22.8549 26.5516 22.1517 25.8484C21.4484 25.1451 20.4946 24.75 19.5 24.75ZM28.5 24.75C27.7583 24.75 27.0333 24.9699 26.4166 25.382C25.7999 25.794 25.3193 26.3797 25.0355 27.0649C24.7516 27.7502 24.6774 28.5042 24.8221 29.2316C24.9668 29.959 25.3239 30.6272 25.8484 31.1517C26.3728 31.6761 27.041 32.0333 27.7684 32.1779C28.4958 32.3226 29.2498 32.2484 29.9351 31.9646C30.6203 31.6807 31.206 31.2001 31.618 30.5834C32.0301 29.9667 32.25 29.2417 32.25 28.5C32.25 27.5054 31.8549 26.5516 31.1517 25.8484C30.4484 25.1451 29.4946 24.75 28.5 24.75Z" fill="white"/>
<defs>
<linearGradient id="paint0_linear_4_620" x1="0" y1="0" x2="48" y2="48" gradientUnits="userSpaceOnUse">
<stop stop-color="#FB923C"/>
<stop offset="1" stop-color="#F87171"/>
</linearGradient>
</defs>
</svg>
