<svg width="48" height="48" viewBox="0 0 48 48" fill="none" xmlns="http://www.w3.org/2000/svg">
<rect width="48" height="48" rx="24" fill="white"/>
<path d="M31.7656 30.6336C31.8399 30.708 31.8988 30.7962 31.9391 30.8933C31.9793 30.9904 32 31.0945 32 31.1996C32 31.3047 31.9793 31.4088 31.9391 31.5059C31.8988 31.603 31.8399 31.6912 31.7656 31.7656C31.6912 31.8399 31.603 31.8988 31.5059 31.9391C31.4088 31.9793 31.3047 32 31.1996 32C31.0945 32 30.9904 31.9793 30.8933 31.9391C30.7962 31.8988 30.708 31.8399 30.6336 31.7656L24 25.1309L17.3664 31.7656C17.2163 31.9157 17.0127 32 16.8004 32C16.5881 32 16.3845 31.9157 16.2344 31.7656C16.0843 31.6155 16 31.4119 16 31.1996C16 30.9873 16.0843 30.7837 16.2344 30.6336L22.8691 24L16.2344 17.3664C16.0843 17.2163 16 17.0127 16 16.8004C16 16.5881 16.0843 16.3845 16.2344 16.2344C16.3845 16.0843 16.5881 16 16.8004 16C17.0127 16 17.2163 16.0843 17.3664 16.2344L24 22.8691L30.6336 16.2344C30.7837 16.0843 30.9873 16 31.1996 16C31.4119 16 31.6155 16.0843 31.7656 16.2344C31.9157 16.3845 32 16.5881 32 16.8004C32 17.0127 31.9157 17.2163 31.7656 17.3664L25.1309 24L31.7656 30.6336Z" fill="#231526" stroke="#231526" stroke-width="0.5"/>
</svg>
