<svg width="24" height="24" viewBox="0 0 24 24" fill="none" xmlns="http://www.w3.org/2000/svg">
<rect width="24" height="24" rx="12" fill="#B34536" fill-opacity="0.16"/>
<path d="M18 14.9167C18.0063 14.9573 18.0063 14.9985 18 15.0392C17.9942 15.0734 17.9829 15.1068 17.9666 15.1383C17.949 15.1668 17.9289 15.1941 17.9066 15.22C17.8813 15.2569 17.8498 15.2903 17.8133 15.3192L17.7333 15.36C17.6948 15.3851 17.6521 15.4048 17.6066 15.4183H17.4733C17.4327 15.4528 17.3852 15.4804 17.3333 15.5H14C13.6318 15.5 13.3333 15.2388 13.3333 14.9167C13.3333 14.5945 13.6318 14.3333 14 14.3333H15.8866L13.22 11.5858L10.34 13.085C10.0581 13.2317 9.6963 13.1772 9.48662 12.9567L6.15329 9.45667C6.03992 9.33762 5.98534 9.18399 6.0016 9.02968C6.01786 8.87538 6.10362 8.73307 6.23995 8.63417C6.3599 8.5472 6.51085 8.49973 6.66662 8.5C6.86491 8.49972 7.05305 8.57668 7.17995 8.71L10.1466 11.825L12.9933 10.3317C13.272 10.187 13.6293 10.2387 13.84 10.4542L16.6666 13.3417V12C16.6666 11.6778 16.9651 11.4167 17.3333 11.4167C17.7015 11.4167 18 11.6778 18 12V14.9167Z" fill="#E95527"/>
</svg>
