<svg width="18" height="18" viewBox="0 0 18 18" fill="none" xmlns="http://www.w3.org/2000/svg">
<path d="M16.5001 4.00001H12.3334V2.60834C12.3139 2.07486 12.0836 1.57089 11.6931 1.20692C11.3025 0.842948 10.7836 0.64867 10.2501 0.666676H7.75008C7.21654 0.64867 6.69763 0.842948 6.30711 1.20692C5.91658 1.57089 5.6863 2.07486 5.66675 2.60834V4.00001H1.50008C1.27907 4.00001 1.06711 4.08781 0.910826 4.24409C0.754545 4.40037 0.666748 4.61233 0.666748 4.83334C0.666748 5.05436 0.754545 5.26632 0.910826 5.4226C1.06711 5.57888 1.27907 5.66668 1.50008 5.66668H2.33341V14.8333C2.33341 15.4964 2.59681 16.1323 3.06565 16.6011C3.53449 17.07 4.17037 17.3333 4.83341 17.3333H13.1667C13.8298 17.3333 14.4657 17.07 14.9345 16.6011C15.4034 16.1323 15.6667 15.4964 15.6667 14.8333V5.66668H16.5001C16.7211 5.66668 16.9331 5.57888 17.0893 5.4226C17.2456 5.26632 17.3334 5.05436 17.3334 4.83334C17.3334 4.61233 17.2456 4.40037 17.0893 4.24409C16.9331 4.08781 16.7211 4.00001 16.5001 4.00001ZM7.33342 2.60834C7.33342 2.47501 7.50842 2.33334 7.75008 2.33334H10.2501C10.4917 2.33334 10.6667 2.47501 10.6667 2.60834V4.00001H7.33342V2.60834ZM14.0001 14.8333C14.0001 15.0544 13.9123 15.2663 13.756 15.4226C13.5997 15.5789 13.3878 15.6667 13.1667 15.6667H4.83341C4.6124 15.6667 4.40044 15.5789 4.24416 15.4226C4.08788 15.2663 4.00008 15.0544 4.00008 14.8333V5.66668H14.0001V14.8333Z" fill="#231526"/>
<path d="M6.50008 13.1667C6.7211 13.1667 6.93306 13.0789 7.08934 12.9226C7.24562 12.7663 7.33342 12.5544 7.33342 12.3333V9.00001C7.33342 8.779 7.24562 8.56703 7.08934 8.41075C6.93306 8.25447 6.7211 8.16668 6.50008 8.16668C6.27907 8.16668 6.06711 8.25447 5.91083 8.41075C5.75455 8.56703 5.66675 8.779 5.66675 9.00001V12.3333C5.66675 12.5544 5.75455 12.7663 5.91083 12.9226C6.06711 13.0789 6.27907 13.1667 6.50008 13.1667Z" fill="#231526"/>
<path d="M11.5001 13.1667C11.7211 13.1667 11.9331 13.0789 12.0893 12.9226C12.2456 12.7663 12.3334 12.5544 12.3334 12.3333V9.00001C12.3334 8.779 12.2456 8.56703 12.0893 8.41075C11.9331 8.25447 11.7211 8.16668 11.5001 8.16668C11.2791 8.16668 11.0671 8.25447 10.9108 8.41075C10.7545 8.56703 10.6667 8.779 10.6667 9.00001V12.3333C10.6667 12.5544 10.7545 12.7663 10.9108 12.9226C11.0671 13.0789 11.2791 13.1667 11.5001 13.1667Z" fill="#231526"/>
</svg>
