<svg width="34" height="29" viewBox="0 0 34 29" fill="none" xmlns="http://www.w3.org/2000/svg">
<path d="M33.5002 14C33.5002 13.8166 33.4002 13.6333 33.3502 13.45C33.273 13.1265 33.1728 12.8091 33.0502 12.5C32.9668 12.3 32.8502 12.1 32.7502 11.8833C32.6502 11.6666 32.5002 11.3833 32.3502 11.15C32.2002 10.9166 32.0002 10.8 32.0002 10.6666C32.0002 10.5333 31.6668 10.25 31.4835 10.05C31.3002 9.84997 31.1335 9.71663 30.9502 9.54997L30.3335 8.99997L29.7335 8.59997C29.498 8.45583 29.253 8.32776 29.0002 8.21663L28.3502 7.91663C28.0779 7.81581 27.7996 7.73231 27.5168 7.66663C27.2928 7.60074 27.0645 7.55062 26.8335 7.51663L26.4502 7.3333C25.7701 5.36839 24.4945 3.66433 22.8007 2.45824C21.107 1.25214 19.0794 0.604004 17.0002 0.604004C14.9209 0.604004 12.8933 1.25214 11.1996 2.45824C9.50588 3.66433 8.23023 5.36839 7.55016 7.3333L7.25016 7.41663C7.01916 7.45062 6.79083 7.50074 6.56683 7.56663C6.28406 7.63231 6.00572 7.71581 5.7335 7.81663L5.0835 8.11663C4.8307 8.22776 4.5857 8.35583 4.35016 8.49997L3.75016 8.99997L3.1335 9.51663C2.95016 9.6833 2.76683 9.8333 2.60016 10.0166C2.4335 10.2 2.25016 10.4333 2.0835 10.6333C1.91683 10.8333 1.7835 11.0166 1.65016 11.2333C1.51683 11.45 1.3835 11.7166 1.25016 11.9666C1.11683 12.2166 1.0335 12.3833 0.950163 12.5833C0.827566 12.8924 0.727309 13.2099 0.650163 13.5333C0.650163 13.7166 0.533496 13.9 0.500163 14.0833C0.396424 14.6049 0.340636 15.1349 0.333496 15.6666C0.341309 16.1755 0.391483 16.6828 0.483496 17.1833C0.483496 17.35 0.56683 17.5 0.600163 17.6666C0.682542 17.9941 0.78269 18.3168 0.900163 18.6333L1.10016 19.1166C1.24688 19.438 1.41388 19.7498 1.60016 20.05L1.8335 20.4166C1.85747 20.4633 1.88535 20.5079 1.91683 20.55L2.00016 20.6666C2.77639 21.7016 3.78292 22.5416 4.94005 23.1202C6.09718 23.6988 7.37312 24 8.66683 24H13.6668V21.7166C13.1604 22.0104 12.5856 22.1656 12.0002 22.1666C11.0973 22.1582 10.2344 21.7927 9.60016 21.15C9.29565 20.8349 9.05623 20.463 8.89559 20.0554C8.73495 19.6477 8.65625 19.2124 8.66399 18.7744C8.67173 18.3363 8.76576 17.904 8.9407 17.5023C9.11563 17.1006 9.36805 16.7374 9.6835 16.4333L14.6835 11.6C15.3056 11.0004 16.1362 10.6657 17.0002 10.6666C17.8828 10.6704 18.7279 11.024 19.3502 11.65L24.3502 16.65C24.971 17.2745 25.3195 18.1193 25.3195 19C25.3195 19.8806 24.971 20.7254 24.3502 21.35C23.7279 21.9759 22.8828 22.3296 22.0002 22.3333C21.4139 22.3388 20.8373 22.1832 20.3335 21.8833V24H25.3335C26.6272 24 27.9032 23.6988 29.0603 23.1202C30.2174 22.5416 31.2239 21.7016 32.0002 20.6666L32.0835 20.5833C32.115 20.5413 32.1429 20.4967 32.1668 20.45L32.4002 20.0833C32.5865 19.7831 32.7535 19.4714 32.9002 19.15L33.1002 18.6666C33.2176 18.3501 33.3178 18.0274 33.4002 17.7C33.4002 17.5333 33.4835 17.3833 33.5168 17.2166C33.6107 16.7052 33.6609 16.1866 33.6668 15.6666C33.6649 15.107 33.6091 14.5489 33.5002 14Z" fill="#919EAB"/>
<path d="M18.1835 12.8166C17.872 12.5113 17.4531 12.3402 17.0168 12.3402C16.5806 12.3402 16.1617 12.5113 15.8502 12.8166L10.8502 17.65C10.6733 17.7959 10.5285 17.9767 10.4247 18.1812C10.3209 18.3857 10.2605 18.6093 10.2471 18.8382C10.2337 19.0671 10.2677 19.2963 10.3469 19.5115C10.4262 19.7266 10.549 19.9231 10.7076 20.0887C10.8663 20.2542 11.0573 20.3852 11.2689 20.4736C11.4805 20.5619 11.7081 20.6056 11.9373 20.6019C12.1666 20.5983 12.3926 20.5474 12.6013 20.4524C12.81 20.3575 12.9968 20.2204 13.1502 20.05L15.3335 17.9333V27.3333C15.3335 27.7753 15.5091 28.1993 15.8217 28.5118C16.1342 28.8244 16.5581 29 17.0002 29C17.4422 29 17.8661 28.8244 18.1787 28.5118C18.4912 28.1993 18.6668 27.7753 18.6668 27.3333V18.0166L20.8168 20.1833C20.9718 20.3395 21.1561 20.4635 21.3592 20.5481C21.5623 20.6327 21.7801 20.6763 22.0002 20.6763C22.2202 20.6763 22.438 20.6327 22.6411 20.5481C22.8442 20.4635 23.0286 20.3395 23.1835 20.1833C23.3397 20.0284 23.4637 19.844 23.5483 19.6409C23.6329 19.4378 23.6765 19.22 23.6765 19C23.6765 18.7799 23.6329 18.5621 23.5483 18.359C23.4637 18.1559 23.3397 17.9716 23.1835 17.8166L18.1835 12.8166Z" fill="#919EAB"/>
</svg>
