<svg width="1967" height="1095" viewBox="0 0 1967 1095" fill="none" xmlns="http://www.w3.org/2000/svg">
<g filter="url(#filter0_d_620_12501)">
<rect x="5.5" y="1.5" width="1956" height="1084" rx="13.0385" stroke="white" stroke-opacity="0.3" stroke-width="3"/>
<path d="M7 14.5385C7 8.16595 12.1659 3 18.5385 3H1948.46C1954.83 3 1960 8.16595 1960 14.5385V54.2349H7V14.5385Z" fill="#202123"/>
<path d="M1775.19 20.2119L1780.88 15.1685L1786.57 20.2119" stroke="white" stroke-width="1.5" stroke-linecap="round" stroke-linejoin="round"/>
<path d="M1780.88 28.6176V15.1685" stroke="white" stroke-width="1.5" stroke-linecap="round" stroke-linejoin="round"/>
<path d="M1787.38 24.7749H1790.63C1790.92 24.7749 1791.19 24.8761 1791.4 25.0563C1791.6 25.2364 1791.71 25.4808 1791.71 25.7356V38.2241C1791.71 38.4788 1791.6 38.7232 1791.4 38.9033C1791.19 39.0835 1790.92 39.1847 1790.63 39.1847H1771.13C1770.84 39.1847 1770.57 39.0835 1770.36 38.9033C1770.16 38.7232 1770.05 38.4788 1770.05 38.2241V25.7356C1770.05 25.4808 1770.16 25.2364 1770.36 25.0563C1770.57 24.8761 1770.84 24.7749 1771.13 24.7749H1774.38" stroke="white" stroke-width="1.5" stroke-linecap="round" stroke-linejoin="round"/>
<path d="M1826.74 28.6177H1850.58" stroke="white" stroke-width="1.5" stroke-linecap="round" stroke-linejoin="round"/>
<path d="M1838.66 18.0503V39.1847" stroke="white" stroke-width="1.5" stroke-linecap="round" stroke-linejoin="round"/>
<path d="M1901.86 33.4208H1908.36V18.0503H1891.02V23.8142" stroke="white" stroke-width="1.5" stroke-linecap="round" stroke-linejoin="round"/>
<path d="M1901.86 23.8145H1884.52V39.1849H1901.86V23.8145Z" stroke="white" stroke-width="1.5" stroke-linecap="round" stroke-linejoin="round"/>
<path d="M215.012 37.1569L205.382 28.6178L215.012 20.0786" stroke="white" stroke-width="1.5" stroke-linecap="round" stroke-linejoin="round"/>
<g opacity="0.5">
<path d="M249.681 20.0786L259.311 28.6178L249.681 37.1569" stroke="white" stroke-width="1.5" stroke-linecap="round" stroke-linejoin="round"/>
</g>
<path d="M169.449 18.5308H148.865C148.266 18.5308 147.781 18.9609 147.781 19.4914V37.7438C147.781 38.2744 148.266 38.7045 148.865 38.7045H169.449C170.047 38.7045 170.533 38.2744 170.533 37.7438V19.4914C170.533 18.9609 170.047 18.5308 169.449 18.5308Z" stroke="white" stroke-width="1.5" stroke-linecap="round" stroke-linejoin="round"/>
<path d="M156.99 18.5308V38.7045" stroke="white" stroke-width="1.5" stroke-linecap="round" stroke-linejoin="round"/>
<path d="M156.99 23.8145H148.323" stroke="white" stroke-width="1.5" stroke-linecap="round" stroke-linejoin="round"/>
<ellipse cx="43.595" cy="28.6178" rx="9.63018" ry="8.53915" fill="#ED6A5E"/>
<ellipse cx="72.4856" cy="28.6178" rx="9.63018" ry="8.53915" fill="#EEC545"/>
<ellipse cx="101.376" cy="28.6178" rx="9.63018" ry="8.53915" fill="#64D171"/>
<path d="M665.705 40.1455C672.885 40.1455 678.706 34.9844 678.706 28.6177C678.706 22.251 672.885 17.0898 665.705 17.0898C658.525 17.0898 652.704 22.251 652.704 28.6177C652.704 34.9844 658.525 40.1455 665.705 40.1455Z" stroke="white" stroke-width="1.15385" stroke-linecap="round" stroke-linejoin="round"/>
<path d="M665.704 32.9403C668.397 32.9403 670.58 31.0049 670.58 28.6174C670.58 26.2299 668.397 24.2944 665.704 24.2944C663.012 24.2944 660.829 26.2299 660.829 28.6174C660.829 31.0049 663.012 32.9403 665.704 32.9403Z" stroke="white" stroke-width="1.15385" stroke-linecap="round" stroke-linejoin="round"/>
<path d="M665.705 24.2944H677.758" stroke="white" stroke-width="1.15385" stroke-linecap="round" stroke-linejoin="round"/>
<path d="M661.48 30.7788L655.454 21.5205" stroke="white" stroke-width="1.15385" stroke-linecap="round" stroke-linejoin="round"/>
<path d="M669.929 30.7788L663.902 40.0371" stroke="white" stroke-width="1.15385" stroke-linecap="round" stroke-linejoin="round"/>
<rect opacity="0.06" x="710.003" y="13.2471" width="546.994" height="30.7409" rx="4.61538" fill="white"/>
<path d="M1242.09 26.3519H1246.43V22.5093" stroke="white" stroke-width="1.5" stroke-linecap="round" stroke-linejoin="round"/>
<path d="M1243.35 33.5969C1242.24 34.5828 1240.82 35.2543 1239.28 35.5266C1237.74 35.7989 1236.14 35.6597 1234.69 35.1267C1233.24 34.5936 1232 33.6907 1231.12 32.532C1230.25 31.3734 1229.78 30.0111 1229.78 28.6176C1229.78 27.224 1230.25 25.8617 1231.12 24.7031C1232 23.5444 1233.24 22.6415 1234.69 22.1085C1236.14 21.5754 1237.74 21.4363 1239.28 21.7085C1240.82 21.9808 1242.24 22.6524 1243.35 23.6382L1246.42 26.352" stroke="white" stroke-width="1.5" stroke-linecap="round" stroke-linejoin="round"/>
</g>
<defs>
<filter id="filter0_d_620_12501" x="0" y="0" width="1967" height="1095" filterUnits="userSpaceOnUse" color-interpolation-filters="sRGB">
<feFlood flood-opacity="0" result="BackgroundImageFix"/>
<feColorMatrix in="SourceAlpha" type="matrix" values="0 0 0 0 0 0 0 0 0 0 0 0 0 0 0 0 0 0 127 0" result="hardAlpha"/>
<feOffset dy="4"/>
<feGaussianBlur stdDeviation="2"/>
<feComposite in2="hardAlpha" operator="out"/>
<feColorMatrix type="matrix" values="0 0 0 0 0 0 0 0 0 0 0 0 0 0 0 0 0 0 0.25 0"/>
<feBlend mode="normal" in2="BackgroundImageFix" result="effect1_dropShadow_620_12501"/>
<feBlend mode="normal" in="SourceGraphic" in2="effect1_dropShadow_620_12501" result="shape"/>
</filter>
</defs>
</svg>
