<svg width="40" height="40" viewBox="0 0 40 40" fill="none" xmlns="http://www.w3.org/2000/svg">
<path d="M4.30005 14.4498C5.33338 11.5165 7.16674 8.96647 9.53341 7.0498" stroke="#F98754" stroke-width="1.5" stroke-linecap="round" stroke-linejoin="round"/>
<path d="M3.33337 20C3.33337 21.95 3.68335 23.8167 4.30002 25.55" stroke="#F98754" stroke-width="1.5" stroke-linecap="round" stroke-linejoin="round"/>
<path d="M15.15 35.95C16.6834 36.4167 18.3167 36.6667 20 36.6667C29.2 36.6667 36.6667 29.2 36.6667 20C36.6667 19 36.5667 18.0167 36.4 17.0667" stroke="#F98754" stroke-width="1.5" stroke-linecap="round" stroke-linejoin="round"/>
<path d="M9.53339 32.9167C8.75005 32.2833 8.00004 31.5833 7.33337 30.8167" stroke="#F98754" stroke-width="1.5" stroke-linecap="round" stroke-linejoin="round"/>
<path d="M33.7333 10.5666C30.7333 6.19996 25.7 3.33325 20 3.33325C18.3167 3.33325 16.6834 3.58324 15.15 4.04991" stroke="#F98754" stroke-width="1.5" stroke-linecap="round" stroke-linejoin="round"/>
<path d="M14.3166 28.5165C15.7802 28.5165 16.9666 27.3302 16.9666 25.8666C16.9666 24.403 15.7802 23.2166 14.3166 23.2166C12.8531 23.2166 11.6666 24.403 11.6666 25.8666C11.6666 27.3302 12.8531 28.5165 14.3166 28.5165Z" stroke="#F98754" stroke-opacity="0.61" stroke-width="1.5" stroke-linecap="round" stroke-linejoin="round"/>
<path d="M26.6666 24.1V13.7499C26.6666 11.5499 25.2832 11.2332 23.8832 11.6165L18.5833 13.0666C17.6166 13.3333 16.95 14.0833 16.95 15.1999V17.0499V18.2832V25.8666" stroke="#F98754" stroke-opacity="0.61" stroke-width="1.5" stroke-linecap="round" stroke-linejoin="round"/>
<path d="M24.0166 26.7499C25.4801 26.7499 26.6666 25.5636 26.6666 24.1C26.6666 22.6364 25.4801 21.45 24.0166 21.45C22.553 21.45 21.3666 22.6364 21.3666 24.1C21.3666 25.5636 22.553 26.7499 24.0166 26.7499Z" stroke="#F98754" stroke-opacity="0.61" stroke-width="1.5" stroke-linecap="round" stroke-linejoin="round"/>
<path d="M16.9666 17.9332L26.6666 15.2832" stroke="#F98754" stroke-opacity="0.61" stroke-width="1.5" stroke-linecap="round" stroke-linejoin="round"/>
</svg>
