<svg width="41" height="40" viewBox="0 0 41 40" fill="none" xmlns="http://www.w3.org/2000/svg">
<path d="M15.4999 36.25H25.4999C33.8333 36.25 37.1666 33 37.1666 24.875V15.125C37.1666 7 33.8333 3.75 25.4999 3.75H15.4999C7.16659 3.75 3.83325 7 3.83325 15.125V24.875C3.83325 33 7.16659 36.25 15.4999 36.25Z" stroke="#FB923C" stroke-width="1.5" stroke-linecap="round" stroke-linejoin="round"/>
<path d="M15.6667 20V17.595C15.6667 14.4913 17.9167 13.24 20.6667 14.7838L22.8001 15.9862L24.9334 17.1888C27.6834 18.7325 27.6834 21.2675 24.9334 22.8112L22.8001 24.0138L20.6667 25.2162C17.9167 26.76 15.6667 25.4925 15.6667 22.405V20Z" stroke="#FB923C" stroke-opacity="0.51" stroke-width="1.5" stroke-miterlimit="10" stroke-linecap="round" stroke-linejoin="round"/>
</svg>
